<svg width="109" height="92" viewBox="0 0 109 92" fill="none" xmlns="http://www.w3.org/2000/svg">
<path d="M0.507645 88.4269H39.4014L31.6487 41.6367H2.56237L0.507645 88.4269Z" fill="#DBDBDB"/>
<path d="M0.507645 88.4269H3.9195L5.83153 41.6367H2.56237L0.507645 88.4269Z" fill="#A6A6A6"/>
<path d="M34.3027 50.8083C38.7039 61.0037 49.3389 77.9247 54.0984 73.7314C61.217 67.4629 66.0367 53.5972 67.9392 47.9898C69.0078 44.849 53.5815 39.5934 52.6366 42.4448C51.2922 46.4967 49.1836 54.9654 47.9628 56.1658C47.3286 56.794 42.2743 49.4369 38.4502 45.9474C32.9297 40.9188 32.898 47.5524 34.3027 50.8083Z" fill="#FFC4C0"/>
<path d="M71.7918 43.2705C70.4188 46.4738 65.133 51.8905 63.3763 52.6897C61.6197 53.4889 52.3417 44.7965 52.5352 42.7508C52.7286 40.7052 58.2649 29.9902 61.3311 28.3458C64.3974 26.7013 73.2155 39.9487 71.7918 43.2705Z" fill="#FFC4C0"/>
<path d="M53.2613 40.5022C53.2613 40.5022 53.4833 35.9439 52.3735 32.0894C51.4412 28.8499 49.7068 24.1502 51.3651 23.5648C54.777 22.3644 59.1021 34.089 59.1021 34.089C59.1021 34.089 60.2119 39.5814 56.9364 41.0811C54.8816 42.0217 53.2613 40.5022 53.2613 40.5022Z" fill="#FFC4C0"/>
<path d="M57.1076 31.8545C57.3295 33.6996 59.2986 32.3709 59.2986 32.3709C59.2986 32.3709 56.911 35.002 57.8495 36.8009C58.7627 38.5407 61.0838 36.847 61.2519 36.7286C61.125 36.87 58.9942 39.3366 60.1199 41.0534C61.2899 42.8359 63.3383 40.7245 63.4715 40.5864C63.3922 40.7541 62.3966 43.0267 63.5381 44.1317C65.4977 46.0228 68.1992 40.2871 70.2793 39.6458C70.2793 39.6458 71.7316 43.1747 71.7918 43.2635C71.7918 43.2635 74.4712 37.8567 73.4819 34.9954C73.3432 34.5774 73.0713 34.2209 72.711 33.9847C72.3508 33.7485 71.9236 33.6468 71.5001 33.6963C71.5001 33.6963 72.5497 32.0519 71.7062 30.6706C71.2686 29.9635 69.8037 30.0556 69.8037 30.0556C69.8037 30.0556 70.5901 28.7038 69.7656 27.5264C69.1093 26.5826 67.73 26.8226 67.73 26.8226C67.73 26.8226 67.9043 25.1585 66.9341 24.4218C64.9618 22.9352 56.6288 27.9047 57.1076 31.8545Z" fill="#FFC4C0"/>
<path d="M67.4922 26.834C67.5207 26.8176 67.4922 26.7748 67.4763 26.7847C64.3498 27.7253 61.1948 29.7446 59.1845 32.4316C59.1179 32.5204 59.2257 32.6684 59.3177 32.5862C61.9146 30.2346 64.372 28.3699 67.4922 26.834Z" fill="#263238"/>
<path d="M69.8228 30.0141C69.8577 29.9977 69.8228 29.9385 69.7943 29.9484C66.5758 30.935 63.0847 33.3227 61.1156 36.6938C61.049 36.8089 61.0998 36.9832 61.1886 36.8582C62.6598 34.727 67.0071 31.3856 69.8228 30.0141Z" fill="#263238"/>
<path d="M63.4112 40.8671C65.4184 37.7099 68.1992 35.5359 71.3669 33.7304C71.405 33.7074 71.3669 33.6514 71.332 33.6613C69.55 34.1053 67.6475 35.4735 66.2586 36.6706C64.9443 37.7536 63.9273 39.1758 63.3097 40.7948C63.2812 40.8671 63.37 40.9395 63.4112 40.8671Z" fill="#263238"/>
<path d="M59.2352 32.3691C59.156 32.4744 59.3938 32.4777 59.3177 32.5862C59.0006 33.0401 57.3042 35.9507 58.081 36.8617C58.7152 37.5885 60.0755 37.2202 60.5511 36.8617L61.7402 35.9704L60.9221 37.2498C60.5539 37.8103 60.2755 38.4289 60.0977 39.0816C59.9992 39.3789 59.9627 39.6944 59.9906 40.0074C60.0185 40.3203 60.1101 40.6236 60.2594 40.8971C60.3994 41.1505 60.6193 41.3461 60.8821 41.451C61.1449 41.5558 61.4346 41.5635 61.7022 41.4726C62.2987 41.2597 62.8325 40.8917 63.2527 40.4037L64.4576 39.0882L63.7347 40.7326C63.5326 41.1876 63.3867 41.6671 63.3003 42.16C63.2034 42.6233 63.2398 43.1058 63.4049 43.5479C63.4867 43.7425 63.6189 43.9097 63.7868 44.0311C63.9548 44.1524 64.1518 44.2231 64.3562 44.2352C64.8192 44.1865 65.2593 44.0016 65.6245 43.7024C66.4251 43.0679 67.1767 42.3697 67.8727 41.614C68.2373 41.2457 68.602 40.874 68.9856 40.5189C69.346 40.1448 69.7781 39.8535 70.254 39.6638C69.8017 39.9014 69.3988 40.2288 69.0681 40.6274C68.7161 41.0056 68.38 41.4003 68.0439 41.7982C67.3834 42.6198 66.6509 43.3761 65.856 44.0576C65.4297 44.4328 64.9076 44.6716 64.353 44.745C64.0473 44.748 63.7472 44.6593 63.489 44.4895C63.2307 44.3197 63.0254 44.0761 62.8976 43.788C62.6756 43.2454 62.6149 42.6465 62.7232 42.0679C62.8084 41.5176 62.963 40.9813 63.183 40.4728L63.6649 40.8017C63.1765 41.3865 62.549 41.8287 61.8449 42.0843C61.4503 42.2152 61.0241 42.1989 60.6399 42.0383C60.2686 41.8695 59.9548 41.5888 59.7394 41.2325C59.5506 40.8855 59.4349 40.5008 59.3999 40.104C59.3649 39.7072 59.4115 39.3072 59.5365 38.9304C59.739 38.2155 60.0551 37.5408 60.4719 36.934L60.8429 37.309C60.2087 37.7365 58.7374 38.3219 57.6308 37.3254C56.4068 35.7829 58.7691 32.869 59.2352 32.3691Z" fill="#263238"/>
<path d="M59.2986 32.3721C58.9559 32.5139 58.5947 32.6015 58.2269 32.6319C58.0792 32.6477 57.9301 32.6222 57.7952 32.558C57.6602 32.4938 57.5443 32.3933 57.4595 32.2669C57.3101 31.9625 57.2495 31.6197 57.2851 31.2802C57.3042 30.9053 57.3422 30.5139 57.3993 30.1094C57.1578 30.4399 56.987 30.8199 56.8983 31.2243C56.8373 31.4425 56.8185 31.6711 56.843 31.8968C56.8675 32.1226 56.9348 32.3411 57.041 32.5398C57.1797 32.7463 57.3753 32.9045 57.6022 32.9937C57.8206 33.0677 58.0545 33.0768 58.2776 33.02C58.6753 32.921 59.0326 32.6942 59.2986 32.3721Z" fill="#263238"/>
<path d="M51.6981 42.752L67.7553 54.3516C67.7553 54.3516 58.1634 74.9627 52.2371 74.9068C46.3108 74.8509 37.7494 59.4132 34.7974 52.7401C31.8453 46.0671 33.6051 40.4136 39.579 46.4914C45.5529 52.5691 47.6933 55.0752 47.8867 54.993C48.2482 54.8417 51.6981 42.752 51.6981 42.752Z" fill="#4675C0"/>
<path d="M67.7553 54.3503C67.7553 54.3503 61.0965 68.6436 55.4556 73.3926C54.3236 74.3464 53.236 74.9153 52.2371 74.9022C46.3108 74.8496 37.7495 59.4085 34.7816 52.7388C32.9456 48.608 32.9298 44.8686 34.5976 44.0629C35.6282 43.5662 37.2929 44.178 39.5664 46.4999C45.591 52.6204 47.6774 55.0804 47.874 54.9982C48.2482 54.8403 51.7013 42.7539 51.7013 42.7539L67.7553 54.3503Z" fill="#4675C0"/>
<path d="M57.8178 70.96C57.6212 71.1968 57.4215 71.427 57.2217 71.6507C55.4148 72.8307 53.3875 73.6007 51.2732 73.9101C50.69 73.9769 50.103 74.0011 49.5165 73.9825L49.1519 73.7457C49.8518 73.7895 50.5541 73.7708 51.251 73.6898C52.0853 73.5952 52.9059 73.3987 53.6957 73.1043L54.295 72.9004L54.8753 72.6472C55.0687 72.5617 55.2684 72.4893 55.4555 72.3907L56.0168 72.0947C56.6411 71.7591 57.2429 71.38 57.8178 70.96ZM45.6354 52.8024C43.8031 53.6668 42.1319 54.8591 40.6983 56.3247C39.7685 57.2749 38.9089 58.2962 38.1268 59.3801C38.1648 59.4524 38.206 59.5281 38.2504 59.6004C39.0419 58.4984 39.9144 57.4615 40.86 56.4991C42.0614 55.2749 43.43 54.241 44.9219 53.4306L45.4832 53.1346C45.5862 53.0804 45.6921 53.0321 45.8002 52.9899L45.6354 52.8024ZM59.5047 53.8516C57.9819 53.0785 56.3886 52.4648 54.7484 52.0197C54.5772 51.9769 54.406 51.9342 54.2316 51.898C54.1206 51.8717 54.0064 51.8454 53.8955 51.8256C52.5094 51.5244 51.0866 51.4489 49.6782 51.602C49.4721 51.6316 49.2692 51.6645 49.0631 51.7039C49.0409 51.7796 49.0155 51.8585 48.9933 51.9309C49.228 51.8881 49.4658 51.8519 49.7036 51.8223C51.0109 51.6791 52.3313 51.7356 53.6228 51.9901L53.9684 52.0558C54.2125 52.1085 54.4567 52.1644 54.7009 52.2269C56.3272 52.6616 57.9077 53.2631 59.4191 54.0226C61.6831 55.1745 63.8791 56.4649 65.9955 57.8869C66.0272 57.831 66.0557 57.7751 66.0811 57.7225C63.9651 56.2977 61.7691 55.005 59.5047 53.8516ZM61.1694 49.5958C58.5987 49.7059 56.0937 50.4718 53.8764 51.8256L53.6037 51.9901C53.0438 52.3381 52.5029 52.718 51.9834 53.128C49.266 55.2723 47.0971 58.0284 45.0329 60.8008C43.9992 62.192 42.9845 63.5931 41.9128 64.9481C41.8367 65.0467 41.7574 65.1421 41.6781 65.2408L41.7986 65.4216C41.8906 65.3098 41.9825 65.198 42.0713 65.0928C43.1494 63.7345 44.1673 62.3334 45.2041 60.9455C47.2684 58.1829 49.4341 55.4466 52.1229 53.3319C52.7057 52.8708 53.3157 52.4479 53.9494 52.0657C54.035 52.0098 54.1238 51.9572 54.2126 51.9079C54.951 51.4779 55.7207 51.1085 56.5146 50.8028L57.1076 50.5792C57.3041 50.5068 57.5102 50.4575 57.7132 50.395L58.3188 50.2207L58.953 50.0924C59.7717 49.9009 60.6093 49.8104 61.4485 49.8227H61.4865L61.1694 49.5958ZM41.4625 48.448C40.3548 48.9587 39.197 49.3435 38.0094 49.5958L37.3911 49.7208C37.185 49.7603 36.9757 49.7734 36.757 49.803L36.1228 49.8786L35.4886 49.905C34.9096 49.9466 34.3281 49.9356 33.751 49.8721L33.808 50.0891C36.4883 50.292 39.1746 49.7898 41.6179 48.6289C41.583 48.5664 41.5228 48.5072 41.4625 48.448ZM36.8901 44.3633C35.7672 45.1544 34.6028 45.8802 33.4022 46.5372C33.4022 46.626 33.4022 46.7148 33.4022 46.8069C34.6832 46.1119 35.9222 45.3365 37.1121 44.485C37.036 44.4422 36.9631 44.3995 36.8901 44.3633Z" fill="white"/>
<path d="M63.9597 56.2845C63.5348 55.9194 63.1068 55.5642 62.6755 55.209C61.8004 54.4921 60.9252 53.7784 60.0501 53.068C58.3061 51.6571 56.5241 50.2955 54.7294 48.957C53.7115 48.194 52.7095 47.3915 51.66 46.6778C51.655 46.674 51.6493 46.6711 51.6432 46.6695C51.6372 46.6679 51.6309 46.6675 51.6247 46.6685C51.6185 46.6694 51.6126 46.6715 51.6072 46.6748C51.6018 46.6781 51.5971 46.6825 51.5934 46.6877C51.5896 46.6929 51.5869 46.6988 51.5853 46.7051C51.5838 46.7113 51.5835 46.7179 51.5843 46.7243C51.5852 46.7307 51.5873 46.7369 51.5905 46.7424C51.5937 46.748 51.5979 46.7529 51.6029 46.7568C52.4368 47.5198 53.331 48.217 54.1966 48.9438C55.0623 49.6707 55.9216 50.4008 56.7999 51.1112C58.546 52.5188 60.3133 53.899 62.1016 55.2518C62.5994 55.6333 63.0909 56.0345 63.6078 56.393C63.871 56.5772 64.1214 56.7811 64.3878 56.9587C64.6542 57.1363 64.9395 57.2876 65.1995 57.4882C65.2055 57.4917 65.2125 57.4929 65.2192 57.4915C65.2259 57.4902 65.2319 57.4864 65.2361 57.4808C65.2403 57.4752 65.2425 57.4682 65.2422 57.4612C65.2419 57.4541 65.2391 57.4473 65.2344 57.4422C64.8 57.064 64.3942 56.6529 63.9597 56.2845Z" fill="#263238"/>
<path d="M48.0104 54.6231C47.3976 56.3413 46.8934 58.099 46.5011 59.8852C46.2918 60.7666 46.1269 61.6579 45.9652 62.5459C45.7941 63.4283 45.6797 64.3216 45.6228 65.2197C45.6228 65.2526 45.6703 65.2526 45.6767 65.2197C45.943 64.3613 46.1396 63.4668 46.3299 62.5887C46.5201 61.7105 46.7357 60.8258 46.926 59.9576C47.3097 58.1882 47.7599 56.4353 48.0929 54.656C48.0949 54.6504 48.096 54.6444 48.0958 54.6384C48.0957 54.6324 48.0944 54.6265 48.092 54.621C48.0897 54.6155 48.0863 54.6105 48.0821 54.6064C48.0779 54.6022 48.0729 54.599 48.0675 54.5968C48.0621 54.5946 48.0563 54.5936 48.0505 54.5938C48.0447 54.5939 48.039 54.5953 48.0337 54.5977C48.0284 54.6001 48.0236 54.6036 48.0196 54.608C48.0156 54.6124 48.0125 54.6175 48.0104 54.6231Z" fill="#263238"/>
<path opacity="0.1" d="M55.4556 73.3923C54.3236 74.346 53.236 74.915 52.2371 74.9018C46.3108 74.8492 37.7495 59.4082 34.7816 52.7384C32.9456 48.6077 32.9298 44.8683 34.5976 44.0625L55.4556 73.3923Z" fill="black"/>
<path d="M46.2632 88.4272H7.715C7.29011 87.6181 13.6065 52.5987 26.607 42.7355C29.4925 40.5484 34.6103 41.956 36.0308 44.0839C43.1843 54.7759 46.2632 88.4272 46.2632 88.4272Z" fill="#4675C0"/>
<path d="M44.2592 72.8793C43.2968 72.5259 42.3537 72.1186 41.4339 71.6592C40.1434 71.0179 38.8972 70.3075 37.6574 69.5576L37.4767 69.4458C36.2083 68.6663 34.94 67.8408 33.697 67.0088L33.5195 66.8904L32.676 66.3247C29.8222 64.427 27.0128 62.4735 23.9656 60.954C22.4595 60.1728 20.8601 59.6022 19.2094 59.257C18.3809 59.1038 17.5377 59.0552 16.698 59.1123C16.4887 59.1123 16.2826 59.1583 16.0639 59.1879C15.9212 59.2175 15.7785 59.2373 15.6326 59.2669C15.6548 59.2143 15.6738 59.1649 15.6992 59.1123C15.8134 59.0893 15.9307 59.0695 16.0448 59.0432C16.2541 59.0169 16.4666 58.984 16.679 58.9676C17.527 58.9085 18.3787 58.956 19.2157 59.109C20.8839 59.4513 22.5005 60.0231 24.0227 60.8093C27.0858 62.3288 29.9142 64.2823 32.7616 66.1734L33.5987 66.7292L33.7795 66.8476C35.0478 67.6929 36.3162 68.5315 37.6321 69.3241L37.8128 69.4359C39.0177 70.1628 40.2449 70.8534 41.5069 71.475C42.3884 71.9124 43.2912 72.3021 44.2116 72.6425L44.2592 72.8793ZM40.8283 56.182L40.6983 56.3102C38.2535 58.7801 36.4271 61.7927 34.7054 64.8053C34.3418 65.4477 33.9761 66.089 33.6082 66.7292C33.5797 66.7851 33.5512 66.8378 33.5195 66.8904C33.0533 67.706 32.584 68.5184 32.0957 69.3175C31.6677 70.0213 31.2206 70.7153 30.745 71.3862C30.7006 71.4487 30.6593 71.5112 30.6149 71.5704C30.1336 72.2446 29.6148 72.8893 29.0612 73.5009C28.4842 74.136 27.8468 74.7089 27.1587 75.2111L26.9019 75.3986C26.8162 75.4611 26.7211 75.5104 26.6323 75.5663L26.0901 75.8952C25.7164 76.0908 25.3309 76.261 24.9359 76.405C23.3365 76.9559 21.6621 77.2368 19.9767 77.237C18.2973 77.2301 16.6237 77.0327 14.9858 76.6483C13.4003 76.2997 11.8625 75.8327 10.3119 75.3657C10.3119 75.4183 10.2865 75.4709 10.2707 75.5203C11.8181 75.9906 13.3718 76.4642 14.9509 76.8161C16.6083 77.2082 18.3021 77.4111 20.0021 77.4212C21.7064 77.4221 23.4 77.1401 25.0184 76.5858C25.4224 76.4418 25.8165 76.2693 26.1979 76.0695L26.7528 75.7406C26.8466 75.6887 26.9377 75.6316 27.0255 75.5696L27.2887 75.3788C27.9873 74.8716 28.6343 74.292 29.2198 73.6489C29.8101 72.9936 30.3628 72.3028 30.8749 71.5803C30.9225 71.5178 30.9637 71.4586 31.005 71.3961C31.4552 70.758 31.8801 70.1036 32.2733 69.4392C32.7648 68.64 33.2246 67.8277 33.7002 67.0154L33.7921 66.8542L34.8924 64.9269C36.6174 61.9177 38.4438 58.9314 40.8632 56.4911L40.9044 56.4516C40.8759 56.3563 40.8505 56.2675 40.8283 56.182ZM42.6579 63.9929C42.4137 64.3218 42.1664 64.631 41.9159 64.9467C40.866 66.3155 39.6928 67.5776 38.4121 68.7157C38.1584 68.9229 37.9048 69.1301 37.6416 69.3241L37.4767 69.4458C37.1097 69.7144 36.7251 69.9562 36.3257 70.1693L36.0498 70.3239C35.9578 70.3765 35.8564 70.4127 35.7612 70.4588L35.1842 70.7153C34.7907 70.8627 34.3882 70.9824 33.9792 71.0738C32.9964 71.2921 31.9942 71.4023 30.9891 71.4027H30.745C30.1488 71.4027 29.5527 71.3533 28.9598 71.2875C27.2864 71.069 25.6413 70.6598 24.0544 70.0674C22.469 69.4984 20.9058 68.7979 19.352 68.0941C17.8056 67.3685 16.2171 66.7435 14.5957 66.2227C14.1169 66.0813 13.6445 65.9564 13.1372 65.8643L13.0896 66.0057C13.5842 66.1011 14.0757 66.2227 14.5545 66.3675C16.1665 66.8898 17.7455 67.5159 19.2823 68.2421C20.836 68.936 22.3897 69.6398 23.991 70.2154C25.5917 70.8127 27.2503 71.2273 28.9376 71.452C29.4956 71.5178 30.0537 71.5605 30.6118 71.5704C30.6942 71.5704 30.7735 71.5704 30.8559 71.5704C31.9206 71.5883 32.984 71.4846 34.0268 71.2612C34.4437 71.1657 34.8545 71.0438 35.2571 70.8962L35.8469 70.6331C35.9452 70.587 36.0435 70.5508 36.1386 70.4982L36.4208 70.3404C36.8538 70.1115 37.2693 69.8487 37.6638 69.5543L37.8287 69.4326C38.0696 69.2518 38.3075 69.061 38.5421 68.867C39.8357 67.7243 41.0207 66.4556 42.0808 65.0782C42.2922 64.8085 42.5036 64.5356 42.715 64.2593C42.6959 64.1738 42.6769 64.0817 42.6579 63.9929ZM38.6753 49.4399C38.4533 49.4958 38.2313 49.5484 38.0094 49.5944L37.3911 49.7194C37.185 49.7589 36.9757 49.772 36.7569 49.8016L36.1227 49.8773L35.4886 49.9036C34.6512 49.9598 33.8104 49.9134 32.9836 49.7655C31.6864 49.5329 30.4297 49.1018 29.2546 48.4861L28.9376 48.3249C28.7156 48.2065 28.4968 48.0816 28.2812 47.9533C26.8296 47.0694 25.4677 46.0358 24.2161 44.8684L24.0766 45.0131C25.34 46.193 26.7134 47.2396 28.1766 48.1375C28.3288 48.2296 28.4936 48.3184 28.6395 48.4039L28.9566 48.5683C30.2103 49.2506 31.5579 49.7287 32.9519 49.9858C34.8841 50.2671 36.8508 50.1554 38.7419 49.6569C38.7292 49.5846 38.7006 49.5122 38.6753 49.4399ZM36.4176 44.6875C34.7337 45.8591 32.9367 46.8455 31.0557 47.631C30.3736 47.9067 29.6757 48.1384 28.9661 48.3249L28.668 48.4039C27.8438 48.6027 27.0065 48.7379 26.1631 48.8084L25.5289 48.8512C25.3196 48.8676 25.1103 48.8512 24.8947 48.8512H24.2605L23.6264 48.7985C22.8624 48.7527 22.1055 48.6215 21.3687 48.4072C21.3243 48.4697 21.2799 48.5321 21.2387 48.5979C23.7711 49.2575 26.4226 49.2474 28.9502 48.5683L29.2673 48.4861C29.8998 48.3124 30.5223 48.1015 31.1318 47.8546C33.0224 47.0639 34.8289 46.0719 36.5223 44.8947L36.4176 44.6875ZM45.9017 84.9855C45.5846 84.9855 45.2421 85.0151 44.9124 85.025H44.887L44.6936 85.0414C43.0686 85.2178 41.4893 85.7051 40.0356 86.4786C38.9954 87.0421 38.0017 87.6933 37.0645 88.4256H37.2642C38.1585 87.7388 39.1043 87.1273 40.0926 86.597C41.559 85.8205 43.1532 85.3374 44.7919 85.173H44.9092H44.9853C45.3024 85.173 45.6004 85.1368 45.9048 85.1401C45.9112 85.0809 45.908 85.0348 45.9017 84.9855ZM46.0666 86.4984C45.722 86.0445 45.3658 85.5983 44.998 85.1598C44.9631 85.1138 44.925 85.071 44.887 85.0283L44.757 84.8704C43.6491 83.5311 42.3749 82.35 40.9678 81.3579C40.2537 80.8747 39.4847 80.4847 38.6784 80.197C38.4787 80.1279 38.2694 80.0687 38.0665 80.0095C37.8635 79.9503 37.6511 79.9043 37.4323 79.8747C37.0137 79.7924 36.5857 79.7859 36.164 79.7431C34.4592 79.6785 32.7586 79.9589 31.1572 80.5686C29.5705 81.1943 28.0552 81.9994 26.6387 82.9695C24.102 84.6632 21.7904 86.6562 19.3203 88.4256H19.425C21.8824 86.6858 24.1813 84.729 26.6926 83.0714C28.1039 82.1082 29.614 81.3107 31.1952 80.6936C32.7807 80.0916 34.4641 79.8157 36.1513 79.8812C36.5667 79.9273 36.9916 79.9339 37.4038 80.0161C37.613 80.0457 37.8128 80.1082 38.0189 80.1509C38.225 80.1937 38.4248 80.266 38.6214 80.3351C39.4159 80.6204 40.1732 81.0071 40.8759 81.4862C42.2708 82.4717 43.5324 83.6464 44.627 84.9789C44.646 85.002 44.665 85.0217 44.6809 85.0447L44.7919 85.173C45.2358 85.7091 45.6702 86.255 46.0888 86.8174C46.0919 86.7121 46.0792 86.6102 46.0602 86.4984H46.0666Z" fill="white"/>
<path d="M21.4893 47.0262C13.6414 56.4421 3.0634 73.0737 7.38528 76.7506C14.4912 82.7955 35.2445 86.2882 40.0071 86.8736C42.0618 87.1301 46.1776 73.1987 44.8046 71.3964C43.4316 69.5941 21.4893 68.3213 21.3403 66.9236C21.2546 66.131 24.5872 59.2376 26.7307 50.782C29.1945 41.0339 23.6994 44.3721 21.4893 47.0262Z" fill="#FFC4C0"/>
<path d="M41.2088 70.249C41.2088 70.249 47.5062 70.1996 51.6251 70.3674C53.924 70.4594 57.8495 70.9857 59.5079 71.8572C61.9875 73.1563 71.5572 80.2437 69.9527 82.6873C68.4973 84.8974 61.0204 77.7277 61.0204 77.7277C61.0204 77.7277 69.1822 84.2725 66.9594 86.6076C64.7366 88.9426 57.3263 79.6747 57.3263 79.6747C57.3263 79.6747 65.5706 86.5813 62.9102 88.6203C60.8999 90.1497 53.7337 82.1512 53.7337 82.1512C53.7337 82.1512 60.7762 88.1467 58.7754 89.8142C56.5558 91.6559 49.5006 84.7034 49.5006 84.7034C43.7297 88.0514 39.671 87.1963 36.8172 86.2327C36.1481 85.986 41.2088 70.249 41.2088 70.249Z" fill="#FFC4C0"/>
<path d="M58.3378 75.2781C59.3239 76.0115 60.3259 76.7449 61.2455 77.5803C62.165 78.4156 63.0561 79.2543 63.8995 80.162C65.9637 82.3853 66.9213 84.1086 66.8484 84.0099C65.1869 81.6453 61.9399 78.6557 61.0204 77.8335C60.1008 77.0113 59.2225 76.1463 58.3061 75.3274C58.2839 75.2913 58.3156 75.2617 58.3378 75.2781Z" fill="#263238"/>
<path d="M55.4207 78.6683C56.6383 79.655 57.8844 80.5956 59.0608 81.6447C60.2372 82.6938 61.829 84.2067 62.9293 85.3315C63.0117 85.417 62.9292 85.5814 62.8405 85.4992C61.699 84.4205 60.0026 82.9471 58.8484 81.8815C57.6942 80.8159 56.5812 79.7076 55.3953 78.6914C55.3763 78.6881 55.4016 78.6519 55.4207 78.6683Z" fill="#263238"/>
<path d="M52.4021 81.1087C54.3395 82.5262 56.0232 84.3121 57.634 86.1045C57.7164 86.1933 57.634 86.2064 57.5325 86.1209C55.8234 84.4272 54.4917 83.0853 52.3545 81.1877C52.3291 81.1482 52.3704 81.0791 52.4021 81.1087Z" fill="#263238"/>
<path d="M40.3242 70.041C43.197 70.0213 51.6347 69.9983 54.5011 70.2285C57.0378 70.4291 59.1274 70.9948 61.255 72.455C65.8211 75.586 68.7637 79.2629 69.4993 80.3482C69.9432 81.006 70.5869 82.0683 70.0003 82.805C69.2805 83.6995 66.6328 82.8247 63.8393 80.2035C63.7378 80.1081 63.8013 80.0489 63.9059 80.1377C67.8283 83.4266 69.3883 83.0516 69.7974 82.4893C70.0637 82.1242 69.7974 81.5026 69.5691 81.0093C69.1871 80.3111 68.7204 79.6668 68.1802 79.0919C66.3785 77.0928 64.3854 75.2889 62.2317 73.7081C59.9241 71.9216 57.1754 70.8508 54.3045 70.6199C51.3683 70.3699 43.2446 70.4489 40.3115 70.1561C40.2513 70.1364 40.2608 70.0443 40.3242 70.041Z" fill="#263238"/>
<path d="M67.4255 85.2923C67.2638 84.48 66.6994 83.7367 66.2523 83.0658C65.7091 82.2215 65.0856 81.4359 64.391 80.7209C64.3625 80.6913 64.3086 80.7209 64.3371 80.7669C64.9287 81.4842 65.4782 82.2375 65.9828 83.023C66.251 83.4551 66.4946 83.9032 66.7121 84.3649C66.9182 84.8089 67.1624 85.3219 67.0546 85.8284C66.8516 86.7953 65.6657 86.7723 64.9649 86.5125C64.5109 86.3353 64.0736 86.1151 63.6586 85.8547C63.0931 85.481 62.5566 85.0621 62.0541 84.6017C62.0129 84.5622 61.8987 84.5787 61.9431 84.6214C62.9895 85.6541 64.9713 87.8017 66.5884 87.0157C66.8988 86.8734 67.1519 86.6238 67.3046 86.3095C67.4573 85.9952 67.5 85.6357 67.4255 85.2923Z" fill="#263238"/>
<path d="M41.304 69.4033L33.7605 87.163C33.7605 87.163 7.39796 80.9898 5.86961 75.8001C4.34125 70.6103 12.6013 56.7249 20.056 48.0555C27.3871 39.5374 28.4715 45.3159 26.6483 51.9034C24.825 58.491 21.8349 66.0849 22.1678 66.6538C22.5008 67.2228 41.304 69.4033 41.304 69.4033Z" fill="#4675C0"/>
<path d="M23.8643 60.7319C23.8452 60.7812 23.8294 60.8338 23.8104 60.8832C22.3459 60.1361 20.794 59.59 19.1936 59.2585C18.3652 59.1053 17.5219 59.0567 16.6823 59.1138C16.473 59.1138 16.2669 59.1598 16.0481 59.1894C15.8293 59.219 15.6359 59.2552 15.433 59.3144C15.0207 59.4065 14.6307 59.5709 14.228 59.6992C12.6742 60.3124 11.2489 61.2303 10.0298 62.4026L10.2296 62.0441C11.3924 60.9792 12.7308 60.1403 14.1805 59.5676C14.5863 59.4361 14.9827 59.2684 15.4012 59.1763C15.6073 59.1171 15.8198 59.0908 16.0354 59.0447C16.251 58.9987 16.4571 58.9855 16.6696 58.9691C17.5176 58.91 18.3693 58.9575 19.2063 59.1105C20.8203 59.4386 22.3862 59.9837 23.8643 60.7319ZM37.8161 69.4374L37.6353 69.3256L36.9124 68.8816L36.4748 68.829C36.7919 69.0362 37.1375 69.2467 37.4704 69.4473L37.6512 69.5591C38.6024 70.1347 39.5537 70.6872 40.5303 71.2035L40.6064 71.0226C39.6678 70.5195 38.7388 69.9899 37.8161 69.4374ZM32.6698 68.3488C32.4795 68.6777 32.2861 69.0066 32.0895 69.319C31.6614 70.0228 31.2143 70.7168 30.7387 71.3877C30.6943 71.4502 30.6531 71.5127 30.6087 71.5719C30.1274 72.2461 29.6086 72.8908 29.055 73.5024C28.4779 74.1375 27.8405 74.7104 27.1525 75.2126L26.8956 75.4001C26.81 75.4626 26.7149 75.5119 26.6261 75.5678L26.0839 75.8967C25.7102 76.0923 25.3246 76.2625 24.9297 76.4065C23.3302 76.9574 21.6558 77.2383 19.9705 77.2385C18.2932 77.2311 16.6218 77.0337 14.9859 76.6498C13.3338 76.2848 11.7135 75.7882 10.0869 75.2981C8.64413 74.864 7.19188 74.4266 5.70792 74.1405C5.70792 74.1931 5.70792 74.2457 5.70792 74.295C7.17603 74.5812 8.61243 75.0219 10.0488 75.4527C11.6723 75.946 13.299 76.4393 14.9573 76.8176C16.6147 77.2097 18.3085 77.4126 20.0085 77.4227C21.7129 77.4236 23.4064 77.1416 25.0248 76.5873C25.4289 76.4433 25.823 76.2708 26.2044 76.071L26.7593 75.7421C26.8531 75.6902 26.9441 75.6331 27.032 75.5711L27.2951 75.3803C27.9937 74.8731 28.6407 74.2935 29.2262 73.6504C29.8165 72.9951 30.3692 72.3043 30.8814 71.5817C30.929 71.5193 30.9702 71.4601 31.0114 71.3976C31.4617 70.7595 31.8866 70.1051 32.2797 69.4407C32.4954 69.0921 32.7046 68.7369 32.9139 68.385L32.6698 68.3488ZM38.0349 69.0066C37.9049 69.1118 37.7717 69.2171 37.6353 69.3157L37.4704 69.4374C37.1034 69.706 36.7188 69.9478 36.3194 70.161L36.0436 70.3155C35.9516 70.3682 35.8501 70.4043 35.755 70.4504L35.1779 70.7069C34.7845 70.8543 34.3819 70.9741 33.973 71.0654C32.9902 71.2837 31.9879 71.3939 30.9829 71.3943H30.7387C30.1426 71.3943 29.5465 71.3449 28.9535 71.2792C27.2801 71.0607 25.6351 70.6515 24.0482 70.059C22.4627 69.4901 20.8995 68.7895 19.3458 68.0857C17.7994 67.3601 16.2109 66.7351 14.5895 66.2144C12.9629 65.7309 11.2284 65.4678 9.54466 65.8098C9.009 65.9215 8.49054 66.1085 8.00363 66.3657C7.97192 66.4314 7.94021 66.5005 7.91167 66.5663C8.43273 66.2781 8.99133 66.0698 9.57003 65.948C11.2252 65.6191 12.9375 65.8756 14.5483 66.3591C16.1602 66.8815 17.7392 67.5075 19.276 68.2337C20.8298 68.9277 22.3835 69.6315 23.9848 70.207C25.5871 70.8081 27.2479 71.2261 28.9377 71.4535C29.4957 71.5193 30.0538 71.562 30.6119 71.5719C30.6943 71.5719 30.7736 71.5719 30.856 71.5719C31.9207 71.5898 32.9841 71.4861 34.0269 71.2627C34.4438 71.1672 34.8546 71.0453 35.2572 70.8977L35.847 70.6346C35.9453 70.5885 36.0436 70.5523 36.1387 70.4997L36.4209 70.3419C36.8539 70.113 37.2694 69.8502 37.6639 69.5558L37.8288 69.4341C37.9936 69.3092 38.1458 69.1776 38.3234 69.0461L38.0349 69.0066ZM24.2289 44.8534C24.0926 44.7285 23.9594 44.6068 23.8262 44.4785L23.655 44.5936L24.0989 45.0047C25.1312 45.9635 26.2338 46.8377 27.3966 47.6193C27.3966 47.5371 27.3966 47.4549 27.3966 47.376C26.2836 46.6217 25.2269 45.7818 24.2353 44.8633L24.2289 44.8534ZM26.1568 48.8L25.5226 48.8428C25.3134 48.8592 25.1041 48.8428 24.8885 48.8428H24.2543L23.6201 48.7902C22.7816 48.7382 21.9517 48.5859 21.1468 48.3363C20.7949 48.2278 20.4461 48.1028 20.1036 47.9581L20.0275 48.0469L19.9546 48.1324C20.3243 48.2931 20.7022 48.4325 21.0866 48.5501C23.0949 49.1062 25.1922 49.2272 27.2476 48.9053C27.2476 48.8231 27.2698 48.7441 27.2825 48.6619C26.9305 48.7343 26.5468 48.7803 26.1631 48.8099L26.1568 48.8ZM36.1641 79.7347C34.4587 79.6733 32.758 79.957 31.1573 80.5701C29.5706 81.1958 28.0553 82.0009 26.6388 82.971C25.8461 83.5037 25.0724 84.0628 24.3082 84.6384L24.4319 84.6746C25.1738 84.1188 25.9253 83.5827 26.6959 83.0729C28.1072 82.1097 29.6173 81.3122 31.1985 80.6951C32.784 80.0931 34.4673 79.8172 36.1545 79.8827C36.3733 79.9058 36.5921 79.9189 36.8109 79.9386L36.8711 79.8005C36.646 79.7808 36.405 79.7676 36.1704 79.7446L36.1641 79.7347Z" fill="white"/>
<path d="M30.7354 84.2271C30.9923 83.7206 31.2396 83.2141 31.4869 82.7044C31.9837 81.6717 32.4783 80.6368 32.9709 79.5997C33.9475 77.5409 34.8734 75.4558 35.7644 73.3509C36.2749 72.1604 36.8298 70.983 37.2896 69.7694C37.2951 69.7572 37.2956 69.7432 37.2912 69.7306C37.2867 69.7179 37.2776 69.7077 37.2658 69.702C37.254 69.6963 37.2406 69.6957 37.2284 69.7004C37.2162 69.705 37.2063 69.7144 37.2008 69.7267C36.6522 70.7297 36.1766 71.7789 35.6693 72.8083C35.1619 73.8377 34.6451 74.8572 34.1568 75.8965C33.1844 77.9553 32.2416 80.0306 31.3284 82.1222C31.0715 82.7077 30.7925 83.2865 30.561 83.8851C30.4405 84.1909 30.301 84.4869 30.1837 84.7961C30.0664 85.1052 29.9776 85.4209 29.8666 85.7268C29.8651 85.73 29.8643 85.7335 29.8642 85.7371C29.864 85.7407 29.8645 85.7443 29.8657 85.7476C29.8669 85.751 29.8687 85.7541 29.871 85.7567C29.8734 85.7593 29.8762 85.7615 29.8793 85.763C29.8824 85.7645 29.8858 85.7653 29.8892 85.7655C29.8927 85.7657 29.8961 85.7651 29.8994 85.7639C29.9026 85.7627 29.9056 85.7608 29.9081 85.7584C29.9106 85.756 29.9127 85.7531 29.9142 85.7498C30.171 85.2401 30.4722 84.7467 30.7354 84.2271Z" fill="#263238"/>
<path d="M34.3281 85.9428L33.7986 87.186L33.7827 87.2255H33.732C31.2365 86.7453 28.7569 86.1697 26.2932 85.5284C23.8294 84.8871 21.3847 84.1603 18.9653 83.3512C16.5373 82.5553 14.1562 81.6131 11.834 80.5294C10.6688 79.9858 9.54339 79.3548 8.46657 78.6416C7.92928 78.2782 7.42132 77.8702 6.94773 77.4215C6.45942 76.9872 6.08524 76.4316 5.86012 75.8066C6.14055 76.3935 6.55002 76.9039 7.05553 77.2965C7.55599 77.6953 8.08733 78.0506 8.64414 78.3588C9.74547 78.9938 10.8827 79.5594 12.0496 80.0525C14.3802 81.0556 16.7742 81.9107 19.1809 82.7132C21.5876 83.5157 24.0165 84.2622 26.4517 84.9792C28.8869 85.6961 31.3317 86.4065 33.7796 87.0873L33.7161 87.1202L34.3281 85.9428Z" fill="#263238"/>
<path d="M41.0027 70.0941L41.2659 69.387L41.2945 69.4363C38.65 69.2554 36.0086 69.0351 33.3673 68.7489C30.726 68.4628 28.1005 68.1504 25.475 67.7425C24.8187 67.6373 24.1623 67.5255 23.5059 67.3939C23.1888 67.3249 22.8496 67.2591 22.5103 67.1604C22.4247 67.1341 22.3422 67.1078 22.2503 67.0716C22.1975 67.0538 22.1465 67.0306 22.0981 67.0026C22.061 66.9819 22.026 66.9577 21.9934 66.9302C21.9593 66.9005 21.9303 66.8649 21.9078 66.825C21.8949 66.7993 21.8832 66.7729 21.8729 66.746C21.8711 66.7329 21.8711 66.7196 21.8729 66.7066C21.8602 66.5813 21.8666 66.4548 21.892 66.3316C21.9078 66.2428 21.9237 66.1475 21.9459 66.0652C22.282 64.7004 22.7069 63.4112 23.1381 62.1186C24.0006 59.5172 24.9392 56.9486 25.9285 54.3965C25.1643 57.0275 24.3811 59.6586 23.6011 62.2897C23.2269 63.6052 22.8147 64.9207 22.5261 66.2363C22.5071 66.3185 22.4976 66.3941 22.4817 66.473C22.4659 66.552 22.4817 66.6441 22.4659 66.6112C22.4623 66.5937 22.4559 66.577 22.4469 66.5619C22.4469 66.529 22.3898 66.4961 22.4025 66.5027C22.3866 66.5027 22.4152 66.5092 22.4025 66.5027L22.4817 66.5355L22.691 66.6046C23.0081 66.6901 23.3252 66.7526 23.6423 66.8184C24.2764 66.9401 24.9392 67.0453 25.5892 67.1473C26.8956 67.3512 28.2041 67.543 29.5147 67.7228L33.4498 68.272C36.0721 68.6338 38.6944 69.0219 41.3167 69.4198H41.3642L41.3452 69.4626L41.0027 70.0941Z" fill="#263238"/>
<path d="M26.2107 56.0801C26.0246 56.5441 25.7896 56.9853 25.5099 57.3956C25.2471 57.8154 24.9266 58.1932 24.5587 58.5171C24.7996 58.0797 25.0565 57.6653 25.3292 57.2542C25.5939 56.8402 25.8885 56.4477 26.2107 56.0801Z" fill="#263238"/>
<path d="M33.8937 50.0062C31.6551 50.664 27.6218 47.2666 25.9666 44.4349C25.8524 44.2409 26.3027 36.2425 26.2329 34.6474C26.2329 34.3185 35.9801 36.6207 35.9801 36.6207C35.9801 36.6207 35.1779 40.0082 35.3174 42.7872C35.3269 43.024 36.0531 49.3682 33.8937 50.0062Z" fill="#FFC4C0"/>
<path d="M26.0839 39.6569C30.6467 42.9983 35.0923 41.7157 35.2794 41.6565C35.3544 39.9612 35.5805 38.2767 35.9548 36.6246C35.9548 36.6246 26.1885 34.3224 26.2044 34.6513C26.2614 35.3979 26.1822 37.5553 26.0839 39.6569Z" fill="#263238"/>
<path d="M35.9326 30.0339C36.1831 32.3953 38.0063 34.1252 40.0008 33.895C41.9953 33.6648 43.4126 31.5698 43.1716 29.2117C42.9307 26.8536 41.1011 25.1204 39.1034 25.3506C37.1058 25.5808 35.6821 27.6758 35.9326 30.0339Z" fill="#455A64"/>
<path d="M34.7783 30.3153C35.0574 32.9464 37.0836 34.8637 39.3032 34.6105C41.5228 34.3573 43.1082 32.0255 42.8196 29.3977C42.5311 26.7699 40.5176 24.8493 38.2948 25.1025C36.0721 25.3557 34.4993 27.6908 34.7783 30.3153Z" fill="#C7C7C7"/>
<path d="M24.882 22.6303C23.8166 26.1756 25.5637 36.4434 27.9831 38.7455C31.4932 42.0837 37.2706 42.4356 40.0102 38.0549C42.6674 33.8057 40.1624 20.4695 37.4545 18.3745C33.4687 15.283 26.4548 17.3978 24.882 22.6303Z" fill="#FFC4C0"/>
<path d="M33.1074 29.0771C33.1074 29.054 33.063 29.1198 33.0693 29.1494C33.2152 29.8335 33.2754 30.6458 32.7174 30.9944C32.6983 30.9944 32.7174 31.0405 32.7174 31.0306C33.4435 30.7774 33.3547 29.7019 33.1074 29.0771Z" fill="#263238"/>
<path d="M32.3811 28.4743C31.2967 28.6026 31.6233 30.8455 32.6285 30.7271C33.6336 30.6087 33.2912 28.3691 32.3811 28.4743Z" fill="#263238"/>
<path d="M36.9567 28.5364C36.9567 28.5101 37.0138 28.5628 37.017 28.5924C37.0962 29.2896 37.3024 30.0723 37.9397 30.2105C37.9587 30.2105 37.9651 30.2499 37.9397 30.2499C37.1819 30.2565 36.925 29.2107 36.9567 28.5364Z" fill="#263238"/>
<path d="M37.4482 27.7114C38.5136 27.4582 38.9227 29.6847 37.9365 29.9215C36.9504 30.1583 36.5477 27.9318 37.4482 27.7114Z" fill="#263238"/>
<path d="M31.3792 27.5822C31.6512 27.4521 31.9158 27.306 32.1719 27.1448C32.4714 27.0313 32.7266 26.8186 32.898 26.5397C32.9351 26.4409 32.9397 26.3322 32.911 26.2305C32.8824 26.1288 32.822 26.0397 32.7395 25.9773C32.559 25.8791 32.3565 25.8328 32.153 25.8432C31.9495 25.8536 31.7524 25.9204 31.5821 26.0365C31.1999 26.2152 30.8958 26.5353 30.7292 26.9343C30.6958 27.0274 30.6894 27.1286 30.7108 27.2255C30.7321 27.3223 30.7803 27.4105 30.8493 27.4793C30.9184 27.5482 31.0053 27.5946 31.0994 27.6128C31.1936 27.6311 31.2908 27.6205 31.3792 27.5822Z" fill="#263238"/>
<path d="M38.1332 26.4585C37.8337 26.4432 37.5352 26.4114 37.239 26.3632C36.9207 26.3756 36.6074 26.2785 36.348 26.0869C36.2767 26.0101 36.2321 25.9109 36.2212 25.8049C36.2103 25.6989 36.2337 25.5922 36.2877 25.5015C36.4205 25.3407 36.5919 25.2192 36.7846 25.1493C36.9773 25.0794 37.1844 25.0636 37.3848 25.1036C37.8033 25.1216 38.2002 25.301 38.4978 25.6067C38.5616 25.6799 38.6036 25.7707 38.6187 25.8682C38.6337 25.9656 38.6212 26.0655 38.5826 26.1556C38.544 26.2458 38.4809 26.3225 38.4012 26.3762C38.3214 26.43 38.2283 26.4586 38.1332 26.4585Z" fill="#263238"/>
<path d="M33.4751 35.5854C33.659 35.7235 33.8524 35.9143 34.1093 35.9143C34.3576 35.8707 34.5943 35.7732 34.8037 35.6281C34.8075 35.6233 34.813 35.6203 34.8189 35.6197C34.8248 35.6191 34.8308 35.6209 34.8354 35.6248C34.84 35.6288 34.843 35.6344 34.8436 35.6406C34.8442 35.6468 34.8424 35.6529 34.8386 35.6577C34.7634 35.8099 34.6495 35.9379 34.5092 36.0277C34.3689 36.1176 34.2076 36.1659 34.0427 36.1675C33.901 36.1526 33.7669 36.0943 33.6573 36C33.5478 35.9057 33.4678 35.7796 33.4275 35.638C33.399 35.6051 33.4466 35.5656 33.4751 35.5854Z" fill="#263238"/>
<path d="M33.8747 33.3975C34.0848 33.6452 34.3419 33.8453 34.63 33.9851C34.9181 34.1248 35.231 34.2014 35.5489 34.2098C35.8275 34.2212 36.1061 34.1913 36.3765 34.121C36.4287 34.1112 36.4797 34.0957 36.5287 34.075C36.577 34.0622 36.6247 34.0468 36.6714 34.029C36.7062 34.0168 36.7362 33.9932 36.7568 33.9617C36.7774 33.9302 36.7875 33.8926 36.7856 33.8546C36.7837 33.8309 36.7783 33.8076 36.7697 33.7856V33.7264C36.7031 33.1903 36.5351 32.3845 36.5351 32.3845C36.738 32.4536 37.7654 32.7496 37.7083 32.4733C37.239 30.1712 36.7158 27.6322 35.7804 25.4583C35.7741 25.4439 35.763 25.4325 35.7492 25.4259C35.7354 25.4193 35.7197 25.4181 35.7051 25.4225C35.6905 25.4269 35.6779 25.4366 35.6696 25.4498C35.6613 25.463 35.6579 25.4788 35.6599 25.4944C36.0277 27.7144 36.7697 29.8521 37.1756 32.0721C36.81 31.9609 36.4309 31.9044 36.0499 31.9044C35.9802 31.9373 36.4019 33.4534 36.4114 33.6968C36.4134 33.7054 36.4134 33.7144 36.4114 33.7231C35.5616 33.973 34.8704 33.8053 33.9413 33.335C33.8716 33.3021 33.8272 33.3482 33.8747 33.3975Z" fill="#263238"/>
<path d="M36.0308 33.8985C35.8053 34.3242 35.4776 34.6822 35.0795 34.9378C34.8573 35.0691 34.6017 35.1265 34.347 35.1023C33.7921 35.0398 33.7129 34.5333 33.7382 34.0827C33.7593 33.8432 33.8072 33.607 33.8809 33.3789C34.526 33.785 35.2791 33.9671 36.0308 33.8985Z" fill="#263238"/>
<path d="M35.0764 34.9463C34.8542 35.0776 34.5985 35.135 34.3439 35.1107C33.789 35.0482 33.7097 34.5418 33.7351 34.0912C34.3281 34.0517 34.9432 34.3675 35.0764 34.9463Z" fill="#FF99BA"/>
<path opacity="0.2" d="M26.5056 26.2779C26.1156 27.2974 25.3133 29.6917 24.8567 29.8594C24.4223 26.5311 24.4065 23.512 25.2024 21.6571C25.5315 20.891 25.9936 20.1942 26.5658 19.6016C26.6324 20.4928 26.921 25.2123 26.5056 26.2779Z" fill="#263238"/>
<path d="M35.0827 21.5186C34.8113 22.0067 34.4234 22.4142 33.9565 22.7022C33.4895 22.9901 32.9591 23.1488 32.416 23.163C31.8632 23.178 31.3158 23.0463 30.8258 22.7804C30.3359 22.5145 29.9195 22.1232 29.6161 21.6436C29.6145 21.6405 29.6122 21.6379 29.6096 21.6358C29.6069 21.6336 29.6039 21.6321 29.6007 21.6311C29.5974 21.6302 29.594 21.63 29.5907 21.6304C29.5874 21.6309 29.5842 21.632 29.5813 21.6337C29.5783 21.6354 29.5758 21.6377 29.5737 21.6405C29.5717 21.6432 29.5702 21.6464 29.5693 21.6497C29.5684 21.6531 29.5682 21.6566 29.5686 21.6601C29.569 21.6635 29.5701 21.6669 29.5717 21.6699C29.8475 22.2052 30.2592 22.652 30.7622 22.9622C31.2652 23.2723 31.8404 23.4339 32.4255 23.4294C32.9987 23.3959 33.5533 23.2065 34.0336 22.8804C34.514 22.5542 34.9031 22.1027 35.162 21.5712C35.1687 21.5603 35.171 21.5471 35.1683 21.5344C35.1656 21.5218 35.1582 21.5108 35.1477 21.5038C35.1372 21.4968 35.1244 21.4945 35.1122 21.4972C35.1001 21.5 35.0894 21.5077 35.0827 21.5186Z" fill="#263238"/>
<path d="M41.6972 16.2273C41.2404 15.3534 40.5002 14.6754 39.6076 14.3132C38.3709 13.8068 37.1311 14.1455 35.904 14.5106C35.8973 14.5106 35.8908 14.5133 35.8861 14.5183C35.8813 14.5232 35.8786 14.5299 35.8786 14.5369C35.8786 14.5439 35.8813 14.5506 35.8861 14.5555C35.8908 14.5604 35.8973 14.5632 35.904 14.5632C36.9472 14.2573 38.0253 14.0107 39.0907 14.3461C39.9726 14.6198 40.7364 15.2006 41.2533 15.9905C41.7574 16.8086 41.9608 17.7875 41.8263 18.7483C41.6918 19.7091 41.2284 20.5875 40.5208 21.2231C40.1037 21.578 39.6211 21.8408 39.1025 21.9952C38.5839 22.1496 38.0404 22.1924 37.5053 22.1209C37.4641 22.1209 37.445 22.1801 37.4894 22.1867C38.2178 22.3149 38.9662 22.2299 39.6506 21.9412C40.335 21.6526 40.9282 21.1717 41.3636 20.5527C41.7991 19.9336 42.0595 19.2009 42.1156 18.4369C42.1717 17.6728 42.0213 16.9076 41.6813 16.2273H41.6972Z" fill="#263238"/>
<path d="M24.5936 24.679C24.5936 24.679 22.3011 21.6237 23.4109 19.4169C24.045 18.1638 26.7751 17.8185 26.7751 17.8185C26.7751 17.8185 27.4093 16.3681 29.5687 15.4275C31.728 14.4869 34.6421 15.0394 34.6421 15.0394C34.6421 15.0394 36.5795 13.3687 38.7991 14.1975C41.8938 15.3552 42.287 19.8641 39.6996 21.8046C37.8795 23.1694 34.8735 21.8342 34.8735 21.8342C34.6199 21.9164 32.2417 24.0607 29.8192 21.9657C29.8192 21.9657 28.4399 23.768 26.7942 22.9787C26.6385 23.4611 26.3442 23.8826 25.9508 24.1866C25.5575 24.4905 25.0839 24.6623 24.5936 24.679Z" fill="#263238"/>
<path d="M26.9463 30.9998C26.9463 30.9998 24.6665 27.711 23.2269 28.5628C21.7873 29.4146 23.544 34.1932 25.2436 34.8115C25.457 34.9089 25.6872 34.9606 25.9204 34.9634C26.1535 34.9663 26.3848 34.9203 26.6004 34.8281C26.8159 34.736 27.0114 34.5996 27.1749 34.4272C27.3384 34.2548 27.4667 34.05 27.552 33.8249L26.9463 30.9998Z" fill="#FFC4C0"/>
<path d="M23.7596 29.9238C23.7311 29.9238 23.7279 29.96 23.7596 29.9699C24.9614 30.4566 25.605 31.5946 26.0616 32.7785C25.7002 32.3247 25.215 32.0813 24.6284 32.5286C24.5967 32.5516 24.6284 32.6009 24.6601 32.5944C24.869 32.5253 25.0933 32.5245 25.3026 32.5922C25.5119 32.6599 25.6961 32.7927 25.8302 32.9726C26.0557 33.2787 26.2482 33.6095 26.4041 33.9592C26.4612 34.0678 26.6514 34.0053 26.6102 33.8803V33.8507C26.6102 32.2523 25.3958 30.0587 23.7596 29.9238Z" fill="#263238"/>
<path d="M25.047 28.6976C25.047 28.6976 23.8135 23.5999 24.7743 20.4755C25.8429 17.0025 29.873 13.6018 34.6357 15.0456C34.6357 15.0456 29.3498 15.7527 26.7815 20.3341C25.6019 22.4389 26.7339 28.5167 26.7339 28.5167L25.047 28.6976Z" fill="#C7C7C7"/>
<path d="M30.1647 30.4145C30.6467 33.0456 29.242 35.5253 27.0224 35.966C24.8028 36.4067 22.6086 34.6505 22.1234 32.0194C21.6383 29.3884 23.0461 26.9086 25.2657 26.4679C27.4853 26.0272 29.6796 27.79 30.1647 30.4145Z" fill="#C7C7C7"/>
<path d="M28.9661 30.4997C29.4005 32.8578 28.1354 35.104 26.1409 35.4888C24.1464 35.8736 22.1741 34.2884 21.7397 31.9336C21.3053 29.5788 22.5673 27.3292 24.5618 26.9444C26.5563 26.5596 28.5286 28.1383 28.9661 30.4997Z" fill="#455A64"/>
<path d="M66.3538 14.8352C66.1635 16.7271 65.4701 18.5269 64.3509 20.0338C63.2318 21.5407 61.7309 22.6954 60.0159 23.3691C58.3009 24.0428 56.4391 24.2089 54.6383 23.849C52.8375 23.489 51.1686 22.6172 49.8177 21.3307L44.8649 22.0838L47.3413 17.6439C46.7777 16.199 46.5387 14.6399 46.6423 13.085C46.746 11.53 47.1896 10.0199 47.9395 8.66914C48.6895 7.31841 49.726 6.1625 50.9707 5.28903C52.2154 4.41557 53.6354 3.84748 55.1232 3.62784C56.611 3.4082 58.1275 3.54277 59.5577 4.02135C60.9879 4.49993 62.2942 5.30995 63.3778 6.39001C64.4613 7.47008 65.2935 8.79183 65.8113 10.2551C66.3292 11.7183 66.519 13.2846 66.3665 14.8352H66.3538Z" fill="white"/>
<path d="M66.3537 14.8354C66.1606 16.728 65.4696 18.529 64.3561 20.0416C64.0776 20.416 63.778 20.7729 63.4587 21.1105C63.1285 21.4384 62.779 21.7449 62.4124 22.0281C61.6837 22.6029 60.8797 23.0669 60.0247 23.4061C59.1708 23.7532 58.2743 23.9746 57.3612 24.0639C56.9037 24.1072 56.4437 24.116 55.985 24.0902C55.5253 24.0787 55.0673 24.0292 54.6152 23.9422C52.7905 23.5946 51.0953 22.7268 49.7194 21.4361L49.8367 21.4723L44.8902 22.2616L44.5319 22.3175L44.7126 21.9886L47.1764 17.5388V17.7164C46.5958 16.2448 46.3488 14.6545 46.4543 13.0682C46.5599 11.4819 47.0152 9.9419 47.7852 8.56691C48.5564 7.19745 49.6166 6.02694 50.8863 5.14325C52.154 4.27251 53.5953 3.71071 55.1022 3.49996C56.609 3.28922 58.1423 3.435 59.5871 3.92638C61.0145 4.43176 62.3146 5.26223 63.3921 6.35683C64.4724 7.4453 65.3003 8.77401 65.8134 10.2427C66.3264 11.7115 66.5112 13.2818 66.3537 14.8354ZM66.3537 14.8354C66.5119 13.2893 66.3258 11.7262 65.8096 10.2666C65.2934 8.80688 64.461 7.48961 63.3765 6.41626C62.2921 5.34292 60.9845 4.54216 59.5545 4.07569C58.1246 3.60923 56.6105 3.48951 55.1289 3.72576C53.661 3.95446 52.263 4.52817 51.0417 5.40306C49.8321 6.28313 48.8215 7.42554 48.0801 8.75109C47.3453 10.0809 46.9116 11.5665 46.8117 13.0956C46.7186 14.6216 46.9558 16.1499 47.5061 17.5684L47.5442 17.6605L47.4966 17.7427L45.0043 22.1761L44.8267 21.9031L49.7828 21.1829H49.8526L49.9001 21.2322C51.2238 22.5152 52.8649 23.3919 54.6406 23.7646C55.0828 23.8567 55.5312 23.9127 55.9818 23.9323C56.4326 23.9652 56.885 23.9652 57.3358 23.9323C58.2399 23.8592 59.1298 23.6566 59.9803 23.3305C60.8355 23.0102 61.6401 22.5603 62.368 21.9952C63.1097 21.4449 63.7654 20.7793 64.3117 20.0219C65.4423 18.5226 66.1492 16.727 66.3537 14.8354Z" fill="#263238"/>
<path d="M60.8143 15.3223C61.4762 15.3223 62.0128 14.7657 62.0128 14.0791C62.0128 13.3925 61.4762 12.8359 60.8143 12.8359C60.1523 12.8359 59.6157 13.3925 59.6157 14.0791C59.6157 14.7657 60.1523 15.3223 60.8143 15.3223Z" fill="#263238"/>
<path d="M56.5209 15.3223C57.1828 15.3223 57.7195 14.7657 57.7195 14.0791C57.7195 13.3925 57.1828 12.8359 56.5209 12.8359C55.8589 12.8359 55.3223 13.3925 55.3223 14.0791C55.3223 14.7657 55.8589 15.3223 56.5209 15.3223Z" fill="#263238"/>
<path d="M53.4262 14.0797C53.4268 14.3257 53.3571 14.5664 53.2257 14.7713C53.0944 14.9762 52.9075 15.136 52.6885 15.2306C52.4695 15.3252 52.2284 15.3503 51.9957 15.3027C51.763 15.2551 51.5492 15.137 51.3812 14.9632C51.2133 14.7895 51.0988 14.568 51.0523 14.3268C51.0058 14.0855 51.0293 13.8354 51.12 13.608C51.2106 13.3807 51.3642 13.1863 51.5614 13.0496C51.7586 12.9128 51.9904 12.8398 52.2276 12.8398C52.545 12.8398 52.8493 12.9704 53.074 13.2028C53.2987 13.4352 53.4254 13.7506 53.4262 14.0797Z" fill="#263238"/>
<path d="M48.8062 87.623H46.6849V89.0603H48.8062V87.623Z" fill="#455A64"/>
<path d="M51.5585 87.5273H49.4372V88.9646H51.5585V87.5273Z" fill="#455A64"/>
<path d="M54.3108 87.4316H52.1895V88.8689H54.3108V87.4316Z" fill="#455A64"/>
<path d="M57.0601 87.3359H54.9388V88.7732H57.0601V87.3359Z" fill="#455A64"/>
<path d="M59.8124 87.2422H57.6911V88.6794H59.8124V87.2422Z" fill="#455A64"/>
<path d="M62.5647 87.1484H60.4433V88.5857H62.5647V87.1484Z" fill="#455A64"/>
<path d="M65.3138 87.0547H63.1925V88.4919H65.3138V87.0547Z" fill="#455A64"/>
<path d="M68.0662 86.959H65.9449V88.3962H68.0662V86.959Z" fill="#455A64"/>
<path d="M70.8184 86.8633H68.6971V88.3005H70.8184V86.8633Z" fill="#455A64"/>
<path d="M71.3385 89.8847H46.1682V88.135L71.3385 87.4082V89.8847Z" fill="#37474F"/>
<path d="M95.9031 82.9921H54.3521L60.9602 50.9062H102.511L95.9031 82.9921Z" fill="#455A64"/>
<path d="M97.441 82.9921H55.89L62.4981 50.9062H104.049L97.441 82.9921Z" fill="#37474F"/>
<path d="M83.5589 65.0903C83.4316 65.8202 83.067 66.4828 82.5257 66.9676C81.9845 67.4523 81.2994 67.73 80.5846 67.7543C80.2616 67.7652 79.9404 67.7 79.6452 67.5635C79.3499 67.427 79.0884 67.2229 78.8802 66.9665C78.6721 66.71 78.5227 66.408 78.4433 66.083C78.364 65.758 78.3567 65.4186 78.4221 65.0903C78.5487 64.3598 78.9131 63.6965 79.4544 63.2111C79.9957 62.7256 80.6812 62.4475 81.3964 62.4231C81.7197 62.412 82.0413 62.4773 82.3368 62.614C82.6323 62.7506 82.894 62.955 83.1023 63.2119C83.3105 63.4687 83.4598 63.7712 83.5389 64.0966C83.618 64.422 83.6248 64.7618 83.5589 65.0903Z" fill="#263238"/>
<path d="M85.6897 91.3728H65.2535V89.7251L85.6897 89.041V91.3728Z" fill="#455A64"/>
<path d="M91.2451 91.3687H80.2707L73.6626 73.3887H84.637L91.2451 91.3687Z" fill="#455A64"/>
<path d="M93.0525 91.3687H82.0781L75.47 73.3887H86.4444L93.0525 91.3687Z" fill="#263238"/>
<path d="M45.3913 91.8099H24.3209C22.523 91.8099 25.1231 86.4984 31.6868 84.4626C38.2505 82.4269 47.4587 89.8169 45.3913 91.8099Z" fill="#37474F"/>
<path d="M37.1216 91.8094C37.1372 91.2044 37.2333 90.6046 37.407 90.0269C37.5774 89.4437 37.8149 88.8839 38.1141 88.3594C38.4174 87.834 38.7947 87.3584 39.2334 86.9485C39.6702 86.5435 40.1726 86.2218 40.7174 85.998C40.4922 86.1888 40.2354 86.3269 40.0293 86.5341L39.7122 86.8203L39.4141 87.1491C39.0227 87.5712 38.68 88.0392 38.3931 88.5436C38.1015 89.0472 37.8512 89.5752 37.6448 90.1222C37.4344 90.6719 37.2596 91.2356 37.1216 91.8094Z" fill="#263238"/>
<path d="M39.6171 86.7539C40.8704 87.1653 42.0561 87.7719 43.1336 88.5529C43.6792 88.9446 44.1738 89.4077 44.6049 89.9309C45.0537 90.4485 45.3295 91.1025 45.3913 91.7957C45.2155 91.1524 44.8798 90.5683 44.4178 90.1019C43.9685 89.6273 43.4769 89.1979 42.9497 88.8193C42.4297 88.4279 41.8779 88.076 41.3199 87.7307C40.7618 87.3854 40.1974 87.0729 39.6171 86.7539Z" fill="#263238"/>
</svg>
