<svg width="184" height="109" viewBox="0 0 184 109" fill="none" xmlns="http://www.w3.org/2000/svg">
<path d="M117.182 84.088H99.4781V85.4624H117.182V84.088Z" fill="#EBEBEB"/>
<path d="M117.182 84.088H112.321V85.4624H117.182V84.088Z" fill="#E0E0E0"/>
<path d="M97.2297 85.4598V91.647H96.2581V92.3184H97.2297V96.46H115.357V92.6923H114.014V91.8708H115.357V90.6387H115.955V90.0805H115.239V85.4598H97.2297Z" fill="#F5F5F5"/>
<path d="M110.544 85.4782V96.3889H115.357V92.6212H114.014V91.8708H115.357V90.6387H115.955V90.012H115.246V85.4598L110.544 85.4782Z" fill="#E0E0E0"/>
<path d="M110.886 92.2342C110.886 92.2737 107.606 92.3026 103.559 92.3026C99.5124 92.3026 96.2344 92.2737 96.2344 92.2342C96.2344 92.1947 99.5124 92.1657 103.559 92.1657C107.606 92.1657 110.886 92.192 110.886 92.2342Z" fill="#E0E0E0"/>
<path d="M110.886 91.5996C110.886 91.6391 107.606 91.6707 103.559 91.6707C99.5124 91.6707 96.2344 91.6391 96.2344 91.5996C96.2344 91.5602 99.5124 91.5312 103.559 91.5312C107.606 91.5312 110.886 91.5628 110.886 91.5996Z" fill="#E0E0E0"/>
<path d="M111.816 89.9094C111.816 89.9462 108.538 89.9778 104.491 89.9778C100.444 89.9778 97.1638 89.9462 97.1638 89.9094C97.1638 89.8725 100.444 89.8409 104.491 89.8409C108.538 89.8409 111.816 89.8646 111.816 89.9094Z" fill="#E0E0E0"/>
<path d="M111.919 94.5195C111.919 94.5564 108.638 94.588 104.591 94.588C100.544 94.588 97.2639 94.5564 97.2639 94.5195C97.2639 94.4827 100.544 94.4511 104.591 94.4511C108.638 94.4511 111.919 94.48 111.919 94.5195Z" fill="#E0E0E0"/>
<path d="M99.2859 97.7632V103.951H98.3144V104.622H99.2859V108.769H117.413V105.001H116.071V104.18H117.413V102.947H118.011V102.389H117.303V97.7632H99.2859Z" fill="#F5F5F5"/>
<path d="M112.6 97.7869V108.7H117.413V104.933H116.071V104.18L117.413 104.206V102.974L118.022 102.976L118.011 102.339L117.303 102.321V97.7685L112.6 97.7869Z" fill="#E0E0E0"/>
<path d="M112.943 104.538C112.943 104.577 109.662 104.606 105.618 104.606C101.574 104.606 98.2907 104.577 98.2907 104.538C98.2907 104.498 101.569 104.469 105.618 104.469C109.667 104.469 112.943 104.501 112.943 104.538Z" fill="#E0E0E0"/>
<path d="M112.943 103.911C112.943 103.948 109.662 103.979 105.618 103.979C101.574 103.979 98.2907 103.948 98.2907 103.911C98.2907 103.874 101.569 103.843 105.618 103.843C109.667 103.843 112.943 103.872 112.943 103.911Z" fill="#E0E0E0"/>
<path d="M113.885 102.218C113.885 102.258 110.605 102.287 106.558 102.287C102.511 102.287 99.2307 102.258 99.2307 102.218C99.2307 102.179 102.511 102.15 106.558 102.15C110.605 102.15 113.885 102.181 113.885 102.218Z" fill="#E0E0E0"/>
<path d="M113.975 106.828C113.975 106.865 110.694 106.897 106.647 106.897C102.601 106.897 99.3228 106.865 99.3228 106.828C99.3228 106.791 102.601 106.76 106.647 106.76C110.694 106.76 113.975 106.789 113.975 106.828Z" fill="#E0E0E0"/>
<path d="M99.0227 73.0879V79.2752H98.0538V79.9465H99.0227V84.0881H117.15V80.3204H115.807V79.499H117.15V78.2799H117.748V77.7218H117.039V73.0879H99.0227Z" fill="#F5F5F5"/>
<path d="M112.337 73.1063V84.017H117.15V80.2493H115.807V79.499L117.15 79.5253V78.2931H117.758L117.748 77.6586L117.039 77.6401V73.0879L112.337 73.1063Z" fill="#E0E0E0"/>
<path d="M112.679 79.8597C112.679 79.8991 109.399 79.9281 105.355 79.9281C101.311 79.9281 98.0274 79.8991 98.0274 79.8597C98.0274 79.8202 101.305 79.7912 105.355 79.7912C109.404 79.7912 112.679 79.8202 112.679 79.8597Z" fill="#E0E0E0"/>
<path d="M112.679 79.2278C112.679 79.2673 109.399 79.2988 105.355 79.2988C101.311 79.2988 98.0274 79.2673 98.0274 79.2278C98.0274 79.1883 101.305 79.1593 105.355 79.1593C109.404 79.1593 112.679 79.1909 112.679 79.2278Z" fill="#E0E0E0"/>
<path d="M113.622 77.5374C113.622 77.5743 110.341 77.6059 106.295 77.6059C102.248 77.6059 98.9674 77.5743 98.9674 77.5374C98.9674 77.5006 102.248 77.469 106.295 77.469C110.341 77.469 113.622 77.4901 113.622 77.5374Z" fill="#E0E0E0"/>
<path d="M113.712 82.1476C113.712 82.1845 110.431 82.2161 106.384 82.2161C102.337 82.2161 99.0595 82.1845 99.0595 82.1476C99.0595 82.1108 102.337 82.0792 106.384 82.0792C110.431 82.0792 113.712 82.1081 113.712 82.1476Z" fill="#E0E0E0"/>
<path d="M115.994 96.3968H98.2907V97.7711H115.994V96.3968Z" fill="#EBEBEB"/>
<path d="M115.994 96.3968H111.134V97.7711H115.994V96.3968Z" fill="#E0E0E0"/>
<path d="M166.132 48.6653H130.683V105.962H166.132V48.6653Z" fill="#E0E0E0"/>
<path d="M167.999 47.8675H154.274V63.9439H167.999V47.8675Z" fill="#EBEBEB"/>
<path d="M163.323 31.699L163.328 34.0396L162.457 34.424L163.602 34.4214L163.823 35.8905L143.139 38.2285L141.062 34.9953L163.323 31.699Z" fill="#F5F5F5"/>
<path d="M166.548 36.6435L166.272 35.285L163.71 35.5983L151.738 37.0648L152.194 38.5471L166.548 36.6435Z" fill="#E0E0E0"/>
<path d="M143.579 39.5371L155.227 38.1969C154.949 37.3272 154.376 36.582 153.606 36.0901C152.837 35.5983 151.92 35.3908 151.014 35.5035L141.831 36.6541L143.579 39.5371Z" fill="#E0E0E0"/>
<path d="M127.876 36.7673L127.897 44.6449L168.423 44.5396C168.422 44.0494 168.324 43.5642 168.136 43.1118C167.947 42.6594 167.671 42.2486 167.324 41.9029C166.976 41.5571 166.564 41.2832 166.111 41.0969C165.657 40.9105 165.172 40.8153 164.681 40.8167L146.443 40.8641L141.736 34.4767L130.02 34.5978C129.448 34.6034 128.902 34.8345 128.501 35.241C128.1 35.6474 127.875 36.196 127.876 36.7673Z" fill="#EBEBEB"/>
<path d="M128.026 45.1398V48.2098C128.026 48.5526 128.163 48.8814 128.405 49.1239C128.648 49.3663 128.976 49.5025 129.319 49.5025H167.999V45.1398H128.026Z" fill="#EBEBEB"/>
<path d="M130.328 63.9439H167.999V81.966H128.071V66.2029C128.071 65.9064 128.129 65.6127 128.242 65.3386C128.355 65.0645 128.522 64.8155 128.731 64.6057C128.941 64.3959 129.19 64.2294 129.464 64.1159C129.737 64.0023 130.031 63.9439 130.328 63.9439Z" fill="#EBEBEB"/>
<path d="M129.848 82.3398H166.754C167.084 82.3398 167.401 82.471 167.634 82.7046C167.868 82.9381 167.999 83.2549 167.999 83.5852V88.8773H128.071V84.1197C128.071 83.6481 128.258 83.1958 128.592 82.8621C128.925 82.5284 129.377 82.3405 129.848 82.3398Z" fill="#EBEBEB"/>
<path d="M141.567 82.3398H154.347V84.0065C154.347 84.3675 154.204 84.7137 153.949 84.969C153.693 85.2242 153.347 85.3677 152.986 85.3677H142.929C142.568 85.3677 142.221 85.2242 141.966 84.969C141.711 84.7137 141.567 84.3675 141.567 84.0065V82.3398Z" fill="#E0E0E0"/>
<path d="M129.946 89.1353H166.122C166.62 89.1353 167.097 89.3331 167.449 89.6851C167.801 90.0372 167.999 90.5146 167.999 91.0125V102.35H128.071V91.0125C128.071 90.5151 128.269 90.038 128.62 89.686C128.972 89.3341 129.448 89.136 129.946 89.1353Z" fill="#EBEBEB"/>
<path d="M141.567 89.1353H154.347V90.8019C154.347 91.1629 154.204 91.5091 153.949 91.7644C153.693 92.0197 153.347 92.1631 152.986 92.1631H142.929C142.568 92.1631 142.221 92.0197 141.966 91.7644C141.711 91.5091 141.567 91.1629 141.567 90.8019V89.1353Z" fill="#E0E0E0"/>
<path d="M167.999 103.024H128.071V108.903H167.999V103.024Z" fill="#EBEBEB"/>
<path d="M154.274 59.5707H138.603V60.5527H154.274V59.5707Z" fill="#FAFAFA"/>
<path d="M154.271 55.9057H133.182V59.5707H154.271V55.9057Z" fill="#F5F5F5"/>
<path d="M146.043 54.6472V45.1398H168.002V52.949C168.002 53.172 167.958 53.3928 167.872 53.5988C167.787 53.8049 167.662 53.9921 167.504 54.1498C167.346 54.3075 167.159 54.4326 166.953 54.5179C166.747 54.6032 166.526 54.6472 166.303 54.6472H146.043Z" fill="#F5F5F5"/>
<path d="M159.226 46.4221H147.573V52.4856H159.226V46.4221Z" fill="white"/>
<path d="M161.788 46.4221H161.135V47.075H161.788V46.4221Z" fill="#E0E0E0"/>
<path d="M163.054 46.4221H162.401V47.075H163.054V46.4221Z" fill="#E0E0E0"/>
<path d="M164.318 46.4221H163.665V47.075H164.318V46.4221Z" fill="#E0E0E0"/>
<path d="M166.948 46.4221H165.182V47.075H166.948V46.4221Z" fill="#E0E0E0"/>
<path d="M166.948 47.541H165.182V48.194H166.948V47.541Z" fill="#E0E0E0"/>
<path d="M166.948 48.6653H165.182V49.3182H166.948V48.6653Z" fill="#E0E0E0"/>
<path d="M166.948 49.8685H165.182V50.5215H166.948V49.8685Z" fill="#E0E0E0"/>
<path d="M164.318 47.5621H163.665V48.2151H164.318V47.5621Z" fill="#E0E0E0"/>
<path d="M161.788 47.5963H161.135V48.2493H161.788V47.5963Z" fill="#E0E0E0"/>
<path d="M161.788 48.6863H161.135V49.3393H161.788V48.6863Z" fill="#E0E0E0"/>
<path d="M163.094 47.5963H162.441V48.2493H163.094V47.5963Z" fill="#E0E0E0"/>
<path d="M163.094 48.6863H162.441V49.3393H163.094V48.6863Z" fill="#E0E0E0"/>
<path d="M164.373 48.6863H163.72V49.3393H164.373V48.6863Z" fill="#E0E0E0"/>
<path d="M165.045 51.9116C165.045 52.1366 164.978 52.3565 164.853 52.5435C164.728 52.7306 164.55 52.8763 164.343 52.9624C164.135 53.0485 163.906 53.071 163.685 53.0272C163.465 52.9833 163.262 52.8749 163.103 52.7159C162.944 52.5568 162.836 52.3541 162.792 52.1335C162.748 51.9129 162.77 51.6842 162.857 51.4763C162.943 51.2685 163.088 51.0909 163.275 50.9659C163.463 50.8409 163.682 50.7742 163.907 50.7742C164.057 50.7739 164.205 50.803 164.343 50.8601C164.481 50.9171 164.607 51.0009 164.712 51.1066C164.818 51.2123 164.902 51.3378 164.959 51.4759C165.016 51.6141 165.045 51.7621 165.045 51.9116Z" fill="#E0E0E0"/>
<path d="M162.341 51.9116C162.341 52.045 162.301 52.1754 162.227 52.2863C162.153 52.3972 162.047 52.4836 161.924 52.5346C161.801 52.5855 161.665 52.5987 161.534 52.5725C161.404 52.5463 161.283 52.4818 161.189 52.3873C161.095 52.2927 161.031 52.1724 161.005 52.0415C160.98 51.9106 160.993 51.775 161.045 51.6518C161.096 51.5287 161.183 51.4236 161.294 51.3499C161.405 51.2762 161.536 51.2371 161.669 51.2376C161.758 51.2376 161.845 51.255 161.927 51.2889C162.009 51.3228 162.083 51.3725 162.145 51.4352C162.208 51.4978 162.257 51.5721 162.29 51.6539C162.324 51.7356 162.341 51.8232 162.341 51.9116Z" fill="#E0E0E0"/>
<path d="M166.806 51.9222C166.806 52.0555 166.767 52.1858 166.693 52.2966C166.619 52.4075 166.513 52.4939 166.39 52.5449C166.267 52.5959 166.131 52.6092 166.001 52.5832C165.87 52.5572 165.75 52.493 165.656 52.3988C165.561 52.3045 165.497 52.1844 165.471 52.0537C165.445 51.9229 165.458 51.7874 165.509 51.6642C165.56 51.5411 165.647 51.4358 165.758 51.3617C165.869 51.2877 165.999 51.2481 166.132 51.2481C166.311 51.2481 166.482 51.3191 166.609 51.4456C166.735 51.572 166.806 51.7434 166.806 51.9222Z" fill="#E0E0E0"/>
<path d="M167.975 80.2098C167.975 80.2493 159.052 80.2783 148.05 80.2783C137.047 80.2783 128.121 80.2493 128.121 80.2098C128.121 80.1703 137.041 80.1414 148.05 80.1414C159.058 80.1414 167.975 80.1729 167.975 80.2098Z" fill="#E0E0E0"/>
<path d="M167.975 78.7459C167.975 78.7828 159.052 78.8144 148.05 78.8144C137.047 78.8144 128.121 78.7828 128.121 78.7459C128.121 78.7091 137.041 78.6775 148.05 78.6775C159.058 78.6775 167.975 78.7091 167.975 78.7459Z" fill="#E0E0E0"/>
<path d="M167.975 77.282C167.975 77.3189 159.052 77.3505 148.05 77.3505C137.047 77.3505 128.121 77.3189 128.121 77.282C128.121 77.2452 137.041 77.2136 148.05 77.2136C159.058 77.2136 167.975 77.2425 167.975 77.282Z" fill="#E0E0E0"/>
<path d="M167.975 75.8182C167.975 75.855 159.052 75.8866 148.05 75.8866C137.047 75.8866 128.121 75.855 128.121 75.8182C128.121 75.7813 137.041 75.7471 148.05 75.7471C159.058 75.7471 167.975 75.7787 167.975 75.8182Z" fill="#E0E0E0"/>
<path d="M37.3132 84.2223H19.6097V85.5967H37.3132V84.2223Z" fill="#EBEBEB"/>
<path d="M37.3132 84.2223H32.4529V85.5967H37.3132V84.2223Z" fill="#E0E0E0"/>
<path d="M17.3612 85.5967V91.7813H16.3923V92.4527H17.3612V96.5943H35.4886V92.8266H34.1458V92.0051H35.4886V90.7756H36.0863V90.2148H35.378V85.5967H17.3612Z" fill="#F5F5F5"/>
<path d="M30.6757 85.6125V96.5258H35.4886V92.7581H34.1458V92.0051H35.4886V90.7756H36.0863V90.1463H35.378V85.5967L30.6757 85.6125Z" fill="#E0E0E0"/>
<path d="M31.018 92.3632C31.018 92.4027 27.7374 92.4343 23.6933 92.4343C19.6492 92.4343 16.366 92.4027 16.366 92.3632C16.366 92.3237 19.6466 92.2947 23.6933 92.2947C27.74 92.2947 31.018 92.3263 31.018 92.3632Z" fill="#E0E0E0"/>
<path d="M31.018 91.7366C31.018 91.7734 27.7374 91.805 23.6933 91.805C19.6492 91.805 16.366 91.7734 16.366 91.7366C16.366 91.6997 19.6466 91.6681 23.6933 91.6681C27.74 91.6681 31.018 91.7076 31.018 91.7366Z" fill="#E0E0E0"/>
<path d="M31.9605 90.0436C31.9605 90.0831 28.68 90.1121 24.6332 90.1121C20.5865 90.1121 17.3059 90.0831 17.3059 90.0436C17.3059 90.0041 20.5865 89.9752 24.6332 89.9752C28.68 89.9752 31.9605 90.0068 31.9605 90.0436Z" fill="#E0E0E0"/>
<path d="M32.0395 94.6538C32.0395 94.6906 28.759 94.7222 24.7122 94.7222C20.6655 94.7222 17.3875 94.6906 17.3875 94.6538C17.3875 94.6169 20.6655 94.5853 24.7122 94.5853C28.759 94.5853 32.0395 94.6169 32.0395 94.6538Z" fill="#E0E0E0"/>
<path d="M19.4175 97.9054V104.082H18.4486V104.754H19.4175V108.895H37.5475V105.135H36.2021V104.314H37.5475V103.084H38.1425V102.523H37.4343V97.9054H19.4175Z" fill="#F5F5F5"/>
<path d="M32.732 97.9239V108.835H37.5449V105.067H36.2021V104.314L37.5449 104.34V103.111H38.1557L38.1425 102.473L37.4343 102.455V97.9054L32.732 97.9239Z" fill="#E0E0E0"/>
<path d="M33.0742 104.675C33.0742 104.711 29.7937 104.743 25.7496 104.743C21.7055 104.743 18.4223 104.711 18.4223 104.675C18.4223 104.638 21.7028 104.606 25.7496 104.606C29.7963 104.606 33.0742 104.635 33.0742 104.675Z" fill="#E0E0E0"/>
<path d="M33.0742 104.045C33.0742 104.082 29.7937 104.114 25.7496 104.114C21.7055 104.114 18.4223 104.082 18.4223 104.045C18.4223 104.008 21.7028 103.977 25.7496 103.977C29.7963 103.977 33.0742 104.008 33.0742 104.045Z" fill="#E0E0E0"/>
<path d="M34.0168 102.355C34.0168 102.392 30.7363 102.423 26.6895 102.423C22.6428 102.423 19.3622 102.392 19.3622 102.355C19.3622 102.318 22.6428 102.287 26.6895 102.287C30.7363 102.287 34.0168 102.315 34.0168 102.355Z" fill="#E0E0E0"/>
<path d="M34.1063 106.963C34.1063 106.999 30.8258 107.031 26.7817 107.031C22.7376 107.031 19.4544 106.999 19.4544 106.963C19.4544 106.926 22.7323 106.894 26.7817 106.894C30.831 106.894 34.1063 106.926 34.1063 106.963Z" fill="#E0E0E0"/>
<path d="M19.1542 73.2248V79.4094H18.1853V80.0808H19.1542V84.2223H37.2842V80.4547H35.9415V79.6332H37.2842V78.4037H37.8793V77.8429H37.171V73.2248H19.1542Z" fill="#F5F5F5"/>
<path d="M32.4687 73.2406V84.1539H37.2842V80.3862H35.9388V79.6332L37.2842 79.6596V78.4274L37.8924 78.43L37.8793 77.7928L37.171 77.7744V73.2248L32.4687 73.2406Z" fill="#E0E0E0"/>
<path d="M32.811 79.9939C32.811 80.0308 29.5304 80.0624 25.4863 80.0624C21.4422 80.0624 18.159 80.0308 18.159 79.9939C18.159 79.9571 21.4396 79.9228 25.4863 79.9228C29.533 79.9228 32.811 79.9544 32.811 79.9939Z" fill="#E0E0E0"/>
<path d="M32.811 79.3647C32.811 79.4015 29.5304 79.4331 25.4863 79.4331C21.4422 79.4331 18.159 79.4015 18.159 79.3647C18.159 79.3278 21.4396 79.2962 25.4863 79.2962C29.533 79.2962 32.811 79.3331 32.811 79.3647Z" fill="#E0E0E0"/>
<path d="M33.7535 77.6717C33.7535 77.7112 30.473 77.7428 26.4262 77.7428C22.3795 77.7428 19.0989 77.7112 19.0989 77.6717C19.0989 77.6322 22.3795 77.6033 26.4262 77.6033C30.473 77.6033 33.7535 77.6349 33.7535 77.6717Z" fill="#E0E0E0"/>
<path d="M33.8431 82.2819C33.8431 82.3188 30.5625 82.3503 26.5184 82.3503C22.4743 82.3503 19.1911 82.3188 19.1911 82.2819C19.1911 82.245 22.469 82.2134 26.5184 82.2134C30.5677 82.2134 33.8431 82.245 33.8431 82.2819Z" fill="#E0E0E0"/>
<path d="M36.1258 96.531H18.4223V97.9054H36.1258V96.531Z" fill="#EBEBEB"/>
<path d="M36.1258 96.531H31.2655V97.9054H36.1258V96.531Z" fill="#E0E0E0"/>
<path d="M37.101 8.42434L34.5551 8.43811L34.6236 21.1073L37.1696 21.0936L37.101 8.42434Z" fill="#E0E0E0"/>
<path d="M19.09 8.4587L12.4947 8.49438L12.5326 15.4898L19.1278 15.4542L19.09 8.4587Z" fill="#EBEBEB"/>
<path d="M25.6535 8.42318L19.0582 8.45886L19.096 15.4543L25.6913 15.4186L25.6535 8.42318Z" fill="#F5F5F5"/>
<path d="M12.5036 10.428C16.8917 10.4613 21.2798 10.4411 25.668 10.3674C25.6868 10.3674 25.7049 10.3599 25.7182 10.3466C25.7316 10.3332 25.739 10.3152 25.739 10.2963C25.739 10.2775 25.7316 10.2594 25.7182 10.246C25.7049 10.2327 25.6868 10.2252 25.668 10.2252C21.2868 10.2015 16.8926 10.2252 12.5036 10.3068C12.4875 10.3068 12.4721 10.3132 12.4607 10.3246C12.4494 10.3359 12.443 10.3513 12.443 10.3674C12.443 10.3835 12.4494 10.3989 12.4607 10.4102C12.4721 10.4216 12.4875 10.428 12.5036 10.428Z" fill="#E0E0E0"/>
<path d="M20.3647 15.3367L8.38527 15.4015L8.41611 21.1016L20.3955 21.0368L20.3647 15.3367Z" fill="#EBEBEB"/>
<path d="M32.2859 15.2722L20.3064 15.337L20.3373 21.0371L32.3167 20.9723L32.2859 15.2722Z" fill="#F5F5F5"/>
<path d="M8.39099 16.9865C16.3502 17.0786 24.3357 16.9865 32.2949 16.8706C32.3138 16.8706 32.3319 16.8631 32.3452 16.8498C32.3585 16.8365 32.366 16.8184 32.366 16.7995C32.366 16.7807 32.3585 16.7626 32.3452 16.7493C32.3319 16.7359 32.3138 16.7284 32.2949 16.7284C24.3357 16.6863 16.3476 16.6916 8.39099 16.868C8.37741 16.8709 8.36524 16.8783 8.3565 16.8891C8.34776 16.8999 8.34299 16.9133 8.34299 16.9272C8.34299 16.9411 8.34776 16.9546 8.3565 16.9653C8.36524 16.9761 8.37741 16.9836 8.39099 16.9865Z" fill="#E0E0E0"/>
<path d="M50.3249 21.1017H3.90983V23.1448H50.3249V21.1017Z" fill="#E0E0E0"/>
<path d="M13.3961 22.0837H11.511V29.0529H13.3961V22.0837Z" fill="#E0E0E0"/>
<path d="M41.5232 22.0837H39.638V29.0529H41.5232V22.0837Z" fill="#E0E0E0"/>
<path d="M39.5846 3.70067L37.0386 3.71445L37.1329 21.1412L39.6788 21.1275L39.5846 3.70067Z" fill="#EBEBEB"/>
<path d="M43.5672 6.94127L39.61 6.96268L39.6864 21.0852L43.6436 21.0638L43.5672 6.94127Z" fill="#F5F5F5"/>
<path d="M43.5373 9.66705C42.8805 9.73472 42.2199 9.75759 41.56 9.7355C40.8993 9.75774 40.2378 9.73487 39.5801 9.66705C40.2376 9.59765 40.8993 9.57477 41.56 9.59859C42.2199 9.57492 42.8807 9.59779 43.5373 9.66705Z" fill="#E0E0E0"/>
<path d="M43.5373 9.07463C42.8805 9.14231 42.2199 9.16518 41.56 9.14309C40.8993 9.16532 40.2378 9.14245 39.5801 9.07463C40.2375 9.00348 40.8992 8.97973 41.56 9.00355C42.22 8.97988 42.8808 9.00364 43.5373 9.07463Z" fill="#E0E0E0"/>
<path d="M43.5373 18.9427C42.8807 19.0119 42.2199 19.0348 41.56 19.0111C40.8993 19.0349 40.2376 19.0121 39.5801 18.9427C40.2378 18.8749 40.8993 18.852 41.56 18.8742C42.2199 18.8521 42.8805 18.875 43.5373 18.9427Z" fill="#E0E0E0"/>
<path d="M43.5373 18.3503C42.8805 18.4179 42.2199 18.4408 41.56 18.4187C40.8993 18.441 40.2378 18.4181 39.5801 18.3503C40.2378 18.2824 40.8993 18.2596 41.56 18.2818C42.2199 18.2597 42.8805 18.2826 43.5373 18.3503Z" fill="#E0E0E0"/>
<path d="M41.6232 17.0549C41.5837 17.0549 41.5548 15.6305 41.5548 13.8744C41.5548 12.1182 41.5837 10.6912 41.6232 10.6912C41.6627 10.6912 41.6917 12.1156 41.6917 13.8744C41.6917 15.6331 41.6601 17.0549 41.6232 17.0549Z" fill="#E0E0E0"/>
<path d="M47.8868 10.4148H43.5794V21.0753H47.8868V10.4148Z" fill="#EBEBEB"/>
<path d="M38.2742 7.40803C38.6784 7.40803 39.0061 7.08033 39.0061 6.67609C39.0061 6.27185 38.6784 5.94415 38.2742 5.94415C37.87 5.94415 37.5423 6.27185 37.5423 6.67609C37.5423 7.08033 37.87 7.40803 38.2742 7.40803Z" fill="#E0E0E0"/>
<path d="M38.5006 8.69025H38.0478V19.0559H38.5006V8.69025Z" fill="#E0E0E0"/>
<path d="M177.793 108.835C177.793 108.871 138.582 108.903 90.2262 108.903C41.8707 108.903 2.65131 108.871 2.65131 108.835C2.65131 108.798 41.8523 108.766 90.2262 108.766C138.6 108.766 177.793 108.798 177.793 108.835Z" fill="#263238"/>
<path d="M63.8711 45.2531C80.6451 37.4567 96.9085 28.6057 112.564 18.7531L118.061 39.3475L64.6135 45.4742" fill="#4675C0"/>
<g opacity="0.9">
<path d="M63.8711 45.2531C80.6451 37.4567 96.9085 28.6057 112.564 18.7531L118.061 39.3475L64.6135 45.4742" fill="white"/>
</g>
<path d="M24.8386 49.6868L40.7043 58.586V56.5587L25.5258 48.61L24.8386 49.6868Z" fill="#F5F5F5"/>
<path d="M40.7043 58.586L28.2245 51.5772L27.1819 53.0648L34.8909 57.6408L34.941 59.6312L40.7043 62.7644V58.586Z" fill="#263238"/>
<path d="M40.7043 77.8929L28.2245 70.8842L27.1819 72.3717L34.8909 76.9477L34.941 78.9381L40.7043 82.0713V77.8929Z" fill="#263238"/>
<path d="M43.1424 51.5772H73.7496V72.2243H40.7043V54.0153C40.7043 53.3687 40.9612 52.7485 41.4184 52.2913C41.8757 51.8341 42.4958 51.5772 43.1424 51.5772Z" fill="#4675C0"/>
<path d="M73.7496 72.9931H40.7043V97.1682H73.7496V72.9931Z" fill="#4675C0"/>
<path d="M40.5227 92.5975H26.4947V93.8797L40.7122 95.4016L40.5227 92.5975Z" fill="#263238"/>
<path d="M38.5006 97.6369C38.1794 97.6369 37.8714 97.5093 37.6442 97.2821C37.4171 97.055 37.2895 96.747 37.2895 96.4257V95.212C37.2895 94.8908 37.4171 94.5827 37.6442 94.3556C37.8714 94.1285 38.1794 94.0009 38.5006 94.0009C38.8221 94.0009 39.1304 94.1284 39.3579 94.3554C39.5855 94.5825 39.7137 94.8905 39.7144 95.212V96.4257C39.7137 96.7472 39.5855 97.0552 39.3579 97.2823C39.1304 97.5094 38.8221 97.6369 38.5006 97.6369Z" fill="#263238"/>
<path d="M28.0165 93.3584V89.1748H29.9174V93.6428L28.0165 93.3584Z" fill="#263238"/>
<path d="M73.7496 98.0186H40.7149V105.717H73.7496V98.0186Z" fill="#4675C0"/>
<path opacity="0.6" d="M43.1424 51.5772H73.7496V72.2243H40.7043V54.0153C40.7043 53.3687 40.9612 52.7485 41.4184 52.2913C41.8757 51.8341 42.4958 51.5772 43.1424 51.5772Z" fill="black"/>
<path opacity="0.6" d="M73.7496 72.9931H40.7043V97.1682H73.7496V72.9931Z" fill="black"/>
<path opacity="0.6" d="M73.7496 98.0186H40.7149V105.717H73.7496V98.0186Z" fill="black"/>
<path d="M73.7496 105.717H40.7149V108.834H73.7496V105.717Z" fill="#4675C0"/>
<path d="M101.761 48.5968H66.3118V105.894H101.761V48.5968Z" fill="#4675C0"/>
<path opacity="0.3" d="M101.761 48.5968H66.3118V105.894H101.761V48.5968Z" fill="black"/>
<path d="M103.628 47.799H89.9024V63.8754H103.628V47.799Z" fill="#4675C0"/>
<path d="M85.8793 13.9639L87.2116 15.8885L86.7139 16.6995L87.6539 16.0491L88.6675 17.1313L72.9545 30.7827L69.4106 29.2978L85.8793 13.9639Z" fill="#F5F5F5"/>
<path d="M91.3399 16.2098L90.3421 15.2461L88.4095 16.9549L79.3787 24.9483L80.5925 25.9146L91.3399 16.2098Z" fill="#263238"/>
<path d="M74.0577 31.6121L82.8936 23.9083C82.1715 23.3474 81.2758 23.0572 80.3619 23.0879C79.4481 23.1187 78.5739 23.4686 77.8912 24.0768L70.9825 30.2298L74.0577 31.6121Z" fill="#455A64"/>
<path d="M59.5584 38.2259L64.0343 44.7028L97.3666 21.6466C97.088 21.2433 96.7327 20.8988 96.3209 20.633C95.909 20.3671 95.4488 20.1851 94.9666 20.0973C94.4843 20.0095 93.9895 20.0177 93.5104 20.1213C93.0313 20.225 92.5774 20.4221 92.1745 20.7014L77.1671 31.0776L69.6897 28.4842L60.106 35.2244C59.6369 35.551 59.316 36.0499 59.2134 36.6122C59.1108 37.1746 59.2348 37.7547 59.5584 38.2259Z" fill="#4675C0"/>
<path d="M63.6552 45.0714V48.1413C63.6552 48.4842 63.7914 48.813 64.0338 49.0554C64.2762 49.2979 64.6051 49.4341 64.9479 49.4341H103.628V45.0714H63.6552Z" fill="#4675C0"/>
<path d="M81.6667 54.584V45.0714H103.628V52.8805C103.627 53.3311 103.447 53.7631 103.128 54.0815C102.81 54.3999 102.377 54.5787 101.927 54.5787H81.6667" fill="#263238"/>
<path d="M94.8522 46.3536H83.199V52.4171H94.8522V46.3536Z" fill="#455A64"/>
<path d="M97.4166 46.3536H96.7636V47.0066H97.4166V46.3536Z" fill="#455A64"/>
<path d="M98.683 46.3536H98.0301V47.0066H98.683V46.3536Z" fill="#455A64"/>
<path d="M99.9468 46.3536H99.2939V47.0066H99.9468V46.3536Z" fill="#455A64"/>
<path d="M102.577 46.3536H100.81V47.0066H102.577V46.3536Z" fill="#F5F5F5"/>
<path d="M102.577 47.4726H100.81V48.1255H102.577V47.4726Z" fill="#F5F5F5"/>
<path d="M102.577 48.5968H100.81V49.2498H102.577V48.5968Z" fill="#F5F5F5"/>
<path d="M102.577 49.8H100.81V50.453H102.577V49.8Z" fill="#F5F5F5"/>
<path d="M99.9468 47.4937H99.2939V48.1466H99.9468V47.4937Z" fill="#455A64"/>
<path d="M97.4166 47.5279H96.7636V48.1808H97.4166V47.5279Z" fill="#455A64"/>
<path d="M97.4166 48.6179H96.7636V49.2708H97.4166V48.6179Z" fill="#455A64"/>
<path d="M98.7225 47.5279H98.0696V48.1808H98.7225V47.5279Z" fill="#455A64"/>
<path d="M98.7225 48.6179H98.0696V49.2708H98.7225V48.6179Z" fill="#455A64"/>
<path d="M100.002 48.6179H99.3491V49.2708H100.002V48.6179Z" fill="#455A64"/>
<path d="M100.673 51.8432C100.673 52.0681 100.607 52.288 100.482 52.4751C100.357 52.6621 100.179 52.8079 99.9713 52.894C99.7635 52.9801 99.5348 53.0026 99.3142 52.9587C99.0935 52.9148 98.8909 52.8065 98.7318 52.6474C98.5727 52.4883 98.4644 52.2857 98.4205 52.065C98.3766 51.8444 98.3992 51.6157 98.4853 51.4079C98.5713 51.2001 98.7171 51.0224 98.9042 50.8974C99.0912 50.7725 99.3111 50.7057 99.5361 50.7057C99.8377 50.7057 100.127 50.8256 100.34 51.0389C100.554 51.2522 100.673 51.5415 100.673 51.8432Z" fill="#4675C0"/>
<path d="M97.9695 51.8432C97.9695 51.9766 97.9299 52.107 97.8557 52.2179C97.7815 52.3288 97.6761 52.4152 97.5528 52.4661C97.4295 52.517 97.2938 52.5302 97.163 52.504C97.0322 52.4778 96.9121 52.4133 96.818 52.3188C96.7238 52.2243 96.6598 52.1039 96.6341 51.973C96.6084 51.8421 96.6221 51.7065 96.6735 51.5834C96.725 51.4603 96.8118 51.3552 96.9229 51.2814C97.0341 51.2077 97.1647 51.1686 97.2981 51.1691C97.3865 51.1691 97.474 51.1866 97.5557 51.2205C97.6373 51.2544 97.7114 51.3041 97.7738 51.3667C97.8362 51.4293 97.8856 51.5037 97.9192 51.5854C97.9527 51.6672 97.9699 51.7548 97.9695 51.8432Z" fill="#455A64"/>
<path d="M102.435 51.8537C102.435 51.987 102.395 52.1173 102.321 52.2282C102.247 52.339 102.142 52.4254 102.019 52.4764C101.896 52.5274 101.76 52.5408 101.629 52.5148C101.499 52.4888 101.379 52.4246 101.284 52.3303C101.19 52.236 101.126 52.1159 101.1 51.9852C101.074 51.8544 101.087 51.7189 101.138 51.5958C101.189 51.4726 101.276 51.3673 101.386 51.2933C101.497 51.2192 101.628 51.1797 101.761 51.1797C101.94 51.1797 102.111 51.2507 102.237 51.3771C102.364 51.5035 102.435 51.6749 102.435 51.8537Z" fill="#455A64"/>
<path d="M65.9563 63.8754H103.628V81.8922H63.6999V66.1344C63.6996 65.8379 63.7577 65.5442 63.8709 65.2702C63.9842 64.9961 64.1503 64.747 64.3599 64.5372C64.5694 64.3274 64.8183 64.161 65.0922 64.0474C65.3661 63.9339 65.6598 63.8754 65.9563 63.8754Z" fill="#4675C0"/>
<path d="M65.4771 82.2714H102.382C102.546 82.2714 102.708 82.3036 102.859 82.3662C103.01 82.4287 103.147 82.5205 103.263 82.6361C103.378 82.7518 103.47 82.889 103.533 83.0401C103.595 83.1912 103.628 83.3532 103.628 83.5167V88.8114H63.6999V84.0512C63.6999 83.5796 63.8871 83.1273 64.2203 82.7936C64.5535 82.4599 65.0055 82.2721 65.4771 82.2714Z" fill="#4675C0"/>
<path opacity="0.3" d="M77.1908 82.2714H89.9629V83.938C89.9629 84.299 89.8195 84.6452 89.5642 84.9005C89.309 85.1558 88.9627 85.2992 88.6017 85.2992H78.5441C78.1831 85.2992 77.8369 85.1558 77.5816 84.9005C77.3263 84.6452 77.1829 84.299 77.1829 83.938V82.2714H77.1908Z" fill="black"/>
<path d="M65.5745 89.0747H101.75C102.248 89.0747 102.726 89.2725 103.078 89.6245C103.43 89.9766 103.628 90.4541 103.628 90.952V102.289H63.6999V90.9441C63.702 90.448 63.9004 89.9729 64.2516 89.6227C64.6029 89.2724 65.0785 89.0754 65.5745 89.0747Z" fill="#4675C0"/>
<path opacity="0.3" d="M77.1908 89.0747H89.9629V90.7413C89.9629 91.1023 89.8195 91.4486 89.5642 91.7038C89.309 91.9591 88.9627 92.1025 88.6017 92.1025H78.5441C78.1831 92.1025 77.8369 91.9591 77.5816 91.7038C77.3263 91.4486 77.1829 91.1023 77.1829 90.7413V89.0747H77.1908Z" fill="black"/>
<path d="M103.628 102.955H63.6999V108.834H103.628V102.955Z" fill="#4675C0"/>
<path d="M89.9024 59.5022H74.2315V60.4843H89.9024V59.5022Z" fill="#263238"/>
<path d="M89.8997 55.8372H68.8103V59.5022H89.8997V55.8372Z" fill="#F5F5F5"/>
<path d="M89.8392 47.1461C89.8392 47.1856 88.5359 47.2145 86.943 47.2145C85.3501 47.2145 84.0337 47.1856 84.0337 47.1461C84.0337 47.1066 85.3369 47.0776 86.943 47.0776C88.5491 47.0776 89.8392 47.1092 89.8392 47.1461Z" fill="#FAFAFA"/>
<path d="M86.4901 48.0834C85.6703 48.1747 84.8429 48.1747 84.0231 48.0834C84.8429 47.9921 85.6703 47.9921 86.4901 48.0834Z" fill="#FAFAFA"/>
<path d="M86.4901 49.076C85.6703 49.1673 84.8429 49.1673 84.0231 49.076C84.8429 48.9847 85.6703 48.9847 86.4901 49.076Z" fill="#FAFAFA"/>
<path d="M86.5612 50.7058C85.7423 50.797 84.9158 50.797 84.0969 50.7058C84.9158 50.6145 85.7423 50.6145 86.5612 50.7058Z" fill="#FAFAFA"/>
<path d="M93.3093 50.7058C92.4904 50.797 91.6639 50.797 90.8449 50.7058C91.6639 50.6145 92.4904 50.6145 93.3093 50.7058Z" fill="#FAFAFA"/>
<path opacity="0.5" d="M103.628 102.955H63.6999V108.834H103.628V102.955Z" fill="white"/>
<path d="M95.8948 20.3987C95.8948 20.3987 95.8711 20.4223 95.8158 20.4618L95.5683 20.6356L94.6126 21.2938L91.0898 23.7082C88.1199 25.7487 84.0337 28.5974 79.5709 31.8122C75.1082 35.0269 71.1115 37.9968 68.2337 40.1716L64.8294 42.7492L63.8974 43.4469L63.6525 43.6259C63.6258 43.6471 63.5976 43.6664 63.5683 43.6839C63.5683 43.6839 63.592 43.6575 63.6446 43.6154L63.879 43.4258L64.7899 42.7071C65.5798 42.0831 66.7383 41.1905 68.1706 40.0952C71.0325 37.9047 75.0161 34.919 79.492 31.7016C83.9678 28.4842 88.0514 25.646 91.0371 23.6266C92.53 22.6155 93.7411 21.8046 94.5836 21.257L95.5552 20.6198L95.8184 20.4566L95.8948 20.3987Z" fill="#263238"/>
<path d="M103.604 80.1414C103.604 80.1809 94.681 80.2098 83.6782 80.2098C72.6754 80.2098 63.75 80.1809 63.75 80.1414C63.75 80.1019 72.6702 80.0729 83.6782 80.0729C94.6863 80.0729 103.604 80.1045 103.604 80.1414Z" fill="#263238"/>
<path d="M103.604 78.6775C103.604 78.7143 94.681 78.7459 83.6782 78.7459C72.6754 78.7459 63.75 78.7143 63.75 78.6775C63.75 78.6406 72.6702 78.609 83.6782 78.609C94.6863 78.609 103.604 78.6406 103.604 78.6775Z" fill="#263238"/>
<path d="M103.604 77.2268C103.604 77.2636 94.681 77.2952 83.6782 77.2952C72.6754 77.2952 63.75 77.2636 63.75 77.2268C63.75 77.1899 72.6702 77.1583 83.6782 77.1583C94.6863 77.1583 103.604 77.1741 103.604 77.2268Z" fill="#263238"/>
<path d="M103.604 75.7471C103.604 75.7866 94.681 75.8182 83.6782 75.8182C72.6754 75.8182 63.75 75.7866 63.75 75.7471C63.75 75.7076 72.6702 75.6786 83.6782 75.6786C94.6863 75.6786 103.604 75.7102 103.604 75.7471Z" fill="#263238"/>
<path d="M103.667 88.8114C103.667 88.8483 94.7021 88.8799 83.6572 88.8799C72.6122 88.8799 63.6473 88.8483 63.6473 88.8114C63.6473 88.7746 72.5991 88.743 83.6572 88.743C94.7153 88.743 103.667 88.764 103.667 88.8114Z" fill="#263238"/>
<path d="M103.667 102.281C103.667 102.318 94.7021 102.35 83.6572 102.35C72.6122 102.35 63.6473 102.318 63.6473 102.281C63.6473 102.244 72.5991 102.213 83.6572 102.213C94.7153 102.213 103.667 102.239 103.667 102.281Z" fill="#263238"/>
<path d="M89.9629 82.2714C89.9749 82.3294 89.9802 82.3885 89.9787 82.4478C89.9787 82.5794 89.9998 82.7479 90.0129 82.9559C90.0346 83.2258 90.0346 83.497 90.0129 83.7668C89.9855 84.1337 89.8489 84.484 89.6206 84.7726C89.4789 84.939 89.2979 85.0675 89.0941 85.1465C88.8804 85.2283 88.659 85.2883 88.4332 85.3255C87.942 85.412 87.4444 85.4577 86.9456 85.4624C85.8925 85.4756 84.7498 85.4466 83.5413 85.4335L80.137 85.3808C79.6104 85.3676 79.1181 85.3808 78.6468 85.3439C78.4171 85.3312 78.1911 85.2805 77.978 85.1939C77.7783 85.108 77.6035 84.973 77.4699 84.8016C77.2496 84.5077 77.1222 84.1547 77.1039 83.7879C77.0881 83.472 77.1039 83.2008 77.1039 82.9796C77.1039 82.7584 77.1276 82.5873 77.1382 82.4688C77.1394 82.4093 77.1473 82.3501 77.1618 82.2924C77.1664 82.352 77.1664 82.4119 77.1618 82.4715C77.1618 82.6031 77.1618 82.7716 77.1618 82.9796C77.1618 83.1876 77.1618 83.472 77.1803 83.7695C77.2049 84.1181 77.3323 84.4515 77.5462 84.7278C77.6708 84.8842 77.833 85.0065 78.0175 85.0833C78.2219 85.163 78.4381 85.2084 78.6573 85.2176C79.1154 85.2413 79.6157 85.2334 80.1396 85.2413L83.5439 85.2834C84.7498 85.2965 85.9135 85.3281 86.9456 85.3255C87.437 85.3216 87.9273 85.2793 88.4121 85.1991C88.6314 85.1675 88.8468 85.1128 89.0546 85.0359C89.2406 84.964 89.4061 84.8473 89.5364 84.6962C89.7565 84.4244 89.8919 84.0939 89.926 83.7458C89.9498 83.4832 89.9551 83.2192 89.9419 82.9559C89.9419 82.7348 89.9419 82.5636 89.9419 82.4451C89.9444 82.3868 89.9515 82.3287 89.9629 82.2714Z" fill="#263238"/>
<path d="M89.9629 88.9483C89.9749 89.0063 89.9802 89.0655 89.9787 89.1247C89.9787 89.2538 89.9998 89.4223 90.0129 89.6329C90.0346 89.9028 90.0346 90.1739 90.0129 90.4438C89.985 90.8098 89.8484 91.1591 89.6206 91.4469C89.4798 91.615 89.2986 91.7445 89.0941 91.8234C88.8804 91.9052 88.659 91.9652 88.4332 92.0025C87.942 92.0889 87.4444 92.1347 86.9456 92.1394C85.8925 92.1526 84.7498 92.121 83.5413 92.1104L80.137 92.0578C79.6104 92.0446 79.1181 92.0578 78.6468 92.0209C78.4171 92.0082 78.1911 91.9574 77.978 91.8708C77.7783 91.785 77.6035 91.65 77.4699 91.4785C77.2496 91.1847 77.1222 90.8317 77.1039 90.4649C77.0881 90.1489 77.1039 89.8777 77.1039 89.6566C77.1039 89.4354 77.1276 89.2616 77.1382 89.1458C77.1394 89.0863 77.1473 89.0271 77.1618 88.9694C77.1664 89.029 77.1664 89.0888 77.1618 89.1484C77.1618 89.2774 77.1618 89.4486 77.1618 89.6566C77.1618 89.8646 77.1618 90.1489 77.1803 90.4596C77.2049 90.8082 77.3323 91.1417 77.5462 91.418C77.6715 91.5736 77.8335 91.6957 78.0175 91.7734C78.2223 91.8519 78.4383 91.8972 78.6573 91.9077C79.1154 91.9314 79.6157 91.9235 80.1396 91.9314L83.5439 91.9735C84.7498 91.9735 85.9135 92.0183 86.9456 92.013C87.437 92.0112 87.9274 91.9698 88.4121 91.8893C88.6312 91.8564 88.8464 91.8017 89.0546 91.726C89.2413 91.6542 89.407 91.5365 89.5364 91.3837C89.7568 91.1131 89.8924 90.7833 89.926 90.4359C89.9498 90.1733 89.9551 89.9094 89.9419 89.6461C89.9419 89.4249 89.9419 89.2538 89.9419 89.1353C89.9437 89.0725 89.9508 89.01 89.9629 88.9483Z" fill="#263238"/>
<path d="M97.435 42.0673L95.1365 42.7887L91.1714 43.9287C90.9099 43.9715 90.6725 44.1071 90.5026 44.3105L88.7465 46.4168L91.3057 46.8723L92.1903 45.8455C92.5934 46.0739 93.0576 46.1713 93.5185 46.1241C93.9794 46.0769 94.4142 45.8875 94.7627 45.5822L98.712 44.9503L97.435 42.0673Z" fill="#FFBE9D"/>
<path d="M95.0549 42.9756C94.9949 43.0282 94.9263 43.07 94.8522 43.0994C94.6604 43.1925 94.4624 43.2726 94.2598 43.339C93.7464 43.518 93.0118 43.6496 92.2298 43.8655C91.5594 44.0401 90.9437 44.3805 90.4395 44.8555C90.2485 45.0694 90.0824 45.3044 89.9445 45.5558C89.9546 45.4768 89.9787 45.4001 90.0156 45.3294C90.1048 45.1364 90.2238 44.9587 90.3684 44.8028C90.8681 44.292 91.4982 43.9278 92.1903 43.7497C92.9802 43.5233 93.72 43.4074 94.2308 43.2547C94.7416 43.102 95.0444 42.9572 95.0549 42.9756Z" fill="white"/>
<path d="M110.449 16.1992C109.741 16.9891 109.499 18.0923 109.396 19.1481C109.162 21.4992 109.473 23.8872 109.072 26.2226C108.917 27.1204 108.659 28.0051 108.62 28.916C108.58 29.827 108.799 30.8012 109.457 31.4304C109.936 31.8523 110.526 32.1267 111.158 32.2203C111.859 32.3812 112.592 32.3289 113.264 32.0702C113.666 31.8697 114.025 31.5919 114.32 31.2526C114.615 30.9134 114.841 30.5193 114.983 30.0929C115.728 28.1235 115.167 25.9356 114.82 23.8609C114.293 20.7252 114.267 17.5288 114.241 14.351" fill="#263238"/>
<path d="M114.63 14.0376C115.839 13.6401 117.221 14.1587 118.087 15.0908C118.954 16.0228 119.362 17.3024 119.499 18.5662C119.635 19.83 119.525 21.1069 119.485 22.3786C119.446 23.6503 119.485 24.9483 119.888 26.1541C120.747 28.6712 123.148 30.5089 123.695 33.1128C123.927 34.2134 123.695 35.5535 122.711 36.1038C123.214 36.7726 123.024 37.8046 122.408 38.3733C122.086 38.6423 121.704 38.8304 121.295 38.922C120.885 39.0136 120.46 39.006 120.054 38.8999C119.243 38.6797 118.496 38.272 117.871 37.7099C116.044 36.2012 114.672 33.9949 114.654 31.6253C114.638 29.8849 115.336 28.2289 115.647 26.5175C116.36 22.5945 115.02 18.5609 115.383 14.5905" fill="#263238"/>
<path d="M117.756 18.4108C117.744 17.8632 117.623 17.3233 117.399 16.8233C117.176 16.3233 116.854 15.8734 116.453 15.5001C116.052 15.1269 115.58 14.838 115.065 14.6505C114.55 14.4631 114.003 14.3809 113.456 14.4089C111.271 14.5194 109.586 16.4046 109.575 18.5951C109.575 20.5145 109.599 22.4471 109.707 23.1342C110.036 25.2063 111.371 25.8382 111.897 26.0093C112.084 26.0475 112.273 26.0661 112.464 26.0646C112.468 26.0646 112.472 26.0663 112.475 26.0693C112.478 26.0722 112.479 26.0762 112.479 26.0804L112.363 28.5316C112.385 30.1114 113.459 31.3883 115.052 31.3883C116.645 31.3883 117.685 30.0113 117.708 28.4132L117.756 18.4108Z" fill="#FFBE9D"/>
<path d="M110.352 19.6694C110.352 19.7558 110.385 19.8389 110.445 19.9013C110.505 19.9636 110.587 20.0003 110.673 20.0037C110.716 20.0073 110.758 20.0023 110.799 19.9891C110.839 19.9758 110.877 19.9546 110.909 19.9266C110.941 19.8986 110.967 19.8645 110.986 19.8261C111.005 19.7878 111.016 19.7462 111.018 19.7036C111.019 19.6167 110.986 19.5329 110.926 19.47C110.866 19.4071 110.784 19.37 110.697 19.3666C110.654 19.3634 110.611 19.3687 110.571 19.3822C110.53 19.3958 110.493 19.4173 110.461 19.4455C110.429 19.4737 110.402 19.508 110.384 19.5464C110.365 19.5849 110.354 19.6267 110.352 19.6694Z" fill="#263238"/>
<path d="M110.136 19.0875C110.178 19.1323 110.431 18.9453 110.789 18.9453C111.147 18.9453 111.413 19.1244 111.45 19.0823C111.487 19.0401 111.429 18.9848 111.313 18.9006C111.158 18.7932 110.975 18.7362 110.786 18.7373C110.597 18.7345 110.412 18.7937 110.26 18.9058C110.154 18.9901 110.118 19.0691 110.136 19.0875Z" fill="#263238"/>
<path d="M113.862 19.6694C113.862 19.7562 113.895 19.8397 113.956 19.9021C114.016 19.9646 114.099 20.001 114.185 20.0037C114.228 20.0073 114.27 20.0023 114.311 19.989C114.351 19.9758 114.388 19.9545 114.42 19.9265C114.452 19.8984 114.478 19.8643 114.497 19.826C114.515 19.7877 114.526 19.746 114.528 19.7036C114.528 19.6167 114.495 19.5329 114.435 19.47C114.375 19.4071 114.293 19.37 114.206 19.3666C114.164 19.3634 114.121 19.3687 114.08 19.3822C114.04 19.3958 114.003 19.4173 113.97 19.4455C113.938 19.4737 113.912 19.508 113.893 19.5464C113.875 19.5849 113.864 19.6267 113.862 19.6694Z" fill="#263238"/>
<path d="M113.659 19.156C113.698 19.1981 113.954 19.0111 114.312 19.0111C114.67 19.0111 114.933 19.1928 114.973 19.1481C115.012 19.1033 114.949 19.0506 114.836 18.9664C114.681 18.8603 114.497 18.8034 114.309 18.8031C114.12 18.8022 113.936 18.8612 113.783 18.9716C113.683 19.0559 113.659 19.1349 113.659 19.156Z" fill="#263238"/>
<path d="M112.363 21.8178C112.174 21.7573 111.978 21.7219 111.779 21.7125C111.689 21.7125 111.603 21.6835 111.587 21.623C111.581 21.5312 111.602 21.4396 111.647 21.3597L111.911 20.662C112.162 20.0709 112.365 19.4608 112.519 18.8374C112.221 19.407 111.969 19.9995 111.766 20.6093C111.675 20.8533 111.587 21.0876 111.503 21.3123C111.445 21.4223 111.428 21.5491 111.455 21.6704C111.468 21.7027 111.489 21.7316 111.515 21.7549C111.541 21.7781 111.572 21.7952 111.605 21.8046C111.656 21.8184 111.708 21.8255 111.761 21.8257C111.961 21.8497 112.164 21.847 112.363 21.8178Z" fill="#263238"/>
<path d="M112.479 26.0646C112.479 26.0646 113.864 26.1778 115.599 25.1352C115.599 25.1352 115.052 26.9782 112.44 26.715L112.479 26.0646Z" fill="#EB996E"/>
<path d="M112.514 22.6814C112.583 22.596 112.672 22.5294 112.774 22.4875C112.876 22.4457 112.986 22.43 113.095 22.4418C113.175 22.4494 113.251 22.4726 113.321 22.5101C113.391 22.5476 113.453 22.5987 113.504 22.6603C113.552 22.7204 113.58 22.7939 113.585 22.8707C113.589 22.9475 113.57 23.0239 113.53 23.0895C113.472 23.1537 113.397 23.1993 113.314 23.2204C113.23 23.2415 113.142 23.2372 113.061 23.2079C112.892 23.1514 112.735 23.0619 112.6 22.9447C112.561 22.915 112.526 22.8794 112.498 22.8393C112.484 22.8196 112.477 22.7962 112.477 22.7722C112.477 22.7482 112.484 22.7248 112.498 22.7051" fill="#EB996E"/>
<path d="M113.419 22.0653C113.361 22.0653 113.361 22.4523 113.027 22.7288C112.693 23.0052 112.279 22.9631 112.277 23.0158C112.274 23.0684 112.369 23.0921 112.54 23.0974C112.769 23.1001 112.991 23.0228 113.169 22.8789C113.338 22.7399 113.447 22.5407 113.472 22.3233C113.49 22.1601 113.446 22.0627 113.419 22.0653Z" fill="#263238"/>
<path d="M113.504 18.5267C113.54 18.6241 113.898 18.5767 114.32 18.6294C114.741 18.682 115.081 18.7926 115.139 18.7057C115.162 18.6636 115.104 18.5714 114.965 18.4793C114.782 18.3632 114.575 18.2903 114.359 18.2661C114.144 18.242 113.926 18.2671 113.722 18.3397C113.567 18.4029 113.49 18.4793 113.504 18.5267Z" fill="#263238"/>
<path d="M110.268 18.3529C110.331 18.4346 110.578 18.3529 110.876 18.3529C111.173 18.3529 111.426 18.4082 111.484 18.3213C111.51 18.2792 111.471 18.1976 111.36 18.1212C111.213 18.0266 111.04 17.9797 110.865 17.987C110.691 17.9905 110.521 18.0485 110.381 18.1528C110.276 18.2292 110.236 18.3134 110.268 18.3529Z" fill="#263238"/>
<path d="M108.891 17.6131C109.307 18.2871 110.694 17.9159 111.539 17.4814C111.966 17.7702 112.489 17.8811 112.996 17.7907C113.504 17.7002 113.956 17.4155 114.257 16.997C114.717 17.6157 115.689 17.4419 116.06 16.7679C116.431 16.0939 116.26 15.1487 115.797 14.5379C115.322 13.9647 114.656 13.5816 113.922 13.4584C113.085 13.2723 112.212 13.3355 111.41 13.6401C110.609 13.9447 109.914 14.4774 109.412 15.1724C108.935 15.8517 108.635 16.7758 108.885 17.6131" fill="#263238"/>
<path d="M115.447 15.8807C115.75 16.6169 115.879 17.4136 115.823 18.2081C115.789 18.998 115.649 19.7879 115.56 20.5777C115.29 22.6867 115.402 24.827 115.889 26.8966C116.023 27.4416 116.205 28.013 116.639 28.3684C117.074 28.7239 117.666 28.7976 118.219 28.8555C118.64 28.8976 119.138 28.9134 119.404 28.5922C119.67 28.271 119.567 27.8445 119.449 27.4759C119.222 26.7729 118.904 26.1015 118.727 25.3696C118.422 24.1242 118.574 22.813 118.74 21.5414C118.906 20.2697 119.093 18.969 118.848 17.7079C118.603 16.4467 117.848 15.204 116.65 14.7459C116.344 14.6162 116.008 14.5761 115.681 14.63C115.518 14.659 115.365 14.7278 115.236 14.8302C115.106 14.9327 115.004 15.0656 114.938 15.2172C114.879 15.3709 114.876 15.5405 114.928 15.6967C114.98 15.8528 115.086 15.9859 115.225 16.0729" fill="#263238"/>
<path d="M118.782 28.9345H118.743C118.703 28.9382 118.662 28.9382 118.622 28.9345C118.466 28.9404 118.311 28.9135 118.166 28.8555C117.902 28.7425 117.668 28.5698 117.481 28.351C117.295 28.1322 117.162 27.8732 117.092 27.5943C116.884 26.8913 116.96 26.0304 116.96 25.0957C116.96 24.161 116.992 23.1237 117.008 22.0416C117.024 20.9595 117.061 19.9353 117.055 18.9874C117.068 18.1598 116.942 17.3358 116.684 16.5494C116.501 16.0226 116.213 15.5388 115.836 15.1276C115.573 14.8407 115.378 14.7222 115.386 14.7116C115.435 14.7324 115.481 14.7599 115.523 14.7933C115.648 14.8834 115.766 14.9829 115.876 15.0908C116.274 15.4963 116.58 15.983 116.774 16.5178C117.05 17.3105 117.188 18.1451 117.182 18.9848C117.182 19.9274 117.161 20.9595 117.145 22.0442C117.129 23.129 117.105 24.1505 117.087 25.0984C117.068 26.0462 116.995 26.8887 117.187 27.568C117.249 27.8366 117.371 28.0875 117.545 28.3019C117.718 28.5163 117.938 28.6885 118.187 28.8055C118.375 28.889 118.577 28.9329 118.782 28.9345Z" fill="#455A64"/>
<path d="M121.17 30.0982C121.119 30.0676 121.071 30.0324 121.026 29.9929C120.891 29.8864 120.763 29.7712 120.644 29.648C120.212 29.1911 119.856 28.6675 119.591 28.0972C119.197 27.2489 118.935 26.3448 118.817 25.4169C118.685 24.2808 118.619 23.138 118.619 21.9942C118.618 20.8604 118.515 19.7289 118.311 18.6136C118.144 17.7041 117.813 16.8325 117.334 16.0413C117.012 15.5088 116.593 15.041 116.1 14.6616C115.747 14.3983 115.52 14.2957 115.526 14.2851C115.584 14.3007 115.639 14.3237 115.691 14.3536C115.844 14.4305 115.991 14.5185 116.131 14.6169C116.644 14.9857 117.08 15.4507 117.416 15.986C117.913 16.7818 118.259 17.6629 118.435 18.5846C118.647 19.7062 118.754 20.8449 118.756 21.9863C118.756 23.121 118.818 24.2549 118.943 25.3827C119.054 26.3011 119.302 27.1976 119.68 28.0419C119.937 28.6092 120.279 29.1332 120.697 29.5953C120.984 29.9244 121.178 30.0745 121.17 30.0982Z" fill="#455A64"/>
<path d="M110.052 17.9317C110.052 17.9317 110.028 17.9132 109.991 17.8737C109.937 17.8118 109.89 17.7438 109.852 17.671C109.71 17.4022 109.643 17.1004 109.657 16.7969C109.674 16.3471 109.807 15.9093 110.041 15.5252C110.324 15.0538 110.716 14.6573 111.184 14.3694C111.65 14.0756 112.178 13.8953 112.727 13.8428C113.472 13.7783 114.22 13.9281 114.883 14.2746C114.979 14.3205 115.068 14.3799 115.146 14.451C114.783 14.282 114.405 14.1471 114.017 14.0482C113.595 13.9523 113.16 13.9257 112.729 13.9692C112.203 14.0243 111.696 14.198 111.247 14.4773C110.281 15.0671 109.765 16.057 109.744 16.7942C109.722 17.0836 109.772 17.3737 109.889 17.6394C109.986 17.8342 110.062 17.9238 110.052 17.9317Z" fill="#455A64"/>
<path d="M109.296 21.2807C109.32 21.3985 109.332 21.5185 109.33 21.6388C109.344 21.8678 109.359 22.2022 109.373 22.6129C109.414 23.6887 109.387 24.766 109.291 25.8382C109.226 26.4285 109.124 27.0142 108.985 27.5917C108.876 28.0581 108.816 28.5346 108.806 29.0135C108.806 29.4547 108.885 29.8925 109.038 30.3062C109.038 30.3062 109.017 30.2825 108.988 30.2272C108.946 30.1486 108.91 30.0667 108.88 29.9824C108.771 29.6708 108.713 29.3436 108.709 29.0135C108.706 28.5266 108.757 28.0409 108.862 27.5654C108.993 26.9913 109.091 26.4103 109.157 25.8251C109.28 24.5771 109.27 23.437 109.275 22.6156C109.275 22.2233 109.275 21.8968 109.275 21.6388C109.271 21.519 109.278 21.3991 109.296 21.2807Z" fill="white"/>
<path d="M112.403 25.9356C112.403 25.9356 112.374 25.9356 112.319 25.9356C112.238 25.9409 112.157 25.9409 112.076 25.9356C111.778 25.8915 111.491 25.7876 111.234 25.6302C110.851 25.3942 110.527 25.0747 110.286 24.6955C110.001 24.2288 109.81 23.711 109.723 23.1711C109.636 22.6368 109.597 22.0958 109.607 21.5545C109.607 21.0674 109.62 20.6251 109.623 20.2381C109.625 19.851 109.623 19.5614 109.602 19.3534C109.592 19.2448 109.592 19.1355 109.602 19.0269C109.637 19.1309 109.659 19.2388 109.667 19.3482C109.705 19.6425 109.727 19.9387 109.733 20.2354C109.733 20.6119 109.733 21.0569 109.733 21.5519C109.731 22.0853 109.772 22.6181 109.857 23.1448C109.938 23.6674 110.117 24.1702 110.384 24.6271C110.611 24.9936 110.914 25.307 111.273 25.546C111.616 25.7594 112.002 25.8927 112.403 25.9356Z" fill="white"/>
<path d="M133.005 100.659L130.999 98.0266L130.896 97.8923L127.474 100.433L130.633 103.908L130.517 107.426C128.753 107.881 128.49 108.763 128.49 108.763H132.152L135.48 102.355L133.005 100.659Z" fill="#4675C0"/>
<path opacity="0.6" d="M135.488 102.355L132.163 108.763L128.5 108.769L128.911 108.216L131.892 108.05L134.961 101.992L135.488 102.355Z" fill="white"/>
<path d="M130.549 105.82C130.575 105.857 130.788 105.738 131.075 105.746C131.362 105.754 131.568 105.87 131.602 105.833C131.636 105.796 131.428 105.586 131.075 105.583C130.723 105.58 130.509 105.791 130.549 105.82Z" fill="#263238"/>
<path d="M130.607 104.948C130.644 104.972 130.807 104.756 131.099 104.701C131.391 104.646 131.626 104.777 131.649 104.738C131.673 104.698 131.618 104.661 131.515 104.603C131.377 104.534 131.219 104.513 131.067 104.543C130.916 104.574 130.778 104.654 130.678 104.772C130.604 104.872 130.591 104.938 130.607 104.948Z" fill="#263238"/>
<path d="M130.583 103.819C130.623 103.84 130.749 103.627 131.004 103.54C131.26 103.453 131.486 103.54 131.505 103.492C131.523 103.445 131.47 103.424 131.368 103.384C131.232 103.337 131.084 103.337 130.949 103.384C130.814 103.433 130.699 103.526 130.622 103.648C130.567 103.75 130.565 103.819 130.583 103.819Z" fill="#263238"/>
<path d="M129.601 102.958C129.646 102.974 129.748 102.766 129.975 102.618C130.201 102.471 130.43 102.45 130.433 102.402C130.436 102.355 130.17 102.297 129.885 102.484C129.601 102.671 129.559 102.953 129.601 102.958Z" fill="#263238"/>
<path d="M129.124 102.208C129.25 102.097 129.357 101.967 129.443 101.823L129.754 101.383C129.824 101.293 129.881 101.193 129.922 101.086C129.944 101.012 129.936 100.933 129.901 100.865C129.879 100.826 129.847 100.795 129.807 100.774C129.768 100.754 129.724 100.745 129.68 100.749C129.551 100.774 129.432 100.835 129.338 100.925C129.252 101.003 129.177 101.092 129.114 101.189C129.011 101.347 128.945 101.527 128.922 101.715C128.885 101.887 128.915 102.066 129.006 102.215C129.006 102.054 129.016 101.894 129.035 101.734C129.071 101.567 129.14 101.41 129.238 101.27C129.294 101.189 129.362 101.115 129.438 101.052C129.512 100.984 129.603 100.937 129.701 100.915C129.714 100.912 129.728 100.913 129.741 100.919C129.753 100.924 129.763 100.934 129.769 100.946C129.783 100.98 129.783 101.018 129.769 101.052C129.734 101.146 129.687 101.234 129.627 101.315L129.348 101.773C129.252 101.905 129.176 102.052 129.124 102.208Z" fill="#263238"/>
<path d="M128.993 102.315C129.011 102.315 128.993 102.123 128.798 101.902C128.663 101.755 128.483 101.657 128.287 101.622C128.091 101.587 127.888 101.617 127.711 101.707C127.693 101.724 127.679 101.744 127.669 101.766C127.66 101.788 127.655 101.812 127.655 101.836C127.658 101.879 127.673 101.921 127.7 101.955C127.737 102 127.782 102.038 127.832 102.068C127.914 102.126 128.002 102.175 128.095 102.215C128.247 102.286 128.41 102.332 128.577 102.35C128.728 102.384 128.887 102.37 129.03 102.308C129.03 102.281 128.856 102.294 128.595 102.239C128.444 102.206 128.297 102.154 128.158 102.084C128.077 102.042 128 101.995 127.926 101.942C127.892 101.917 127.86 101.889 127.832 101.857C127.816 101.826 127.832 101.836 127.832 101.826C127.864 101.806 127.9 101.792 127.937 101.786C127.982 101.775 128.028 101.768 128.074 101.765C128.162 101.757 128.251 101.764 128.337 101.784C128.485 101.815 128.621 101.884 128.735 101.984C128.914 102.158 128.969 102.326 128.993 102.315Z" fill="#263238"/>
<path opacity="0.6" d="M133.003 102.681C133.243 102.681 133.437 102.487 133.437 102.247C133.437 102.007 133.243 101.813 133.003 101.813C132.763 101.813 132.568 102.007 132.568 102.247C132.568 102.487 132.763 102.681 133.003 102.681Z" fill="white"/>
<path opacity="0.3" d="M127.797 100.788L128.5 101.56L131.457 98.6321L131.046 98.095L127.797 100.788Z" fill="black"/>
<path d="M109.238 54.4998L112.274 79.5121C112.566 81.9265 112.977 84.2513 114.617 86.0496L126.497 101.765L133.437 96.4995L120.97 77.1715L122.234 52.2618L109.488 54.4366" fill="#263238"/>
<path d="M113.072 100.994L113.496 105.859C113.496 105.859 108.693 107.926 108.685 108.835H118.19L117.798 100.738L113.072 100.994Z" fill="#4675C0"/>
<g opacity="0.6">
<path d="M116.402 105.301C116.495 105.324 116.576 105.38 116.629 105.459C116.683 105.538 116.705 105.633 116.692 105.728C116.673 105.821 116.618 105.903 116.54 105.957C116.461 106.011 116.365 106.033 116.271 106.017C116.173 105.993 116.088 105.933 116.032 105.849C115.976 105.766 115.953 105.664 115.968 105.564C115.997 105.468 116.062 105.386 116.15 105.337C116.238 105.288 116.342 105.275 116.439 105.301" fill="white"/>
</g>
<path opacity="0.6" d="M118.19 108.835L118.119 107.984L109.033 108.334C109.033 108.334 108.622 108.54 108.685 108.835H118.19Z" fill="white"/>
<path d="M113.34 105.82C113.34 105.867 113.577 105.875 113.812 106.012C114.046 106.149 114.178 106.339 114.22 106.317C114.262 106.296 114.18 106.033 113.891 105.873C113.601 105.712 113.33 105.778 113.34 105.82Z" fill="#263238"/>
<path d="M112.369 106.281C112.369 106.328 112.566 106.396 112.732 106.583C112.898 106.77 112.956 106.976 112.995 106.97C113.035 106.965 113.059 106.707 112.845 106.473C112.632 106.238 112.369 106.239 112.369 106.281Z" fill="#263238"/>
<path d="M111.866 107.505C111.908 107.505 111.961 107.278 111.829 107.031C111.697 106.784 111.476 106.694 111.46 106.733C111.445 106.773 111.581 106.902 111.687 107.105C111.792 107.307 111.816 107.505 111.866 107.505Z" fill="#263238"/>
<path d="M113.367 104.701C113.388 104.74 113.598 104.667 113.859 104.672C114.12 104.677 114.33 104.748 114.351 104.706C114.372 104.664 114.17 104.511 113.862 104.511C113.554 104.511 113.343 104.664 113.367 104.701Z" fill="#263238"/>
<path opacity="0.3" d="M113.156 101.957L113.232 102.826L117.882 102.545L117.848 101.76L113.156 101.957Z" fill="black"/>
<path d="M113.298 103.716C113.455 103.752 113.62 103.743 113.772 103.69C113.942 103.651 114.106 103.592 114.262 103.513C114.354 103.467 114.442 103.413 114.525 103.353C114.578 103.321 114.625 103.281 114.665 103.234C114.692 103.199 114.707 103.155 114.707 103.111C114.707 103.066 114.692 103.022 114.665 102.987C114.639 102.956 114.607 102.932 114.571 102.916C114.535 102.899 114.496 102.891 114.457 102.892C114.396 102.895 114.337 102.907 114.28 102.926C114.18 102.956 114.083 102.995 113.991 103.042C113.834 103.123 113.691 103.228 113.567 103.353C113.359 103.566 113.303 103.743 113.303 103.75C113.303 103.758 113.425 103.616 113.64 103.437C113.765 103.331 113.903 103.243 114.051 103.174C114.136 103.134 114.224 103.101 114.314 103.076C114.414 103.045 114.499 103.04 114.528 103.076C114.557 103.113 114.528 103.1 114.528 103.132C114.497 103.164 114.464 103.193 114.428 103.219C114.349 103.275 114.267 103.327 114.183 103.374C114.04 103.454 113.89 103.521 113.735 103.574C113.587 103.613 113.441 103.66 113.298 103.716Z" fill="#263238"/>
<path d="M113.364 103.779C113.447 103.64 113.482 103.477 113.464 103.316C113.465 103.136 113.434 102.958 113.372 102.789C113.338 102.691 113.293 102.596 113.238 102.508C113.209 102.446 113.165 102.393 113.109 102.354C113.054 102.315 112.989 102.291 112.922 102.284C112.88 102.288 112.84 102.303 112.807 102.328C112.773 102.353 112.747 102.387 112.732 102.426C112.71 102.483 112.697 102.542 112.693 102.602C112.68 102.709 112.686 102.816 112.708 102.921C112.744 103.097 112.821 103.261 112.935 103.4C113.132 103.637 113.33 103.682 113.332 103.664C113.335 103.645 113.18 103.558 113.027 103.332C112.938 103.199 112.879 103.049 112.853 102.892C112.842 102.805 112.842 102.716 112.853 102.629C112.853 102.529 112.898 102.445 112.935 102.452C112.972 102.46 113.066 102.521 113.109 102.6C113.16 102.679 113.204 102.763 113.24 102.85C113.301 103 113.34 103.158 113.356 103.319C113.377 103.598 113.338 103.774 113.364 103.779Z" fill="#263238"/>
<path d="M109.183 53.4914C108.012 61.9795 107.53 70.5486 107.743 79.1146C107.993 87.2765 111.616 102.021 111.616 102.021L119.928 101.67L118.416 82.3662L119.125 70.5182C119.414 67.1218 121.049 62.5248 122.584 59.8708C123.149 58.9042 123.543 57.8481 123.751 56.7482C124.217 54.2338 123.553 52.4435 122.358 49.392L109.183 53.4914Z" fill="#263238"/>
<path d="M123.548 58.0699C123.548 58.0699 123.532 58.1173 123.498 58.2042C123.464 58.2911 123.406 58.4201 123.329 58.5886C123.177 58.923 122.942 59.4075 122.619 60.0183C122.458 60.3237 122.276 60.6607 122.071 61.0267C121.845 61.4168 121.641 61.8194 121.46 62.2325C121.068 63.1198 120.67 64.1493 120.286 65.2893C119.822 68.4488 119.293 72.4349 118.909 76.7608C118.801 78.1035 118.696 79.4121 118.646 80.6811C118.578 81.8975 118.578 83.1166 118.646 84.3329C118.825 86.6578 118.983 88.7509 119.117 90.5123C119.251 92.2737 119.348 93.6876 119.42 94.6802C119.454 95.1672 119.478 95.5464 119.496 95.8149C119.496 95.9387 119.509 96.0361 119.512 96.1098C119.514 96.1431 119.514 96.1766 119.512 96.2099C119.503 96.1771 119.498 96.1436 119.496 96.1098C119.496 96.0361 119.478 95.9387 119.467 95.8149C119.443 95.5516 119.409 95.1699 119.364 94.6854C119.283 93.6928 119.164 92.2711 119.017 90.5202C118.869 88.7693 118.706 86.663 118.519 84.3408C118.451 83.1201 118.451 81.8966 118.519 80.6759C118.567 79.4042 118.672 78.093 118.782 76.7502C119.169 72.4191 119.707 68.4409 120.186 65.2735C120.586 64.1335 120.976 63.104 121.384 62.2167C121.569 61.8029 121.778 61.4003 122.01 61.0109C122.218 60.6475 122.403 60.3132 122.569 60.0104C122.9 59.4048 123.145 58.9256 123.306 58.5939L123.487 58.22C123.524 58.1121 123.548 58.0699 123.548 58.0699Z" fill="#455A64"/>
<path d="M121.031 77.1583C120.59 77.5943 120.217 78.094 119.925 78.6406C119.673 79.2062 119.506 79.806 119.43 80.4205C119.396 80.2368 119.396 80.0486 119.43 79.8649C119.533 78.9645 119.944 78.1273 120.594 77.4953C120.717 77.357 120.866 77.2427 121.031 77.1583Z" fill="#455A64"/>
<path d="M97.722 22.0521C97.6267 21.4064 97.6011 20.7523 97.6457 20.1011C97.6488 20.0487 97.6639 19.9976 97.69 19.952C97.716 19.9063 97.7522 19.8673 97.7957 19.8379C97.8394 19.8127 97.8889 19.7994 97.9392 19.7994C97.9896 19.7994 98.0391 19.8127 98.0827 19.8379C98.1662 19.894 98.2334 19.9712 98.2775 20.0617C98.454 20.3802 98.4303 21.2438 98.4434 21.8599" fill="#EB996E"/>
<path d="M96.7452 24.8324C96.7452 24.8324 96.1554 23.516 96.3503 23.1948C96.5451 22.8736 98.5698 21.7256 98.4566 21.5914C98.3434 21.4571 98.1564 19.959 98.5145 19.8826C98.7989 19.8194 98.97 19.9274 99.0411 20.3934C99.0806 20.6567 99.4808 21.9731 99.2754 22.1732C99.07 22.3733 98.6646 24.6613 98.6646 24.6613L96.7452 24.8324Z" fill="#FFBE9D"/>
<path d="M100.363 24.5218C100.363 24.3427 100.484 22.5471 99.2701 21.723L97.4745 20.2618C97.4207 20.2165 97.3558 20.1864 97.2864 20.1746C97.2171 20.1628 97.1458 20.1697 97.0801 20.1947C97.0143 20.2197 96.9564 20.2618 96.9123 20.3166C96.8683 20.3714 96.8397 20.437 96.8295 20.5066C96.8099 20.741 96.8795 20.9742 97.0243 21.1596C97.4249 21.7132 97.8602 22.2408 98.3276 22.7393C98.3276 22.7393 96.8637 23.3396 97.306 24.7982L100.363 24.5218Z" fill="#FFBE9D"/>
<path d="M97.2349 24.448C97.213 24.4006 97.1987 24.3499 97.1928 24.298C97.1805 24.148 97.204 23.9974 97.2613 23.8583C97.4947 23.3691 97.8513 22.9491 98.296 22.6392V22.7235C97.9853 22.3944 97.6457 22.0179 97.3008 21.5861C97.2165 21.4781 97.1296 21.3649 97.0375 21.2491C96.9449 21.1303 96.8696 20.9992 96.8137 20.8594C96.7542 20.7079 96.7404 20.5422 96.7742 20.3829C96.8007 20.2967 96.8521 20.2202 96.9218 20.163C96.9916 20.1059 97.0767 20.0706 97.1665 20.0617C97.235 20.0547 97.3042 20.0624 97.3696 20.0842C97.435 20.106 97.4949 20.1414 97.5456 20.188L97.8089 20.4092L98.3355 20.841L99.2991 21.6309C99.6221 21.8544 99.8845 22.1548 100.063 22.505C100.199 22.7739 100.288 23.0642 100.326 23.3633C100.35 23.5536 100.357 23.7457 100.347 23.9373C100.346 24.0056 100.337 24.0736 100.321 24.14C100.3 24.14 100.334 23.8556 100.255 23.3738C100.213 23.0874 100.124 22.8098 99.9916 22.5524C99.8143 22.2224 99.5595 21.9405 99.2491 21.7309L98.2775 20.941L97.751 20.5119L97.4877 20.2907C97.4512 20.2558 97.4076 20.229 97.36 20.2122C97.3123 20.1954 97.2616 20.1889 97.2112 20.1933C97.1486 20.2002 97.0892 20.225 97.0402 20.2646C96.9912 20.3043 96.9546 20.3572 96.9348 20.4171C96.9096 20.5494 96.9215 20.686 96.969 20.812C97.0214 20.9405 97.0914 21.061 97.177 21.1701C97.256 21.2833 97.3402 21.3939 97.4245 21.5018C97.7615 21.9336 98.0959 22.3154 98.396 22.6445L98.4382 22.6893L98.3881 22.7261C97.9528 23.0202 97.5958 23.416 97.3481 23.8793C97.2888 24.0093 97.2566 24.1499 97.2534 24.2927C97.255 24.3451 97.2488 24.3975 97.2349 24.448Z" fill="#EB996E"/>
<path d="M98.2933 22.7472C98.0331 23.0048 97.8098 23.2972 97.6299 23.6161C97.4886 23.9525 97.3947 24.307 97.3508 24.6692C97.3323 24.6692 97.3008 24.5455 97.306 24.3375C97.3177 24.0644 97.3856 23.7966 97.5057 23.551C97.6258 23.3055 97.7953 23.0874 98.0037 22.9105C98.1643 22.7841 98.2855 22.7262 98.2933 22.7472Z" fill="white"/>
<path d="M109.259 50.582C109.349 50.7031 109.212 53.4176 109.212 53.4176L122.376 49.3209L120.586 44.8265L109.259 50.582Z" fill="#455A64"/>
<path d="M121.747 43.7313L121.12 42.0673L121.402 38.9631L122.484 34.9032C122.668 34.2275 122.699 33.5196 122.576 32.8303C122.453 32.141 122.179 31.4875 121.774 30.9168C121.368 30.346 120.841 29.8723 120.231 29.5295C119.62 29.1868 118.941 28.9836 118.243 28.9345H118.143L118.093 27.6997C118.088 27.5916 118.041 27.4899 117.961 27.4164C117.882 27.343 117.777 27.3038 117.669 27.3074L112.39 27.4969C112.283 27.501 112.182 27.5469 112.109 27.6247C112.035 27.7025 111.995 27.806 111.997 27.9129L112.019 29.053C111.16 29.266 110.357 29.6575 109.66 30.2019C108.963 30.7462 108.389 31.4313 107.974 32.2124L107.751 38.5234V41.6829C107.766 43.6733 107.751 45.7533 107.751 45.7533V49.1971C107.751 50.0581 108.467 50.9533 109.275 50.6505L120.697 46.1035C121.149 45.9264 121.513 45.5778 121.71 45.1335C121.907 44.6893 121.92 44.1853 121.747 43.7313Z" fill="#4675C0"/>
<path d="M110.499 29.6375L102.572 34.8374L101.384 24.4402L96.6162 24.8588L97.3692 35.9906C97.5008 38.1575 98.5645 40.1769 100.645 40.7982L100.866 40.8667C101.528 41.0636 102.225 41.1117 102.908 41.0074C103.591 40.9032 104.242 40.6492 104.815 40.2638L110.902 36.1538L110.802 34.2266L110.499 29.6375Z" fill="#4675C0"/>
<path d="M117.524 31.1092L107.751 40.4954L95.0549 42.17L95.363 45.5058L108.114 45.7217C109.015 45.6396 109.867 45.2799 110.555 44.6923L121.321 35.4956C121.631 35.2312 121.883 34.9042 122.058 34.5358C122.234 34.1675 122.33 33.7662 122.339 33.3583C122.349 32.9504 122.273 32.545 122.115 32.1688C121.957 31.7925 121.721 31.4539 121.423 31.175C120.898 30.6805 120.207 30.3996 119.486 30.3875C118.765 30.3753 118.065 30.6327 117.524 31.1092Z" fill="#4675C0"/>
<path d="M121.634 35.2982C121.598 35.348 121.559 35.3947 121.515 35.4377L121.16 35.8274C120.833 36.1696 120.383 36.6488 119.83 37.2333C118.698 38.4129 117.15 40.0558 115.397 41.8303C114.572 42.6697 113.675 43.4353 112.716 44.1183C111.932 44.6808 111.069 45.1244 110.154 45.4347C109.537 45.636 108.896 45.7564 108.248 45.7928C108.019 45.7928 107.84 45.7928 107.722 45.7928C107.661 45.7942 107.6 45.789 107.54 45.777C107.601 45.7732 107.661 45.7732 107.722 45.777C107.843 45.777 108.019 45.7639 108.248 45.7481C108.888 45.69 109.519 45.5566 110.128 45.3505C111.027 45.0339 111.877 44.5906 112.65 44.0341C113.598 43.3495 114.486 42.5859 115.304 41.7513L119.764 37.1833L121.126 35.8063L121.502 35.4377C121.54 35.3857 121.584 35.3388 121.634 35.2982Z" fill="#263238"/>
<path d="M120.589 30.7828C120.385 30.6995 120.175 30.63 119.962 30.5748C119.37 30.4661 118.759 30.5245 118.198 30.7433C117.811 30.8886 117.447 31.088 117.116 31.3357C116.742 31.6294 116.397 31.9582 116.086 32.3177C115.412 33.0681 114.77 33.9791 114.012 34.8769C112.729 36.4119 111.334 37.8482 109.836 39.1738C109.383 39.58 108.893 39.9423 108.372 40.2559C108.286 40.3025 108.199 40.3446 108.109 40.3823C108.047 40.4157 107.982 40.4405 107.914 40.456C107.86 40.476 107.803 40.4893 107.745 40.4955C107.951 40.4159 108.15 40.3199 108.34 40.2085C108.846 39.8795 109.324 39.5088 109.767 39.1C111.241 37.7578 112.622 36.3169 113.901 34.7874C114.654 33.8975 115.302 32.9865 115.986 32.2335C116.304 31.8699 116.657 31.5383 117.039 31.2435C117.381 30.9931 117.757 30.7936 118.156 30.6511C118.733 30.4348 119.36 30.39 119.962 30.5221C120.185 30.5712 120.397 30.6595 120.589 30.7828Z" fill="#263238"/>
<path d="M111.392 31.125C111.392 31.125 111.392 31.1619 111.368 31.2303C111.345 31.2988 111.323 31.3962 111.273 31.52C111.14 31.8703 110.975 32.2079 110.781 32.5284C110.539 32.9365 110.215 33.3972 109.844 33.9001C109.434 34.4353 109.053 34.9916 108.701 35.5667C108.087 36.6272 107.748 37.8248 107.716 39.05C107.716 39.5569 107.747 40.0634 107.809 40.5665C107.809 40.5665 107.793 40.5323 107.777 40.4665C107.751 40.3676 107.73 40.2674 107.714 40.1663C107.649 39.7969 107.617 39.4224 107.619 39.0474C107.625 37.8013 107.957 36.5786 108.583 35.5009C108.936 34.9204 109.324 34.3612 109.744 33.8264C110.12 33.3314 110.449 32.8785 110.699 32.4783C110.897 32.165 111.073 31.8386 111.226 31.5015C111.273 31.3725 111.328 31.2467 111.392 31.125Z" fill="#263238"/>
<path d="M109.944 50.2529C109.944 50.2687 109.823 50.2529 109.665 50.145C109.46 50.006 109.305 49.8048 109.222 49.571C109.143 49.3361 109.143 49.0818 109.222 48.847C109.28 48.6679 109.357 48.5837 109.373 48.5837C109.388 48.5837 109.346 48.6969 109.315 48.8654C109.276 49.0854 109.292 49.3114 109.362 49.5236C109.439 49.7332 109.567 49.9198 109.736 50.066C109.854 50.1818 109.952 50.2345 109.944 50.2529Z" fill="#263238"/>
<path d="M112.108 49.6026C112.108 49.6026 111.995 49.5736 111.858 49.4578C111.682 49.3008 111.544 49.1053 111.455 48.8864C111.367 48.6678 111.331 48.4316 111.35 48.1966C111.368 48.015 111.416 47.9149 111.431 47.9175C111.415 48.2306 111.468 48.5435 111.584 48.8345C111.701 49.1254 111.88 49.3875 112.108 49.6026Z" fill="#263238"/>
<path d="M114.499 48.5284C114.459 48.5284 114.32 48.1492 114.07 47.7122C113.819 47.2751 113.559 46.9539 113.588 46.9223C114.076 47.3277 114.399 47.8967 114.499 48.5231V48.5284Z" fill="#263238"/>
<path d="M116.731 47.7385C116.689 47.7385 116.642 47.2909 116.405 46.7959C116.168 46.3009 115.857 45.9718 115.878 45.9429C116.17 46.1328 116.394 46.409 116.521 46.7327C116.694 47.0379 116.767 47.3895 116.731 47.7385Z" fill="#263238"/>
<path d="M119.188 46.6511C119.147 46.283 119.037 45.9258 118.864 45.598C118.655 45.2856 118.387 45.0173 118.074 44.8081C118.074 44.7923 118.208 44.8081 118.393 44.9266C118.631 45.073 118.83 45.2741 118.974 45.5131C119.118 45.7522 119.203 46.0224 119.222 46.301C119.238 46.5248 119.201 46.6538 119.188 46.6511Z" fill="#263238"/>
<path d="M118.245 48.1203C118.203 48.2142 118.149 48.3026 118.085 48.3836C117.924 48.6068 117.748 48.8188 117.558 49.0181C117.284 49.3169 116.989 49.595 116.673 49.8501C115.899 50.4747 115.023 50.9602 114.083 51.285C113.699 51.4159 113.307 51.518 112.908 51.5904C112.641 51.6424 112.37 51.6758 112.098 51.6905C111.998 51.7031 111.897 51.7031 111.797 51.6905C111.797 51.6641 112.221 51.6378 112.887 51.493C113.279 51.4081 113.664 51.2973 114.041 51.1612C114.963 50.832 115.826 50.3544 116.595 49.7474C116.909 49.5036 117.207 49.2398 117.487 48.9575C117.977 48.452 118.224 48.1045 118.245 48.1203Z" fill="#263238"/>
<g opacity="0.3">
<path d="M108.238 45.7665C110.305 46.1061 112.529 46.4247 114.401 45.4874C115.602 44.8845 116.508 43.826 117.253 42.7097C118.324 41.098 119.118 39.3181 119.601 37.4439L116.537 40.6034C114.859 42.3306 112.832 44.2236 110.618 45.2478C110.295 45.3965 109.953 45.4994 109.602 45.5532L108.238 45.7665Z" fill="black"/>
</g>
<path d="M118.135 28.9213C117.808 28.9612 117.494 29.0678 117.211 29.2346C116.947 29.3821 116.658 29.6032 116.315 29.827C115.946 30.0883 115.524 30.2637 115.078 30.3404C114.63 30.4049 114.174 30.3726 113.74 30.2457C113.39 30.1423 113.056 29.9898 112.748 29.7928C112.541 29.6624 112.345 29.5144 112.163 29.3505C112.034 29.2346 111.971 29.1635 111.979 29.1556C111.987 29.1477 112.274 29.4005 112.798 29.7112C113.105 29.8893 113.433 30.0282 113.775 30.1246C114.192 30.2394 114.629 30.2663 115.057 30.2035C115.484 30.1306 115.89 29.9663 116.247 29.7217C116.587 29.5058 116.887 29.2899 117.166 29.1477C117.383 29.0293 117.619 28.95 117.864 28.9134C117.953 28.8955 118.046 28.8982 118.135 28.9213Z" fill="#263238"/>
<path d="M100.376 40.7008C100.312 40.6916 100.25 40.6739 100.192 40.6482C100.021 40.582 99.8565 40.5019 99.6993 40.4086C99.1154 40.0627 98.6147 39.5926 98.2328 39.0316C98.104 38.8473 97.9862 38.6557 97.88 38.4576C97.7612 38.2447 97.6633 38.0207 97.5877 37.7889C97.4379 37.2745 97.3495 36.7443 97.3244 36.2091C97.2507 35.0875 97.1717 33.8553 97.0901 32.5652C96.9348 29.985 96.7952 27.6496 96.6926 25.9409C96.6417 25.273 96.5538 24.6085 96.4293 23.9504C96.4051 23.7689 96.3955 23.5858 96.4003 23.4028C96.4003 23.3396 96.4003 23.2922 96.4003 23.2606C96.4003 23.229 96.4003 23.2132 96.4003 23.2132C96.4048 23.2763 96.4048 23.3397 96.4003 23.4028C96.4084 23.5845 96.4269 23.7656 96.4556 23.9452C96.5982 24.6004 96.6967 25.2645 96.7505 25.933C96.8637 27.6417 97.0138 29.9771 97.1902 32.5547C97.2692 33.8474 97.3455 35.077 97.414 36.1986C97.4338 36.7258 97.5151 37.2489 97.6562 37.7573C97.7282 37.9842 97.8216 38.2037 97.9353 38.4128C98.0363 38.6081 98.1488 38.7971 98.2723 38.9789C98.6413 39.5345 99.123 40.0063 99.6861 40.3638C99.8379 40.4639 99.9972 40.5519 100.163 40.6271C100.315 40.6745 100.379 40.6956 100.376 40.7008Z" fill="white"/>
<path d="M110.697 29.4321C110.588 29.5291 110.472 29.6171 110.349 29.6954C110.12 29.8665 109.786 30.1087 109.367 30.4036C108.533 30.9934 107.369 31.7912 106.066 32.6442C104.762 33.4973 103.564 34.2503 102.69 34.7795C102.253 35.0428 101.9 35.256 101.65 35.3982C101.526 35.4784 101.394 35.548 101.258 35.6062C101.373 35.5097 101.496 35.4217 101.624 35.3429L102.64 34.6873C103.499 34.1344 104.686 33.3709 105.989 32.5205C107.293 31.67 108.464 30.8802 109.312 30.3115L110.32 29.6427C110.44 29.5619 110.566 29.4915 110.697 29.4321Z" fill="white"/>
<path d="M110.312 33.7421C110.331 33.7632 110.012 34.0054 109.586 34.4793C109.341 34.7567 109.119 35.0525 108.92 35.364C108.675 35.7492 108.465 36.1554 108.293 36.5777C108.126 37.0045 107.997 37.445 107.906 37.8942C107.835 38.2615 107.793 38.6339 107.782 39.0079C107.761 39.645 107.824 40.04 107.798 40.0426C107.767 39.9578 107.748 39.8693 107.74 39.7793C107.721 39.6714 107.708 39.5624 107.703 39.4528C107.703 39.3238 107.68 39.1764 107.685 39.0158C107.683 38.6363 107.716 38.2574 107.782 37.8837C107.943 36.9637 108.295 36.0876 108.814 35.3113C109.025 34.995 109.264 34.698 109.528 34.424C109.636 34.3029 109.749 34.2108 109.841 34.1213C109.933 34.0317 110.023 33.9659 110.104 33.9106C110.167 33.8468 110.237 33.7902 110.312 33.7421Z" fill="white"/>
<path d="M107.258 40.814C107.258 40.8535 104.549 41.1958 101.203 41.5802C97.8563 41.9646 95.1312 42.249 95.126 42.2121C95.1207 42.1752 97.8352 41.8303 101.182 41.4459C104.528 41.0615 107.256 40.7772 107.258 40.814Z" fill="white"/>
<path d="M112.311 27.5627C112.311 27.5812 112.216 27.5838 112.14 27.6891C112.062 27.8444 112.035 28.0205 112.063 28.192C112.083 28.4574 112.059 28.7242 111.992 28.9819C111.926 28.7242 111.903 28.4573 111.924 28.192C111.922 28.0855 111.928 27.979 111.942 27.8734C111.955 27.7743 111.999 27.682 112.069 27.6101C112.195 27.5048 112.319 27.5443 112.311 27.5627Z" fill="white"/>
<path d="M166.127 87.2159C168.525 88.0532 171.656 87.3028 173.704 85.8073C175.753 84.3118 177.232 82.1608 178.541 79.9834C179.099 79.0566 179.644 78.0877 179.821 77.0161C179.997 75.9446 179.736 74.744 178.907 74.0463C177.619 72.9615 175.645 73.5197 174.168 74.3464C171.883 75.6787 169.957 77.546 168.554 79.7879C167.151 82.0297 166.313 84.5788 166.114 87.2159" fill="#4675C0"/>
<path d="M168.702 92.9556C170.142 94.8539 172.617 95.7017 174.997 95.8096C177.377 95.9176 179.736 95.262 181.958 94.4089C182.767 94.0983 183.651 93.6744 183.928 92.8555C184.016 92.5375 184.023 92.2025 183.95 91.8808C183.876 91.5591 183.724 91.2607 183.507 91.0125C183.065 90.5246 182.514 90.1491 181.898 89.9172C179.707 88.9852 177.198 88.9404 174.892 89.5381C172.585 90.1358 170.574 91.4733 168.702 92.9477" fill="#4675C0"/>
<path d="M166.093 76.9424C168.078 76.9819 169.579 75.2416 170.479 73.4723C171.728 70.9965 172.142 68.1833 171.661 65.4525C171.48 64.4389 171.095 63.3462 170.187 62.8565C169.278 62.3668 168.065 62.688 167.291 63.3831C166.517 64.0782 166.095 65.1155 165.79 66.1081C164.737 69.5572 164.955 73.5197 166.098 76.9424" fill="#4675C0"/>
<path d="M159.571 87.9215C162.957 82.1608 163.52 75.1126 161.522 68.7384C161.196 67.7036 160.585 66.5215 159.503 66.453C158.305 66.3767 157.554 67.7115 157.223 68.8647C156.064 72.9141 156.312 77.2268 156.575 81.4157C156.733 84.0064 157.628 86.2181 159.579 87.9215" fill="#4675C0"/>
<path d="M156.048 90.2911C155.419 88.3173 154.354 86.5099 152.933 85.0025C151.511 83.495 149.77 82.326 147.836 81.5816C146.936 81.2419 145.793 81.055 145.124 81.7369C144.456 82.4188 144.669 83.5404 145.09 84.3829C145.772 85.7415 146.878 86.8342 147.986 87.8847C148.989 88.8378 150.029 89.7962 151.299 90.3517C152.568 90.9072 154.895 91.0468 156.054 90.2911" fill="#4675C0"/>
<path d="M177.035 75.4917C177.035 75.4917 177.016 75.5128 176.977 75.5444L176.795 75.6865L176.084 76.2131L175.558 76.5922C175.374 76.737 175.179 76.9029 174.968 77.0741C174.549 77.4242 174.052 77.8007 173.554 78.2747L172.764 78.9987C172.501 79.262 172.222 79.5384 171.935 79.8228C171.353 80.3836 170.79 81.0365 170.182 81.7132C167.604 84.7003 165.517 88.0772 163.997 91.7181C163.663 92.5633 163.331 93.3611 163.091 94.1325C162.965 94.5143 162.828 94.8802 162.725 95.2409C162.623 95.6016 162.525 95.9492 162.433 96.2783C162.23 96.9365 162.114 97.5473 161.991 98.0792C161.93 98.3425 161.87 98.5926 161.825 98.8217C161.78 99.0507 161.748 99.2613 161.714 99.4509C161.648 99.8195 161.596 100.112 161.556 100.322C161.538 100.415 161.525 100.491 161.511 100.549C161.498 100.607 161.493 100.628 161.49 100.625C161.487 100.6 161.487 100.574 161.49 100.549C161.49 100.486 161.509 100.412 161.519 100.32C161.551 100.106 161.593 99.8116 161.648 99.4404C161.677 99.2508 161.709 99.0376 161.743 98.8085C161.777 98.5794 161.843 98.3293 161.896 98.0608C162.014 97.5342 162.122 96.9102 162.317 96.2493C162.409 95.9176 162.501 95.5674 162.601 95.1962C162.702 94.8249 162.836 94.4642 162.96 94.0798C163.197 93.3031 163.526 92.5001 163.855 91.6523C165.365 87.987 167.463 84.5925 170.066 81.6026C170.679 80.9286 171.248 80.2862 171.838 79.7175C172.127 79.4331 172.396 79.1488 172.675 78.896L173.483 78.1772C173.986 77.7059 174.489 77.3347 174.915 76.9898C175.129 76.8213 175.326 76.6607 175.513 76.5185L176.04 76.1499L176.769 75.6444L176.959 75.5154C176.983 75.5042 177.009 75.4962 177.035 75.4917Z" fill="#263238"/>
<path d="M181.519 91.4601C181.44 91.4544 181.363 91.4412 181.287 91.4206C181.134 91.3943 180.916 91.3338 180.626 91.2864C179.816 91.1336 178.998 91.0333 178.175 90.9862C175.455 90.8221 172.733 91.2811 170.217 92.3283C167.701 93.3754 165.458 94.983 163.657 97.0287C163.11 97.6441 162.605 98.295 162.143 98.977C161.975 99.2166 161.862 99.4141 161.775 99.5404C161.735 99.6082 161.689 99.6725 161.638 99.7326C161.666 99.6589 161.703 99.5883 161.746 99.522C161.825 99.3904 161.93 99.1876 162.091 98.9454C162.534 98.2457 163.03 97.5803 163.573 96.955C165.364 94.8709 167.619 93.2354 170.156 92.1797C172.693 91.124 175.442 90.6773 178.183 90.8756C179.009 90.9306 179.83 91.0477 180.639 91.2258C180.926 91.2837 181.145 91.3522 181.292 91.389C181.37 91.4066 181.445 91.4304 181.519 91.4601Z" fill="#263238"/>
<path d="M169.018 65.1577C169.021 65.1874 169.021 65.2174 169.018 65.2472C169.005 65.313 168.986 65.3972 168.965 65.5105C168.91 65.7474 168.836 66.0792 168.741 66.5004C168.547 67.3614 168.249 68.6067 167.875 70.1364C167.13 73.2037 166.032 77.4269 164.918 82.1055C164.358 84.4461 163.849 86.6815 163.412 88.7219C162.975 90.7624 162.623 92.6054 162.343 94.1588C162.196 94.9329 162.08 95.6385 161.983 96.2651C161.885 96.8918 161.796 97.4157 161.719 97.8449L161.564 98.848C161.546 98.9559 161.53 99.0428 161.519 99.1113C161.516 99.1419 161.509 99.172 161.498 99.2008C161.495 99.171 161.495 99.1411 161.498 99.1113C161.498 99.0428 161.514 98.9559 161.527 98.848C161.556 98.6058 161.601 98.2688 161.654 97.8396C161.706 97.4104 161.78 96.8654 161.88 96.2467C161.98 95.628 162.078 94.9303 162.217 94.1404C162.48 92.5844 162.831 90.7387 163.252 88.693C163.673 86.6472 164.186 84.4119 164.747 82.0713C165.877 77.39 166.977 73.1721 167.751 70.1127L168.665 66.4899L168.928 65.5052C168.957 65.3999 168.978 65.3156 168.997 65.2419C168.999 65.2129 169.006 65.1844 169.018 65.1577Z" fill="#263238"/>
<path d="M161.246 98.7269C161.235 98.7044 161.228 98.6804 161.224 98.6558L161.177 98.4504C161.138 98.2529 161.08 97.9844 161.011 97.6474C160.866 96.9497 160.677 95.9386 160.461 94.6854C160.027 92.1789 159.51 88.6982 159.195 84.8279C159.042 82.8927 158.958 81.0444 158.918 79.362C158.879 77.6796 158.918 76.1631 158.958 74.8861C158.973 74.249 159.015 73.675 159.044 73.1721C159.073 72.6692 159.105 72.2322 159.137 71.8794C159.168 71.5266 159.195 71.2633 159.213 71.0632C159.213 70.9789 159.231 70.9078 159.237 70.8526C159.233 70.8281 159.233 70.8033 159.237 70.7788C159.239 70.8033 159.239 70.8281 159.237 70.8526V71.0658C159.237 71.2659 159.21 71.5397 159.192 71.882C159.173 72.2243 159.142 72.6719 159.126 73.1774C159.11 73.6829 159.071 74.2542 159.063 74.8888C159.026 76.1604 159.023 77.6717 159.063 79.3515C159.102 81.0313 159.2 82.8769 159.352 84.8095C159.668 88.6745 160.163 92.1526 160.569 94.6617C160.772 95.9176 160.945 96.9312 161.069 97.6316C161.127 97.9712 161.172 98.2398 161.206 98.4372C161.206 98.5215 161.23 98.5926 161.238 98.6479C161.244 98.6738 161.246 98.7003 161.246 98.7269Z" fill="#263238"/>
<path d="M161.496 99.4588C161.461 99.3946 161.432 99.3276 161.409 99.2587L161.185 98.6795L161.027 98.2609L160.808 97.7738L160.561 97.2156C160.474 97.0155 160.361 96.8154 160.253 96.6022L159.908 95.9202L159.495 95.212C159.231 94.7144 158.873 94.222 158.534 93.6823C157.746 92.5497 156.895 91.4623 155.985 90.4254C155.061 89.3988 154.084 88.4215 153.057 87.4977C152.573 87.0869 152.125 86.6762 151.675 86.3313L151.046 85.8337L150.427 85.3887C150.043 85.0991 149.682 84.8621 149.374 84.641C149.066 84.4198 148.787 84.2408 148.555 84.1144L148.028 83.7827C147.965 83.7466 147.905 83.7043 147.849 83.6563C147.917 83.6824 147.983 83.715 148.044 83.7537L148.571 84.0617C148.808 84.1907 149.097 84.3672 149.408 84.5883C149.719 84.8095 150.098 85.0333 150.488 85.3176L151.104 85.7599L151.754 86.2655C152.209 86.6077 152.66 87.0158 153.149 87.4239C154.185 88.3472 155.169 89.3263 156.098 90.357C157.015 91.3976 157.867 92.4931 158.65 93.6375C158.987 94.1799 159.337 94.6907 159.605 95.1804C159.745 95.4279 159.869 95.6675 160.011 95.8965C160.153 96.1256 160.24 96.3599 160.348 96.5758C160.456 96.7917 160.564 96.9971 160.648 97.1972L160.885 97.7659C160.959 97.9423 161.027 98.1055 161.093 98.2582C161.159 98.4109 161.193 98.5557 161.238 98.6848C161.319 98.9296 161.385 99.1244 161.432 99.2745C161.46 99.3337 161.481 99.3954 161.496 99.4588Z" fill="#263238"/>
<path d="M175.795 82.174C175.795 82.1977 175.384 82.1977 174.726 82.2345C173.868 82.283 173.014 82.3868 172.169 82.5452C171.326 82.7065 170.494 82.9229 169.679 83.1929C169.052 83.4009 168.67 83.551 168.662 83.5273C168.742 83.468 168.831 83.4218 168.926 83.3904C169.094 83.3087 169.342 83.2034 169.652 83.0876C171.278 82.4784 172.996 82.1516 174.731 82.1213C175.063 82.1213 175.331 82.1213 175.521 82.1371C175.614 82.1357 175.706 82.1481 175.795 82.174Z" fill="#263238"/>
<path d="M178.333 94.6433C178.286 94.6696 177.904 93.5664 176.94 92.537C175.977 91.5075 174.921 91.0388 174.947 90.9915C175.192 91.0567 175.424 91.1597 175.637 91.2969C176.165 91.6002 176.645 91.9819 177.059 92.429C177.473 92.8754 177.818 93.3813 178.083 93.9298C178.205 94.1521 178.29 94.3932 178.333 94.6433Z" fill="#263238"/>
<path d="M169.626 69.8336C169.66 69.8679 169.036 70.484 168.357 71.3212C167.678 72.1585 167.193 72.901 167.154 72.8667C167.114 72.8325 167.541 72.0769 168.233 71.2212C168.628 70.6941 169.097 70.2267 169.626 69.8336Z" fill="#263238"/>
<path d="M167.583 66.3003C167.736 66.7331 167.839 67.1818 167.891 67.6378C168.017 68.3829 168.086 68.9938 168.041 68.999C167.887 68.5673 167.784 68.1194 167.733 67.6642C167.607 66.919 167.538 66.3082 167.583 66.3003Z" fill="#263238"/>
<path d="M161.251 77.3821C161.29 77.4032 160.845 78.3378 160.261 79.4674C159.676 80.5969 159.166 81.4999 159.126 81.4789C159.41 80.7626 159.742 80.066 160.119 79.3936C160.449 78.6979 160.828 78.0258 161.251 77.3821Z" fill="#263238"/>
<path d="M157.481 73.6224C157.52 73.6013 157.897 74.278 158.32 75.1284C158.744 75.9788 159.058 76.6897 159.018 76.7081C158.979 76.7265 158.602 76.0525 158.178 75.1995C157.754 74.3464 157.441 73.6408 157.481 73.6224Z" fill="#263238"/>
<path d="M151.944 86.4892C151.944 86.534 151.262 86.4024 150.422 86.3471C149.582 86.2918 148.903 86.3181 148.897 86.2733C148.892 86.2286 149.582 86.1233 150.435 86.1865C150.952 86.1968 151.463 86.2993 151.944 86.4892Z" fill="#263238"/>
<path d="M155.724 97.8633L157.61 107.768C157.67 108.086 157.839 108.373 158.088 108.579C158.337 108.785 158.65 108.898 158.973 108.898H164.542C164.871 108.898 165.189 108.781 165.44 108.568C165.69 108.356 165.857 108.061 165.911 107.737L167.549 97.858L155.724 97.8633Z" fill="#263238"/>
<path d="M156.338 101.086H166.983L167.549 97.8633H155.724L156.338 101.086Z" fill="#455A64"/>
<path d="M156.338 101.086L156.562 102.258H166.819L166.983 101.086H156.338Z" fill="#FAFAFA"/>
<path d="M15.1154 95.5437L14.7599 102.063C14.7552 102.175 14.7073 102.281 14.6264 102.358C14.5454 102.436 14.4376 102.479 14.3255 102.479L2.59339 102.566C2.53565 102.566 2.4784 102.555 2.42492 102.533C2.37144 102.511 2.32278 102.479 2.2817 102.439C2.24063 102.398 2.20795 102.35 2.18554 102.297C2.16312 102.243 2.15141 102.186 2.15106 102.129L2.1142 97.055C2.11351 96.9972 2.1243 96.9398 2.14595 96.8861C2.1676 96.8325 2.19968 96.7837 2.24034 96.7425C2.28099 96.7014 2.32941 96.6687 2.38278 96.6464C2.43615 96.6241 2.49342 96.6127 2.55126 96.6127H9.76536C9.88187 96.6123 9.99351 96.5659 10.076 96.4837L11.3214 95.2409C11.4029 95.1589 11.5137 95.1125 11.6294 95.1119L14.6625 95.0803C14.7233 95.0788 14.7837 95.0899 14.8401 95.1127C14.8964 95.1356 14.9474 95.1699 14.9899 95.2134C15.0324 95.2569 15.0655 95.3086 15.0871 95.3655C15.1086 95.4223 15.1183 95.483 15.1154 95.5437Z" fill="#4675C0"/>
<path opacity="0.3" d="M15.1154 95.5437L14.7599 102.063C14.7552 102.175 14.7073 102.281 14.6264 102.358C14.5454 102.436 14.4376 102.479 14.3255 102.479L2.59339 102.566C2.53565 102.566 2.4784 102.555 2.42492 102.533C2.37144 102.511 2.32278 102.479 2.2817 102.439C2.24063 102.398 2.20795 102.35 2.18554 102.297C2.16312 102.243 2.15141 102.186 2.15106 102.129L2.1142 97.055C2.11351 96.9972 2.1243 96.9398 2.14595 96.8861C2.1676 96.8325 2.19968 96.7837 2.24034 96.7425C2.28099 96.7014 2.32941 96.6687 2.38278 96.6464C2.43615 96.6241 2.49342 96.6127 2.55126 96.6127H9.76536C9.88187 96.6123 9.99351 96.5659 10.076 96.4837L11.3214 95.2409C11.4029 95.1589 11.5137 95.1125 11.6294 95.1119L14.6625 95.0803C14.7233 95.0788 14.7837 95.0899 14.8401 95.1127C14.8964 95.1356 14.9474 95.1699 14.9899 95.2134C15.0324 95.2569 15.0655 95.3086 15.0871 95.3655C15.1086 95.4223 15.1183 95.483 15.1154 95.5437Z" fill="black"/>
<path d="M2.1612 103.505L14.9777 103.411L14.9216 95.7524L2.10505 95.8464L2.1612 103.505Z" fill="#F5F5F5"/>
<path d="M15.9474 96.431L15.0259 104.424C15.0181 104.493 14.9854 104.557 14.9339 104.603C14.8825 104.649 14.8159 104.674 14.7468 104.675L2.25638 104.767C2.18448 104.767 2.11517 104.74 2.06241 104.691C2.00965 104.642 1.97735 104.575 1.97203 104.503L1.28485 96.5258C1.28198 96.487 1.28702 96.4481 1.29966 96.4113C1.3123 96.3746 1.33227 96.3408 1.35837 96.312C1.38447 96.2831 1.41614 96.2599 1.45148 96.2438C1.48682 96.2276 1.52507 96.2187 1.56393 96.2177L15.663 96.1151C15.7032 96.1148 15.7429 96.1231 15.7797 96.1393C15.8164 96.1555 15.8493 96.1793 15.8761 96.2092C15.903 96.239 15.9232 96.2742 15.9355 96.3125C15.9478 96.3507 15.9518 96.3911 15.9474 96.431Z" fill="#4675C0"/>
<path d="M18.5671 94.3142L18.2116 100.833C18.2056 100.945 18.157 101.051 18.0757 101.128C17.9945 101.205 17.8867 101.249 17.7746 101.249L6.04509 101.336C5.98735 101.336 5.93011 101.325 5.87663 101.304C5.82315 101.282 5.77449 101.25 5.73341 101.209C5.69234 101.169 5.65966 101.12 5.63725 101.067C5.61483 101.014 5.60312 100.957 5.60277 100.899L5.56591 95.8254C5.56865 95.7104 5.6161 95.601 5.69819 95.5204C5.78028 95.4398 5.89055 95.3943 6.0056 95.3936H13.2197C13.3362 95.3932 13.4478 95.3469 13.5304 95.2646L14.7757 94.0219C14.8158 93.9808 14.8637 93.9482 14.9166 93.926C14.9695 93.9038 15.0264 93.8926 15.0838 93.8929L18.1248 93.8692C18.1832 93.8689 18.2411 93.8801 18.2951 93.9024C18.349 93.9247 18.3981 93.9575 18.4392 93.9989C18.4804 94.0403 18.5129 94.0895 18.5349 94.1437C18.5568 94.1978 18.5678 94.2558 18.5671 94.3142Z" fill="#4675C0"/>
<path opacity="0.3" d="M18.5671 94.3142L18.2116 100.833C18.2056 100.945 18.157 101.051 18.0757 101.128C17.9945 101.205 17.8867 101.249 17.7746 101.249L6.04509 101.336C5.98735 101.336 5.93011 101.325 5.87663 101.304C5.82315 101.282 5.77449 101.25 5.73341 101.209C5.69234 101.169 5.65966 101.12 5.63725 101.067C5.61483 101.014 5.60312 100.957 5.60277 100.899L5.56591 95.8254C5.56865 95.7104 5.6161 95.601 5.69819 95.5204C5.78028 95.4398 5.89055 95.3943 6.0056 95.3936H13.2197C13.3362 95.3932 13.4478 95.3469 13.5304 95.2646L14.7757 94.0219C14.8158 93.9808 14.8637 93.9482 14.9166 93.926C14.9695 93.9038 15.0264 93.8926 15.0838 93.8929L18.1248 93.8692C18.1832 93.8689 18.2411 93.8801 18.2951 93.9024C18.349 93.9247 18.3981 93.9575 18.4392 93.9989C18.4804 94.0403 18.5129 94.0895 18.5349 94.1437C18.5568 94.1978 18.5678 94.2558 18.5671 94.3142Z" fill="black"/>
<path d="M5.61147 102.275L18.428 102.181L18.3719 94.5218L5.55533 94.6158L5.61147 102.275Z" fill="#F5F5F5"/>
<path d="M19.4017 95.2014L18.4828 103.195C18.4751 103.264 18.4424 103.327 18.3909 103.373C18.3394 103.419 18.2728 103.445 18.2037 103.445L5.71072 103.537C5.63899 103.537 5.57002 103.509 5.51739 103.461C5.46476 103.412 5.43229 103.345 5.42637 103.274L4.73655 95.2962C4.7329 95.2573 4.73739 95.218 4.74973 95.1809C4.76208 95.1438 4.78201 95.1097 4.80826 95.0808C4.83451 95.0518 4.86651 95.0286 4.90221 95.0126C4.93791 94.9967 4.97654 94.9884 5.01564 94.9882L19.1147 94.8855C19.1552 94.8844 19.1955 94.8921 19.2327 94.908C19.27 94.924 19.3034 94.9477 19.3306 94.9777C19.3579 95.0077 19.3783 95.0432 19.3906 95.0818C19.4028 95.1204 19.4066 95.1612 19.4017 95.2014Z" fill="#4675C0"/>
<path opacity="0.3" d="M19.4017 95.2014L18.4828 103.195C18.4751 103.264 18.4424 103.327 18.3909 103.373C18.3394 103.419 18.2728 103.445 18.2037 103.445L5.71072 103.537C5.63899 103.537 5.57002 103.509 5.51739 103.461C5.46476 103.412 5.43229 103.345 5.42637 103.274L4.73655 95.2962C4.7329 95.2573 4.73739 95.218 4.74973 95.1809C4.76208 95.1438 4.78201 95.1097 4.80826 95.0808C4.83451 95.0518 4.86651 95.0286 4.90221 95.0126C4.93791 94.9967 4.97654 94.9884 5.01564 94.9882L19.1147 94.8855C19.1552 94.8844 19.1955 94.8921 19.2327 94.908C19.27 94.924 19.3034 94.9477 19.3306 94.9777C19.3579 95.0077 19.3783 95.0432 19.3906 95.0818C19.4028 95.1204 19.4066 95.1612 19.4017 95.2014Z" fill="black"/>
<path d="M22.4558 95.8412L22.1004 102.36C22.0918 102.47 22.0425 102.572 21.9621 102.647C21.8816 102.723 21.776 102.765 21.666 102.766L9.92333 102.863C9.80692 102.863 9.69521 102.817 9.6124 102.735C9.5296 102.654 9.48239 102.542 9.481 102.426L9.44414 97.3525C9.44345 97.2943 9.45431 97.2366 9.47609 97.1826C9.49787 97.1287 9.53015 97.0796 9.57105 97.0382C9.61195 96.9968 9.66066 96.9639 9.71435 96.9415C9.76804 96.9191 9.82565 96.9075 9.88383 96.9076H17.0979C17.2144 96.9071 17.3261 96.8608 17.4086 96.7785L18.654 95.5332C18.7362 95.4521 18.8465 95.4058 18.962 95.4042L22.003 95.3831C22.0634 95.3812 22.1236 95.3919 22.1797 95.4143C22.2358 95.4367 22.2867 95.4705 22.3292 95.5135C22.3717 95.5565 22.4049 95.6078 22.4267 95.6642C22.4485 95.7206 22.4584 95.7808 22.4558 95.8412Z" fill="#4675C0"/>
<path d="M9.50231 103.801L22.3188 103.707L22.2627 96.0485L9.44617 96.1424L9.50231 103.801Z" fill="#F5F5F5"/>
<path d="M23.2878 96.7259L22.3663 104.722C22.358 104.79 22.3252 104.853 22.2738 104.9C22.2225 104.946 22.1562 104.971 22.0872 104.972L9.59685 105.064C9.52513 105.064 9.45616 105.037 9.40353 104.988C9.3509 104.939 9.31842 104.872 9.3125 104.801L8.62532 96.8207C8.62206 96.7818 8.62683 96.7427 8.63933 96.7058C8.65182 96.6689 8.67178 96.6349 8.69795 96.606C8.72412 96.5772 8.75595 96.554 8.79147 96.5379C8.82699 96.5218 8.86543 96.5132 8.9044 96.5126L23.0035 96.41C23.0438 96.4093 23.0837 96.4173 23.1207 96.4333C23.1576 96.4494 23.1907 96.4732 23.2176 96.5032C23.2446 96.5331 23.2648 96.5685 23.2769 96.6069C23.289 96.6453 23.2927 96.6859 23.2878 96.7259Z" fill="#4675C0"/>
<path d="M8.62532 97.8133V108.903H24.6201V97.8133H8.62532ZM13.8463 99.809C13.8463 99.5923 13.9322 99.3844 14.0852 99.2309C14.2382 99.0774 14.4458 98.9909 14.6625 98.9902H18.5776C18.7948 98.9902 19.003 99.0764 19.1566 99.23C19.3102 99.3835 19.3964 99.5918 19.3964 99.809C19.3964 100.026 19.3102 100.234 19.1566 100.388C19.003 100.542 18.7948 100.628 18.5776 100.628H14.6625C14.4458 100.627 14.2382 100.541 14.0852 100.387C13.9322 100.234 13.8463 100.026 13.8463 99.809Z" fill="#455A64"/>
<path d="M0 97.8133V108.903H8.62532V97.8133H0Z" fill="#263238"/>
</svg>
