<svg width="223" height="209" viewBox="0 0 223 209" fill="none" xmlns="http://www.w3.org/2000/svg">
<path d="M6.65066 150.481L13.7189 150.333L17.2 150.27C18.3587 150.27 19.5067 150.27 20.6601 150.243L20.4273 150.475L20.3956 144.583L20.6601 144.841L13.6554 144.81C11.3222 144.81 8.98909 144.752 6.65066 144.725L6.79879 144.583C6.79879 145.548 6.75118 146.517 6.72473 147.498L6.65066 150.481ZM6.65066 150.481L6.57659 147.566C6.57659 146.581 6.51839 145.584 6.50781 144.588V144.446H6.65066C8.98909 144.42 11.3222 144.362 13.6554 144.362L20.6601 144.33H20.9246V144.599V150.491V150.728H20.6865C19.5067 150.728 18.3216 150.728 17.1471 150.702L13.6236 150.639L6.65066 150.481Z" fill="#EBEBEB"/>
<path d="M9.34365 13.5971L16.4118 13.4495L19.893 13.3916C21.0517 13.3916 22.1997 13.3916 23.3531 13.3599L23.1203 13.5971L23.0885 7.69965L23.3531 7.96317L16.3484 7.90519C14.0152 7.90519 11.6821 7.84722 9.34365 7.82087L9.49179 7.67857C9.49179 8.64303 9.44417 9.61277 9.41772 10.593L9.34365 13.5971ZM9.34365 13.5971L9.26958 10.6774C9.26958 9.69182 9.21139 8.70101 9.20081 7.69965V7.55735H9.34365C11.6821 7.55735 14.0152 7.4783 16.3484 7.47303L23.3531 7.44141H23.6229V7.70492L23.5911 13.5971V13.8343H23.3531C22.1733 13.8343 20.9882 13.8343 19.8137 13.8343L16.2902 13.7763L9.34365 13.5971Z" fill="#EBEBEB"/>
<path d="M195.773 13.5971L202.835 13.4495L206.317 13.3916C207.475 13.3916 208.623 13.3916 209.782 13.3599L209.544 13.5971L209.517 7.69965L209.782 7.96317L202.756 7.90519C200.418 7.90519 198.085 7.84722 195.751 7.82087L195.894 7.67857C195.894 8.64303 195.847 9.61277 195.825 10.593L195.773 13.5971ZM195.773 13.5971L195.693 10.6774C195.693 9.69182 195.635 8.70101 195.624 7.69965V7.55735H195.773C198.106 7.55735 200.439 7.4783 202.777 7.47303L209.782 7.44141H210.047V7.70492L210.015 13.6024V13.8395H209.782C208.597 13.8395 207.417 13.8395 206.237 13.8395L202.714 13.7816L195.773 13.5971Z" fill="#EBEBEB"/>
<path d="M19.496 208.73H68.3491L68.3491 118.224H19.496L19.496 208.73Z" fill="#EBEBEB"/>
<path d="M17.1366 118.229H70.7194V115.73H17.1366V118.229Z" fill="#DBDBDB"/>
<path d="M0.280891 118.229H17.1313V115.73H0.280891V118.229Z" fill="#EBEBEB"/>
<path d="M2.95257 208.73H19.5015L19.5015 118.224H2.95257L2.95257 208.73Z" fill="#DBDBDB"/>
<path d="M63.0851 176.513H24.7549V154.947H63.0851V176.513ZM24.8766 176.382H62.9687V155.053H24.8766V176.382Z" fill="#C7C7C7"/>
<path d="M41.8116 165.508H49.2766V161.234H41.8116V165.508Z" fill="#C7C7C7"/>
<path d="M47.1341 165.252H39.5422V161.494H47.1341V165.252ZM39.6744 165.12H47.0019V161.626H39.6744V165.12Z" fill="#C7C7C7"/>
<path d="M63.0851 203.626H24.7549V182.018H63.0851V203.626ZM24.8766 203.494H62.9687V182.165H24.8766V203.494Z" fill="#C7C7C7"/>
<path d="M41.8116 192.619H49.2766V188.345H41.8116V192.619Z" fill="#C7C7C7"/>
<path d="M47.134 192.363H39.5421V188.605H47.134V192.363ZM39.6743 192.231H47.0018V188.737H39.6743V192.231Z" fill="#C7C7C7"/>
<path d="M24.8239 149.332H63.0323V127.871H24.8239V149.332Z" fill="#A6A6A6"/>
<path d="M57.6308 122.375H28.5432V143.377H57.6308V122.375Z" fill="#C7C7C7"/>
<path d="M47.3507 120.205H57.6303V122.376H46.7635L47.3507 120.205Z" fill="#C7C7C7"/>
<path d="M28.617 143.384H57.7045L59.9477 124.121H30.8602L28.617 143.384Z" fill="#A6A6A6"/>
<path d="M49.9064 122.129H60.1807L59.9479 124.121H49.0811L49.9064 122.129Z" fill="#A6A6A6"/>
<path d="M43.2295 149.332H81.438V127.871H43.2295V149.332Z" fill="#EBEBEB"/>
<path d="M81.5015 149.403H43.1608V127.795H81.5015V149.403ZM43.293 149.271H81.3851V127.942H43.293V149.271Z" fill="#C7C7C7"/>
<path d="M60.2177 138.395H67.6827V134.12H60.2177V138.395Z" fill="#C7C7C7"/>
<path d="M65.5452 138.142H57.9479V134.395H65.5452V138.142ZM58.0802 138.01H65.4129V134.51H58.0802V138.01Z" fill="#C7C7C7"/>
<path d="M24.8186 149.332H43.1346V131.086H24.8186L24.8186 149.332Z" fill="#DBDBDB"/>
<path d="M152.919 0V94.918H214.85V0H152.919ZM212.565 92.6149H155.204V2.25042H212.565V92.6149Z" fill="#EBEBEB"/>
<path d="M212.565 2.25H155.205V92.6145H212.565V2.25Z" fill="white"/>
<path d="M155.21 48.5723L212.57 48.5723V46.2955L155.21 46.2955V48.5723Z" fill="#EBEBEB"/>
<path d="M148.713 101.42L219.062 101.42V94.8848L148.713 94.8848V101.42Z" fill="#DBDBDB"/>
<path d="M150.575 104.034L217.194 105.425V101.42H150.575V104.034Z" fill="#EBEBEB"/>
<path d="M155.205 2.25H212.565V60.7134H155.205V2.25ZM210.449 4.35812H157.321V58.6053H210.449V4.35812Z" fill="#DBDBDB"/>
<path d="M194.26 2.25H193.117V58.6053H194.26V2.25Z" fill="#DBDBDB"/>
<path d="M174.658 2.25H173.515V58.6053H174.658V2.25Z" fill="#DBDBDB"/>
<path d="M7.60822 0V94.918H69.5396V0H7.60822ZM67.2541 92.6149H9.89374V2.25042H67.2541V92.6149Z" fill="#EBEBEB"/>
<path d="M67.2541 2.25H9.8938V92.6145H67.2541V2.25Z" fill="white"/>
<path d="M9.88845 48.5723L67.2488 48.5723V46.2955L9.88845 46.2955V48.5723Z" fill="#EBEBEB"/>
<path d="M3.39681 101.42L73.7455 101.42V94.8848L3.39681 94.8848V101.42Z" fill="#DBDBDB"/>
<path d="M5.2644 104.034L71.8832 105.425V101.42H5.2644V104.034Z" fill="#EBEBEB"/>
<path d="M9.8938 2.25H67.2541V60.7134H9.8938V2.25ZM65.1379 4.35812H12.01V58.6053H65.1379V4.35812Z" fill="#DBDBDB"/>
<path d="M48.9434 2.25H47.8007V58.6053H48.9434V2.25Z" fill="#DBDBDB"/>
<path d="M29.3418 2.25H28.199V58.6053H29.3418V2.25Z" fill="#DBDBDB"/>
<path d="M0.280823 208.736L28.0193 208.604L55.7524 208.562L111.229 208.473L166.706 208.562L194.439 208.604L222.178 208.736L194.439 208.863L166.706 208.91L111.229 209L55.7524 208.91L28.0193 208.863L0.280823 208.736Z" fill="#263238"/>
<path d="M31.6753 156.42C31.539 154.088 31.2081 151.772 30.686 149.495C30.1992 147.445 29.5009 145.347 28.2047 143.655C27.634 142.855 26.9094 142.175 26.0729 141.656C25.2365 141.137 24.3048 140.788 23.3321 140.63C21.4275 140.398 19.6287 141.247 18.2108 142.443C16.4437 143.924 15.0894 145.89 13.8196 147.792C12.4263 149.925 11.1597 152.137 10.0263 154.417C9.98396 154.491 10.1004 154.554 10.1374 154.48C11.1219 152.55 12.2576 150.699 13.5339 148.947C14.6923 147.264 15.999 145.687 17.4384 144.235C18.7451 142.96 20.4117 141.768 22.3057 141.711C23.2357 141.721 24.1504 141.947 24.9771 142.372C25.8037 142.796 26.5194 143.407 27.0672 144.156C28.3369 145.774 28.9824 147.798 29.4691 149.769C29.9666 151.938 30.2938 154.142 30.4479 156.362C30.8182 160.926 30.9187 165.516 31.0245 170.091C31.081 172.677 31.1198 175.266 31.1409 177.859L31.1727 181.796C31.1231 183.063 31.1744 184.332 31.3261 185.591C31.3684 185.844 31.7864 185.823 31.8552 185.591C32.0113 184.398 32.0697 183.194 32.0298 181.991L32.0774 178.26C32.0985 175.846 32.1074 173.429 32.1038 171.008C32.0668 166.133 32.0086 161.269 31.6753 156.42Z" fill="#263238"/>
<path d="M16.7292 144.445C16.3165 144.608 16.8773 139.749 14.9569 139.127C12.2375 138.247 6.00522 139.833 2.54518 144.445C1.86994 145.392 1.36181 146.447 1.04266 147.565C2.75681 146.737 8.44946 144.123 9.85146 144.93C11.1476 145.657 3.02134 148.197 0.518899 149.831C0.406821 150.506 0.330882 151.187 0.291404 151.871C1.75689 150.869 5.74069 148.266 7.52361 148.266C9.50228 148.266 2.93669 151.728 0.280823 154.211C0.380693 156.62 0.899828 158.993 1.81509 161.225C2.49228 159.939 3.9948 157.447 5.92586 156.097C8.60817 154.232 9.78797 157.236 6.4073 159.613C4.60322 160.878 3.30174 161.926 2.4817 162.633C3.24473 164.091 4.26228 165.403 5.48674 166.506C6.68809 165.16 8.20334 164.128 9.89907 163.502C10.5498 163.276 11.6185 162.975 12.9094 162.548C13.3674 160.918 13.6737 159.249 13.8247 157.563C13.8987 155.586 16.253 156.682 15.2955 160.198C15.1156 160.856 14.9516 161.405 14.7981 161.858C15.8082 161.506 16.7725 161.035 17.6709 160.456C17.7467 158.334 17.5691 156.211 17.1419 154.132C16.5546 151.017 18.9301 150.801 19.4485 154.717C19.6866 156.524 19.3427 158.406 19.2263 159.623C21.914 158.042 24.1466 154.88 24.1466 154.88C23.9006 153.127 23.2643 151.45 22.2843 149.973C20.9616 147.986 22.3901 147.201 23.718 148.998C24.4534 150 24.8925 151.681 25.1359 152.972C27.9716 143.538 24.464 141.346 16.7292 144.445ZM3.83079 154.79C3.10069 153.736 5.63488 151.786 6.1851 152.45C6.89403 153.294 4.56618 155.85 3.83079 154.79ZM20.7871 150.437C19.7289 151.18 18.7714 148.724 19.438 148.303C20.1046 147.881 21.66 149.805 20.7871 150.437Z" fill="#BABED9"/>
<path d="M18.4274 149.058C18.0782 148.368 17.7132 147.688 17.3164 147.024C16.9485 146.371 16.5198 145.753 16.0361 145.179C16.1472 145.048 16.253 144.905 16.3694 144.774C16.417 144.721 16.3376 144.647 16.29 144.7C16.1578 144.847 16.0361 144.995 15.9091 145.148C15.8961 145.154 15.8846 145.162 15.8754 145.173C15.8662 145.184 15.8597 145.197 15.8562 145.211C15.38 145.78 14.9304 146.365 14.4965 146.966C13.7366 147.138 12.9875 147.354 12.2533 147.614C11.4968 147.867 10.7455 148.141 10.0101 148.436C9.93076 148.473 9.9678 148.6 10.0472 148.563C10.7773 148.241 11.5179 147.93 12.2745 147.677C13.031 147.425 13.7188 147.251 14.4436 147.045C14.2055 147.377 13.9728 147.709 13.7506 148.052C12.3861 148.481 11.0591 149.02 9.78263 149.664C8.44411 150.297 7.13734 151.035 5.86761 151.773C5.79354 151.815 5.86761 151.925 5.93638 151.883C7.19864 151.147 8.49833 150.477 9.83024 149.875C11.0735 149.295 12.3591 148.821 13.613 148.268C10.4387 153.174 8.5658 158.835 6.03161 164.079C5.99987 164.152 6.11626 164.216 6.14801 164.142C6.92043 162.303 7.80925 160.511 8.65045 158.703C9.407 157.08 10.1477 155.446 10.8989 153.823C11.1211 153.348 11.3486 152.874 11.5814 152.4C11.4439 155.035 11.5021 157.67 11.0524 160.279C11.0524 160.296 11.0591 160.312 11.071 160.323C11.0829 160.335 11.099 160.342 11.1158 160.342C11.1327 160.342 11.1488 160.335 11.1607 160.323C11.1726 160.312 11.1793 160.296 11.1793 160.279C11.3645 157.48 11.8618 154.724 11.8407 151.904C11.8407 151.904 11.8407 151.904 11.8407 151.873C12.3768 150.798 12.9499 149.743 13.5601 148.71C14.6182 151.161 15.7081 153.654 16.2054 156.284C16.2054 156.368 16.3535 156.331 16.3323 156.247C15.6181 153.612 14.9621 150.977 13.6871 148.526C14.3552 147.413 15.0975 146.346 15.9091 145.332C16.2583 145.986 16.708 146.602 17.1048 147.224C17.5016 147.846 17.8772 148.447 18.237 149.074C19.0227 150.405 19.6901 151.802 20.2315 153.248C20.2315 153.327 20.3849 153.29 20.3532 153.211C19.7289 151.815 19.1152 150.413 18.4274 149.058Z" fill="#263238"/>
<path d="M43.3089 155.022C41.2826 152.999 38.9283 150.342 35.7963 150.348C32.7754 150.348 30.5533 152.772 29.273 155.275C27.9398 157.911 27.4584 160.851 27.0827 163.708C26.6376 167.156 26.3692 170.625 26.2786 174.101C26.2257 176.03 26.2362 177.964 26.2786 179.898C26.2766 181.855 26.4234 183.809 26.7177 185.743C26.7759 186.054 27.2785 186.064 27.2943 185.743C27.3896 184.12 27.2943 182.486 27.2943 180.863C27.2943 179.239 27.2943 177.658 27.3684 176.056C27.4848 172.82 27.7229 169.584 28.1038 166.364C28.4371 163.555 28.7016 160.667 29.5481 157.932C30.31 155.486 31.7384 152.661 34.2303 151.607C37.6321 150.142 40.9546 152.819 43.1766 155.086C43.2666 155.165 43.3671 155.08 43.3089 155.022Z" fill="#263238"/>
<path d="M49.4725 158.183C46.7531 157.909 47.5044 156.439 49.9751 157.082C51.3079 157.439 52.5633 158.037 53.6785 158.847C53.7577 156.659 53.3849 154.478 52.5833 152.438C50.3137 151.869 48.2557 152.865 46.1394 153.856C44.0232 154.847 42.6053 152.275 45.0813 151.047C46.1225 150.536 47.2641 150.26 48.4246 150.239C49.5851 150.218 50.7359 150.453 51.795 150.926C51.5993 150.589 51.4035 150.272 51.1919 149.977C50.6086 149.126 49.9108 148.358 49.118 147.695C47.2663 147.843 46.2399 148.981 45.6897 149.34C44.912 149.867 43.6846 149.25 44.4623 148.148C45.0707 147.279 46.5785 146.884 47.8377 146.783C45.6051 145.471 43.3777 145.466 42.1133 146.04C39.9283 147.031 40.5261 152.776 40.5261 152.776C40.5261 152.776 34.7859 149.719 32.9077 152.122C32.3158 152.967 31.9134 153.929 31.7279 154.942C33.7595 154.199 36.2566 154.014 36.4894 155.232C36.7222 156.449 33.3151 156.133 31.5216 156.339C31.3047 158.9 31.9025 161.893 33.9552 164.007C35.6958 160.671 39.5738 158.136 40.124 159.975C40.6743 161.814 36.5159 162.283 34.8335 164.776C35.5709 165.315 36.3723 165.761 37.2195 166.104C38.1507 164.713 39.7008 162.8 40.4468 163.38C41.1927 163.959 39.2405 165.319 37.9761 166.405C39.7735 167.057 41.6206 167.565 43.4994 167.923C43.9597 165.994 44.8485 164.197 45.695 164.365C46.5415 164.534 44.8961 166.542 44.1819 168.054C46.689 168.548 49.2276 168.867 51.7792 169.008C51.9379 168.971 52.9801 165.93 53.4457 162.157C52.1915 161.656 50.8553 161.39 49.5042 161.372C47.5837 161.282 47.388 159.105 50.2766 159.406C51.4788 159.583 52.6183 160.054 53.5938 160.776C53.5938 160.376 53.6467 159.97 53.6626 159.553C52.3757 158.814 50.9491 158.347 49.4725 158.183ZM48.7583 155.205C49.0492 154.557 50.8004 154.784 50.6311 155.585C50.4618 156.386 48.5149 155.759 48.7583 155.205ZM34.3891 160.607C34.2833 160.08 35.4472 159.553 35.6218 160.007C35.7964 160.46 34.516 161.335 34.3891 160.607ZM42.6529 165.071C41.7165 164.587 43.055 162.468 43.9068 162.805C44.6105 163.084 43.5841 165.556 42.6529 165.071Z" fill="#BABED9"/>
<path d="M51.446 168.577C50.1551 166.427 48.88 164.271 47.5257 162.163C46.8961 161.183 46.2348 160.218 45.5523 159.275L45.8591 159.201C46.0284 159.164 46.1977 159.133 46.3882 159.106C46.785 159.038 47.1818 158.98 47.5839 158.938C47.9859 158.896 48.3351 158.88 48.716 158.874C49.1192 158.853 49.5236 158.874 49.9223 158.938C49.9699 158.938 49.9805 158.874 49.9223 158.874C49.5202 158.874 49.1075 158.838 48.7055 158.832C48.3034 158.827 47.9225 158.832 47.531 158.859C47.1624 158.879 46.7951 158.917 46.4305 158.975C46.2295 159.006 46.0337 159.038 45.8327 159.08C45.7096 159.097 45.5877 159.122 45.4676 159.154C44.7622 158.198 44.0392 157.262 43.2985 156.345C45.53 155.261 47.9072 154.505 50.3561 154.1C50.3932 154.1 50.3561 154.031 50.3561 154.036C47.8713 154.379 45.4558 155.108 43.198 156.197L41.923 154.695C41.4574 154.136 40.9601 153.588 40.5368 152.998C40.5368 152.956 40.4522 152.998 40.4839 153.035C41.0661 153.671 41.6136 154.338 42.124 155.032C41.1966 155.676 40.3129 156.381 39.4787 157.141C38.6216 157.899 37.7875 158.681 36.9763 159.486C36.9445 159.517 36.9763 159.565 37.0186 159.533C37.8228 158.739 38.6587 157.98 39.5263 157.256C40.3993 156.534 41.3145 155.876 42.1716 155.148C42.3727 155.412 42.5684 155.675 42.7694 155.934L43.0763 156.329V156.355L44.0762 157.662C43.6875 158.226 43.3544 158.826 43.0816 159.454C42.7906 160.06 42.5525 160.687 42.3092 161.315C41.8517 162.627 41.4979 163.974 41.2511 165.341C41.2511 165.378 41.304 165.399 41.3145 165.341C41.5879 163.996 41.9791 162.676 42.4838 161.399C42.7377 160.74 43.0128 160.102 43.3144 159.465C43.6159 158.827 43.9069 158.326 44.1556 157.736C44.4466 158.121 44.7375 158.506 45.0179 158.89L45.2613 159.233C45.2613 159.259 45.2613 159.291 45.2878 159.291C46.1713 160.524 47.0125 161.784 47.8325 163.059C47.7847 163.148 47.7474 163.241 47.7214 163.338C47.6685 163.491 47.6209 163.649 47.5733 163.807C47.4833 164.124 47.4093 164.44 47.3511 164.761C47.2929 165.083 47.2506 165.373 47.2188 165.678C47.216 166.031 47.1913 166.383 47.1447 166.732C47.1447 166.785 47.2135 166.785 47.2082 166.732C47.1837 166.408 47.2068 166.081 47.277 165.763C47.3246 165.431 47.3881 165.104 47.4622 164.777C47.5362 164.45 47.6156 164.187 47.7003 163.897C47.7479 163.749 47.7902 163.607 47.8431 163.465C47.896 163.323 47.9066 163.307 47.933 163.228C48.314 163.823 48.6949 164.429 49.0705 165.035C49.8112 166.232 50.5466 167.439 51.2873 168.64C51.3613 168.688 51.446 168.646 51.446 168.577Z" fill="#263238"/>
<path d="M31.5428 185.062C31.5058 183.845 31.3153 182.622 31.1831 181.41C31.0508 180.198 30.9132 178.981 30.781 177.763C30.6172 175.409 30.3026 173.068 29.8393 170.754C29.4326 168.75 28.4319 166.914 26.9665 165.483C26.2081 164.729 25.2127 164.256 24.1466 164.145C23.0743 164.114 22.0218 164.436 21.1522 165.062C20.1654 165.786 19.3147 166.678 18.6391 167.697C17.9086 168.702 17.2526 169.759 16.6763 170.859C16.6763 170.901 16.7187 170.928 16.7451 170.891C17.8273 169.046 19.2659 167.434 20.9776 166.147C21.7403 165.522 22.6717 165.135 23.6546 165.035C24.1354 165.03 24.6124 165.121 25.0576 165.302C25.5028 165.483 25.9072 165.75 26.247 166.089C27.6701 167.323 28.4955 169.136 28.9875 170.917C29.4883 173.057 29.8418 175.228 30.0456 177.415C30.2202 178.706 30.3842 179.992 30.5747 181.278C30.7651 182.564 30.8551 183.871 31.1037 185.136C31.1135 185.194 31.1461 185.246 31.1942 185.28C31.2423 185.314 31.3021 185.328 31.3603 185.318C31.4185 185.308 31.4705 185.276 31.5047 185.228C31.5389 185.18 31.5526 185.12 31.5428 185.062Z" fill="#263238"/>
<path d="M23.935 166.77C21.131 166.718 18.1577 168.8 18.1577 168.8C18.1577 168.8 19.7449 163.361 15.3484 163.529C12.7401 163.629 9.48116 166.354 8.83042 170.607C9.83563 170.08 11.9571 169.053 13.6343 169.026C15.9092 168.984 16.0626 170.76 12.9253 171.029C11.5026 171.108 10.0925 171.34 8.71932 171.719C8.66995 173.05 8.84887 174.38 9.24838 175.651C10.9996 174.597 14.0099 173.464 14.0734 174.924C14.1422 176.009 11.0525 176.099 9.52878 176.478C10.1818 178.143 11.0727 179.705 12.1741 181.116C14.3241 180.809 16.4467 180.335 18.5227 179.699C18.5333 178.935 18.4677 178.172 18.327 177.422C17.9567 175.477 19.3851 175.445 19.5756 177.311C19.6379 178.006 19.5933 178.706 19.4433 179.388C20.8676 178.918 22.23 178.279 23.5012 177.485C23.4591 176.01 23.1546 174.554 22.6018 173.184C22.041 171.667 23.1308 170.797 24.0831 172.541C24.6862 173.664 24.4429 175.772 24.2418 176.963C24.7296 176.575 25.1605 176.121 25.5222 175.614C28.5325 171.456 26.7549 166.834 23.935 166.77ZM11.8355 167.777C11.936 166.992 13.8935 167.139 13.7983 167.751C13.703 168.362 11.7349 168.647 11.8513 167.777H11.8355ZM9.65046 174.165C9.84092 173.638 10.7086 173.733 10.6451 174.133C10.5816 174.534 9.53936 174.497 9.65046 174.165ZM21.2897 176.905C20.1522 176.953 20.5279 174.597 21.1892 174.507C21.7606 174.444 22.1679 176.868 21.2897 176.905Z" fill="#BABED9"/>
<path d="M20.2845 177.121C20.1734 176.826 20.0781 176.531 19.9829 176.23C20.0708 176.531 20.1432 176.835 20.1998 177.142C20.2012 177.148 20.2037 177.153 20.2071 177.158C20.2105 177.162 20.2148 177.166 20.2197 177.169C20.2246 177.172 20.2301 177.174 20.2357 177.175C20.2414 177.176 20.2472 177.175 20.2527 177.174C20.2583 177.172 20.2635 177.17 20.2681 177.167C20.2727 177.163 20.2766 177.159 20.2796 177.154C20.2825 177.149 20.2845 177.144 20.2853 177.138C20.2861 177.132 20.2859 177.127 20.2845 177.121Z" fill="#263238"/>
<path d="M38.8808 182.693L38.5687 189.202L37.7751 205.972H20.4061L19.6126 189.202L19.3004 182.693H38.8808Z" fill="#37474F"/>
<path d="M38.8808 182.693L38.5687 189.202H19.6126L19.3004 182.693H38.8808Z" fill="#263238"/>
<path d="M40.1136 180.064H18.0678V185.324H40.1136V180.064Z" fill="#37474F"/>
<path d="M24.8608 205.977H21.8134V208.733H24.8608V205.977Z" fill="#37474F"/>
<path d="M24.8608 205.977H21.8134V207.352H24.8608V205.977Z" fill="#263238"/>
<path d="M36.3678 205.977H33.3204V208.733H36.3678V205.977Z" fill="#37474F"/>
<path d="M36.3678 205.977H33.3204V207.352H36.3678V205.977Z" fill="#263238"/>
<path d="M104.68 208.544C103.384 208.96 66.4874 208.491 65.096 207.585C64.5669 207.253 64.3183 201.893 64.2072 195.405V195.205C64.1807 193.866 64.1648 192.491 64.1595 191.099C64.1595 190.904 64.1595 190.715 64.1595 190.52L65.9478 171.457L90.6283 171.694L88.1946 190.583V191.331L88.0465 195.242V195.642C88.0465 195.642 102.088 202.114 103.516 203.274C104.945 204.433 105.971 208.133 104.68 208.544Z" fill="#FFC4C0"/>
<path d="M104.68 208.542C103.384 208.958 66.4875 208.489 65.096 207.583C64.567 207.251 64.3183 201.891 64.2072 195.403V195.203C64.1808 193.864 64.1649 192.489 64.1596 191.097C64.1596 190.902 64.1596 190.713 64.1596 190.518L88.1947 190.581V191.329L88.0465 195.24V195.64C88.0465 195.64 102.088 202.112 103.516 203.272C104.945 204.431 105.971 208.131 104.68 208.542Z" fill="#EBEBEB"/>
<path d="M104.68 208.544C104.013 208.754 93.9928 208.733 84.1946 208.544C82.2265 208.501 80.2637 208.459 78.375 208.407C71.3915 208.217 65.6142 207.932 65.0798 207.584C64.5455 207.237 64.3074 202.04 64.1963 195.679C64.1963 195.584 64.1963 195.494 64.1963 195.405C64.1963 195.315 64.1963 195.268 64.1963 195.199L88.0038 195.236V195.642C88.0038 195.642 102.05 202.109 103.473 203.268C104.897 204.428 105.976 208.133 104.68 208.544Z" fill="#BABED9"/>
<path d="M104.278 207.127C98.0613 206.895 72.9628 206.547 66.7993 206.789C66.7517 206.789 66.7464 206.826 66.7993 206.826C72.9575 207.19 98.056 207.353 104.278 207.227C104.41 207.216 104.41 207.127 104.278 207.127Z" fill="#263238"/>
<path d="M90.6597 195.338C88.2208 194.854 85.221 195.191 83.327 196.92C83.2582 196.983 83.3535 197.088 83.4328 197.062C85.7811 196.339 88.2004 195.869 90.6492 195.66C90.692 195.661 90.7336 195.646 90.7648 195.617C90.7961 195.587 90.8144 195.547 90.8158 195.504C90.8172 195.462 90.8016 195.42 90.7723 195.389C90.743 195.358 90.7025 195.34 90.6597 195.338Z" fill="#263238"/>
<path d="M92.4162 196.426C89.972 195.935 86.9722 196.273 85.0835 198.007C85.0094 198.075 85.0835 198.175 85.184 198.154C87.5325 197.432 89.9517 196.962 92.4004 196.752C92.4439 196.754 92.4864 196.739 92.5187 196.71C92.5509 196.681 92.5702 196.64 92.5723 196.597C92.5744 196.553 92.5592 196.511 92.5299 196.479C92.5006 196.447 92.4597 196.428 92.4162 196.426Z" fill="#263238"/>
<path d="M94.1673 197.508C91.7231 197.024 88.7286 197.361 86.8346 199.089C86.7605 199.153 86.8346 199.258 86.9351 199.232C89.2837 198.51 91.7028 198.04 94.1515 197.83C94.1943 197.832 94.2361 197.817 94.2679 197.788C94.2996 197.76 94.3187 197.72 94.3208 197.677C94.3229 197.634 94.3079 197.593 94.2791 197.561C94.2503 197.529 94.2101 197.51 94.1673 197.508Z" fill="#263238"/>
<path opacity="0.1" d="M84.1946 208.544C82.2265 208.501 80.2637 208.459 78.375 208.407C71.3915 208.217 65.6142 207.932 65.0798 207.584C64.5455 207.237 64.3074 202.04 64.1963 195.679C64.1963 195.584 64.1963 195.494 64.1963 195.405C64.1963 195.315 64.1963 195.268 64.1963 195.199C67.4923 197.476 78.957 205.086 84.1946 208.544Z" fill="black"/>
<path d="M89.4326 195.32H62.8633C62.8633 195.32 67.8471 133.13 67.6248 132.076C67.3603 130.696 65.789 124.434 63.6992 116.265C63.0432 113.709 62.3343 110.964 61.583 108.123C59.5991 100.428 57.414 92.0273 55.5094 84.7122C52.6525 73.7552 50.4199 68.1055 50.4199 68.1055H72.9366C72.9366 68.1055 91.4536 120.909 92.1889 131.818C92.8661 141.32 89.4326 195.32 89.4326 195.32Z" fill="#263238"/>
<path d="M88.2579 190.786C84.2 190.707 85.3639 190.67 81.3061 190.633C79.3168 190.633 66.265 190.507 64.4133 190.813C64.4052 190.816 64.3982 190.821 64.3933 190.828C64.3883 190.835 64.3857 190.843 64.3857 190.852C64.3857 190.861 64.3883 190.869 64.3933 190.876C64.3982 190.883 64.4052 190.889 64.4133 190.892C66.265 191.197 79.3168 191.081 81.3061 191.066C85.3639 191.023 84.2 190.992 88.2579 190.907C88.3319 190.923 88.3319 190.786 88.2579 190.786Z" fill="#37474F"/>
<path d="M72.6401 128.299C71.7671 124.473 70.4656 120.72 69.3282 116.968C67.025 109.336 64.7077 101.71 62.3764 94.0893C61.2124 90.2736 55.8055 76.0122 55.2764 74.1201C55.0542 73.3507 54.9378 73.7723 55.2182 74.7526C55.779 76.7236 65.0111 104.999 67.3442 112.746C68.5117 116.611 69.6844 120.493 70.8624 124.393C71.4579 126.24 71.9385 128.122 72.3015 130.027C72.6143 132.02 72.6924 134.041 72.5343 136.051C72.2803 140.104 71.8147 144.147 71.4391 148.173L70.3122 160.321C69.5662 168.374 69.1694 176.78 68.4394 184.844C68.3494 185.861 68.2595 186.883 68.1801 187.906C68.1801 188.248 68.6721 188.222 68.7092 187.906C69.5821 179.937 69.9048 171.568 70.6508 163.615L72.8887 139.793C73.0739 137.801 73.2855 135.804 73.2855 133.796C73.2766 131.945 73.0601 130.101 72.6401 128.299Z" fill="#37474F"/>
<path d="M70.418 68.0996C68.8308 80.1475 65.884 99.8742 63.7148 116.26C58.6306 96.4064 50.4567 68.0996 50.4567 68.0996H70.418Z" fill="#37474F"/>
<path d="M76.8411 208.56C75.5449 208.976 38.6538 208.644 37.257 207.743C36.728 207.406 36.4529 202.051 36.3206 195.569V195.363C36.2889 194.03 36.2677 192.649 36.2571 191.258C36.2571 191.063 36.2571 190.873 36.2571 190.683C36.1672 181.323 36.8444 171.615 36.8444 171.615L60.9588 171.768L60.2922 190.657V191.405L60.1599 195.316V195.716C60.1599 195.716 74.2275 202.136 75.656 203.29C77.0844 204.444 78.1425 208.144 76.8411 208.56Z" fill="#FFC4C0"/>
<path d="M76.8407 208.559C75.5445 208.976 38.6534 208.644 37.2567 207.743C36.7276 207.405 36.4525 202.051 36.3203 195.568V195.363C36.2885 194.029 36.2674 192.648 36.2568 191.257C36.2568 191.062 36.2568 190.872 36.2568 190.683L60.2918 190.656V191.405L60.1596 195.315V195.716C60.1596 195.716 74.2272 202.135 75.6556 203.289C77.0841 204.443 78.1422 208.143 76.8407 208.559Z" fill="#EBEBEB"/>
<path d="M76.8408 208.557C75.5446 208.973 38.6535 208.641 37.2567 207.74C36.7277 207.403 36.4526 202.048 36.3203 195.565V195.36L60.1279 195.312V195.713C60.1279 195.713 74.1955 202.132 75.6239 203.286C77.0524 204.441 78.1423 208.14 76.8408 208.557Z" fill="#BABED9"/>
<path d="M76.4441 207.123C70.2277 206.917 45.1292 206.659 38.9657 206.922C38.9128 206.922 38.9128 206.959 38.9657 206.965C45.1239 207.302 70.2224 207.36 76.4441 207.228C76.5763 207.223 76.5763 207.123 76.4441 207.123Z" fill="#263238"/>
<path d="M62.7836 195.404C60.3393 194.929 57.3449 195.272 55.4562 196.985C55.3874 197.048 55.4562 197.153 55.562 197.127C57.9083 196.399 60.3255 195.92 62.773 195.699C62.806 195.691 62.8355 195.673 62.857 195.647C62.8785 195.621 62.8909 195.589 62.8921 195.555C62.8933 195.522 62.8833 195.489 62.8637 195.461C62.8441 195.434 62.8159 195.414 62.7836 195.404Z" fill="#263238"/>
<path d="M64.5404 196.477C62.0962 196.003 59.1017 196.351 57.2183 198.058C57.1442 198.127 57.2183 198.227 57.3188 198.206C59.6639 197.473 62.0816 196.994 64.5298 196.777C64.562 196.768 64.5904 196.749 64.611 196.723C64.6316 196.697 64.6433 196.664 64.6445 196.631C64.6457 196.598 64.6362 196.565 64.6176 196.537C64.5989 196.51 64.5719 196.489 64.5404 196.477Z" fill="#263238"/>
<path d="M66.2968 197.558C63.8579 197.079 60.8581 197.427 58.9747 199.139C58.9006 199.208 58.9747 199.308 59.0752 199.287C61.4209 198.556 63.8384 198.077 66.2863 197.859C66.3217 197.853 66.3542 197.836 66.3781 197.809C66.402 197.783 66.4158 197.749 66.417 197.713C66.4183 197.677 66.407 197.642 66.385 197.614C66.363 197.586 66.3319 197.566 66.2968 197.558Z" fill="#263238"/>
<path d="M72.82 68.0996C72.3551 73.6281 71.3577 79.0992 69.8414 84.4375C69.6457 85.1437 69.4288 85.8342 69.196 86.4982C69.196 86.4982 67.2067 87.4258 63.2811 89.8238C63.2811 89.8238 63.0272 98.4565 62.7521 108.091C62.4664 118.858 62.1701 130.864 62.223 133.388C62.4505 142.922 61.0379 195.319 61.0379 195.319L34.5163 195.477C34.5163 195.477 39.2778 136.977 39.2778 133.472C39.2249 127.859 40.5581 103.057 41.5845 84.9856C42.2141 73.839 42.7325 68.1207 42.7325 68.1207L72.82 68.0996Z" fill="#263238"/>
<path d="M60.1544 190.661C56.0965 190.593 57.2604 190.556 53.2025 190.535C51.2186 190.535 38.1667 190.471 36.3098 190.782C36.2727 190.782 36.2727 190.861 36.3098 190.867C38.1667 191.167 51.2186 190.993 53.2078 190.967C57.2657 190.909 56.0965 190.882 60.1544 190.777C60.1698 190.777 60.1846 190.771 60.1955 190.76C60.2064 190.749 60.2125 190.734 60.2125 190.719C60.2125 190.704 60.2064 190.689 60.1955 190.678C60.1846 190.667 60.1698 190.661 60.1544 190.661Z" fill="#37474F"/>
<path d="M44.9439 71.9334C44.4571 86.6903 43.9439 98.6011 43.2826 113.358C42.6213 128.115 41.7325 142.972 40.4892 157.744C39.8067 166.013 39.1454 177.608 38.2513 185.84C38.2513 185.898 38.3306 185.914 38.3359 185.84C40.267 171.194 41.341 153.08 42.2933 138.344C43.2456 123.609 43.8804 108.831 44.4095 94.0739C44.6899 85.7258 44.9068 80.2394 45.1555 71.8913C45.1343 71.8069 44.9491 71.8175 44.9439 71.9334Z" fill="#37474F"/>
<path d="M45.9652 81.5344C46.6212 81.3657 47.3196 81.313 47.9862 81.2076C48.5153 81.1233 49.0443 81.0285 49.5734 80.9125C50.5954 80.7291 51.5638 80.3223 52.4091 79.7214C53.737 78.6674 55.2554 73.4603 55.4406 73.1283C55.758 72.5591 55.8533 73.0598 55.8533 73.1283C55.8533 73.7344 54.4618 78.3142 53.9222 79.168C52.9382 80.7491 51.1764 81.3605 49.4147 81.5818C48.8856 81.6451 48.3989 81.682 47.891 81.7083C47.2504 81.7663 46.6058 81.7663 45.9652 81.7083C45.9457 81.7035 45.9284 81.6923 45.916 81.6766C45.9036 81.6608 45.8969 81.6414 45.8969 81.6214C45.8969 81.6014 45.9036 81.5819 45.916 81.5662C45.9284 81.5504 45.9457 81.5392 45.9652 81.5344Z" fill="#37474F"/>
<path d="M69.1113 86.6514C66.5214 87.5909 64.0183 88.753 61.6305 90.1245C61.6094 90.1336 61.5929 90.1506 61.5844 90.1719C61.576 90.1931 61.5764 90.2168 61.5855 90.2378C61.5946 90.2588 61.6117 90.2753 61.6331 90.2837C61.6544 90.2921 61.6782 90.2917 61.6992 90.2826C64.2176 89.2285 66.7888 88.1745 69.2489 86.9571C69.2896 86.9389 69.3214 86.9054 69.3372 86.8638C69.3531 86.8223 69.3518 86.7762 69.3335 86.7357C69.3153 86.6952 69.2816 86.6635 69.24 86.6477C69.1983 86.6319 69.152 86.6332 69.1113 86.6514Z" fill="#37474F"/>
<path d="M69.8732 69.4522C69.8732 69.3626 69.7092 69.3467 69.7092 69.4522C69.7092 72.4351 69.5399 75.0597 69.2912 77.8425C69.1695 79.139 68.1273 86.2749 65.8735 85.7479C65.4979 85.6583 65.3074 85.2894 65.2492 84.7255C65.2563 83.9852 65.3558 83.2488 65.5455 82.533C65.7942 81.0363 65.9952 79.5342 66.1275 78.0217C66.388 75.2151 66.356 72.3892 66.0322 69.5892C66.0279 69.5736 66.0186 69.5598 66.0057 69.55C65.9928 69.5402 65.977 69.5349 65.9608 69.5349C65.9446 69.5349 65.9288 69.5402 65.9159 69.55C65.903 69.5598 65.8937 69.5736 65.8894 69.5892C65.9568 73.4904 65.7269 77.3911 65.2016 81.2576C64.9212 83.118 63.9848 85.9166 65.9317 86.2012C67.8787 86.4857 69.2066 81.8057 69.4499 80.525C70.0702 76.8678 70.2125 73.1458 69.8732 69.4522Z" fill="#37474F"/>
<path d="M65.937 85.941C65.7267 86.422 65.5499 86.9168 65.408 87.422C65.2647 87.8119 65.193 88.2243 65.1963 88.6394C65.1999 88.6561 65.2081 88.6714 65.2201 88.6836C65.232 88.6958 65.2472 88.7043 65.2639 88.7082C65.2806 88.7121 65.298 88.7111 65.3141 88.7055C65.3303 88.6998 65.3445 88.6897 65.355 88.6763C65.59 88.3097 65.7684 87.9099 65.8841 87.4905C66.0534 87.032 66.2333 86.5787 66.4132 86.115C66.4363 86.0521 66.4334 85.9826 66.4052 85.9218C66.3769 85.861 66.3255 85.8139 66.2624 85.7908C66.1992 85.7678 66.1295 85.7706 66.0685 85.7988C66.0075 85.827 65.9602 85.8781 65.937 85.941Z" fill="#37474F"/>
<path d="M65.0957 36.8947C73.0316 47.0822 81.2372 55.267 84.0624 55.9574C88.443 57.0114 106.283 51.8097 111.51 49.1482C113.213 48.2733 108.177 36.2939 106.172 35.8986C104.167 35.5034 85.6654 42.2862 84.4116 42.2599C83.745 42.2599 75.6769 37.3532 69.2224 33.469C63.2281 29.88 62.6885 33.8221 65.0957 36.8947Z" fill="#FFC4C0"/>
<path d="M106.288 51.1247C107.986 50.8348 115.658 48.8374 117.668 47.8044C119.678 46.7714 125.244 43.3826 124.609 41.7699C123.974 40.1572 122.26 41.0163 122.26 41.0163C122.26 41.0163 124.376 39.2138 123.593 37.6485C122.81 36.0833 120.186 37.5115 120.186 37.5115C120.186 37.5115 122.234 35.5035 121.334 33.9962C120.435 32.4889 118.044 34.3651 118.044 34.3651C118.044 34.3651 120.001 32.6154 118.737 31.6878C117.213 30.5705 113.975 34.2018 111.668 35.1768C111.139 35.3981 100.738 38.9029 100.738 38.9029L106.288 51.1247Z" fill="#FFC4C0"/>
<path d="M118.255 34.191C115.864 36.8262 114.356 37.6062 110.96 38.5759C110.896 38.5759 110.907 38.6971 110.96 38.6813C114.367 38.0383 116.398 37.3637 118.366 34.2964C118.483 34.1488 118.366 34.0592 118.255 34.191Z" fill="#263238"/>
<path d="M120.377 37.2733C117.652 39.8241 116.023 40.6568 112.541 41.9322C112.494 41.9322 112.541 42.0376 112.568 42.0218C116.086 41.0573 118.097 40.3353 120.504 37.4314C120.588 37.2996 120.498 37.1573 120.377 37.2733Z" fill="#263238"/>
<path d="M122.08 41.0483C119.266 43.3303 117.52 44.3211 113.98 45.1275C113.964 45.1275 113.947 45.1341 113.935 45.146C113.924 45.1579 113.917 45.1739 113.917 45.1907C113.917 45.2075 113.924 45.2236 113.935 45.2354C113.947 45.2473 113.964 45.254 113.98 45.254C117.684 44.7849 119.858 43.5675 122.123 41.1431C122.297 40.9798 122.26 40.906 122.08 41.0483Z" fill="#263238"/>
<path d="M99.061 40.8181C99.061 40.8181 101.019 36.7864 102.272 35.2053C103.526 33.6242 110.372 29.4501 111.362 30.8731C112.642 32.7072 109.166 35.8957 107.256 37.2343C107.256 37.2343 110.219 41.4506 108.219 44.3018C106.219 47.153 99.061 40.8181 99.061 40.8181Z" fill="#FFC4C0"/>
<path d="M111.547 31.4911C111.5 34.0051 108.902 35.602 107.13 37.0355C107.102 37.055 107.08 37.0807 107.065 37.1105C107.049 37.1403 107.041 37.1733 107.041 37.2068C107.041 37.2403 107.049 37.2732 107.065 37.303C107.08 37.3328 107.102 37.3585 107.13 37.3781C108.251 39.2385 109.288 42.1898 108.346 44.2821C108.344 44.2934 108.345 44.305 108.35 44.3154C108.355 44.3258 108.363 44.3343 108.373 44.3397C108.384 44.345 108.395 44.347 108.407 44.3451C108.418 44.3433 108.428 44.3378 108.436 44.3296C109.754 42.2215 108.965 39.2437 107.611 37.2832C109.431 35.8391 111.986 34.121 111.558 31.4859C111.568 31.4753 111.547 31.4753 111.547 31.4911Z" fill="#263238"/>
<path d="M105.627 52.1428L99.4634 36.8959C99.4634 36.8959 85.9989 41.0752 84.3059 41.4547C83.5864 41.6128 73.3386 35.3042 68.2596 32.2211C64.9213 30.192 61.0433 31.167 64.9795 37.5705C67.2809 41.3334 79.793 56.2168 84.216 56.9757C87.7289 57.587 105.627 52.1428 105.627 52.1428Z" fill="#455A64"/>
<path d="M80.5441 40.6934C80.4481 40.7963 80.3282 40.8741 80.195 40.9201C80.0748 40.964 79.9452 40.9759 79.819 40.9546C79.6929 40.9334 79.5744 40.8797 79.4754 40.7988C79.3188 40.6823 79.1306 40.6154 78.9352 40.607C78.7399 40.5985 78.5465 40.6488 78.3803 40.7514C78.2264 40.8441 78.1032 40.9797 78.0258 41.1414C77.9518 41.2943 77.8671 41.426 77.8089 41.5788C77.9412 41.484 78.0523 41.368 78.1793 41.2626C78.2754 41.1585 78.3926 41.0759 78.5231 41.0202C78.6412 40.9732 78.7694 40.9572 78.8954 40.9738C79.0214 40.9904 79.141 41.0391 79.2427 41.1151C79.3942 41.2357 79.5786 41.3083 79.7719 41.3233C79.9653 41.3384 80.1588 41.2952 80.3272 41.1994C80.4876 41.1099 80.6168 40.9738 80.6976 40.8094C80.7663 40.6671 80.851 40.5301 80.9145 40.372C80.7981 40.4774 80.6817 40.5828 80.5441 40.6934ZM71.365 36.8619C71.3121 36.7091 71.2751 36.551 71.2116 36.3981C71.2116 36.5615 71.2116 36.7249 71.1745 36.8883C71.1811 37.0286 71.1577 37.1687 71.1058 37.2994C71.0562 37.416 70.9769 37.5177 70.8758 37.5944C70.7746 37.6711 70.6551 37.7202 70.5291 37.7368C70.3364 37.7603 70.1548 37.8398 70.0071 37.9654C69.8594 38.091 69.7521 38.2571 69.6985 38.443C69.6473 38.615 69.6473 38.7981 69.6985 38.9701C69.7514 39.1229 69.7884 39.281 69.8519 39.4286C69.8784 39.2652 69.8784 39.1071 69.8889 38.9437C69.8851 38.802 69.914 38.6613 69.9736 38.5326C70.0306 38.4202 70.1145 38.3235 70.2178 38.2509C70.3211 38.1783 70.4407 38.1321 70.5661 38.1163C70.7608 38.0896 70.9429 38.0048 71.0883 37.8731C71.2337 37.7414 71.3357 37.569 71.3809 37.3784C71.4297 37.2097 71.4297 37.0307 71.3809 36.8619H71.365ZM76.9519 47.5132C76.8989 47.3604 76.8619 47.2023 76.7984 47.0494C76.7984 47.2128 76.7984 47.3762 76.7614 47.5396C76.768 47.6799 76.7445 47.82 76.6926 47.9506C76.643 48.0673 76.5638 48.169 76.4626 48.2457C76.3615 48.3224 76.242 48.3715 76.1159 48.3881C75.9232 48.4116 75.7417 48.4911 75.594 48.6167C75.4463 48.7423 75.3389 48.9084 75.2853 49.0943C75.2342 49.2663 75.2342 49.4493 75.2853 49.6213C75.3382 49.7742 75.3753 49.9323 75.4387 50.0798C75.4652 49.9165 75.4652 49.7584 75.4758 49.595C75.4719 49.4533 75.5009 49.3126 75.5604 49.1839C75.6174 49.0715 75.7013 48.9747 75.8046 48.9021C75.9079 48.8295 76.0275 48.7833 76.153 48.7675C76.3477 48.7409 76.5297 48.6561 76.6751 48.5244C76.8206 48.3927 76.9226 48.2202 76.9677 48.0297C77.0165 47.861 77.0165 47.6819 76.9677 47.5132H76.9519ZM95.6223 48.4144C95.5264 48.5187 95.4066 48.5983 95.2731 48.6463C95.1525 48.6895 95.0226 48.7006 94.8964 48.6784C94.7702 48.6562 94.652 48.6015 94.5536 48.5198C94.3958 48.4059 94.2078 48.3407 94.0131 48.3323C93.8184 48.3238 93.6256 48.3726 93.4584 48.4724C93.3052 48.5697 93.1809 48.7062 93.0987 48.8677C93.0299 49.0152 92.9452 49.1523 92.8818 49.3051C93.0193 49.2102 93.1304 49.0943 93.2574 48.9889C93.3516 48.8836 93.4669 48.7992 93.596 48.7412C93.7146 48.6959 93.8429 48.6813 93.9687 48.6988C94.0945 48.7164 94.2138 48.7654 94.3155 48.8413C94.4687 48.9605 94.6538 49.032 94.8477 49.047C95.0415 49.062 95.2355 49.0198 95.4053 48.9256C95.5645 48.8346 95.6933 48.699 95.7757 48.5356C95.8445 48.3933 95.9291 48.251 95.9926 48.0982C95.8689 48.1973 95.7506 48.3028 95.6381 48.4144H95.6223ZM101.527 42.0479C101.527 42.148 101.527 42.2429 101.527 42.343C101.536 42.4852 101.512 42.6276 101.458 42.7594C101.406 42.8734 101.326 42.9728 101.227 43.0491C101.127 43.1254 101.01 43.1761 100.886 43.1968C100.693 43.2176 100.51 43.2962 100.362 43.4222C100.213 43.5481 100.107 43.7158 100.056 43.9031C100.004 44.0749 100.004 44.2582 100.056 44.4301C100.109 44.5829 100.151 44.7358 100.214 44.8939C100.214 44.7305 100.214 44.5724 100.252 44.4037C100.249 44.2644 100.276 44.126 100.331 43.9979C100.387 43.8829 100.472 43.7843 100.578 43.7114C100.684 43.6385 100.806 43.5938 100.934 43.5816C101.126 43.5506 101.306 43.4642 101.449 43.3331C101.593 43.202 101.695 43.0319 101.743 42.8437C101.759 42.7619 101.759 42.6778 101.743 42.596L101.527 42.0479ZM86.4484 48.6885C86.3955 48.5304 86.3532 48.3723 86.2897 48.2247C86.2897 48.3881 86.2897 48.5462 86.2527 48.7096C86.2618 48.8517 86.2383 48.9941 86.1839 49.1259C86.1319 49.2399 86.0526 49.3394 85.953 49.4156C85.8533 49.4919 85.7364 49.5426 85.6125 49.5633C85.419 49.5848 85.2365 49.6636 85.0884 49.7895C84.9404 49.9154 84.8336 50.0826 84.7819 50.2696C84.7298 50.4414 84.7298 50.6248 84.7819 50.7966C84.8401 50.9494 84.8771 51.1075 84.9406 51.2604C84.9406 51.097 84.9406 50.9389 84.9776 50.7755C84.9738 50.6338 85.0027 50.4932 85.0623 50.3644C85.117 50.2492 85.2009 50.1502 85.3057 50.0772C85.4106 50.0042 85.5327 49.9597 85.6601 49.9481C85.8531 49.9184 86.0329 49.8325 86.1769 49.7012C86.321 49.5699 86.4228 49.3991 86.4696 49.2102C86.5157 49.0391 86.5139 48.8587 86.4643 48.6885H86.4484ZM102.849 52.1405C102.796 51.9877 102.754 51.8243 102.69 51.6767C102.69 51.8401 102.69 51.9982 102.653 52.1616C102.663 52.3038 102.639 52.4462 102.585 52.578C102.533 52.6925 102.454 52.7924 102.355 52.8688C102.255 52.9452 102.138 52.9956 102.013 53.0154C101.755 53.0455 101.519 53.1762 101.357 53.379C101.849 53.2473 102.31 53.1155 102.733 52.9943C102.803 52.8962 102.854 52.7851 102.881 52.6675C102.925 52.4938 102.919 52.3114 102.865 52.1405H102.849ZM90.5327 42.0848C90.3922 42.0892 90.2525 42.0603 90.1254 42.0005C90.009 41.9463 89.9089 41.8629 89.8347 41.7585C89.7605 41.6541 89.7148 41.5322 89.7021 41.4049C89.68 41.2154 89.6026 41.0364 89.4794 40.8903C89.3562 40.7441 89.1927 40.6372 89.0091 40.5828C88.833 40.5465 88.6504 40.5574 88.48 40.6144C88.3266 40.6671 88.1731 40.7093 88.0197 40.7725C88.1837 40.7725 88.3477 40.7725 88.5064 40.8041C88.6478 40.798 88.7887 40.8232 88.9191 40.8779C89.0365 40.9261 89.1392 41.004 89.2171 41.1038C89.295 41.2036 89.3455 41.3219 89.3635 41.4471C89.3865 41.6393 89.466 41.8205 89.5922 41.9678C89.7184 42.115 89.8855 42.2218 90.0725 42.2745C90.2451 42.3255 90.4289 42.3255 90.6015 42.2745C90.7549 42.2218 90.9084 42.1849 91.0618 42.1164C90.8713 42.0953 90.7073 42.0953 90.5486 42.0848H90.5327ZM63.9847 34.9752C63.8769 34.9774 63.7696 34.9613 63.6672 34.9277C63.6937 35.0173 63.7307 35.1122 63.7678 35.2071C63.8501 35.2016 63.9317 35.1875 64.0111 35.1649C64.1645 35.1122 64.318 35.0753 64.4714 35.0068C64.3074 34.9857 64.1434 34.991 63.9847 34.9752Z" fill="#263238"/>
<path d="M102.352 52.2897C101.738 51.2725 99.9449 46.7032 99.5111 45.5595C99.0772 44.4159 97.4901 39.7622 97.0457 38.6027C97.0457 38.5395 97.1091 38.4868 97.1356 38.55C97.5906 39.7042 99.5481 44.2314 99.9925 45.3698C100.437 46.5082 102.172 51.0828 102.41 52.2633C102.414 52.271 102.414 52.2798 102.411 52.2877C102.408 52.2956 102.402 52.302 102.394 52.3055C102.387 52.309 102.378 52.3093 102.37 52.3063C102.362 52.3034 102.356 52.2974 102.352 52.2897Z" fill="#263238"/>
<path opacity="0.1" d="M88.9671 56.4982C86.8508 56.9145 85.0838 57.1359 84.2056 56.9883C79.7879 56.2294 67.2757 41.3408 64.9691 37.5831C62.6624 33.8253 63.0274 32.0124 64.3395 31.459L88.9671 56.4982Z" fill="#020100"/>
<path d="M42.1453 68.0813C42.2088 68.1709 73.5501 72.5611 73.8887 72.2975C74.0801 71.4284 74.2179 70.5483 74.3013 69.6624C74.3013 69.6624 76.7191 67.4173 76.1742 63.2221C75.0262 54.3416 71.836 35.5847 70.3546 33.5661C69.0743 31.8059 65.1381 30.4988 62.4187 31.6056C56.742 33.9192 45.3514 54.8739 42.5474 59.8227C41.1612 62.2629 42.8489 64.176 42.9759 65.4303C42.6466 66.2968 42.3692 67.182 42.1453 68.0813Z" fill="#455A64"/>
<path d="M66.7411 70.2631C66.6478 70.3668 66.5294 70.4448 66.3972 70.4897C66.2768 70.5326 66.1475 70.544 66.0215 70.5227C65.8955 70.5015 65.7771 70.4484 65.6776 70.3685C65.5204 70.2514 65.3316 70.1838 65.1355 70.1744C64.9394 70.165 64.745 70.2142 64.5772 70.3158C64.4257 70.4144 64.3048 70.5531 64.228 70.7163C64.1501 70.8549 64.0795 70.9974 64.0164 71.1432L64.3762 70.8323C64.4689 70.7244 64.5871 70.6411 64.7201 70.5898C64.837 70.5435 64.9639 70.5275 65.0887 70.5431C65.2136 70.5588 65.3325 70.6057 65.4343 70.6794C65.5864 70.8007 65.7713 70.874 65.9655 70.89C66.1596 70.906 66.3542 70.8639 66.5241 70.769C66.6819 70.6779 66.809 70.5422 66.8892 70.379C66.9633 70.2315 67.0479 70.0944 67.1114 69.9469C66.9844 70.0417 66.868 70.1577 66.7411 70.2631ZM71.2169 54.7579C71.1238 54.8629 71.0055 54.9427 70.873 54.9898C70.7522 55.0319 70.6226 55.0424 70.4966 55.0203C70.3706 54.9981 70.2524 54.9441 70.1535 54.8633C70.0398 54.7773 69.9084 54.7177 69.7687 54.6885C69.629 54.6594 69.4846 54.6615 69.3459 54.6948C69.2071 54.7281 69.0776 54.7917 68.9665 54.881C68.8555 54.9703 68.7658 55.0831 68.7038 55.2111C68.6298 55.3587 68.5504 55.4957 68.4869 55.6486C68.6192 55.5537 68.7303 55.4377 68.852 55.3323C68.9489 55.2255 69.0681 55.1409 69.2012 55.0846C69.3187 55.0383 69.4464 55.0232 69.5716 55.0407C69.6968 55.0583 69.8152 55.1079 69.9154 55.1848C70.0692 55.3027 70.2542 55.3735 70.4477 55.3884C70.6413 55.4034 70.835 55.3619 71.0052 55.2691C71.1644 55.1781 71.2932 55.0424 71.3756 54.8791C71.4444 54.7368 71.529 54.5945 71.5925 54.4417C71.4549 54.5418 71.3438 54.6525 71.2169 54.7579ZM53.8056 58.8898C53.7082 58.9923 53.5889 59.0715 53.4564 59.1217C53.3356 59.1633 53.2061 59.1736 53.0802 59.1514C52.9543 59.1293 52.8361 59.0755 52.7369 58.9952C52.5803 58.8786 52.392 58.8118 52.1967 58.8033C52.0013 58.7949 51.808 58.8452 51.6418 58.9478C51.4879 59.0405 51.3647 59.1761 51.2873 59.3378C51.2076 59.4816 51.1352 59.6294 51.0704 59.7805C51.2027 59.6803 51.3138 59.5644 51.4407 59.459C51.5369 59.3549 51.6541 59.2723 51.7846 59.2166C51.9026 59.1695 52.0308 59.1536 52.1568 59.1702C52.2828 59.1868 52.4025 59.2354 52.5041 59.3114C52.6556 59.4321 52.84 59.5046 53.0334 59.5197C53.2268 59.5347 53.4202 59.4915 53.5887 59.3957C53.7475 59.3066 53.8763 59.1728 53.959 59.011C54.0278 58.8634 54.1125 58.7264 54.176 58.5683C54.0437 58.6737 53.9273 58.7844 53.8056 58.8898ZM60.2072 40.9339C60.1112 41.0367 59.9913 41.1145 59.858 41.1605C59.7379 41.2044 59.6083 41.2163 59.4821 41.1951C59.3559 41.1738 59.2375 41.1201 59.1385 41.0393C58.9819 40.9227 58.7936 40.8559 58.5983 40.8474C58.4029 40.839 58.2096 40.8893 58.0434 40.9919C57.8895 41.0846 57.7663 41.2202 57.6889 41.3819C57.6148 41.5347 57.5302 41.6665 57.472 41.8193C57.6042 41.7244 57.7153 41.6085 57.8423 41.5031C57.9385 41.399 58.0557 41.3164 58.1862 41.2607C58.3042 41.2136 58.4324 41.1977 58.5584 41.2143C58.6844 41.2309 58.804 41.2795 58.9057 41.3555C59.0572 41.4762 59.2416 41.5487 59.435 41.5638C59.6284 41.5788 59.8218 41.5356 59.9903 41.4398C60.1506 41.3503 60.2798 41.2143 60.3606 41.0498C60.4294 40.9075 60.514 40.7705 60.5775 40.6124C60.44 40.7178 60.3289 40.8285 60.2072 40.9339ZM57.7735 66.0732C57.7206 65.9151 57.6783 65.757 57.6148 65.6094C57.6148 65.7728 57.6148 65.9309 57.5778 66.0943C57.5869 66.2365 57.5634 66.3789 57.509 66.5106C57.457 66.6246 57.3777 66.7241 57.2781 66.8004C57.1785 66.8766 57.0616 66.9274 56.9376 66.9481C56.7439 66.9689 56.561 67.0474 56.4128 67.1734C56.2646 67.2994 56.1581 67.467 56.107 67.6543C56.0549 67.8261 56.0549 68.0095 56.107 68.1813C56.1599 68.3342 56.2022 68.487 56.2657 68.6451C56.2657 68.4817 56.2657 68.3236 56.3028 68.155C56.2999 68.0156 56.327 67.8773 56.3821 67.7492C56.4385 67.6342 56.5236 67.5355 56.6292 67.4626C56.7348 67.3898 56.8574 67.345 56.9852 67.3328C57.1777 67.3018 57.3568 67.2155 57.5006 67.0844C57.6444 66.9533 57.7467 66.7832 57.7947 66.595C57.8426 66.4243 57.8426 66.2439 57.7947 66.0732H57.7735ZM71.3809 36.8652C71.328 36.7124 71.2909 36.5543 71.2274 36.4014C71.2274 36.5648 71.2275 36.7282 71.1904 36.8916C71.197 37.0319 71.1736 37.172 71.1216 37.3027C71.0721 37.4193 70.9928 37.521 70.8916 37.5977C70.7905 37.6744 70.671 37.7235 70.545 37.7401C70.3522 37.7636 70.1707 37.8431 70.023 37.9687C69.8753 38.0943 69.7679 38.2604 69.7143 38.4463C69.6632 38.6183 69.6632 38.8014 69.7143 38.9733C69.7673 39.1262 69.8043 39.2843 69.8678 39.4319C69.8942 39.2685 69.8942 39.1104 69.9048 38.947C69.9009 38.8053 69.9299 38.6646 69.9895 38.5359C70.0465 38.4235 70.1303 38.3268 70.2336 38.2542C70.337 38.1816 70.4566 38.1353 70.582 38.1196C70.7767 38.0929 70.9587 38.0081 71.1042 37.8764C71.2496 37.7447 71.3516 37.5723 71.3968 37.3817C71.4404 37.2115 71.4349 37.0325 71.3809 36.8652ZM61.1066 50.0726C61.0537 49.9145 61.0114 49.7616 60.9479 49.6088C60.9214 49.7722 60.9479 49.9356 60.9108 50.0937C60.9232 50.236 60.8996 50.3792 60.8421 50.51C60.7903 50.6256 60.7105 50.7266 60.6098 50.8039C60.5092 50.8811 60.3908 50.9323 60.2654 50.9527C60.0731 50.9752 59.8917 51.0537 59.7439 51.1784C59.5962 51.303 59.4886 51.4684 59.4348 51.6537C59.3836 51.8257 59.3836 52.0087 59.4348 52.1807C59.4877 52.3335 59.5247 52.4864 59.5882 52.6445C59.5882 52.4811 59.5882 52.3177 59.6252 52.1544C59.6182 52.0141 59.6473 51.8744 59.7099 51.7485C59.7638 51.6334 59.8467 51.534 59.9506 51.4602C60.0544 51.3863 60.1756 51.3404 60.3024 51.3269C60.4958 51.3003 60.6765 51.2161 60.8209 51.0854C60.9654 50.9547 61.0668 50.7835 61.1119 50.5943C61.154 50.4227 61.1522 50.2433 61.1066 50.0726ZM69.3017 46.3307C69.1615 46.3367 69.0219 46.3096 68.8943 46.2516C68.7789 46.1962 68.6795 46.1124 68.6055 46.0083C68.5315 45.9041 68.4852 45.7829 68.4711 45.6561C68.4419 45.4638 68.3567 45.2844 68.2259 45.1401C68.0952 44.9958 67.9247 44.8929 67.7357 44.8445C67.5592 44.8099 67.3766 44.8226 67.2066 44.8813C67.0532 44.934 66.8998 44.9709 66.7463 45.0342C66.9077 45.055 67.0703 45.0656 67.2331 45.0658C67.3744 45.0597 67.5153 45.0849 67.6457 45.1396C67.7637 45.1876 67.8667 45.2662 67.9439 45.3672C68.0211 45.4682 68.0698 45.588 68.0849 45.7141C68.1102 45.9062 68.1912 46.0869 68.3181 46.2339C68.445 46.3808 68.6121 46.4878 68.7991 46.5415C68.9721 46.5899 69.1551 46.5899 69.3281 46.5415C69.4816 46.4888 69.635 46.4519 69.7884 46.3834C69.6244 46.3412 69.4604 46.3465 69.3017 46.3307ZM46.6051 65.8308C46.4646 65.8352 46.325 65.8063 46.1978 65.7465C46.0815 65.6922 45.9813 65.6088 45.9071 65.5044C45.8329 65.4 45.7872 65.2782 45.7745 65.1509C45.7464 64.9589 45.6614 64.7795 45.5304 64.6359C45.3994 64.4922 45.2284 64.3908 45.0391 64.3446C44.8631 64.3083 44.6805 64.3192 44.5101 64.3762C44.3567 64.4289 44.2032 64.471 44.0498 64.5343C44.2138 64.5343 44.3778 64.5343 44.5365 64.5659C44.6779 64.5598 44.8188 64.585 44.9492 64.6397C45.0666 64.6879 45.1693 64.7657 45.2472 64.8656C45.3251 64.9654 45.3756 65.0837 45.3936 65.2089C45.4166 65.4011 45.4961 65.5823 45.6223 65.7295C45.7485 65.8768 45.9156 65.9835 46.1025 66.0363C46.2752 66.0873 46.459 66.0873 46.6316 66.0363C46.785 65.9836 46.9385 65.9467 47.0919 65.8782C46.9279 65.8466 46.7639 65.8466 46.6051 65.836V65.8308ZM64.6301 61.2878C64.4895 61.2922 64.3499 61.2633 64.2227 61.2035C64.1064 61.1493 64.0062 61.0659 63.932 60.9614C63.8578 60.857 63.8122 60.7352 63.7995 60.6079C63.7714 60.4159 63.6864 60.2365 63.5554 60.0929C63.4244 59.9492 63.2533 59.8478 63.0641 59.8016C62.888 59.7655 62.7055 59.7764 62.5351 59.8332C62.3816 59.8859 62.2282 59.9228 62.0748 59.9913C62.2388 59.9913 62.4028 59.9913 62.5615 60.0229C62.7047 60.0143 62.8479 60.0396 62.9795 60.0967C63.0955 60.1461 63.1969 60.2243 63.2738 60.324C63.3507 60.4237 63.4006 60.5414 63.4186 60.6659C63.4419 60.8588 63.5222 61.0404 63.6494 61.1878C63.7766 61.3351 63.9448 61.4414 64.1328 61.4933C64.3053 61.5452 64.4893 61.5452 64.6619 61.4933C64.8153 61.4406 64.9687 61.4037 65.1274 61.3352C64.9528 61.3036 64.7888 61.3036 64.6301 61.293V61.2878ZM52.1338 48.8183C51.9935 48.8269 51.8532 48.7997 51.7264 48.7392C51.6114 48.6846 51.5122 48.6018 51.4382 48.4986C51.3642 48.3953 51.3177 48.275 51.3032 48.1489C51.2761 47.9559 51.1915 47.7754 51.0604 47.6308C50.9293 47.4861 50.7577 47.3839 50.5678 47.3373C50.392 47.2975 50.2085 47.3084 50.0387 47.3689L49.7107 47.4743C49.6655 47.487 49.6213 47.5028 49.5784 47.5218H49.6737C49.8059 47.5218 49.9329 47.5218 50.0652 47.5218C50.2068 47.511 50.3488 47.5364 50.4778 47.5956C50.5939 47.6449 50.6953 47.7232 50.7722 47.8229C50.8491 47.9226 50.899 48.0403 50.917 48.1647C50.9406 48.3568 51.0204 48.5376 51.1464 48.6847C51.2725 48.8319 51.4393 48.9388 51.6259 48.9922C51.7989 49.0406 51.9819 49.0406 52.155 48.9922C52.3084 48.9395 52.4618 48.8973 52.6152 48.8393C52.4565 48.8341 52.2978 48.8341 52.1338 48.8183ZM73.6664 64.3551C73.5252 64.3605 73.3849 64.3296 73.259 64.2655C73.1428 64.2126 73.0425 64.1303 72.9683 64.0267C72.894 63.9231 72.8483 63.8019 72.8358 63.6752C72.8101 63.4814 72.7253 63.3001 72.5929 63.1559C72.4604 63.0117 72.2866 62.9115 72.0951 62.8689C71.9194 62.8328 71.7373 62.8419 71.566 62.8952C71.4126 62.9479 71.2592 62.9901 71.1005 63.0533C71.2645 63.0797 71.4285 63.0797 71.5925 63.0902C71.7339 63.0831 71.8751 63.1083 72.0052 63.164C72.1218 63.2125 72.2237 63.2905 72.3008 63.3904C72.3778 63.4902 72.4273 63.6084 72.4443 63.7332C72.4686 63.925 72.5486 64.1055 72.6746 64.2525C72.8005 64.3995 72.9669 64.5066 73.1532 64.5606C73.3259 64.6116 73.5096 64.6116 73.6823 64.5606C73.8382 64.5176 73.9919 64.4666 74.1425 64.4078C74.0103 64.3656 73.8516 64.3656 73.6664 64.3551ZM63.9847 34.9785C63.844 34.9835 63.7043 34.9545 63.5773 34.8941C63.4619 34.8387 63.3625 34.755 63.2885 34.6508C63.2145 34.5466 63.1682 34.4254 63.154 34.2986C63.126 34.1065 63.041 33.9272 62.91 33.7836C62.7789 33.6399 62.6079 33.5385 62.4187 33.4922C62.2427 33.4552 62.0599 33.4661 61.8896 33.5239C61.7362 33.5766 61.5775 33.6187 61.424 33.6767C61.5933 33.6767 61.752 33.6767 61.916 33.7136C62.0569 33.707 62.1976 33.7304 62.3287 33.7821C62.4446 33.8332 62.5456 33.9126 62.6224 34.0131C62.6992 34.1135 62.7492 34.2317 62.7678 34.3566C62.7908 34.5488 62.8703 34.73 62.9965 34.8772C63.1227 35.0245 63.2898 35.1312 63.4768 35.184C63.6494 35.235 63.8332 35.235 64.0058 35.184C64.1593 35.1313 64.3127 35.0944 64.4661 35.0259C64.3074 34.989 64.1434 34.9943 63.9847 34.9785Z" fill="#263238"/>
<path d="M73.5872 69.945C72.6137 69.7658 71.6244 69.6867 70.6456 69.5444C69.6668 69.4021 68.778 69.2282 67.8416 69.0965C65.9264 68.8329 64.0059 68.5694 62.0855 68.3164C58.2445 67.7894 54.4141 67.2202 50.5785 66.6616L47.3671 66.1925C46.2508 66.0239 45.1239 65.929 44.0076 65.7656C43.9964 65.7656 43.9856 65.7701 43.9777 65.778C43.9697 65.7859 43.9653 65.7966 43.9653 65.8078C43.9653 65.819 43.9697 65.8297 43.9777 65.8376C43.9856 65.8455 43.9964 65.85 44.0076 65.85C44.9811 66.0344 45.9439 66.2768 46.9227 66.4455L49.7214 66.9146C51.6313 67.236 53.5465 67.5312 55.4617 67.8158C59.292 68.3902 63.133 68.9278 66.9792 69.3969C68.0374 69.5339 69.1325 69.6288 70.2118 69.7183C71.2911 69.8079 72.455 70.0082 73.5819 70.0662C73.6665 70.0978 73.6665 69.9608 73.5872 69.945Z" fill="#263238"/>
<path d="M68.2278 38.7473C66.3126 38.547 63.9107 34.4415 63.4663 31.8379C63.4663 31.6587 64.2229 30.162 65.0852 28.3016C65.6143 27.1632 66.1433 25.893 66.5772 24.6914L73.4919 29.1448C72.5356 30.4935 71.7486 31.9537 71.1482 33.4928C71.091 33.6643 71.0503 33.8407 71.0265 34.0198C71.0281 34.0479 71.0281 34.0761 71.0265 34.1042C70.8414 35.0792 70.0795 38.937 68.2278 38.7473Z" fill="#FFC4C0"/>
<path d="M71.0212 34.0024C71.0212 34.0024 71.0212 34.0551 71.0212 34.0868C70.7513 34.0315 70.486 33.9558 70.2276 33.8601C65.8947 32.2474 66.7306 26.5608 67.0533 24.9902L68.778 26.1023L73.4919 29.1432C72.5374 30.4941 71.7522 31.956 71.1535 33.4965C71.0927 33.6604 71.0484 33.8298 71.0212 34.0024Z" fill="#263238"/>
<path d="M78.809 15.4746C78.809 15.4746 81.0786 17.1189 80.9252 19.7857C80.7718 22.4525 79.5391 24.9875 79.2851 25.056C79.0312 25.1245 78.809 15.4746 78.809 15.4746Z" fill="#263238"/>
<path d="M67.503 16.3413C66.1486 18.9765 66.175 27.2614 67.8363 29.4064C70.2488 32.5211 74.915 33.6226 77.7508 30.5606C80.4966 27.6039 80.2691 16.7946 78.3486 14.7497C75.5129 11.8089 69.5028 12.4782 67.503 16.3413Z" fill="#FFC4C0"/>
<path d="M74.5025 22.9902C74.5025 22.9902 74.4548 22.9902 74.4601 23.0377C74.4601 23.5963 74.3966 24.2393 73.894 24.4238V24.4554C74.513 24.3711 74.6083 23.5173 74.5025 22.9902Z" fill="#263238"/>
<path d="M73.9998 22.4062C73.1004 22.3377 73.0263 24.1349 73.8622 24.2034C74.6981 24.2719 74.7563 22.4642 73.9998 22.4062Z" fill="#263238"/>
<path d="M77.6819 23.0117C77.6819 23.0117 77.7295 23.0433 77.7243 23.0644C77.6872 23.6231 77.7243 24.266 78.2533 24.4716C78.2533 24.4716 78.2533 24.5085 78.2533 24.5032C77.6132 24.3925 77.555 23.5335 77.6819 23.0117Z" fill="#263238"/>
<path d="M78.2112 22.4535C79.1106 22.4219 79.1106 24.2244 78.2694 24.2507C77.4282 24.2771 77.4494 22.4799 78.2112 22.4535Z" fill="#263238"/>
<path d="M73.4866 21.1636C73.7342 21.1635 73.9816 21.1477 74.2273 21.1162C74.4904 21.1404 74.7539 21.0734 74.9732 20.9265C75.0348 20.8689 75.075 20.7923 75.0875 20.7091C75.1 20.6259 75.084 20.541 75.042 20.468C74.9382 20.3349 74.8006 20.232 74.6433 20.1699C74.4861 20.1078 74.315 20.0888 74.1479 20.1149C73.8019 20.1142 73.468 20.2419 73.2115 20.4732C73.156 20.5293 73.1181 20.6003 73.1024 20.6774C73.0867 20.7546 73.0938 20.8346 73.123 20.9078C73.1521 20.981 73.202 21.0442 73.2666 21.0896C73.3312 21.135 73.4076 21.1607 73.4866 21.1636Z" fill="#263238"/>
<path d="M79.0154 21.2522C78.7736 21.193 78.5352 21.1209 78.3012 21.0361C78.0402 20.995 77.8002 20.869 77.6187 20.6777C77.5739 20.6064 77.5538 20.5225 77.5614 20.4387C77.569 20.355 77.604 20.276 77.661 20.2139C77.7935 20.1094 77.9514 20.0417 78.1186 20.0176C78.2859 19.9935 78.4566 20.014 78.6133 20.0769C78.9511 20.1552 79.2473 20.3563 79.4439 20.6408C79.4859 20.7082 79.5071 20.7864 79.505 20.8658C79.5028 20.9451 79.4774 21.022 79.4318 21.0871C79.3862 21.1521 79.3224 21.2024 79.2484 21.2318C79.1744 21.2611 79.0934 21.2682 79.0154 21.2522Z" fill="#263238"/>
<path d="M73.5658 27.9312C73.6928 28.0683 73.8198 28.2527 74.0208 28.2791C74.2293 28.2806 74.436 28.2412 74.6292 28.1631C74.5461 28.2702 74.4349 28.3523 74.308 28.4007C74.1811 28.449 74.0433 28.4616 73.9097 28.4372C73.7939 28.4023 73.6915 28.3333 73.6159 28.2392C73.5403 28.1451 73.4952 28.0303 73.4865 27.9102C73.5023 27.9312 73.5446 27.9312 73.5658 27.9312Z" fill="#263238"/>
<path d="M74.2219 26.2763C74.3535 26.5039 74.5318 26.7012 74.7451 26.8556C74.9584 27.01 75.2019 27.1179 75.4599 27.1723C75.6829 27.2274 75.9129 27.2487 76.1423 27.2355H76.2746H76.4016C76.4314 27.2302 76.4587 27.2156 76.4796 27.1938C76.5005 27.172 76.514 27.1442 76.518 27.1143C76.5206 27.0951 76.5206 27.0756 76.518 27.0563V27.0089C76.5444 26.5767 76.518 25.9232 76.518 25.9232C76.6714 26.0076 77.465 26.4028 77.4597 26.1762C77.4889 24.2318 77.3205 22.2895 76.9571 20.3789C76.9571 20.3649 76.9515 20.3515 76.9416 20.3416C76.9317 20.3317 76.9182 20.3262 76.9042 20.3262C76.8902 20.3262 76.8767 20.3317 76.8668 20.3416C76.8569 20.3515 76.8513 20.3649 76.8513 20.3789C76.8142 22.1708 77.0946 23.9574 77.0841 25.7546C76.8037 25.6116 76.5045 25.5087 76.1952 25.4489C76.1318 25.4489 76.2482 26.7138 76.1952 26.9035C75.84 26.9252 75.4839 26.8752 75.1485 26.7566C74.813 26.638 74.5051 26.4531 74.243 26.2131C74.2324 26.1973 74.1954 26.2342 74.2219 26.2763Z" fill="#263238"/>
<path d="M66.7518 24.5247C67.7464 24.783 68.7517 21.8053 69.0268 20.6669C69.2648 19.6603 69.4659 16.4981 69.5029 16.282C69.54 16.0659 73.8835 18.9171 76.3225 18.0844C78.7614 17.2517 80.3221 14.996 80.3115 13.9631C80.301 12.9301 77.1372 10.4425 74.4919 10.4162C71.8466 10.3898 68.376 13.884 68.376 13.884C68.7891 13.3758 69.1624 12.8366 69.4923 12.2713C69.4447 12.1501 67.757 12.9037 67.4925 14.1317C67.4925 14.1317 67.7729 12.5928 67.6406 12.5506C67.5084 12.5085 66.2333 13.8893 66.5825 14.8643C66.5825 14.8643 65.0959 16.2557 64.9954 17.7155C64.8948 19.1754 65.5879 24.2454 66.7518 24.5247Z" fill="#263238"/>
<path d="M78.0523 17.4989C77.3477 17.9266 76.5826 18.2464 75.7826 18.4476C74.8778 18.5618 73.9586 18.4533 73.1056 18.1313C72.2452 17.8352 71.4392 17.4008 70.7196 16.8454C70.0794 16.3658 69.508 15.7913 68.8308 15.3539C68.6615 15.2485 68.4816 15.4909 68.5875 15.6385C69.7508 17.1375 71.3658 18.2254 73.1955 18.7427C74.0454 18.9825 74.9433 18.9984 75.8011 18.7886C76.659 18.5789 77.4474 18.1509 78.0893 17.5463C78.0893 17.5463 78.0682 17.4936 78.0523 17.4989Z" fill="#263238"/>
<path d="M68.1642 23.1909C68.1642 23.1909 66.7516 20.2975 65.4607 20.7613C64.1698 21.2251 64.9317 25.2147 66.2543 25.9525C66.4159 26.0589 66.5975 26.1316 66.7881 26.1661C66.9787 26.2007 67.1743 26.1964 67.3632 26.1536C67.5521 26.1107 67.7303 26.0302 67.887 25.9168C68.0438 25.8035 68.1759 25.6596 68.2753 25.494L68.1642 23.1909Z" fill="#FFC4C0"/>
<path d="M65.7305 21.916C65.7305 21.916 65.6987 21.916 65.7305 21.9529C66.6457 22.4799 67.0161 23.4866 67.2277 24.4774C67.1858 24.3714 67.1215 24.2755 67.0392 24.1964C66.9569 24.1173 66.8585 24.0567 66.7507 24.0187C66.6428 23.9807 66.5281 23.9663 66.4141 23.9763C66.3002 23.9863 66.1897 24.0206 66.0902 24.0768C66.0585 24.0768 66.0902 24.1348 66.0902 24.1348C66.2703 24.1077 66.4544 24.1367 66.6173 24.2179C66.7802 24.299 66.9139 24.4283 67.0002 24.5881C67.1447 24.8573 67.2583 25.142 67.3388 25.4366C67.3706 25.5314 67.5346 25.5104 67.5187 25.4049C67.7197 24.1401 67.0267 22.2533 65.7305 21.916Z" fill="#263238"/>
<path d="M71.2062 33.3581L68.635 37.6903L63.7676 30.9707L61.8472 32.594C61.8472 32.594 66.0796 42.7393 66.159 42.3229L68.6826 38.6337L71.0157 41.8275L71.8569 34.8391L71.2062 33.3581Z" fill="#EBEBEB"/>
<path d="M71.6295 38.3987C71.73 37.2392 71.8623 36.0745 71.9099 34.915C71.9099 34.8728 71.8517 34.8412 71.8306 34.915C71.4285 35.969 71.0687 40.4224 70.9047 41.4712C70.8095 41.3342 68.7197 38.6464 68.6933 38.678C68.1642 39.2472 66.3337 41.935 66.1961 42.1827C65.5295 40.57 62.9371 34.6884 62.0959 33.1336C62.09 33.1269 62.0822 33.1222 62.0734 33.1202C62.0647 33.1182 62.0556 33.119 62.0473 33.1226C62.0391 33.1261 62.0322 33.1321 62.0276 33.1398C62.023 33.1474 62.021 33.1564 62.0219 33.1652C62.5509 34.8412 65.9845 42.7519 66.0533 42.7414C67.0021 41.4859 67.885 40.1824 68.6985 38.8361C69.0371 39.4053 71.1005 42.3935 71.1322 42.2249C71.3657 40.9591 71.5317 39.6819 71.6295 38.3987Z" fill="#263238"/>
<path d="M90.8448 64.4531L105.595 66.5613C105.595 66.5613 114.589 65.0329 116.938 64.9327C119.287 64.8326 133.127 65.2437 133.127 65.2437L126.884 61.5545C126.884 61.5545 118.123 60.9168 111.541 60.9484C104.96 60.98 90.8448 64.4531 90.8448 64.4531Z" fill="#EBEBEB"/>
<path d="M57.8848 42.5598C60.2761 51.9778 66.3127 66.1971 69.2331 67.2142C76.5499 69.7493 87.75 69.1484 92.2841 68.1576C94.9293 67.5779 92.5486 53.5009 90.1678 53.8962C86.4168 54.5286 75.3966 54.9503 73.9999 54.9081C73.2539 54.9081 67.4713 46.2332 63.1806 40.926C58.5144 35.155 56.7367 37.9746 57.8848 42.5598Z" fill="#FFC4C0"/>
<path d="M86.5386 54.8138C89.1014 52.8266 92.0289 51.3568 95.1569 50.4869C97.3631 49.8703 101.601 49.8545 103.241 50.0811C105.696 50.4131 115.748 53.375 115.081 55.8205C114.478 58.0287 106.161 54.3922 106.161 54.3922C106.161 54.3922 114.88 57.3225 113.658 59.8575C112.436 62.3925 103.606 57.0326 103.606 57.0326C103.606 57.0326 112.489 60.2422 110.817 62.656C109.553 64.4743 101.294 60.0789 101.294 60.0789C101.294 60.0789 108.912 62.8932 107.696 64.8221C106.346 66.9302 98.4476 63.3728 98.4476 63.3728C98.1196 64.3847 96.1515 68.0054 92.4534 68.1161C91.7709 68.153 86.5386 54.8138 86.5386 54.8138Z" fill="#FFC4C0"/>
<path d="M103.214 53.2324C104.272 53.5381 105.299 53.8438 106.304 54.2391C107.309 54.6343 108.304 55.0718 109.267 55.5619C110.54 56.1744 111.737 56.9332 112.833 57.8229C110.769 56.3893 107.193 54.9084 106.188 54.5131C105.182 54.1178 104.198 53.6646 103.198 53.2693L103.214 53.2324Z" fill="#263238"/>
<path d="M101.707 56.7932C103.013 57.2411 104.325 57.6417 105.611 58.1476C106.897 58.6536 108.061 59.2438 109.314 59.8341C109.41 59.8763 109.351 59.9132 109.256 59.871C107.992 59.344 106.78 58.9276 105.511 58.4006C104.241 57.8736 102.987 57.2991 101.701 56.8195C101.67 56.8142 101.707 56.7826 101.707 56.7932Z" fill="#263238"/>
<path d="M99.8547 59.6398C101.911 60.2697 103.898 61.1049 105.785 62.1326C105.881 62.1853 105.785 62.2222 105.706 62.18C103.791 61.2999 102.172 60.6359 99.8336 59.7136C99.7965 59.6977 99.8124 59.6292 99.8547 59.6398Z" fill="#263238"/>
<path d="M90.4694 70.7021L88.3531 53.21L74.3596 54.2851C71.0794 49.7316 64.5138 40.6298 61.768 37.8207C58.5461 34.5268 56.0384 36.5348 56.8954 41.141C58.8582 51.6816 65.9582 67.5347 68.0744 69.1895C71.1006 71.5823 90.4694 70.7021 90.4694 70.7021Z" fill="#455A64"/>
<path d="M71.217 54.7568C71.1239 54.8619 71.0056 54.9417 70.8731 54.9887C70.7524 55.0309 70.6228 55.0414 70.4967 55.0192C70.3707 54.9971 70.2526 54.943 70.1536 54.8622C70.0399 54.7763 69.9085 54.7166 69.7688 54.6874C69.6292 54.6583 69.4847 54.6605 69.346 54.6937C69.2073 54.727 69.0777 54.7906 68.9667 54.8799C68.8556 54.9692 68.7659 55.082 68.704 55.21C68.6299 55.3576 68.5506 55.4946 68.4871 55.6475C68.6193 55.5526 68.7304 55.4367 68.8521 55.3313C68.949 55.2244 69.0682 55.1399 69.2013 55.0836C69.3189 55.0372 69.4465 55.0221 69.5717 55.0396C69.6969 55.0572 69.8154 55.1068 69.9155 55.1837C70.0694 55.3016 70.2543 55.3724 70.4479 55.3874C70.6414 55.4023 70.8351 55.3609 71.0054 55.268C71.1645 55.177 71.2933 55.0414 71.3757 54.878C71.4445 54.7357 71.5291 54.5934 71.5926 54.4406C71.4551 54.5407 71.344 54.6514 71.217 54.7568ZM84.5968 64.9127C84.5038 65.0177 84.3854 65.0975 84.253 65.1446C84.1322 65.1867 84.0026 65.1972 83.8766 65.1751C83.7506 65.1529 83.6324 65.0989 83.5334 65.0181C83.4198 64.9321 83.2883 64.8724 83.1487 64.8433C83.009 64.8142 82.8646 64.8163 82.7258 64.8496C82.5871 64.8829 82.4575 64.9465 82.3465 65.0358C82.2355 65.1251 82.1458 65.2378 82.0838 65.3659C82.0098 65.5135 81.9304 65.6505 81.8669 65.8033C81.9992 65.7085 82.1103 65.5925 82.232 65.4871C82.3289 65.3803 82.4481 65.2957 82.5811 65.2394C82.6987 65.1931 82.8263 65.1779 82.9515 65.1955C83.0767 65.2131 83.1952 65.2627 83.2954 65.3396C83.4492 65.4575 83.6342 65.5282 83.8277 65.5432C84.0212 65.5582 84.2149 65.5167 84.3852 65.4239C84.5444 65.3328 84.6731 65.1972 84.7556 65.0339C84.8243 64.8916 84.909 64.7493 84.9725 64.5964C84.8349 64.6966 84.7238 64.8283 84.5968 64.9127ZM60.2073 40.9328C60.1113 41.0357 59.9914 41.1135 59.8581 41.1594C59.738 41.2033 59.6084 41.2153 59.4822 41.194C59.356 41.1727 59.2376 41.119 59.1386 41.0382C58.982 40.9217 58.7937 40.8548 58.5984 40.8464C58.4031 40.8379 58.2097 40.8882 58.0435 40.9908C57.8896 41.0835 57.7664 41.2191 57.689 41.3808C57.615 41.5336 57.5303 41.6654 57.4721 41.8182C57.6044 41.7234 57.7155 41.6074 57.8424 41.502C57.9386 41.3979 58.0558 41.3153 58.1863 41.2596C58.3044 41.2126 58.4325 41.1966 58.5586 41.2132C58.6846 41.2298 58.8042 41.2785 58.9059 41.3544C59.0574 41.4751 59.2417 41.5477 59.4351 41.5627C59.6285 41.5777 59.822 41.5346 59.9904 41.4388C60.1508 41.3493 60.28 41.2132 60.3608 41.0488C60.4295 40.9065 60.5142 40.7694 60.5777 40.6113C60.4401 40.7167 60.329 40.8274 60.2073 40.9328ZM78.1953 69.4451C78.1424 69.2923 78.1053 69.1289 78.0418 68.9813C78.0418 69.1447 78.0418 69.3028 77.9995 69.4662C78.0103 69.608 77.9886 69.7504 77.936 69.8826C77.8847 69.998 77.805 70.0986 77.7041 70.1751C77.6033 70.2516 77.4847 70.3014 77.3593 70.32C77.2219 70.3356 77.0894 70.3803 76.9707 70.4512C76.8521 70.5222 76.7501 70.6176 76.6716 70.7311L77.2006 70.7574C77.2629 70.7312 77.329 70.7151 77.3964 70.71C77.5896 70.681 77.7698 70.5953 77.9139 70.4639C78.0581 70.3325 78.1597 70.1613 78.2058 69.9721C78.2495 69.7984 78.244 69.616 78.19 69.4451H78.1953ZM61.1067 50.0715C61.0538 49.9134 61.0115 49.7606 60.948 49.6077C60.9216 49.7711 60.948 49.9345 60.911 50.0926C60.9234 50.2349 60.8997 50.3781 60.8422 50.5089C60.7904 50.6245 60.7106 50.7255 60.6099 50.8028C60.5093 50.8801 60.3909 50.9312 60.2655 50.9516C60.0396 50.9784 59.8301 51.0828 59.673 51.2468C59.7153 51.3785 59.7629 51.5103 59.8052 51.6368C59.8663 51.5515 59.9452 51.4804 60.0366 51.4286C60.1279 51.3767 60.2295 51.3452 60.3343 51.3364C60.5276 51.3098 60.7084 51.2256 60.8528 51.0948C60.9973 50.9641 61.0987 50.793 61.1438 50.6038C61.1774 50.4261 61.1647 50.2428 61.1067 50.0715ZM80.2057 56.7384C80.1528 56.5803 80.1104 56.4275 80.047 56.2747C80.0205 56.438 80.047 56.6014 80.0099 56.7595C80.0223 56.9018 79.9987 57.045 79.9411 57.1759C79.8894 57.2915 79.8095 57.3924 79.7089 57.4697C79.6082 57.547 79.4899 57.5981 79.3645 57.6186C79.1722 57.641 78.9908 57.7195 78.843 57.8442C78.6953 57.9689 78.5877 58.1342 78.5339 58.3195C78.4827 58.4915 78.4827 58.6746 78.5339 58.8465C78.5868 58.9994 78.6238 59.1522 78.6873 59.3103C78.6873 59.147 78.6873 58.9836 78.7243 58.8202C78.7173 58.68 78.7464 58.5402 78.809 58.4144C78.8629 58.2992 78.9458 58.1999 79.0496 58.126C79.1534 58.0522 79.2747 58.0063 79.4015 57.9928C79.5948 57.9662 79.7756 57.882 79.92 57.7512C80.0645 57.6205 80.1659 57.4493 80.211 57.2602C80.2531 57.0886 80.2513 56.9092 80.2057 56.7384ZM90.4429 70.1724L90.3794 69.9774C90.3524 69.8862 90.3206 69.7965 90.2842 69.7086C90.2842 69.872 90.2842 70.0354 90.2472 70.1935C90.2596 70.3358 90.2359 70.479 90.1784 70.6099C90.1604 70.6485 90.1392 70.6855 90.1149 70.7205H90.4694C90.5093 70.5387 90.5002 70.3496 90.4429 70.1724ZM68.0691 45.6972C68.0918 45.8677 68.1583 46.0296 68.2621 46.1672C68.3659 46.3047 68.5035 46.4133 68.6617 46.4824C68.4712 46.2295 68.2702 45.9607 68.0691 45.6972ZM67.4237 44.8328C67.3465 44.8414 67.2703 44.8573 67.1962 44.8803C67.0427 44.933 66.8893 44.9699 66.7359 45.0331C66.8973 45.054 67.0599 45.0645 67.2226 45.0647C67.364 45.0587 67.5049 45.0839 67.6353 45.1385H67.6617L67.4237 44.8328ZM64.6302 61.292C64.4897 61.2964 64.35 61.2675 64.2229 61.2076C64.1065 61.1534 64.0064 61.0701 63.9322 60.9656C63.858 60.8612 63.8123 60.7394 63.7996 60.6121C63.7715 60.42 63.6865 60.2407 63.5555 60.0971C63.4245 59.9534 63.2535 59.852 63.0642 59.8057H62.969C63.0325 59.9533 63.096 60.0956 63.1542 60.2379C63.2241 60.2922 63.2825 60.3597 63.3261 60.4366C63.3697 60.5135 63.3975 60.5982 63.4081 60.6859C63.4315 60.8788 63.5118 61.0604 63.639 61.2078C63.7661 61.3551 63.9344 61.4614 64.1224 61.5133C64.2949 61.5652 64.4789 61.5652 64.6514 61.5133C64.8048 61.4606 64.9583 61.4237 65.117 61.3552C64.953 61.3025 64.789 61.3025 64.6302 61.292ZM88.9192 58.0507C88.7911 57.9109 88.6231 57.8134 88.4378 57.7714C88.2617 57.7354 88.0792 57.7463 87.9087 57.803C87.7553 57.8557 87.6019 57.8926 87.4485 57.9611C87.6125 57.9611 87.7765 57.9611 87.9352 57.9928C88.0784 57.9842 88.2216 58.0095 88.3531 58.0665C88.4692 58.1159 88.5706 58.1942 88.6475 58.2939C88.7244 58.3936 88.7743 58.5113 88.7923 58.6357C88.8214 58.8523 88.9197 59.0537 89.0727 59.2102L88.9192 58.0507ZM73.6665 64.354C73.5253 64.3594 73.385 64.3285 73.2592 64.2644C73.1429 64.2115 73.0427 64.1292 72.9684 64.0256C72.8941 63.922 72.8484 63.8008 72.8359 63.6741C72.8103 63.4803 72.7255 63.299 72.593 63.1548C72.4605 63.0106 72.2868 62.9104 72.0952 62.8678C71.9195 62.8317 71.7374 62.8408 71.5662 62.8941C71.4128 62.9468 71.2593 62.989 71.1006 63.0523C71.2646 63.0786 71.4286 63.0786 71.5926 63.0891C71.734 63.082 71.8752 63.1072 72.0053 63.1629C72.122 63.2114 72.2239 63.2895 72.3009 63.3893C72.3779 63.4892 72.4274 63.6073 72.4444 63.7321C72.4687 63.9239 72.5487 64.1044 72.6747 64.2514C72.8007 64.3984 72.967 64.5056 73.1533 64.5596C73.326 64.6105 73.5098 64.6105 73.6824 64.5596C73.8384 64.5166 73.992 64.4655 74.1427 64.4067C74.0104 64.3646 73.8517 64.3646 73.6665 64.354Z" fill="#263238"/>
<path d="M87.3425 68.8905C87.0092 67.8364 86.3743 63.3198 86.2262 62.1919C86.078 61.0641 85.6495 56.5263 85.5013 55.3669C85.5013 55.3036 85.586 55.272 85.5913 55.3353C85.7553 56.4789 86.5489 60.9956 86.7023 62.1181C86.8557 63.2407 87.443 67.7573 87.4007 68.8799C87.3994 68.8862 87.3964 68.8919 87.3918 68.8964C87.3873 68.9009 87.3815 68.9039 87.3752 68.905C87.3689 68.9061 87.3624 68.9054 87.3566 68.9028C87.3507 68.9002 87.3458 68.8959 87.3425 68.8905Z" fill="#263238"/>
<path d="M79.6341 71.0282C78.0893 70.9966 76.5462 70.9193 75.0049 70.7963C73.4579 70.6905 71.919 70.4898 70.3968 70.1955C69.6215 70.0639 68.8728 69.8076 68.1801 69.4365C67.5663 68.9364 67.0468 68.3314 66.6458 67.6499C65.8308 66.3325 65.1044 64.9628 64.4714 63.5496C63.1646 60.7511 62.0642 57.8682 60.9955 54.9801C59.9268 52.092 58.9745 49.1828 58.0963 46.2051C59.1544 49.1002 60.2266 51.9848 61.3129 54.8589C62.4028 57.7365 63.5561 60.593 64.8047 63.3968C65.4314 64.799 66.138 66.1645 66.9209 67.4865C67.2843 68.1453 67.7606 68.7357 68.3282 69.231C68.9894 69.5927 69.7035 69.8488 70.4444 69.9899C73.4759 70.5738 76.5485 70.9209 79.6341 71.0282Z" fill="#263238"/>
<path d="M58.9113 48.7178C58.713 48.4957 58.5359 48.2558 58.3822 48.0011C58.2268 47.7514 58.1158 47.4768 58.0542 47.1895C58.1177 47.3212 58.2023 47.4424 58.2764 47.5636L58.4986 47.9378C58.651 48.1898 58.7887 48.4502 58.9113 48.7178Z" fill="#263238"/>
<path d="M66.3497 43.584C67.8152 45.339 69.1008 47.2363 70.4551 49.0756L72.4497 51.8583C72.7883 52.3221 73.1216 52.7807 73.4708 53.2286C73.6401 53.4553 73.8147 53.6819 73.9998 53.8927C74.0399 53.9437 74.0841 53.9913 74.1321 54.035C74.1321 54.035 74.185 54.0824 74.1321 54.0666C74.0792 54.0508 74.1321 54.0666 74.1691 54.0666H74.5818C76.862 53.9717 79.1476 53.7609 81.4331 53.6239C83.7186 53.4869 86.0041 53.3077 88.3108 53.1707L88.3584 53.6397L88.2738 53.1759C85.9918 53.4359 83.7115 53.6696 81.4331 53.8769C79.1528 54.0982 76.8726 54.2827 74.5553 54.4039C74.4072 54.4039 74.2644 54.4039 74.1109 54.4039C74.0517 54.404 73.9929 54.3951 73.9363 54.3776C73.8844 54.3487 73.8364 54.3132 73.7935 54.2721L73.6348 54.1035C73.439 53.8821 73.2644 53.6555 73.1057 53.4236C72.7618 52.9651 72.4285 52.5013 72.0952 52.0323L70.1377 49.2232L68.2225 46.3772C67.6353 45.4708 67.0269 44.501 66.3497 43.584Z" fill="#263238"/>
<path d="M67.0215 43.8086C67.1976 44.0685 67.3499 44.3437 67.4765 44.6308C67.6097 44.918 67.6989 45.2236 67.741 45.5373C67.6828 45.3897 67.614 45.2527 67.5505 45.1104L67.3548 44.6835C67.2287 44.3977 67.1174 44.1057 67.0215 43.8086Z" fill="#263238"/>
<path d="M175.626 200.727H206.079V151.818H175.626V200.727Z" fill="#BABED9"/>
<g opacity="0.1">
<path d="M175.626 200.727H206.078V151.818H175.626V200.727Z" fill="black"/>
</g>
<path d="M176.42 200.727H206.073V151.818H176.42V200.727Z" fill="#BABED9"/>
<path d="M206.073 151.822H214.665L222.268 168.766H220.257L212.48 156.165H206.073V151.822Z" fill="#BABED9"/>
<path opacity="0.1" d="M181.361 177.193V160.354L176.42 158.246V179.301L181.361 177.193Z" fill="black"/>
<path opacity="0.1" d="M176.42 157.102H206.073V156.174H176.42V157.102Z" fill="black"/>
<path d="M212.221 130.371H185.086V151.774H212.221V130.371Z" fill="#EBEBEB"/>
<path d="M212.221 130.371H185.086V151.774H212.221V130.371Z" fill="#EBEBEB"/>
<path d="M174.772 151.796L185.083 151.791L185.072 130.388L174.761 130.394L174.772 151.796Z" fill="#C7C7C7"/>
<path d="M212.226 141.07L185.086 141.081L206.28 141.624L212.226 141.07Z" fill="#C7C7C7"/>
<path d="M185.091 149.195L212.226 149.18L191.037 149.744L185.091 149.195Z" fill="#C7C7C7"/>
<path d="M212.221 135.082L195.032 135.093L210.311 135.535L212.221 135.082Z" fill="#C7C7C7"/>
<path d="M185.091 146.046L202.28 146.041L187.001 146.494L185.091 146.046Z" fill="#C7C7C7"/>
<path d="M205.708 132.703L186.323 132.714L189.556 132.982L205.708 132.703Z" fill="#C7C7C7"/>
<path d="M209.586 143.361L190.202 143.372L193.429 143.641L209.586 143.361Z" fill="#C7C7C7"/>
<path d="M197.661 137.125L185.086 137.136L182.837 137.852L197.661 137.125Z" fill="#EBEBEB"/>
<path d="M197.661 137.125L185.086 137.136L182.837 137.852L197.661 137.125Z" fill="#EBEBEB"/>
<path d="M199.555 146.744L212.131 146.738L214.38 147.46L199.555 146.744Z" fill="#DBDBDB"/>
<path d="M185.091 144.309L174.991 144.314L172.743 145.036L185.091 144.309Z" fill="#C7C7C7"/>
<path d="M181.562 141.077L173.732 141.082L174.774 140.492L181.562 141.077Z" fill="#C7C7C7"/>
<path d="M92.6805 200.727H175.621V151.123H92.6805V200.727Z" fill="#BABED9"/>
<path opacity="0.1" d="M92.6805 200.727H175.621V151.123H92.6805V200.727Z" fill="black"/>
<path d="M92.6805 200.727H175.621V195.272H92.6805V200.727Z" fill="#BABED9"/>
<path d="M92.6805 194.584H175.621V180.797H92.6805V194.584Z" fill="#BABED9"/>
<path opacity="0.1" d="M133.122 185.719H156.347L158.463 180.791H131.005L133.122 185.719Z" fill="black"/>
<path d="M92.6805 180.096H175.621V166.309H92.6805V180.096Z" fill="#BABED9"/>
<path opacity="0.1" d="M133.122 171.231H156.347L158.463 166.309H131.005L133.122 171.231Z" fill="black"/>
<path d="M92.6805 165.615H175.621V151.828H92.6805V165.615Z" fill="#BABED9"/>
<path opacity="0.1" d="M133.122 156.745H156.347L158.463 151.822H131.005L133.122 156.745Z" fill="black"/>
<path d="M80.0819 97.2479L71.2439 116.756L95.9771 127.875L104.815 108.367L80.0819 97.2479Z" fill="#EBEBEB"/>
<path d="M80.0819 97.2479L71.2439 116.756L95.9771 127.875L104.815 108.367L80.0819 97.2479Z" fill="#EBEBEB"/>
<path d="M61.8428 112.534L71.2413 116.76L80.0792 97.2518L70.6807 93.0264L61.8428 112.534Z" fill="#C7C7C7"/>
<path d="M100.4 118.126L75.6662 107.006L94.7546 116.197L100.4 118.126Z" fill="#C7C7C7"/>
<path d="M72.3173 114.404L97.0507 125.525L77.5073 117.34L72.3173 114.404Z" fill="#C7C7C7"/>
<path d="M102.87 112.679L87.2045 105.633L100.944 112.305L102.87 112.679Z" fill="#C7C7C7"/>
<path d="M73.6184 111.531L89.2838 118.578L75.1685 112.722L73.6184 111.531Z" fill="#C7C7C7"/>
<path d="M97.9236 107.842L80.2531 99.8945L83.0835 101.465L97.9236 107.842Z" fill="#C7C7C7"/>
<path d="M97.0505 119.14L79.38 111.197L82.2105 112.763L97.0505 119.14Z" fill="#C7C7C7"/>
<path d="M88.7602 108.566L77.2956 103.412L74.9518 103.148L88.7602 108.566Z" fill="#EBEBEB"/>
<path d="M88.7602 108.566L77.2956 103.412L74.9518 103.148L88.7602 108.566Z" fill="#EBEBEB"/>
<path d="M105.187 115.957L93.7226 110.803L91.3788 110.539L105.187 115.957Z" fill="#DBDBDB"/>
<path d="M86.5065 118.105L97.9712 123.26L99.7224 124.841L86.5065 118.105Z" fill="#DBDBDB"/>
<path d="M74.3328 109.955L65.1272 105.818L62.7834 105.555L74.3328 109.955Z" fill="#C7C7C7"/>
<path d="M72.4547 105.563L65.3177 102.353L66.5081 102.248L72.4547 105.563Z" fill="#C7C7C7"/>
<path d="M175.621 151.129H92.6805V115.291H171.6C172.666 115.291 173.689 115.713 174.443 116.464C175.197 117.215 175.621 118.234 175.621 119.296V151.129Z" fill="#BABED9"/>
<path opacity="0.1" d="M165.225 122.875H175.621V121.484H165.225V122.875Z" fill="black"/>
<path opacity="0.1" d="M165.225 125.326H175.621V123.935H165.225V125.326Z" fill="black"/>
<path opacity="0.1" d="M165.225 127.771H175.621V126.38H165.225V127.771Z" fill="black"/>
<path opacity="0.1" d="M165.225 130.223H175.621V128.831H165.225V130.223Z" fill="black"/>
<path opacity="0.1" d="M165.225 132.67H175.621V131.279H165.225V132.67Z" fill="black"/>
<path opacity="0.1" d="M165.225 135.111H175.621V133.72H165.225V135.111Z" fill="black"/>
<path opacity="0.1" d="M165.225 137.566H175.621V136.175H165.225V137.566Z" fill="black"/>
<path opacity="0.1" d="M165.225 140.01H175.621V138.618H165.225V140.01Z" fill="black"/>
<path opacity="0.1" d="M165.225 142.467H175.621V141.075H165.225V142.467Z" fill="black"/>
<path opacity="0.1" d="M165.225 144.91H175.621V143.519H165.225V144.91Z" fill="black"/>
<path opacity="0.1" d="M99.0926 141.07H120.874V115.267H99.0926V141.07Z" fill="black"/>
<path opacity="0.1" d="M112.367 151.131H134.153L120.874 141.07H99.0873L112.367 151.131Z" fill="black"/>
<path opacity="0.1" d="M92.6857 122.875H103.082V121.484H92.6857V122.875Z" fill="black"/>
<path opacity="0.1" d="M92.6857 125.326H103.082V123.935H92.6857V125.326Z" fill="black"/>
<path opacity="0.1" d="M92.6857 127.771H103.082V126.38H92.6857V127.771Z" fill="black"/>
<path opacity="0.1" d="M92.6857 130.223H103.082V128.831H92.6857V130.223Z" fill="black"/>
<path opacity="0.1" d="M92.6857 132.67H103.082V131.279H92.6857V132.67Z" fill="black"/>
<path opacity="0.1" d="M92.6857 135.111H103.082V133.72H92.6857V135.111Z" fill="black"/>
<path opacity="0.1" d="M92.6857 137.566H103.082V136.175H92.6857V137.566Z" fill="black"/>
<path opacity="0.1" d="M92.6857 140.01H103.082V138.618H92.6857V140.01Z" fill="black"/>
<path opacity="0.1" d="M92.6857 142.467H103.082V141.075H92.6857V142.467Z" fill="black"/>
<path opacity="0.1" d="M92.6857 144.91H103.082V143.519H92.6857V144.91Z" fill="black"/>
<path d="M82.5596 124.715L92.6805 132.758V121.574H82.5596V124.715Z" fill="#BABED9"/>
<path d="M60.1805 114.742L82.5596 124.713V121.572L60.1805 111.596V114.742Z" fill="#BABED9"/>
<path d="M163.743 203.363H173.06V200.728H163.743V203.363Z" fill="#263238"/>
<path d="M168.399 208.733C170.146 208.733 171.563 207.322 171.563 205.581C171.563 203.841 170.146 202.43 168.399 202.43C166.652 202.43 165.235 203.841 165.235 205.581C165.235 207.322 166.652 208.733 168.399 208.733Z" fill="#263238"/>
<path d="M186.377 203.363H195.693V200.728H186.377V203.363Z" fill="#263238"/>
<path d="M187.868 205.582C187.868 206.208 188.054 206.819 188.403 207.339C188.752 207.859 189.248 208.264 189.828 208.504C190.408 208.743 191.046 208.806 191.662 208.684C192.278 208.562 192.843 208.26 193.287 207.818C193.731 207.376 194.034 206.812 194.156 206.199C194.278 205.586 194.216 204.95 193.975 204.372C193.735 203.794 193.328 203.3 192.806 202.953C192.284 202.605 191.67 202.42 191.043 202.42C190.201 202.42 189.393 202.753 188.798 203.346C188.203 203.939 187.868 204.743 187.868 205.582Z" fill="#263238"/>
<path d="M129.492 203.363H138.809V200.728H129.492V203.363Z" fill="#263238"/>
<path d="M134.153 208.733C135.9 208.733 137.317 207.322 137.317 205.581C137.317 203.841 135.9 202.43 134.153 202.43C132.406 202.43 130.989 203.841 130.989 205.581C130.989 207.322 132.406 208.733 134.153 208.733Z" fill="#263238"/>
<path d="M95.2467 203.363H104.563V200.728H95.2467V203.363Z" fill="#263238"/>
<path d="M99.902 208.733C101.649 208.733 103.066 207.322 103.066 205.581C103.066 203.841 101.649 202.43 99.902 202.43C98.1547 202.43 96.7383 203.841 96.7383 205.581C96.7383 207.322 98.1547 208.733 99.902 208.733Z" fill="#263238"/>
<path d="M92.6805 115.266L168.399 115.266V84.8033L92.6805 84.8033V115.266Z" fill="#BABED9"/>
<path opacity="0.4" d="M92.6805 115.266L168.399 115.266V84.8033L92.6805 84.8033V115.266Z" fill="black"/>
<path d="M99.0662 40.2165L146.036 60.8181L148.464 53.1815L102.41 33.5391L99.0662 40.2165Z" fill="#BABED9"/>
<path d="M96.9131 39.6785L143.825 60.2326L144.597 57.8083L100.606 38.4716C99.9889 38.2073 99.299 38.1642 98.6536 38.3497C98.0083 38.5352 97.4474 38.9377 97.0665 39.4887L96.9131 39.6785Z" fill="#BABED9"/>
<g opacity="0.1">
<path d="M96.9128 39.6785L143.824 60.2326L144.597 57.8083L100.606 38.4716C99.9886 38.2073 99.2987 38.1642 98.6534 38.3497C98.0081 38.5352 97.4472 38.9377 97.0663 39.4887L96.9128 39.6785Z" fill="black"/>
</g>
<path d="M148.194 44.4961L172.002 55.2897C172.981 55.3629 173.896 55.8024 174.563 56.5199C175.231 57.2374 175.601 58.1799 175.599 59.1581V74.2469L141.74 59.5533L148.194 44.4961Z" fill="#BABED9"/>
<path d="M92.6805 74.2481H175.621V67.0488H98.5319C97.7312 67.0503 96.9483 67.2838 96.2785 67.7208C95.6087 68.1578 95.081 68.7795 94.7597 69.5101L92.6805 74.2481Z" fill="#BABED9"/>
<path d="M162.458 106.332H143.295L121.456 114.627H162.458V106.332Z" fill="#BABED9"/>
<path d="M92.6858 114.625H120.874V84.8004H92.6858V114.625Z" fill="#BABED9"/>
<path opacity="0.1" d="M99.0926 114.625H120.874V84.8004H99.0926V114.625Z" fill="black"/>
<path d="M172.224 84.791L92.6805 84.791V74.8091L175.621 74.8091V81.4233C175.617 82.3179 175.257 83.1745 174.62 83.8056C173.984 84.4367 173.122 84.791 172.224 84.791Z" fill="#BABED9"/>
<path opacity="0.1" d="M172.224 84.791L92.6805 84.791V74.8091L175.621 74.8091V81.4233C175.617 82.3179 175.257 83.1745 174.62 83.8056C173.984 84.4367 173.122 84.791 172.224 84.791Z" fill="black"/>
<path d="M126.916 90.4805H96.3045C95.8286 90.4805 95.3574 90.3871 94.9177 90.2057C94.478 90.0242 94.0785 89.7583 93.742 89.4231C93.4054 89.0878 93.1385 88.6899 92.9564 88.2519C92.7742 87.8139 92.6805 87.3444 92.6805 86.8703V74.8277H130.54V86.8861C130.536 87.8409 130.152 88.7551 129.473 89.4287C128.794 90.1023 127.874 90.4805 126.916 90.4805Z" fill="#BABED9"/>
<path d="M113.472 76.5078H94.3098V87.4753H113.472V76.5078Z" fill="#263238"/>
<path d="M100.166 76.5078L94.3098 81.3881V79.1851L97.5212 76.5078H100.166Z" fill="#37474F"/>
<path d="M113.472 85.3906V87.4777H110.965L113.472 85.3906Z" fill="#37474F"/>
<path d="M104.738 76.5078L94.3098 85.1985V84.4133L103.796 76.5078H104.738Z" fill="#37474F"/>
<path d="M113.472 79.4121V80.1921L104.738 87.4757H103.801L113.472 79.4121Z" fill="#37474F"/>
<path d="M96.6853 76.5078L94.3098 78.4894V78.0994L96.2197 76.5078H96.6853Z" fill="#37474F"/>
<path d="M113.472 77.332V77.722L101.77 87.4774H101.304L113.472 77.332Z" fill="#37474F"/>
<path d="M113.472 84.3223V84.7123L110.161 87.4739H109.69L113.472 84.3223Z" fill="#37474F"/>
<path d="M110.98 76.5078L97.8228 87.4753H97.3572L110.515 76.5078H110.98Z" fill="#37474F"/>
<path d="M101.405 82.1426H100.902V83.9819H101.405V82.1426Z" fill="white"/>
<path d="M101.405 79.9883H100.902V81.8276H101.405V79.9883Z" fill="white"/>
<path d="M103.135 79.821V79.3203H101.288V79.821H103.135Z" fill="white"/>
<path d="M103.135 84.6491V84.1484H101.288V84.6491H103.135Z" fill="white"/>
<path d="M103.425 82.1426H102.923V83.9819H103.425V82.1426Z" fill="white"/>
<path d="M103.425 79.9883H102.923V81.8276H103.425V79.9883Z" fill="white"/>
<path d="M106.589 79.8308V79.3301H104.743V79.8308H106.589Z" fill="white"/>
<path d="M106.589 82.2175V81.7168H104.743V82.2175H106.589Z" fill="white"/>
<path d="M106.589 84.655V84.1543H104.743V84.655H106.589Z" fill="white"/>
<path d="M106.88 82.1426H106.378V83.9819H106.88V82.1426Z" fill="white"/>
<path d="M106.88 79.9883H106.378V81.8276H106.88V79.9883Z" fill="white"/>
<path d="M117.53 76.5078H115.261V78.0573H117.53V76.5078Z" fill="#263238"/>
<path d="M120.678 76.5078H118.409V78.0573H120.678V76.5078Z" fill="#263238"/>
<path d="M123.821 76.5078H121.551V78.0573H123.821V76.5078Z" fill="#263238"/>
<path d="M117.53 78.8145H115.261V80.3639H117.53V78.8145Z" fill="#263238"/>
<path d="M120.678 78.8145H118.409V80.3639H120.678V78.8145Z" fill="#263238"/>
<path d="M123.821 78.8145H121.551V80.3639H123.821V78.8145Z" fill="#263238"/>
<path d="M117.53 81.1211H115.261V82.6758H117.53V81.1211Z" fill="#263238"/>
<path d="M120.678 81.1211H118.409V82.6758H120.678V81.1211Z" fill="#263238"/>
<path d="M123.821 81.1211H121.551V82.6758H123.821V81.1211Z" fill="#263238"/>
<path d="M117.53 83.4277H115.261V84.9772H117.53V83.4277Z" fill="#263238"/>
<path d="M120.678 83.4277H118.409V84.9772H120.678V83.4277Z" fill="#263238"/>
<path d="M123.821 83.4277H121.551V84.9772H123.821V83.4277Z" fill="#263238"/>
<path d="M120.678 85.7305H118.409V87.2852H120.678V85.7305Z" fill="#263238"/>
<path d="M128.561 76.5078H125.064V78.0573H128.561V76.5078Z" fill="#455A64"/>
<path d="M128.561 78.8145H125.064V80.3639H128.561V78.8145Z" fill="white"/>
<path d="M112.652 13.7334C112.414 16.0001 111.548 18.1563 110.152 19.9617C108.756 21.7671 106.883 23.1507 104.744 23.9584C102.605 24.7661 100.282 24.966 98.0354 24.536C95.7886 24.106 93.7059 23.0629 92.0193 21.5229L85.8346 22.4294L88.9296 17.1011C88.2193 15.3671 87.9152 13.4946 88.0406 11.626C88.166 9.75732 88.7176 7.94176 89.6533 6.31739C90.589 4.69301 91.8842 3.30259 93.4405 2.25188C94.9968 1.20116 96.7731 0.517825 98.6343 0.253836C100.496 -0.0101535 102.393 0.152159 104.182 0.728427C105.97 1.30469 107.604 2.27974 108.957 3.57941C110.311 4.87908 111.349 6.46914 111.993 8.22866C112.637 9.98819 112.87 11.8708 112.674 13.7334H112.652Z" fill="white"/>
<path d="M112.652 13.7352C112.415 16.0041 111.557 18.1645 110.171 19.9805C109.821 20.4296 109.447 20.8589 109.049 21.2665C108.637 21.6586 108.201 22.0247 107.743 22.3627C105.904 23.74 103.72 24.5862 101.431 24.8081C100.861 24.8599 100.288 24.8722 99.7169 24.845C99.1418 24.8275 98.5689 24.7677 98.0027 24.6658C95.724 24.2452 93.6069 23.2035 91.8868 21.6565L92.035 21.7039L85.8344 22.6631L85.3847 22.7316L85.6122 22.3363L88.686 17.0028V17.2136C87.7817 15.0094 87.5304 12.5933 87.9618 10.2512C88.3933 7.90913 89.4894 5.73928 91.1204 3.99859C92.7515 2.2579 94.8491 1.01927 97.1649 0.429382C99.4808 -0.160511 101.918 -0.0769608 104.187 0.67014C105.972 1.27577 107.598 2.26955 108.949 3.57934C110.296 4.88366 111.329 6.47501 111.97 8.23394C112.612 9.99287 112.845 11.8737 112.652 13.7352ZM112.652 13.7352C112.835 11.8766 112.593 10.0008 111.943 8.24899C111.294 6.49718 110.254 4.91499 108.901 3.62151C107.543 2.34661 105.916 1.38887 104.14 0.817708C102.36 0.269014 100.479 0.128479 98.6376 0.406625C96.804 0.681458 95.0578 1.37007 93.5322 2.41988C92.0208 3.47615 90.7574 4.84627 89.8288 6.43584C88.9157 8.03108 88.3784 9.81213 88.2574 11.6445C88.1364 13.4769 88.4349 15.3127 89.1304 17.0133L89.1728 17.124L89.1146 17.2241L86.0037 22.5419L85.7815 22.2151L91.9715 21.3508H92.0561L92.1196 21.4088C93.7713 22.9493 95.8214 24.0005 98.0397 24.4444C98.5927 24.5553 99.1534 24.624 99.7169 24.65C100.28 24.6895 100.846 24.6895 101.41 24.65C102.538 24.5623 103.649 24.3193 104.711 23.928C105.777 23.5507 106.781 23.0179 107.69 22.3469C108.618 21.6892 109.439 20.8928 110.123 19.9858C111.533 18.177 112.409 16.0124 112.652 13.7352Z" fill="#263238"/>
<path d="M98.9129 19.4794L93.6276 14.1564L95.4053 12.4066L98.4897 15.5161L104.897 5.50781L106.997 6.84647L98.9129 19.4794Z" fill="#BABED9"/>
</svg>
