<svg width="738" height="900" viewBox="0 0 738 900" fill="none" xmlns="http://www.w3.org/2000/svg">
<rect x="-600" y="-23" width="1314" height="1003.51" rx="500" fill="#4675C0"/>
<path d="M425.832 797.436C598.007 797.436 737.582 716.851 737.582 617.445C737.582 518.04 598.007 437.455 425.832 437.455C253.657 437.455 114.082 518.04 114.082 617.445C114.082 716.851 253.657 797.436 425.832 797.436Z" fill="#F0F0F0"/>
<path d="M234.429 648.831L128.099 587.434L266.325 507.635L372.654 569.019L234.429 648.831Z" fill="#E0E0E0"/>
<path d="M448.318 602.787L294.138 691.801L400.467 753.198L554.647 664.171L448.318 602.787Z" fill="#E0E0E0"/>
<path d="M623.845 686.566C666.11 686.566 700.372 666.783 700.372 642.379C700.372 617.976 666.11 598.193 623.845 598.193C581.58 598.193 547.317 617.976 547.317 642.379C547.317 666.783 581.58 686.566 623.845 686.566Z" fill="#E0E0E0"/>
<path d="M650.872 607.864C650.872 607.864 649.93 590.444 656.186 575.746C662.442 561.048 672.716 550.799 683.475 548.09C694.234 545.381 704.717 553.928 694.22 562.775C683.724 571.623 664.196 582.172 659.026 609.527L650.872 607.864Z" fill="#4675C0"/>
<path opacity="0.15" d="M650.872 607.864C650.872 607.864 649.93 590.444 656.186 575.746C662.442 561.048 672.716 550.799 683.475 548.09C694.234 545.381 704.717 553.928 694.22 562.775C683.724 571.623 664.196 582.172 659.026 609.527L650.872 607.864Z" fill="black"/>
<path d="M653.32 602.891H653.202C653.048 602.857 652.914 602.763 652.829 602.631C652.743 602.499 652.713 602.339 652.744 602.184C659.458 571.911 679.352 556.375 688.933 552.449C689.079 552.392 689.241 552.395 689.386 552.456C689.53 552.517 689.644 552.632 689.705 552.776C689.735 552.847 689.751 552.924 689.752 553.001C689.752 553.079 689.737 553.156 689.708 553.227C689.679 553.299 689.636 553.364 689.582 553.419C689.527 553.474 689.463 553.518 689.391 553.548C680.007 557.475 660.505 572.696 653.896 602.485C653.858 602.607 653.781 602.713 653.677 602.787C653.573 602.86 653.447 602.897 653.32 602.891Z" fill="white"/>
<path d="M655.034 617.248C654.864 615.847 654.733 614.434 654.55 613.047C654.419 612.052 654.04 611.149 653.922 610.128C653.506 607.884 653.808 605.567 654.786 603.505C655.789 601.947 657.04 600.563 658.49 599.409C659.932 598.254 661.175 596.87 662.167 595.312C662.769 594.252 663.123 593.087 663.646 591.987C664.542 590.189 665.856 588.632 667.477 587.445C669.098 586.259 670.98 585.478 672.965 585.168C674.96 584.819 677.007 584.89 678.973 585.378C681.169 586.102 683.485 586.391 685.792 586.229C689.169 585.679 692.336 584.396 695.883 584.252C697.722 584.093 699.573 584.355 701.297 585.017C703.02 585.679 704.57 586.724 705.83 588.074C706.552 588.85 707.071 589.793 707.341 590.818C707.61 591.844 707.622 592.92 707.374 593.951C706.681 596.176 704.495 597.537 702.44 598.649C700.385 599.762 698.173 600.953 697.205 603.086C695.32 607.379 699.822 612.628 697.741 616.842C697.244 617.697 696.577 618.441 695.783 619.031C694.989 619.62 694.083 620.042 693.121 620.271C691.538 620.679 689.934 621.006 688.318 621.253C687.544 621.331 686.766 621.357 685.988 621.331C683.704 621.1 681.407 621.619 679.444 622.81C676.434 624.97 675.91 629.145 674.313 632.483C673.319 634.465 671.907 636.207 670.173 637.59C668.44 638.973 666.428 639.963 664.275 640.493C660.688 641.396 655.113 641.2 654.013 639.694C653.163 638.543 654.877 634.616 654.759 633.15C654.46 629.502 654.509 625.834 654.903 622.195C655.146 620.557 655.19 618.896 655.034 617.248Z" fill="#4675C0"/>
<path d="M655.977 630.324C655.909 630.313 655.844 630.289 655.785 630.252C655.727 630.216 655.676 630.169 655.636 630.113C655.596 630.057 655.567 629.994 655.551 629.927C655.536 629.86 655.533 629.79 655.545 629.722C660.387 597.132 693.2 588.782 701.053 588.455C701.121 588.451 701.19 588.461 701.255 588.484C701.32 588.508 701.38 588.543 701.431 588.589C701.482 588.636 701.523 588.691 701.553 588.754C701.582 588.816 701.599 588.883 701.602 588.952C701.606 589.021 701.596 589.09 701.573 589.155C701.55 589.219 701.514 589.279 701.468 589.33C701.422 589.381 701.366 589.423 701.303 589.452C701.241 589.482 701.174 589.499 701.105 589.502C693.409 589.816 661.317 597.996 656.605 629.879C656.595 629.951 656.571 630.02 656.534 630.082C656.497 630.144 656.447 630.198 656.388 630.239C656.329 630.281 656.262 630.31 656.191 630.325C656.12 630.34 656.047 630.339 655.977 630.324Z" fill="white"/>
<path d="M691.184 610.09C691.13 610.09 691.077 610.08 691.028 610.06C690.978 610.039 690.934 610.01 690.896 609.972C687.512 607.657 683.659 606.116 679.613 605.458C675.566 604.8 671.424 605.041 667.481 606.163C667.345 606.198 667.202 606.177 667.081 606.106C666.961 606.035 666.874 605.919 666.839 605.784C666.805 605.648 666.825 605.505 666.896 605.384C666.968 605.264 667.084 605.177 667.219 605.142C671.316 603.984 675.619 603.744 679.82 604.439C684.021 605.133 688.017 606.745 691.524 609.16C691.631 609.248 691.699 609.374 691.714 609.511C691.729 609.648 691.689 609.786 691.602 609.893C691.554 609.958 691.49 610.009 691.417 610.043C691.344 610.077 691.264 610.093 691.184 610.09Z" fill="white"/>
<path d="M156.933 598.624C156.218 598.134 155.628 597.483 155.21 596.724C154.791 595.965 154.557 595.118 154.525 594.252V377.955C154.579 377.059 154.844 376.189 155.299 375.415C155.754 374.642 156.386 373.987 157.142 373.505L284.91 299.818C285.654 299.344 286.514 299.082 287.396 299.062C288.278 299.042 289.148 299.264 289.913 299.704C290.678 300.143 291.307 300.784 291.734 301.556C292.16 302.329 292.367 303.203 292.331 304.084V520.382C292.278 521.279 292.012 522.151 291.558 522.927C291.103 523.703 290.471 524.36 289.714 524.845L161.933 598.532C161.165 598.938 160.312 599.159 159.444 599.174C158.575 599.19 157.715 599.002 156.933 598.624Z" fill="#FAFAFA"/>
<path d="M161.919 598.532L289.714 524.845C290.471 524.359 291.102 523.702 291.557 522.927C292.012 522.151 292.277 521.279 292.331 520.381V304.084C292.331 302.448 291.179 301.781 289.714 302.605L161.946 376.292C161.19 376.776 160.56 377.431 160.105 378.204C159.65 378.978 159.384 379.847 159.328 380.742V597.04C159.354 598.689 160.506 599.343 161.919 598.532Z" fill="#F5F5F5"/>
<path d="M161.592 598.702C160.859 599.03 160.063 599.193 159.26 599.179C158.457 599.166 157.667 598.976 156.946 598.624C156.23 598.137 155.64 597.489 155.221 596.732C154.803 595.975 154.569 595.13 154.538 594.265V377.968C154.569 377.072 154.826 376.199 155.284 375.429L160.139 378.217C159.675 378.98 159.414 379.85 159.38 380.743V597.053C159.354 598.558 160.336 599.239 161.592 598.702Z" fill="#EBEBEB"/>
<path d="M230.109 353.703L272.398 329.228C273.706 328.508 274.662 329.097 274.662 330.536V331.453C274.622 332.239 274.395 333.006 274.002 333.688C273.608 334.371 273.058 334.95 272.398 335.379L230.109 359.854C228.801 360.574 227.845 359.985 227.845 358.545V357.629C227.888 356.843 228.115 356.078 228.508 355.395C228.901 354.713 229.45 354.133 230.109 353.703Z" fill="#E0E0E0"/>
<path d="M230.109 368.976L272.398 344.54C273.706 343.82 274.662 344.409 274.662 345.848V346.752C274.622 347.538 274.395 348.304 274.002 348.987C273.608 349.669 273.058 350.249 272.398 350.678L230.109 375.153C228.801 375.873 227.845 375.297 227.845 373.844V372.941C227.884 372.149 228.109 371.376 228.502 370.687C228.896 369.998 229.446 369.412 230.109 368.976Z" fill="#E0E0E0"/>
<path d="M230.109 384.303L272.398 359.841C273.706 359.108 274.662 359.697 274.662 361.15V362.053C274.618 362.839 274.391 363.604 273.998 364.286C273.604 364.968 273.056 365.548 272.398 365.979L230.109 390.441C228.801 391.174 227.845 390.585 227.845 389.132V388.229C227.891 387.444 228.119 386.68 228.512 385.998C228.905 385.316 229.452 384.736 230.109 384.303Z" fill="#E0E0E0"/>
<path d="M230.109 399.642L272.398 375.167C273.706 374.447 274.662 375.023 274.662 376.476V377.379C274.62 378.166 274.394 378.931 274 379.614C273.607 380.296 273.058 380.876 272.398 381.305L230.109 405.781C228.801 406.5 227.845 405.911 227.845 404.472V403.569C227.888 402.782 228.115 402.017 228.508 401.335C228.901 400.653 229.45 400.073 230.109 399.642Z" fill="#E0E0E0"/>
<path d="M175.924 446.196L272.398 390.492C273.707 389.772 274.662 390.361 274.662 391.801V392.704C274.622 393.491 274.396 394.257 274.002 394.939C273.608 395.622 273.059 396.201 272.398 396.63L175.924 452.334C174.615 453.054 173.66 452.478 173.66 451.025V450.122C173.701 449.336 173.928 448.57 174.321 447.888C174.715 447.205 175.264 446.625 175.924 446.196Z" fill="#E0E0E0"/>
<path d="M175.924 461.641L272.398 405.938C273.707 405.218 274.662 405.794 274.662 407.246V408.149C274.621 408.936 274.394 409.702 274.001 410.384C273.607 411.066 273.058 411.646 272.398 412.076L175.924 467.78C174.615 468.5 173.66 467.911 173.66 466.471V465.568C173.7 464.781 173.927 464.015 174.32 463.332C174.714 462.65 175.263 462.07 175.924 461.641Z" fill="#E0E0E0"/>
<path d="M175.924 476.968L272.398 421.264C273.707 420.544 274.662 421.133 274.662 422.573V423.476C274.622 424.263 274.396 425.029 274.002 425.712C273.608 426.394 273.059 426.974 272.398 427.403L175.924 483.107C174.615 483.826 173.66 483.25 173.66 481.798V480.895C173.701 480.108 173.928 479.342 174.321 478.66C174.715 477.978 175.264 477.398 175.924 476.968Z" fill="#E0E0E0"/>
<path d="M175.924 492.294L272.398 436.59C273.707 435.871 274.662 436.46 274.662 437.899V438.776C274.622 439.563 274.396 440.329 274.002 441.012C273.608 441.694 273.059 442.274 272.398 442.703L175.924 498.433C174.615 499.166 173.66 498.577 173.66 497.124V496.221C173.703 495.435 173.931 494.67 174.324 493.988C174.718 493.306 175.266 492.726 175.924 492.294Z" fill="#E0E0E0"/>
<path d="M175.924 507.632L272.398 451.929C273.707 451.196 274.662 451.785 274.662 453.237V454.141C274.619 454.927 274.391 455.691 273.998 456.374C273.605 457.056 273.057 457.636 272.398 458.067L175.924 513.771C174.615 514.491 173.66 513.902 173.66 512.462V511.559C173.7 510.772 173.927 510.006 174.32 509.324C174.714 508.641 175.263 508.062 175.924 507.632Z" fill="#E0E0E0"/>
<path d="M175.924 522.961L272.398 467.257C273.707 466.537 274.662 467.113 274.662 468.566V469.469C274.621 470.255 274.394 471.021 274.001 471.703C273.607 472.386 273.058 472.965 272.398 473.395L175.924 529.086C174.615 529.806 173.66 529.217 173.66 527.777V526.874C173.702 526.09 173.93 525.326 174.323 524.646C174.716 523.966 175.265 523.388 175.924 522.961Z" fill="#E0E0E0"/>
<path d="M175.924 538.352L272.398 482.648C273.707 481.928 274.662 482.517 274.662 483.957V484.86C274.622 485.647 274.396 486.413 274.002 487.095C273.608 487.778 273.059 488.357 272.398 488.786L175.924 544.49C174.615 545.223 173.66 544.634 173.66 543.181V542.278C173.701 541.492 173.928 540.726 174.321 540.044C174.715 539.361 175.264 538.782 175.924 538.352Z" fill="#E0E0E0"/>
<path d="M175.924 553.678L272.398 497.987C273.707 497.254 274.662 497.843 274.662 499.296V500.199C274.619 500.985 274.391 501.75 273.998 502.432C273.605 503.114 273.057 503.694 272.398 504.126L175.924 559.829C174.615 560.549 173.66 559.96 173.66 558.521V557.604C173.703 556.818 173.931 556.053 174.324 555.371C174.718 554.689 175.266 554.109 175.924 553.678Z" fill="#E0E0E0"/>
<path d="M175.924 569.018L272.398 513.38C273.707 512.66 274.662 513.236 274.662 514.689V515.592C274.621 516.378 274.394 517.144 274.001 517.826C273.607 518.509 273.058 519.088 272.398 519.518L175.924 575.157C174.615 575.877 173.66 575.288 173.66 573.848V572.945C173.7 572.158 173.927 571.392 174.32 570.709C174.714 570.027 175.263 569.447 175.924 569.018Z" fill="#E0E0E0"/>
<g opacity="0.3">
<path d="M174.262 386.239L220.778 359.369L220.791 413.097L174.262 439.967V386.239Z" fill="black"/>
</g>
<path d="M181.238 391.658V407.782L182.691 406.919V401.971C182.844 400.365 183.373 398.817 184.234 397.453C185.096 396.089 186.267 394.947 187.651 394.118L194.536 390.192V414.143C194.51 415.756 194.105 417.34 193.355 418.767C192.605 420.195 191.53 421.427 190.217 422.363L185.884 424.863V426.577L209.155 413.136V411.434L204.836 413.921C202.441 415.308 200.504 413.921 200.504 410.688V386.736L207.389 382.81C210.124 381.226 212.349 382.156 212.349 384.878V389.812L213.802 389.001V372.811L181.238 391.658Z" fill="#FAFAFA"/>
<path d="M194.169 620.102C193.452 619.616 192.859 618.968 192.439 618.211C192.018 617.454 191.781 616.609 191.748 615.743V399.433C191.801 398.537 192.067 397.667 192.522 396.893C192.977 396.12 193.608 395.465 194.365 394.983L322.133 321.296C322.877 320.829 323.734 320.573 324.611 320.557C325.489 320.541 326.355 320.764 327.116 321.203C327.876 321.641 328.502 322.279 328.928 323.047C329.353 323.816 329.56 324.685 329.528 325.563V541.86C329.474 542.757 329.209 543.63 328.754 544.405C328.299 545.181 327.668 545.838 326.911 546.323L199.143 620.01C198.378 620.412 197.53 620.63 196.667 620.646C195.803 620.662 194.948 620.476 194.169 620.102Z" fill="#FAFAFA"/>
<path d="M199.156 620.009L326.924 546.322C327.681 545.837 328.313 545.18 328.768 544.404C329.223 543.629 329.488 542.757 329.542 541.859V325.562C329.542 323.926 328.39 323.258 326.924 324.083L199.143 397.77C198.388 398.254 197.757 398.909 197.302 399.682C196.848 400.455 196.581 401.325 196.526 402.22V618.517C196.578 620.166 197.73 620.821 199.156 620.009Z" fill="#F5F5F5"/>
<path d="M198.816 620.181C198.069 620.578 197.231 620.77 196.386 620.74C195.541 620.709 194.719 620.456 194.003 620.006C193.287 619.555 192.703 618.924 192.309 618.176C191.916 617.428 191.727 616.589 191.761 615.744V399.512C191.793 398.616 192.049 397.743 192.507 396.973L197.337 399.76C196.872 400.524 196.611 401.394 196.577 402.287V618.531C196.577 620.037 197.559 620.704 198.816 620.181Z" fill="#EBEBEB"/>
<path d="M267.346 375.127L309.634 350.652C310.877 349.932 311.898 350.521 311.898 351.961V352.864C311.856 353.65 311.629 354.415 311.235 355.098C310.842 355.78 310.293 356.36 309.634 356.79L267.333 381.265C266.024 381.985 265.068 381.396 265.068 379.957V379.054C265.112 378.266 265.341 377.5 265.737 376.818C266.133 376.136 266.684 375.556 267.346 375.127Z" fill="#E0E0E0"/>
<path d="M267.346 390.454L309.634 365.979C310.877 365.259 311.898 365.848 311.898 367.288V368.191C311.856 368.977 311.629 369.743 311.235 370.425C310.842 371.107 310.293 371.687 309.634 372.118L267.333 396.593C266.024 397.312 265.068 396.737 265.068 395.284V394.381C265.112 393.593 265.341 392.827 265.737 392.145C266.133 391.463 266.684 390.883 267.346 390.454Z" fill="#E0E0E0"/>
<path d="M267.346 405.78L309.634 381.318C310.877 380.585 311.898 381.174 311.898 382.627V383.53C311.853 384.316 311.624 385.08 311.231 385.762C310.838 386.443 310.291 387.024 309.634 387.457L267.333 411.932C266.024 412.652 265.068 412.063 265.068 410.623V409.707C265.114 408.92 265.344 408.155 265.74 407.473C266.135 406.791 266.686 406.211 267.346 405.78Z" fill="#E0E0E0"/>
<path d="M267.346 421.121L309.634 396.646C310.877 395.926 311.898 396.502 311.898 397.954V398.857C311.854 399.643 311.626 400.408 311.233 401.09C310.839 401.772 310.292 402.352 309.634 402.784L267.333 427.259C266.024 427.979 265.068 427.39 265.068 425.95V425.047C265.111 424.259 265.34 423.493 265.736 422.811C266.132 422.128 266.683 421.549 267.346 421.121Z" fill="#E0E0E0"/>
<path d="M213.148 467.675L309.634 411.971C310.878 411.251 311.899 411.84 311.899 413.28V414.183C311.856 414.97 311.629 415.735 311.236 416.417C310.842 417.099 310.294 417.679 309.634 418.11L213.148 473.814C211.839 474.533 210.883 473.958 210.883 472.505V471.602C210.928 470.816 211.156 470.051 211.549 469.369C211.942 468.688 212.49 468.107 213.148 467.675Z" fill="#E0E0E0"/>
<path d="M213.148 483.118L309.634 427.415C310.878 426.695 311.899 427.284 311.899 428.723V429.613C311.854 430.399 311.626 431.164 311.233 431.846C310.84 432.528 310.292 433.108 309.634 433.54L213.148 489.257C211.839 489.977 210.883 489.388 210.883 487.948V487.045C210.926 486.259 211.153 485.493 211.546 484.811C211.94 484.129 212.488 483.549 213.148 483.118Z" fill="#E0E0E0"/>
<path d="M213.148 498.446L309.634 442.703C310.878 441.983 311.899 442.572 311.899 444.012V444.915C311.856 445.701 311.629 446.466 311.236 447.148C310.842 447.831 310.294 448.411 309.634 448.841L213.148 504.584C211.839 505.304 210.883 504.728 210.883 503.275V502.372C210.928 501.586 211.156 500.822 211.549 500.14C211.942 499.458 212.49 498.878 213.148 498.446Z" fill="#E0E0E0"/>
<path d="M213.148 513.771L309.634 458.067C310.878 457.347 311.899 457.936 311.899 459.376V460.292C311.853 461.078 311.625 461.842 311.232 462.523C310.839 463.205 310.292 463.786 309.634 464.218L213.148 519.922C211.839 520.655 210.883 520.066 210.883 518.613V517.71C210.927 516.923 211.154 516.156 211.547 515.472C211.941 514.788 212.489 514.205 213.148 513.771Z" fill="#E0E0E0"/>
<path d="M213.148 529.085L309.634 473.381C310.878 472.648 311.899 473.237 311.899 474.69V475.593C311.854 476.379 311.626 477.143 311.233 477.825C310.84 478.507 310.292 479.087 309.634 479.519L213.148 535.249C211.839 535.969 210.883 535.38 210.883 533.94V533.011C210.926 532.225 211.153 531.459 211.546 530.777C211.94 530.095 212.488 529.515 213.148 529.085Z" fill="#E0E0E0"/>
<path d="M213.148 544.438L309.634 488.734C310.878 488.014 311.899 488.603 311.899 490.043V490.946C311.854 491.732 311.626 492.496 311.233 493.178C310.84 493.86 310.292 494.44 309.634 494.872L213.148 550.576C211.839 551.296 210.883 550.707 210.883 549.267V548.364C210.926 547.578 211.153 546.813 211.546 546.131C211.94 545.448 212.488 544.868 213.148 544.438Z" fill="#E0E0E0"/>
<path d="M213.148 559.83L309.634 504.127C310.878 503.407 311.899 503.996 311.899 505.435V506.338C311.856 507.125 311.629 507.89 311.236 508.572C310.842 509.254 310.294 509.834 309.634 510.265L213.148 565.969C211.839 566.702 210.883 566.113 210.883 564.66V563.757C210.929 562.971 211.157 562.207 211.55 561.525C211.943 560.844 212.49 560.263 213.148 559.83Z" fill="#E0E0E0"/>
<path d="M213.148 575.17L309.634 519.466C310.878 518.733 311.899 519.322 311.899 520.775V521.678C311.853 522.463 311.625 523.227 311.232 523.909C310.839 524.591 310.292 525.171 309.634 525.604L213.148 581.308C211.839 582.028 210.883 581.439 210.883 579.999V579.096C210.926 578.31 211.153 577.544 211.546 576.862C211.94 576.18 212.488 575.6 213.148 575.17Z" fill="#E0E0E0"/>
<path d="M213.148 590.496L309.634 534.792C310.878 534.072 311.899 534.648 311.899 536.101V537.004C311.854 537.79 311.626 538.554 311.233 539.236C310.84 539.918 310.292 540.498 309.634 540.93L213.148 596.634C211.839 597.354 210.883 596.765 210.883 595.325V594.422C210.926 593.636 211.153 592.871 211.546 592.189C211.94 591.506 212.488 590.926 213.148 590.496Z" fill="#E0E0E0"/>
<g opacity="0.3">
<path d="M211.485 407.719L258.014 380.861V434.576L211.485 461.446V407.719Z" fill="black"/>
</g>
<path d="M218.461 413.096V429.208L219.927 428.344V423.397C220.078 421.792 220.604 420.244 221.463 418.88C222.323 417.516 223.491 416.373 224.874 415.544L231.759 411.617V435.569C231.733 437.182 231.328 438.765 230.578 440.193C229.828 441.621 228.753 442.852 227.44 443.788L223.12 446.288V448.003L246.378 434.561V432.86L242.059 435.346C239.677 436.734 237.74 435.346 237.74 432.114V408.162L244.611 404.236C247.36 402.652 249.572 403.581 249.572 406.304V411.238L251.038 410.426V394.275L218.461 413.096Z" fill="#FAFAFA"/>
<path d="M231.392 641.645C230.675 641.159 230.082 640.512 229.662 639.755C229.241 638.998 229.005 638.152 228.971 637.287V420.924C229.023 420.026 229.287 419.153 229.742 418.377C230.197 417.601 230.83 416.945 231.589 416.461L359.357 342.774C360.1 342.307 360.957 342.051 361.835 342.035C362.713 342.019 363.578 342.242 364.339 342.681C365.099 343.119 365.726 343.757 366.151 344.525C366.576 345.294 366.784 346.163 366.752 347.041V563.338C366.698 564.236 366.433 565.108 365.978 565.883C365.523 566.659 364.891 567.316 364.134 567.801L236.366 641.488C235.608 641.904 234.762 642.134 233.898 642.162C233.034 642.189 232.175 642.012 231.392 641.645Z" fill="#FAFAFA"/>
<path d="M236.379 641.487L364.147 567.8C364.904 567.315 365.536 566.658 365.991 565.882C366.446 565.107 366.711 564.235 366.765 563.337V347.04C366.765 345.404 365.613 344.736 364.147 345.561L236.366 419.248C235.611 419.732 234.98 420.387 234.525 421.16C234.07 421.933 233.804 422.803 233.748 423.698V639.995C233.801 641.644 234.953 642.312 236.379 641.487Z" fill="#F5F5F5"/>
<path d="M236.052 641.645C235.305 642.042 234.467 642.235 233.622 642.204C232.777 642.173 231.955 641.92 231.239 641.47C230.523 641.02 229.939 640.389 229.545 639.64C229.152 638.892 228.963 638.053 228.997 637.208V420.924C229.029 420.028 229.285 419.155 229.743 418.385L234.573 421.173C234.108 421.936 233.847 422.806 233.814 423.699V640.009C233.801 641.514 234.743 642.195 236.052 641.645Z" fill="#EBEBEB"/>
<path d="M304.569 396.605L346.857 372.129C348.166 371.41 349.122 371.999 349.122 373.438V374.341C349.079 375.128 348.852 375.893 348.459 376.575C348.065 377.257 347.517 377.837 346.857 378.268L304.569 402.743C303.26 403.463 302.292 402.887 302.292 401.434V400.531C302.336 399.744 302.565 398.978 302.961 398.295C303.356 397.613 303.907 397.034 304.569 396.605Z" fill="#E0E0E0"/>
<path d="M304.569 411.932L346.857 387.47C348.166 386.737 349.122 387.326 349.122 388.778V389.682C349.076 390.467 348.848 391.231 348.455 391.913C348.061 392.595 347.515 393.175 346.857 393.608L304.569 418.07C303.26 418.803 302.292 418.214 302.292 416.761V415.858C302.338 415.071 302.568 414.306 302.963 413.624C303.359 412.942 303.909 412.362 304.569 411.932Z" fill="#E0E0E0"/>
<path d="M304.569 427.272L346.857 402.797C348.166 402.077 349.122 402.653 349.122 404.106V405.009C349.077 405.795 348.849 406.559 348.456 407.241C348.063 407.923 347.515 408.503 346.857 408.935L304.569 433.41C303.26 434.13 302.292 433.541 302.292 432.102V431.199C302.335 430.411 302.563 429.644 302.959 428.962C303.355 428.279 303.907 427.7 304.569 427.272Z" fill="#E0E0E0"/>
<path d="M304.569 442.598L346.857 418.123C348.166 417.403 349.122 417.992 349.122 419.431V420.335C349.079 421.121 348.852 421.886 348.459 422.568C348.065 423.251 347.517 423.83 346.857 424.261L304.569 448.736C303.26 449.456 302.292 448.867 302.292 447.427V446.524C302.335 445.737 302.563 444.97 302.959 444.288C303.355 443.605 303.907 443.026 304.569 442.598Z" fill="#E0E0E0"/>
<path d="M250.37 489.153L346.857 433.449C348.166 432.729 349.122 433.318 349.122 434.758V435.661C349.079 436.447 348.852 437.212 348.459 437.895C348.065 438.577 347.517 439.157 346.857 439.587L250.37 495.291C249.062 496.011 248.106 495.435 248.106 493.982V493.079C248.151 492.293 248.379 491.529 248.772 490.847C249.165 490.165 249.712 489.585 250.37 489.153Z" fill="#E0E0E0"/>
<path d="M250.37 504.597L346.857 448.893C348.166 448.173 349.122 448.762 349.122 450.202V451.105C349.079 451.891 348.852 452.657 348.459 453.339C348.065 454.021 347.517 454.601 346.857 455.032L250.37 510.762C249.062 511.481 248.106 510.906 248.106 509.453V508.55C248.147 507.759 248.373 506.99 248.766 506.303C249.159 505.616 249.709 505.032 250.37 504.597Z" fill="#E0E0E0"/>
<path d="M250.37 519.923L346.857 464.219C348.166 463.499 349.122 464.088 349.122 465.528V466.431C349.079 467.218 348.852 467.983 348.459 468.665C348.065 469.347 347.517 469.927 346.857 470.358L250.37 526.062C249.061 526.795 248.106 526.206 248.106 524.753V523.85C248.152 523.064 248.38 522.3 248.773 521.618C249.166 520.937 249.713 520.356 250.37 519.923Z" fill="#E0E0E0"/>
<path d="M250.37 535.262L346.857 479.558C348.166 478.826 349.122 479.415 349.122 480.867V481.77C349.076 482.556 348.848 483.32 348.454 484.002C348.061 484.684 347.514 485.264 346.857 485.697L250.37 541.401C249.062 542.121 248.106 541.532 248.106 540.092V539.189C248.149 538.402 248.376 537.637 248.769 536.955C249.162 536.273 249.711 535.693 250.37 535.262Z" fill="#E0E0E0"/>
<path d="M250.37 550.59L346.857 494.886C348.166 494.166 349.122 494.742 349.122 496.195V497.098C349.077 497.884 348.849 498.648 348.456 499.33C348.063 500.012 347.515 500.592 346.857 501.024L250.37 556.728C249.062 557.448 248.106 556.859 248.106 555.419V554.516C248.149 553.73 248.376 552.964 248.769 552.282C249.162 551.6 249.711 551.02 250.37 550.59Z" fill="#E0E0E0"/>
<path d="M250.37 565.915L346.857 510.212C348.166 509.492 349.122 510.081 349.122 511.52V512.423C349.079 513.21 348.852 513.975 348.459 514.657C348.065 515.339 347.517 515.919 346.857 516.35L250.37 572.054C249.061 572.774 248.106 572.198 248.106 570.745V569.842C248.151 569.056 248.379 568.291 248.772 567.61C249.165 566.928 249.712 566.348 250.37 565.915Z" fill="#E0E0E0"/>
<path d="M250.37 581.309L346.857 525.605C348.166 524.885 349.122 525.474 349.122 526.914V527.83C349.076 528.616 348.848 529.38 348.454 530.062C348.061 530.743 347.514 531.324 346.857 531.757L250.37 587.447C249.062 588.18 248.106 587.591 248.106 586.138V585.235C248.152 584.45 248.38 583.686 248.773 583.004C249.166 582.322 249.713 581.742 250.37 581.309Z" fill="#E0E0E0"/>
<path d="M250.37 596.647L346.857 540.943C348.166 540.224 349.122 540.799 349.122 542.252V543.155C349.077 543.941 348.849 544.706 348.456 545.388C348.063 546.069 347.515 546.65 346.857 547.082L250.37 602.786C249.061 603.505 248.106 602.916 248.106 601.477V600.574C248.149 599.787 248.376 599.022 248.769 598.34C249.162 597.658 249.711 597.078 250.37 596.647Z" fill="#E0E0E0"/>
<path d="M250.37 611.974L346.857 556.27C348.166 555.55 349.122 556.139 349.122 557.579V558.482C349.077 559.268 348.849 560.032 348.456 560.714C348.063 561.396 347.515 561.976 346.857 562.409L250.37 618.086C249.062 618.806 248.106 618.217 248.106 616.777V615.874C248.153 615.092 248.382 614.332 248.775 613.655C249.168 612.978 249.714 612.402 250.37 611.974Z" fill="#E0E0E0"/>
<path d="M248.708 429.195L295.237 402.338V456.065L248.708 482.923V429.195Z" fill="#4675C0"/>
<path d="M255.684 434.574V450.685L257.15 449.821V444.874C257.301 443.267 257.829 441.719 258.691 440.354C259.553 438.99 260.725 437.848 262.111 437.021L268.982 433.095V457.098C268.956 458.711 268.551 460.295 267.801 461.722C267.051 463.15 265.976 464.382 264.663 465.318L260.344 467.818V469.532L283.602 456.104V454.35L279.283 456.85C276.9 458.224 274.963 456.771 274.963 453.617V429.613L281.835 425.687C284.583 424.103 286.795 425.032 286.795 427.755V432.702L288.261 431.877V415.766L255.684 434.574Z" fill="#FAFAFA"/>
<path d="M310.157 679.104L401.631 731.915L543.94 649.76L452.453 596.948L310.157 679.104Z" fill="#263238"/>
<path d="M401.644 731.956L310.157 679.145V687.744C310.212 688.684 310.485 689.598 310.955 690.414C311.426 691.229 312.08 691.924 312.866 692.442L325.405 699.68V693.803L381.331 726.04V731.956L398.961 742.125C399.785 742.601 400.719 742.851 401.671 742.851C402.622 742.851 403.556 742.601 404.38 742.125L401.671 740.555L401.644 731.956Z" fill="#37474F"/>
<path d="M543.928 649.76V658.372C543.879 659.31 543.609 660.223 543.14 661.037C542.672 661.852 542.018 662.544 541.231 663.057L528.693 670.295V664.432L421.971 726.038V731.954L404.354 742.124C402.849 742.988 401.645 742.281 401.645 740.553V731.954L543.928 649.76Z" fill="#455A64"/>
<path d="M325.405 699.641L330.496 696.71L325.405 693.765V699.641Z" fill="#263238"/>
<path d="M528.693 670.298L523.601 667.366L528.693 664.435V670.298Z" fill="#37474F"/>
<path d="M541.179 647.393C542.002 646.853 542.686 646.128 543.177 645.275C543.668 644.423 543.952 643.467 544.006 642.485V584.373L453.631 532.189L429.758 545.998V607.382L520.068 659.565L541.179 647.393Z" fill="#4675C0"/>
<path opacity="0.7" d="M541.179 647.393C542.002 646.853 542.686 646.128 543.177 645.275C543.668 644.423 543.952 643.467 544.006 642.485V584.373L453.631 532.189L429.758 545.998V607.382L520.068 659.565L541.179 647.393Z" fill="white"/>
<path d="M429.719 545.996V607.38L520.094 659.563V598.179L429.719 545.996Z" fill="#4675C0"/>
<path opacity="0.3" d="M429.719 545.996V607.38L520.094 659.563V598.179L429.719 545.996Z" fill="black"/>
<path d="M429.719 545.998L453.632 532.189L544.006 584.373L520.094 598.181L429.719 545.998Z" fill="#4675C0"/>
<path opacity="0.15" d="M429.719 545.998L453.632 532.189L544.006 584.373L520.094 598.181L429.719 545.998Z" fill="black"/>
<path d="M320.72 679.524L379.198 713.292V701.015L320.72 667.247V679.524Z" fill="#4675C0"/>
<path opacity="0.15" d="M320.72 679.524L379.198 713.292V701.015L320.72 667.247V679.524Z" fill="black"/>
<path d="M403.294 726.994L514.545 662.743C515.367 662.204 516.052 661.478 516.543 660.626C517.034 659.773 517.318 658.817 517.372 657.835V642.692L426.997 590.509L310.04 658.031V673.188C310.093 674.172 310.379 675.129 310.872 675.982C311.366 676.835 312.054 677.559 312.88 678.096L320.733 682.598V673.436L379.212 707.204V716.366L397.64 727.007C398.516 727.454 399.485 727.686 400.469 727.683C401.452 727.681 402.42 727.445 403.294 726.994Z" fill="#4675C0"/>
<path opacity="0.5" d="M403.294 726.994L514.545 662.743C515.367 662.204 516.052 661.478 516.543 660.626C517.034 659.773 517.318 658.817 517.372 657.835V642.692L426.997 590.509L310.04 658.031V673.188C310.093 674.172 310.379 675.129 310.872 675.982C311.366 676.835 312.054 677.559 312.88 678.096L320.733 682.598V673.436L379.212 707.204V716.366L397.64 727.007C398.516 727.454 399.485 727.686 400.469 727.683C401.452 727.681 402.42 727.445 403.294 726.994Z" fill="white"/>
<path d="M400.467 710.214L517.424 642.692L427.049 590.509L310.079 658.031L400.467 710.214Z" fill="#4675C0"/>
<path opacity="0.15" d="M400.467 710.214L517.424 642.692L427.049 590.509L310.079 658.031L400.467 710.214Z" fill="black"/>
<path d="M517.45 642.693V661.109L403.32 726.995C401.762 727.898 400.493 727.165 400.493 725.359V710.216L517.45 642.693Z" fill="#4675C0"/>
<path opacity="0.7" d="M517.45 642.693V661.109L403.32 726.995C401.762 727.898 400.493 727.165 400.493 725.359V710.216L517.45 642.693Z" fill="white"/>
<path d="M320.72 682.599L323.376 681.054V674.916L320.72 673.385V682.599Z" fill="#4675C0"/>
<path opacity="0.35" d="M320.72 682.599L323.376 681.054V674.916L320.72 673.385V682.599Z" fill="black"/>
<path d="M413.751 708.685C415.23 707.834 416.369 708.528 416.369 710.217C416.324 711.136 416.063 712.032 415.609 712.832C415.154 713.632 414.518 714.314 413.751 714.824C412.272 715.674 411.134 714.981 411.134 713.292C411.179 712.373 411.439 711.477 411.894 710.677C412.348 709.877 412.985 709.194 413.751 708.685Z" fill="#455A64"/>
<path d="M506.796 654.97V658.032C506.796 659.734 504.257 662.574 501.129 664.38L432.716 703.881C429.588 705.687 427.049 705.779 427.049 704.077V701.014L506.796 654.97Z" fill="#455A64"/>
<path d="M403.293 705.517L514.544 641.254C515.373 640.729 516.067 640.018 516.572 639.177C517.076 638.337 517.377 637.389 517.45 636.411V621.203L427.075 569.02L310.118 636.555V651.698C310.171 652.682 310.456 653.64 310.95 654.493C311.443 655.346 312.131 656.07 312.958 656.606L397.665 705.517C398.539 705.956 399.502 706.184 400.479 706.184C401.457 706.184 402.42 705.956 403.293 705.517Z" fill="#4675C0"/>
<path opacity="0.5" d="M403.293 705.517L514.544 641.254C515.373 640.729 516.067 640.018 516.572 639.177C517.076 638.337 517.377 637.389 517.45 636.411V621.203L427.075 569.02L310.118 636.555V651.698C310.171 652.682 310.456 653.64 310.95 654.493C311.443 655.346 312.131 656.07 312.958 656.606L397.665 705.517C398.539 705.956 399.502 706.184 400.479 706.184C401.457 706.184 402.42 705.956 403.293 705.517Z" fill="white"/>
<path d="M400.467 688.738L517.424 621.203L427.049 569.02L310.079 636.555L400.467 688.738Z" fill="#4675C0"/>
<path opacity="0.15" d="M400.467 688.738L517.424 621.203L427.049 569.02L310.079 636.555L400.467 688.738Z" fill="black"/>
<path d="M517.45 621.203V639.618L403.32 705.518C401.762 706.421 400.493 705.675 400.493 703.882V688.765L517.45 621.203Z" fill="#4675C0"/>
<path opacity="0.7" d="M517.45 621.203V639.618L403.32 705.518C401.762 706.421 400.493 705.675 400.493 703.882V688.765L517.45 621.203Z" fill="white"/>
<path d="M413.751 687.194C415.23 686.356 416.369 687.037 416.369 688.738C416.324 689.656 416.063 690.55 415.609 691.348C415.154 692.146 414.518 692.826 413.751 693.332C412.272 694.183 411.134 693.502 411.134 691.801C411.181 690.882 411.442 689.987 411.896 689.187C412.351 688.387 412.986 687.705 413.751 687.194Z" fill="#455A64"/>
<path d="M506.796 633.479V636.555C506.796 638.244 504.257 641.084 501.129 642.89L432.716 682.39C429.588 684.197 427.049 684.288 427.049 682.6V679.524L506.796 633.479Z" fill="#455A64"/>
<path d="M403.294 684.027L514.544 619.776C515.367 619.237 516.051 618.511 516.542 617.659C517.033 616.806 517.317 615.851 517.371 614.868V599.764L427.049 547.542L310.092 615.065V630.208C310.145 631.192 310.43 632.149 310.924 633.002C311.418 633.855 312.106 634.579 312.932 635.116L397.64 684.027C398.516 684.47 399.485 684.7 400.467 684.7C401.449 684.7 402.417 684.47 403.294 684.027Z" fill="#4675C0"/>
<path opacity="0.5" d="M403.294 684.027L514.544 619.776C515.367 619.237 516.051 618.511 516.542 617.659C517.033 616.806 517.317 615.851 517.371 614.868V599.764L427.049 547.542L310.092 615.065V630.208C310.145 631.192 310.43 632.149 310.924 633.002C311.418 633.855 312.106 634.579 312.932 635.116L397.64 684.027C398.516 684.47 399.485 684.7 400.467 684.7C401.449 684.7 402.417 684.47 403.294 684.027Z" fill="white"/>
<path d="M400.467 667.248L517.424 599.725L427.049 547.542L310.079 615.065L400.467 667.248Z" fill="#4675C0"/>
<path opacity="0.15" d="M400.467 667.248L517.424 599.725L427.049 547.542L310.079 615.065L400.467 667.248Z" fill="black"/>
<path d="M517.45 599.765V618.088L403.32 683.975C401.762 684.878 400.493 684.145 400.493 682.339V667.248L517.45 599.765Z" fill="#4675C0"/>
<path opacity="0.7" d="M517.45 599.765V618.088L403.32 683.975C401.762 684.878 400.493 684.145 400.493 682.339V667.248L517.45 599.765Z" fill="white"/>
<path d="M413.751 665.714C415.23 664.864 416.369 665.557 416.369 667.246C416.324 668.165 416.063 669.061 415.609 669.861C415.154 670.661 414.518 671.344 413.751 671.853C412.272 672.704 411.134 672.01 411.134 670.322C411.179 669.402 411.439 668.506 411.894 667.706C412.348 666.906 412.985 666.224 413.751 665.714Z" fill="#455A64"/>
<path d="M506.796 612.001V615.064C506.796 616.765 504.257 619.605 501.129 621.411L432.716 660.899C429.588 662.718 427.049 662.797 427.049 661.108V658.033L506.796 612.001Z" fill="#455A64"/>
<path d="M400.467 664.172L544.006 581.296V513.774L453.632 461.591L310.079 544.466V612.002L400.467 664.172Z" fill="#4675C0"/>
<path opacity="0.7" d="M400.467 664.172L544.006 581.296V513.774L453.632 461.591L310.079 544.466V612.002L400.467 664.172Z" fill="white"/>
<path d="M544.006 513.774L400.467 596.649L310.079 544.466L453.632 461.591L544.006 513.774Z" fill="#263238"/>
<path d="M400.467 621.203V664.171L310.079 612.002V569.02L400.467 621.203Z" fill="#4675C0"/>
<path opacity="0.5" d="M400.467 621.203V664.171L310.079 612.002V569.02L400.467 621.203Z" fill="white"/>
<path d="M310.079 544.465V569.019L400.467 621.202V596.648L310.079 544.465Z" fill="#37474F"/>
<path d="M400.466 596.649L528.064 522.975V541.403C528.057 543.261 527.562 545.085 526.63 546.693C525.698 548.301 524.36 549.636 522.75 550.565L400.466 621.163V596.649Z" fill="#455A64"/>
<path d="M522.75 541.403C522.75 539.702 521.559 539.021 520.132 539.859C519.367 540.37 518.732 541.052 518.278 541.852C517.823 542.652 517.562 543.547 517.515 544.466C517.515 546.167 518.706 546.848 520.132 545.997C520.899 545.491 521.535 544.811 521.99 544.013C522.445 543.215 522.705 542.321 522.75 541.403Z" fill="#FAFAFA"/>
<path d="M509.283 546.101L493.682 555.106C492.871 555.613 492.191 556.303 491.697 557.122C491.204 557.941 490.911 558.865 490.841 559.818C490.841 561.506 492.15 562.148 493.682 561.245L509.283 552.24C510.089 551.733 510.764 551.043 511.255 550.227C511.747 549.411 512.039 548.491 512.11 547.541C512.11 545.84 510.906 545.198 509.283 546.101Z" fill="#FAFAFA"/>
<path d="M544.006 501.496V510.658L528.064 519.82V510.658C528.061 501.324 525.601 492.156 520.933 484.074C516.265 475.992 509.552 469.28 501.469 464.613L437.676 427.783L453.631 418.621L517.45 455.438C525.528 460.11 532.235 466.826 536.897 474.91C541.558 482.995 544.01 492.164 544.006 501.496Z" fill="#4675C0"/>
<path opacity="0.7" d="M544.006 501.496V510.658L528.064 519.82V510.658C528.061 501.324 525.601 492.156 520.933 484.074C516.265 475.992 509.552 469.28 501.469 464.613L437.676 427.783L453.631 418.621L517.45 455.438C525.528 460.11 532.235 466.826 536.897 474.91C541.558 482.995 544.01 492.164 544.006 501.496Z" fill="white"/>
<path d="M400.467 584.371V593.533L310.079 541.363V501.496L373.885 538.327C381.966 542.994 388.677 549.706 393.343 557.788C398.009 565.871 400.466 575.039 400.467 584.371Z" fill="#37474F"/>
<path d="M528.065 510.764V519.926L400.467 593.587V584.425C400.466 575.089 398.007 565.918 393.339 557.834C388.671 549.749 381.957 543.035 373.871 538.367L310.079 501.537L437.677 427.876L501.469 464.706C509.554 469.374 516.268 476.088 520.937 484.173C525.605 492.257 528.064 501.428 528.065 510.764Z" fill="#455A64"/>
<path d="M331.348 658.034V612.002L334.004 610.458L371.228 631.949V677.994L368.571 679.525L331.348 658.034Z" fill="#4675C0"/>
<path opacity="0.15" d="M331.348 658.034V612.002L334.004 610.458L371.228 631.949V677.994L368.571 679.525L331.348 658.034Z" fill="black"/>
<path d="M331.348 658.033V612.001L368.571 633.479V679.524L331.348 658.033Z" fill="#4675C0"/>
<path opacity="0.6" d="M331.348 658.033V612.001L368.571 633.479V679.524L331.348 658.033Z" fill="white"/>
<path d="M334.004 610.458L331.348 612.002L368.571 633.48L371.228 631.949L334.004 610.458Z" fill="#4675C0"/>
<path opacity="0.8" d="M334.004 610.458L331.348 612.002L368.571 633.48L371.228 631.949L334.004 610.458Z" fill="white"/>
<path d="M479.9 467.938C479.885 467.695 479.802 467.46 479.661 467.261C479.52 467.063 479.326 466.907 479.101 466.812L440.569 444.562C439.964 444.244 439.29 444.077 438.606 444.077C437.922 444.077 437.248 444.244 436.643 444.562L379.944 477.283C379.722 477.377 379.529 477.53 379.388 477.727C379.247 477.923 379.163 478.155 379.146 478.396V480.163C379.166 480.401 379.251 480.63 379.391 480.824C379.532 481.018 379.723 481.169 379.944 481.262L418.476 503.512C419.084 503.824 419.757 503.987 420.44 503.987C421.123 503.987 421.796 503.824 422.403 503.512L479.101 470.791C479.32 470.692 479.509 470.537 479.649 470.342C479.789 470.146 479.876 469.918 479.9 469.679V467.938Z" fill="#EBEBEB"/>
<path d="M380.023 477.309L436.722 444.589C437.327 444.27 438.001 444.104 438.685 444.104C439.369 444.104 440.043 444.27 440.648 444.589L479.18 466.839C479.416 466.916 479.621 467.066 479.766 467.267C479.912 467.468 479.99 467.71 479.99 467.958C479.99 468.206 479.912 468.448 479.766 468.649C479.621 468.85 479.416 468.999 479.18 469.077L422.481 501.798C421.874 502.11 421.201 502.273 420.518 502.273C419.835 502.273 419.162 502.11 418.555 501.798L380.023 479.548C379.793 479.464 379.595 479.312 379.455 479.111C379.315 478.911 379.24 478.673 379.24 478.429C379.24 478.184 379.315 477.946 379.455 477.746C379.595 477.545 379.793 477.393 380.023 477.309Z" fill="white"/>
<path d="M420.465 502.241V503.995C419.79 504.007 419.123 503.845 418.528 503.524L380.009 481.274C379.787 481.174 379.595 481.017 379.453 480.82C379.31 480.622 379.223 480.391 379.198 480.148V478.395C379.216 478.637 379.302 478.87 379.446 479.066C379.589 479.263 379.784 479.415 380.009 479.507L418.528 501.757C419.121 502.083 419.789 502.25 420.465 502.241Z" fill="#4675C0"/>
<path d="M479.9 465.203C479.885 464.96 479.802 464.726 479.661 464.527C479.52 464.328 479.326 464.172 479.101 464.078L440.569 441.828C439.962 441.515 439.289 441.353 438.606 441.353C437.923 441.353 437.25 441.515 436.643 441.828L379.944 474.549C379.722 474.642 379.529 474.796 379.388 474.992C379.247 475.188 379.163 475.42 379.146 475.661V477.428C379.17 477.667 379.257 477.896 379.397 478.091C379.537 478.286 379.726 478.441 379.944 478.54L418.476 500.791C419.084 501.103 419.757 501.266 420.44 501.266C421.123 501.266 421.796 501.103 422.403 500.791L479.101 468.07C479.322 467.977 479.514 467.826 479.654 467.632C479.795 467.438 479.88 467.209 479.9 466.97V465.203Z" fill="#EBEBEB"/>
<path d="M380.023 474.574L436.721 441.853C437.329 441.541 438.002 441.378 438.685 441.378C439.368 441.378 440.041 441.541 440.648 441.853L479.18 464.103C480.253 464.731 480.253 465.726 479.18 466.341L422.481 499.062C421.876 499.381 421.202 499.547 420.518 499.547C419.834 499.547 419.16 499.381 418.555 499.062L380.023 476.812C379.793 476.728 379.595 476.576 379.455 476.376C379.315 476.176 379.24 475.937 379.24 475.693C379.24 475.449 379.315 475.21 379.455 475.01C379.595 474.81 379.793 474.658 380.023 474.574Z" fill="white"/>
<path d="M420.466 499.52V501.261C419.791 501.277 419.124 501.12 418.529 500.803L380.023 478.566C379.802 478.467 379.612 478.313 379.469 478.117C379.327 477.922 379.238 477.693 379.211 477.453V475.687C379.227 475.931 379.312 476.167 379.456 476.366C379.599 476.565 379.796 476.719 380.023 476.812L418.542 499.062C419.133 499.377 419.796 499.534 420.466 499.52Z" fill="#4675C0"/>
<path d="M326.033 498.421L384.512 532.189L453.631 492.283V473.868L395.152 440.087L341.988 470.792C337.137 473.588 333.108 477.613 330.307 482.461C327.506 487.309 326.032 492.809 326.033 498.408V498.421Z" fill="#455A64"/>
<path d="M453.631 473.866L400.467 504.558C395.617 507.36 391.59 511.387 388.79 516.237C385.99 521.086 384.514 526.588 384.512 532.188L453.631 492.281V473.866Z" fill="#263238"/>
<path d="M388.792 516.235C385.985 521.078 384.509 526.578 384.512 532.176L326.033 498.408C326.031 492.814 327.498 487.317 330.287 482.467L388.792 516.235Z" fill="#37474F"/>
<path d="M352.616 476.944L395.153 452.377L427.049 470.805L384.512 495.359L352.616 476.944Z" fill="#37474F"/>
<path d="M355.273 478.475L384.512 495.359L424.392 472.337L395.153 455.453L355.273 478.475Z" fill="#4675C0"/>
<path d="M395.153 452.377V455.453L355.273 478.475L352.616 476.944L395.153 452.377Z" fill="#263238"/>
<path opacity="0.4" d="M384.066 490.463L382.758 489.677C382.326 489.429 382.326 489.036 382.758 488.787L386.998 486.327C387.239 486.204 387.506 486.14 387.777 486.14C388.048 486.14 388.315 486.204 388.556 486.327L389.865 487.112C390.297 487.361 390.297 487.753 389.865 488.002L385.611 490.463C385.37 490.579 385.106 490.639 384.839 490.639C384.571 490.639 384.307 490.579 384.066 490.463Z" fill="black"/>
<path opacity="0.4" d="M392.771 485.436L391.462 484.651C391.369 484.619 391.289 484.559 391.233 484.479C391.176 484.399 391.145 484.304 391.145 484.206C391.145 484.108 391.176 484.013 391.233 483.933C391.289 483.853 391.369 483.793 391.462 483.761L395.715 481.3C395.956 481.184 396.22 481.124 396.488 481.124C396.755 481.124 397.019 481.184 397.26 481.3L398.569 482.086C398.661 482.118 398.741 482.178 398.798 482.258C398.855 482.337 398.885 482.433 398.885 482.531C398.885 482.628 398.855 482.724 398.798 482.804C398.741 482.883 398.661 482.943 398.569 482.976L394.315 485.436C394.076 485.559 393.811 485.623 393.543 485.623C393.274 485.623 393.009 485.559 392.771 485.436Z" fill="black"/>
<path opacity="0.4" d="M401.461 480.411L400.152 479.639C400.055 479.61 399.97 479.551 399.909 479.469C399.849 479.388 399.816 479.289 399.816 479.188C399.816 479.086 399.849 478.987 399.909 478.906C399.97 478.825 400.055 478.765 400.152 478.736L404.406 476.289C404.645 476.166 404.91 476.102 405.178 476.102C405.447 476.102 405.712 476.166 405.95 476.289L407.259 477.061C407.357 477.09 407.442 477.149 407.503 477.231C407.563 477.312 407.596 477.411 407.596 477.512C407.596 477.614 407.563 477.713 407.503 477.794C407.442 477.875 407.357 477.935 407.259 477.964L403.006 480.411C402.767 480.534 402.502 480.598 402.233 480.598C401.965 480.598 401.7 480.534 401.461 480.411Z" fill="black"/>
<path opacity="0.4" d="M410.126 475.424L408.817 474.639C408.725 474.607 408.645 474.547 408.588 474.467C408.531 474.387 408.501 474.292 408.501 474.194C408.501 474.096 408.531 474.001 408.588 473.921C408.645 473.841 408.725 473.781 408.817 473.749L413.071 471.288C413.31 471.166 413.575 471.102 413.843 471.102C414.112 471.102 414.376 471.166 414.615 471.288L415.924 472.074C416.017 472.106 416.097 472.166 416.153 472.246C416.21 472.326 416.24 472.421 416.24 472.519C416.24 472.617 416.21 472.712 416.153 472.792C416.097 472.872 416.017 472.932 415.924 472.964L411.71 475.424C411.464 475.547 411.193 475.61 410.918 475.61C410.643 475.61 410.372 475.547 410.126 475.424Z" fill="black"/>
<g opacity="0.4">
<path d="M368.243 477.819C369.155 477.368 370.111 477.013 371.096 476.759L371.62 477.466L370.141 477.78C369.683 477.854 369.241 478.005 368.832 478.225C367.523 479.01 368.073 480.175 370.507 481.575C372.942 482.976 374.971 483.329 376.306 482.544C376.626 482.372 376.903 482.131 377.117 481.837L377.614 480.96L378.923 481.274C378.401 481.907 377.788 482.458 377.104 482.91L376.881 483.041C375.616 483.642 374.22 483.913 372.823 483.831C371.425 483.748 370.07 483.315 368.884 482.57C366.267 481.026 365.9 479.18 368.047 477.937L368.243 477.819Z" fill="black"/>
<path d="M383.701 473.945C386.319 475.49 386.646 477.361 384.421 478.657C383.139 479.28 381.72 479.569 380.296 479.495C378.873 479.422 377.491 478.99 376.28 478.238C373.662 476.707 373.348 474.835 375.586 473.553C376.861 472.926 378.275 472.633 379.694 472.701C381.114 472.77 382.492 473.198 383.701 473.945ZM377.929 477.296C380.35 478.696 382.471 478.958 384.002 478.081C385.154 477.414 384.486 476.301 382.078 474.914C379.67 473.526 377.536 473.239 376.018 474.115C374.866 474.783 375.534 475.909 377.929 477.296Z" fill="black"/>
<path d="M384.839 468.343C385.806 467.761 386.905 467.432 388.033 467.389C389.161 467.345 390.282 467.588 391.291 468.095C393.215 469.207 393.137 470.712 391.069 471.943L389.289 472.964L391.671 474.272L390.087 475.189L381.488 470.215L384.839 468.343ZM388.608 472.571L390.048 471.746C391.448 470.935 391.357 469.993 389.655 469.037C388.991 468.608 388.222 468.371 387.432 468.353C386.642 468.334 385.862 468.535 385.179 468.932L383.739 469.77L388.608 472.571Z" fill="black"/>
<path d="M389.564 465.648L391.148 464.561L398.425 465.87L398.085 465.203C397.463 463.974 396.604 462.88 395.559 461.983L397.025 461.315L399.42 465.844L402.888 467.847L401.317 468.763L398.425 467.1L389.564 465.648Z" fill="black"/>
</g>
<path d="M323.024 560.211L381.502 593.966V601.426L323.024 567.658V560.211Z" fill="#263238"/>
<path opacity="0.15" d="M379.198 598.036V633.479L326.033 602.787V568.116L379.198 598.036Z" fill="black"/>
<path d="M379.198 594.619L326.034 563.927L265.383 581.439C264.453 581.714 263.982 582.159 263.982 582.656V586.059C263.982 586.491 264.335 586.962 265.068 587.368L312.566 614.788C314.412 615.727 316.531 615.982 318.547 615.508L379.198 598.009V594.619Z" fill="#37474F"/>
<path d="M379.198 594.619L318.508 612.132C316.492 612.606 314.373 612.351 312.527 611.412L265.029 583.926C263.459 583.023 263.603 581.885 265.343 581.387L325.995 563.875L379.198 594.619Z" fill="#455A64"/>
<path d="M315.392 612.276V615.692C314.404 615.575 313.446 615.278 312.565 614.815L265.068 587.395C264.335 586.963 263.968 586.492 263.982 586.087V582.684C263.982 583.116 264.335 583.587 265.068 583.992L312.565 611.478C313.447 611.925 314.407 612.196 315.392 612.276Z" fill="#263238"/>
<path d="M367.419 587.984C367.419 587.774 367.235 587.539 366.869 587.329L332.486 567.474C331.564 567.009 330.509 566.88 329.502 567.108L276.468 582.486C275.997 582.63 275.761 582.853 275.761 583.102V585.641C275.761 585.85 275.944 586.086 276.311 586.295L310.655 606.15C311.577 606.615 312.632 606.744 313.639 606.517L366.673 591.125C367.131 590.994 367.366 590.784 367.379 590.536L367.419 587.984Z" fill="#EBEBEB"/>
<path d="M366.712 588.6L313.678 603.979C312.671 604.214 311.614 604.084 310.694 603.613L276.311 583.771C275.526 583.313 275.591 582.75 276.468 582.462L329.502 567.083C330.509 566.855 331.564 566.985 332.486 567.45L366.934 587.331C367.654 587.776 367.576 588.352 366.712 588.6Z" fill="#FAFAFA"/>
<path d="M367.418 587.984V590.602C367.418 590.838 367.17 591.06 366.725 591.191L313.691 606.57C313.264 606.683 312.82 606.714 312.382 606.661V604.083C312.821 604.125 313.264 604.089 313.691 603.978L366.725 588.6C367.183 588.456 367.418 588.233 367.418 587.984Z" fill="#F0F0F0"/>
<path d="M656.762 620.533H644.524V642.351H656.762V620.533Z" fill="#FFA8A7"/>
<path d="M614.33 619.368L602.105 619.8L601.49 596.713L614.33 596.268V619.368Z" fill="#FFA8A7"/>
<path d="M658.49 431.592C658.49 443.764 658.189 542.175 658.189 542.175C658.477 545.683 660.139 551.69 659.498 565.145C658.581 583.468 657.338 631.437 657.338 631.437C655.239 632.519 652.92 633.108 650.559 633.158C648.198 633.208 645.856 632.718 643.713 631.725C643.713 631.725 632.143 565.21 629.944 547.096C627.981 531.285 624.774 478.042 624.774 478.042L618.099 539.95C619.514 546.604 620.025 553.419 619.618 560.211C619.042 568.587 615.102 612.21 615.102 612.21C612.989 613.461 610.619 614.212 608.171 614.407C605.724 614.602 603.264 614.236 600.98 613.336C600.98 613.336 591.949 547.266 591.818 539.57C591.661 530.814 595.365 431.461 595.365 431.461L658.49 431.592Z" fill="#455A64"/>
<path d="M644.525 636.057V634.238C643.36 634.761 640.598 645.585 635.782 650.192C631.855 653.857 626.62 658.045 625.311 662.181C624.002 666.317 632.641 668.791 636.253 668.123C640.441 667.351 647.705 664.275 649.524 661.422C651.344 658.569 652.142 654.368 653.687 652.26C655.231 650.153 658.582 647.837 659.38 645.428C659.825 644.12 659.301 641.188 658.686 638.727C658.123 636.476 657.508 634.002 656.762 634.212V635.599C655.04 637.012 652.877 637.776 650.65 637.759C648.857 637.85 644.512 637.484 644.525 636.057Z" fill="#263238"/>
<path d="M601.975 615.874C601.333 615.874 600.81 616.83 599.357 618.413C597.28 620.605 594.846 622.428 592.159 623.806C587.578 626.188 578.665 629.866 574.633 631.763C572.12 632.941 572.238 636.109 574.843 637.915C577.447 639.721 583.73 641.017 591.282 639.224C595.391 638.268 600.745 634.302 604.134 634.525C607.524 634.747 613.859 634.682 616.359 632.889C618.859 631.096 617.864 627.261 617.157 623.963C616.385 620.363 615.417 614.801 614.278 614.997V616.241C612.812 618.557 605.208 619.513 601.988 617.798L601.975 615.874Z" fill="#263238"/>
<path d="M624.774 478.041C618.415 475.956 612.602 472.477 607.759 467.858C607.759 467.858 611.057 474.272 620.848 480.24L618.753 535.499L624.774 478.041Z" fill="#263238"/>
<path d="M614.539 360.247C603.296 358.205 597.616 359.606 592.813 369.082C588.651 377.275 578.821 398.714 577.892 403.216C577.054 407.247 584.436 432.9 584.436 432.9L602.891 430.924L596.752 407.889L609.055 383.361L614.539 360.247Z" fill="#455A64"/>
<path d="M652.43 368.349C652.43 368.349 665.858 370.077 662.9 389.159L658.869 413.386L658.935 456.996C649.93 467.205 601.883 463.03 594.226 444.484C594.226 444.484 595.443 406.096 596.373 386.228C597.027 372.105 602.145 357.747 617.851 360.679L633.687 362.669L652.43 368.349Z" fill="#4675C0"/>
<path opacity="0.1" d="M624.919 374.762L622.733 390.088L617.21 387.549L623.388 390.913L624.919 374.762Z" fill="black"/>
<path d="M637.352 325.655C637.447 330.398 635.654 334.985 632.368 338.406C629.081 341.828 624.57 343.804 619.827 343.9C610.155 343.9 602.747 335.72 602.315 325.655C601.543 307.842 610.168 307.41 619.827 307.41C624.57 307.506 629.081 309.482 632.368 312.903C635.654 316.325 637.447 320.912 637.352 325.655Z" fill="#263238"/>
<path d="M647.94 318.588C645.886 315.394 644.014 315.878 644.014 315.878L642.705 331.401L640.545 331.833L640.362 352.774C641.522 352.14 642.442 351.142 642.98 349.934C643.7 348.481 645.257 339.62 646.121 334.307C646.056 334.32 649.642 321.323 647.94 318.588Z" fill="#263238"/>
<path d="M640.755 335.379C641.776 336.007 643.216 333.978 644.472 332.617C645.729 331.256 649.812 329.384 651.841 333.926C653.87 338.467 650.048 344.514 646.828 345.561C641.292 347.367 640.454 343.664 640.454 343.664L640.036 364.487C632.667 375.874 616.005 375.468 622 363.937V357.603C619.532 358.016 617.025 358.152 614.526 358.008C610.456 357.354 607.891 354.003 606.673 349.409C604.697 342.027 603.938 336.059 605.626 321.544C607.472 305.629 625.259 305.472 634.826 311.754C644.394 318.037 640.755 335.379 640.755 335.379Z" fill="#FFA8A7"/>
<path d="M640.127 359.697C638.408 363.196 635.947 366.278 632.916 368.728C630.341 370.63 627.355 371.899 624.199 372.432C626.781 374.201 628.892 376.573 630.35 379.343C632.183 383.387 645.258 374.042 645.14 366.137C645.14 366.137 642.98 356.399 640.206 355.889L640.127 359.697Z" fill="#455A64"/>
<path d="M624.199 372.433C624.199 372.433 620.207 370.443 622 363.807V357.473L620.246 357.708C618.196 359.701 616.741 362.225 616.045 364.998C615.639 366.818 614.657 376.006 616.411 377.838C618.165 379.67 620.626 372.93 624.199 372.433Z" fill="#455A64"/>
<path d="M613.767 320.301C622.013 320.51 627.13 318.77 633.949 317.971C634.385 317.879 634.839 317.911 635.258 318.063C636.763 318.744 637.09 323.416 637.352 324.777C638.255 329.332 638.988 337.054 640.703 337.093C641.213 337.093 643.15 333.756 644.42 332.552C646.174 330.889 643.909 315.877 643.909 315.877C643.831 315.354 644.302 314.411 644.328 313.835C644.338 312.49 643.966 311.169 643.255 310.027C641.86 307.704 639.699 305.94 637.143 305.04C632.523 303.234 627.457 303.456 622.863 301.402C621.103 300.434 619.27 299.606 617.379 298.928C616.426 298.599 615.402 298.533 614.414 298.735C613.427 298.938 612.511 299.402 611.764 300.08C610.962 301.139 610.48 302.406 610.377 303.731C609.515 302.393 608.338 301.288 606.948 300.512C604.265 299.321 600.94 300.996 599.553 303.587C598.338 306.295 598.225 309.37 599.239 312.16C599.5 313.08 599.883 313.96 600.378 314.778C602.93 318.888 609.317 320.183 613.767 320.301Z" fill="#263238"/>
<path d="M643.948 316.663L650.087 313.234C649.905 312.808 649.636 312.425 649.297 312.11C648.957 311.795 648.556 311.554 648.118 311.404C647.68 311.253 647.216 311.196 646.755 311.237C646.293 311.277 645.846 311.413 645.44 311.637C644.616 312.144 644.008 312.937 643.733 313.865C643.457 314.792 643.534 315.789 643.948 316.663Z" fill="#263238"/>
<path d="M622.013 357.472C622.013 357.472 631.109 355.561 634.29 353.807C636.183 352.775 637.717 351.191 638.688 349.266C638.214 351.197 637.365 353.016 636.188 354.619C633.871 357.721 622.013 359.998 622.013 359.998V357.472Z" fill="#F28F8F"/>
<path d="M624.199 332.944C624.227 333.299 624.358 333.639 624.576 333.921C624.794 334.203 625.09 334.415 625.427 334.532C625.764 334.648 626.128 334.664 626.473 334.576C626.819 334.489 627.132 334.303 627.373 334.041C627.615 333.778 627.775 333.451 627.833 333.099C627.891 332.748 627.846 332.386 627.702 332.06C627.558 331.734 627.322 331.457 627.023 331.263C626.724 331.068 626.375 330.966 626.018 330.967C625.516 330.991 625.043 331.212 624.702 331.582C624.362 331.952 624.181 332.441 624.199 332.944Z" fill="#263238"/>
<path d="M626.476 325.956L630.403 328.194C630.685 327.639 630.748 326.998 630.578 326.398C630.408 325.799 630.018 325.286 629.487 324.962C629.227 324.813 628.939 324.721 628.642 324.692C628.344 324.662 628.044 324.695 627.76 324.789C627.476 324.883 627.215 325.035 626.994 325.236C626.773 325.437 626.597 325.683 626.476 325.956Z" fill="#263238"/>
<path d="M622.837 346.06L618.675 347.696C618.756 347.982 618.895 348.249 619.084 348.48C619.274 348.71 619.508 348.899 619.774 349.034C620.039 349.169 620.33 349.248 620.627 349.265C620.925 349.283 621.223 349.239 621.502 349.135C622.07 348.884 622.523 348.428 622.77 347.858C623.018 347.288 623.042 346.646 622.837 346.06Z" fill="#F28F8F"/>
<path d="M607.825 328.35L611.372 325.497C611.213 325.248 611.003 325.035 610.756 324.873C610.509 324.711 610.231 324.602 609.939 324.555C609.647 324.508 609.349 324.524 609.064 324.6C608.778 324.677 608.512 324.813 608.283 325C607.806 325.403 607.495 325.968 607.411 326.587C607.326 327.206 607.474 327.834 607.825 328.35Z" fill="#263238"/>
<path d="M609.068 332.408C609.096 332.763 609.227 333.102 609.444 333.384C609.662 333.666 609.957 333.878 610.293 333.995C610.629 334.112 610.992 334.129 611.338 334.042C611.683 333.956 611.996 333.771 612.238 333.51C612.48 333.249 612.641 332.923 612.701 332.572C612.761 332.221 612.717 331.861 612.575 331.534C612.433 331.207 612.199 330.929 611.902 330.734C611.604 330.538 611.256 330.433 610.9 330.432C610.65 330.441 610.404 330.498 610.176 330.603C609.948 330.707 609.743 330.855 609.572 331.039C609.402 331.222 609.27 331.438 609.183 331.673C609.097 331.908 609.057 332.158 609.068 332.408Z" fill="#263238"/>
<path d="M618.794 330.877L618.584 342.395L612.04 340.903L618.794 330.877Z" fill="#F28F8F"/>
<path d="M551.074 457.113L606.582 489.219V455.163L551.074 423.058V457.113Z" fill="#E0E0E0"/>
<path d="M645.061 466.995L606.581 489.219V455.163L645.061 432.952V466.995Z" fill="#F0F0F0"/>
<path d="M551.074 423.058L589.554 400.847L645.061 432.952L606.582 455.176L551.074 423.058Z" fill="#FAFAFA"/>
<path opacity="0.1" d="M580 451.21L606.582 466.563L622.537 457.348L606.582 467.505L580 451.21Z" fill="black"/>
<path opacity="0.1" d="M564.044 450.584L606.581 475.138L638.477 456.722L606.581 476.067L564.044 450.584Z" fill="black"/>
<path opacity="0.1" d="M556.414 435.689C555.958 438.157 555.808 440.672 555.969 443.176C555.969 443.176 562.932 443.006 574.685 446.239L556.414 435.689Z" fill="black"/>
<path d="M556.415 435.689L574.686 446.239L554.465 440.414L556.415 435.689Z" fill="#FAFAFA"/>
<path opacity="0.1" d="M580 465.124L600.025 483.539C600.025 483.539 600.588 481.013 604.436 479.233L580 465.124Z" fill="black"/>
<path d="M580 465.124L598.808 480.961L604.436 479.233L580 465.124Z" fill="#FAFAFA"/>
<path opacity="0.1" d="M638.648 446.485L638.478 446.236L625.822 453.553L640.075 452.375C640.324 450.304 639.817 448.213 638.648 446.485Z" fill="black"/>
<path d="M625.822 453.553L638.478 446.236L642.693 448.461L625.822 453.553Z" fill="#FAFAFA"/>
<g opacity="0.3">
<path d="M560.851 425.427C560.764 425.426 560.678 425.403 560.603 425.359C560.527 425.316 560.464 425.253 560.419 425.178C560.386 425.123 560.365 425.061 560.357 424.997C560.349 424.933 560.353 424.868 560.37 424.806C560.387 424.744 560.417 424.686 560.456 424.635C560.496 424.584 560.546 424.542 560.602 424.511L592.498 406.056C592.614 405.994 592.749 405.978 592.875 406.012C593.002 406.046 593.111 406.127 593.179 406.24C593.211 406.295 593.233 406.357 593.241 406.421C593.249 406.485 593.245 406.55 593.228 406.612C593.211 406.674 593.181 406.732 593.142 406.783C593.102 406.834 593.052 406.876 592.996 406.907L561.1 425.322C561.026 425.376 560.941 425.412 560.851 425.427Z" fill="#455A64"/>
<path d="M566.165 428.501C566.08 428.501 565.996 428.477 565.922 428.433C565.849 428.39 565.788 428.327 565.747 428.253C565.712 428.198 565.688 428.137 565.678 428.074C565.668 428.01 565.671 427.945 565.687 427.882C565.703 427.819 565.731 427.761 565.771 427.71C565.81 427.659 565.86 427.616 565.917 427.585L597.826 409.17C597.881 409.137 597.942 409.115 598.005 409.106C598.069 409.096 598.133 409.1 598.195 409.116C598.257 409.131 598.316 409.159 598.367 409.198C598.418 409.236 598.461 409.285 598.493 409.34C598.526 409.396 598.547 409.457 598.555 409.521C598.564 409.585 598.559 409.65 598.542 409.712C598.525 409.774 598.496 409.833 598.456 409.883C598.416 409.934 598.367 409.976 598.31 410.008L566.414 428.436C566.337 428.476 566.252 428.498 566.165 428.501Z" fill="#455A64"/>
<path d="M571.479 431.565C571.393 431.565 571.31 431.541 571.236 431.498C571.162 431.454 571.102 431.392 571.06 431.317C570.998 431.203 570.982 431.07 571.017 430.946C571.051 430.821 571.132 430.715 571.243 430.649L603.14 412.234C603.195 412.202 603.257 412.182 603.321 412.174C603.385 412.166 603.449 412.17 603.511 412.187C603.573 412.204 603.631 412.233 603.682 412.273C603.733 412.312 603.775 412.361 603.807 412.417C603.839 412.473 603.859 412.535 603.867 412.598C603.875 412.662 603.871 412.727 603.854 412.789C603.837 412.851 603.808 412.909 603.768 412.96C603.729 413.01 603.68 413.053 603.624 413.085L571.728 431.5C571.654 431.547 571.567 431.57 571.479 431.565Z" fill="#455A64"/>
<path d="M576.805 434.641C576.718 434.64 576.633 434.617 576.557 434.573C576.481 434.53 576.418 434.467 576.374 434.392C576.341 434.337 576.32 434.275 576.312 434.211C576.303 434.147 576.308 434.082 576.325 434.02C576.342 433.958 576.371 433.9 576.411 433.849C576.451 433.798 576.5 433.756 576.557 433.725L608.453 415.31C608.508 415.274 608.57 415.251 608.634 415.24C608.699 415.229 608.765 415.232 608.828 415.247C608.892 415.263 608.952 415.291 609.004 415.33C609.057 415.369 609.1 415.419 609.133 415.475C609.166 415.532 609.187 415.595 609.195 415.66C609.203 415.725 609.197 415.79 609.179 415.853C609.16 415.916 609.13 415.974 609.088 416.025C609.047 416.076 608.995 416.117 608.937 416.147L577.041 434.576C576.969 434.617 576.888 434.64 576.805 434.641Z" fill="#455A64"/>
<path d="M582.119 437.704C582.032 437.703 581.946 437.68 581.871 437.636C581.795 437.593 581.732 437.53 581.687 437.456C581.625 437.342 581.61 437.209 581.644 437.085C581.678 436.96 581.759 436.854 581.871 436.788L613.767 418.373C613.882 418.31 614.017 418.294 614.144 418.328C614.27 418.362 614.379 418.444 614.447 418.556C614.48 418.612 614.501 418.673 614.509 418.737C614.518 418.801 614.513 418.866 614.496 418.928C614.479 418.991 614.45 419.049 614.41 419.099C614.37 419.15 614.32 419.192 614.264 419.224L582.368 437.639C582.293 437.685 582.207 437.707 582.119 437.704Z" fill="#455A64"/>
<path d="M587.433 440.78C587.348 440.779 587.264 440.755 587.19 440.712C587.117 440.668 587.056 440.606 587.015 440.531C586.98 440.477 586.956 440.416 586.946 440.352C586.936 440.288 586.939 440.223 586.955 440.16C586.971 440.098 586.999 440.039 587.039 439.988C587.078 439.937 587.128 439.894 587.185 439.863L619.081 421.448C619.194 421.381 619.329 421.361 619.456 421.393C619.584 421.425 619.694 421.506 619.762 421.618C619.824 421.734 619.84 421.869 619.806 421.995C619.772 422.122 619.69 422.231 619.578 422.299L587.682 440.714C587.605 440.754 587.52 440.776 587.433 440.78Z" fill="#455A64"/>
<path d="M592.748 443.841C592.663 443.843 592.58 443.822 592.506 443.78C592.432 443.739 592.371 443.678 592.329 443.605C592.261 443.492 592.241 443.357 592.273 443.23C592.305 443.102 592.386 442.993 592.499 442.925L624.408 424.509C624.464 424.478 624.526 424.457 624.589 424.449C624.653 424.441 624.718 424.446 624.78 424.463C624.842 424.48 624.9 424.509 624.951 424.548C625.001 424.588 625.044 424.637 625.076 424.693C625.107 424.749 625.128 424.81 625.136 424.874C625.144 424.938 625.139 425.002 625.122 425.064C625.105 425.126 625.076 425.184 625.037 425.235C624.997 425.286 624.948 425.328 624.892 425.36L592.996 443.775C592.922 443.823 592.835 443.846 592.748 443.841Z" fill="#455A64"/>
<path d="M598.061 446.917C597.976 446.915 597.893 446.891 597.819 446.848C597.746 446.804 597.685 446.743 597.643 446.669C597.61 446.613 597.589 446.551 597.581 446.487C597.572 446.424 597.577 446.359 597.594 446.296C597.611 446.234 597.64 446.176 597.68 446.125C597.72 446.075 597.769 446.032 597.826 446.001L629.722 427.586C629.777 427.553 629.838 427.531 629.901 427.522C629.965 427.512 630.029 427.516 630.091 427.532C630.153 427.547 630.212 427.575 630.263 427.614C630.314 427.652 630.357 427.701 630.389 427.756C630.422 427.813 630.444 427.875 630.452 427.94C630.461 428.005 630.456 428.071 630.439 428.134C630.422 428.198 630.393 428.257 630.353 428.309C630.313 428.361 630.263 428.404 630.206 428.437L598.31 446.852C598.234 446.894 598.148 446.916 598.061 446.917Z" fill="#455A64"/>
<path d="M603.389 449.98C603.302 449.982 603.217 449.961 603.142 449.92C603.066 449.878 603.002 449.818 602.957 449.745C602.894 449.63 602.878 449.495 602.912 449.368C602.946 449.241 603.028 449.132 603.14 449.064L635.036 430.649C635.092 430.617 635.153 430.595 635.217 430.587C635.281 430.579 635.346 430.583 635.408 430.6C635.471 430.617 635.529 430.647 635.579 430.687C635.63 430.726 635.672 430.776 635.704 430.832C635.739 430.887 635.762 430.948 635.772 431.011C635.782 431.075 635.78 431.14 635.764 431.203C635.748 431.266 635.719 431.324 635.679 431.375C635.64 431.426 635.59 431.469 635.533 431.5L603.624 449.915C603.554 449.961 603.472 449.983 603.389 449.98Z" fill="#455A64"/>
</g>
<path d="M656.474 369.88C660.911 371.032 664.837 372.327 667.756 378.099C671.499 385.494 687.689 424.811 687.179 427.835C686.263 433.24 663.005 455.988 655.492 464.678C650.519 470.424 641.187 475.908 633.164 478.604C626.109 480.96 625.193 478.487 625.193 478.487L639.943 469.966C640.794 469.39 642.653 467.244 640.467 467.231C638.7 467.231 636.933 467.44 635.166 467.296C633.657 467.3 632.182 466.843 630.939 465.987C630.649 465.798 630.447 465.501 630.376 465.163C630.37 465.006 630.396 464.85 630.453 464.704C630.509 464.558 630.594 464.425 630.703 464.312C631.123 464.008 631.599 463.79 632.103 463.671C632.647 463.467 633.202 463.297 633.766 463.16C634.891 462.885 636.056 462.676 637.169 462.336C638.936 461.799 640.545 461.406 641.841 461.027C643.61 460.459 645.112 459.268 646.069 457.676C648.791 453.907 650.65 450.818 651.592 449.365C654.38 445.059 664.458 429.733 667.363 425.178L651.854 396.475C646.802 389.041 649.118 369.88 656.474 369.88Z" fill="#FFA8A7"/>
<path d="M653.11 368.492C653.11 368.492 661.539 370.482 664.144 372.576C666.748 374.67 668.698 377.693 673.305 388.282C677.912 398.87 686.106 421.317 687.166 424.379C688.226 427.442 688.71 429.13 683.331 435.308C679.405 439.758 674.169 444.614 674.169 444.614C674.169 444.614 664.366 443.305 661.644 433.947L666.604 425.112C666.604 425.112 651.958 399.224 650.1 393.7C648.59 389.557 648.076 385.116 648.599 380.737C649.122 376.358 650.667 372.164 653.11 368.492Z" fill="#455A64"/>
<path d="M70.68 136.57V161H65.78V150.605H55.315V161H50.415V136.57H55.315V146.615H65.78V136.57H70.68ZM93.5279 150.885C93.5279 151.585 93.4812 152.215 93.3879 152.775H79.2129C79.3296 154.175 79.8196 155.272 80.6829 156.065C81.5462 156.858 82.6079 157.255 83.8679 157.255C85.6879 157.255 86.9829 156.473 87.7529 154.91H93.0379C92.4779 156.777 91.4046 158.317 89.8179 159.53C88.2312 160.72 86.2829 161.315 83.9729 161.315C82.1062 161.315 80.4262 160.907 78.9329 160.09C77.4629 159.25 76.3079 158.072 75.4679 156.555C74.6512 155.038 74.2429 153.288 74.2429 151.305C74.2429 149.298 74.6512 147.537 75.4679 146.02C76.2846 144.503 77.4279 143.337 78.8979 142.52C80.3679 141.703 82.0596 141.295 83.9729 141.295C85.8162 141.295 87.4612 141.692 88.9079 142.485C90.3779 143.278 91.5096 144.41 92.3029 145.88C93.1196 147.327 93.5279 148.995 93.5279 150.885ZM88.4529 149.485C88.4296 148.225 87.9746 147.222 87.0879 146.475C86.2012 145.705 85.1162 145.32 83.8329 145.32C82.6196 145.32 81.5929 145.693 80.7529 146.44C79.9362 147.163 79.4346 148.178 79.2479 149.485H88.4529ZM95.8445 151.305C95.8445 149.298 96.2528 147.548 97.0695 146.055C97.8861 144.538 99.0178 143.372 100.464 142.555C101.911 141.715 103.568 141.295 105.434 141.295C107.838 141.295 109.821 141.902 111.384 143.115C112.971 144.305 114.033 145.985 114.569 148.155H109.284C109.004 147.315 108.526 146.662 107.849 146.195C107.196 145.705 106.379 145.46 105.399 145.46C103.999 145.46 102.891 145.973 102.074 147C101.258 148.003 100.849 149.438 100.849 151.305C100.849 153.148 101.258 154.583 102.074 155.61C102.891 156.613 103.999 157.115 105.399 157.115C107.383 157.115 108.678 156.228 109.284 154.455H114.569C114.033 156.555 112.971 158.223 111.384 159.46C109.798 160.697 107.814 161.315 105.434 161.315C103.568 161.315 101.911 160.907 100.464 160.09C99.0178 159.25 97.8861 158.083 97.0695 156.59C96.2528 155.073 95.8445 153.312 95.8445 151.305ZM129.079 141.33C130.549 141.33 131.856 141.657 132.999 142.31C134.142 142.94 135.029 143.885 135.659 145.145C136.312 146.382 136.639 147.875 136.639 149.625V161H131.739V150.29C131.739 148.75 131.354 147.572 130.584 146.755C129.814 145.915 128.764 145.495 127.434 145.495C126.081 145.495 125.007 145.915 124.214 146.755C123.444 147.572 123.059 148.75 123.059 150.29V161H118.159V135.1H123.059V144.025C123.689 143.185 124.529 142.532 125.579 142.065C126.629 141.575 127.796 141.33 129.079 141.33ZM149.909 161.315C148.042 161.315 146.362 160.907 144.869 160.09C143.375 159.25 142.197 158.072 141.334 156.555C140.494 155.038 140.074 153.288 140.074 151.305C140.074 149.322 140.505 147.572 141.369 146.055C142.255 144.538 143.457 143.372 144.974 142.555C146.49 141.715 148.182 141.295 150.049 141.295C151.915 141.295 153.607 141.715 155.124 142.555C156.64 143.372 157.83 144.538 158.694 146.055C159.58 147.572 160.024 149.322 160.024 151.305C160.024 153.288 159.569 155.038 158.659 156.555C157.772 158.072 156.559 159.25 155.019 160.09C153.502 160.907 151.799 161.315 149.909 161.315ZM149.909 157.045C150.795 157.045 151.624 156.835 152.394 156.415C153.187 155.972 153.817 155.318 154.284 154.455C154.75 153.592 154.984 152.542 154.984 151.305C154.984 149.462 154.494 148.05 153.514 147.07C152.557 146.067 151.379 145.565 149.979 145.565C148.579 145.565 147.4 146.067 146.444 147.07C145.51 148.05 145.044 149.462 145.044 151.305C145.044 153.148 145.499 154.572 146.409 155.575C147.342 156.555 148.509 157.045 149.909 157.045ZM176.858 144.41C177.488 143.523 178.351 142.788 179.448 142.205C180.568 141.598 181.84 141.295 183.263 141.295C184.92 141.295 186.413 141.703 187.743 142.52C189.096 143.337 190.158 144.503 190.928 146.02C191.721 147.513 192.118 149.252 192.118 151.235C192.118 153.218 191.721 154.98 190.928 156.52C190.158 158.037 189.096 159.215 187.743 160.055C186.413 160.895 184.92 161.315 183.263 161.315C181.84 161.315 180.58 161.023 179.483 160.44C178.41 159.857 177.535 159.122 176.858 158.235V170.24H171.958V141.61H176.858V144.41ZM187.113 151.235C187.113 150.068 186.868 149.065 186.378 148.225C185.911 147.362 185.281 146.708 184.488 146.265C183.718 145.822 182.878 145.6 181.968 145.6C181.081 145.6 180.241 145.833 179.448 146.3C178.678 146.743 178.048 147.397 177.558 148.26C177.091 149.123 176.858 150.138 176.858 151.305C176.858 152.472 177.091 153.487 177.558 154.35C178.048 155.213 178.678 155.878 179.448 156.345C180.241 156.788 181.081 157.01 181.968 157.01C182.878 157.01 183.718 156.777 184.488 156.31C185.281 155.843 185.911 155.178 186.378 154.315C186.868 153.452 187.113 152.425 187.113 151.235ZM204.289 161.315C202.422 161.315 200.742 160.907 199.249 160.09C197.755 159.25 196.577 158.072 195.714 156.555C194.874 155.038 194.454 153.288 194.454 151.305C194.454 149.322 194.885 147.572 195.749 146.055C196.635 144.538 197.837 143.372 199.354 142.555C200.87 141.715 202.562 141.295 204.429 141.295C206.295 141.295 207.987 141.715 209.504 142.555C211.02 143.372 212.21 144.538 213.074 146.055C213.96 147.572 214.404 149.322 214.404 151.305C214.404 153.288 213.949 155.038 213.039 156.555C212.152 158.072 210.939 159.25 209.399 160.09C207.882 160.907 206.179 161.315 204.289 161.315ZM204.289 157.045C205.175 157.045 206.004 156.835 206.774 156.415C207.567 155.972 208.197 155.318 208.664 154.455C209.13 153.592 209.364 152.542 209.364 151.305C209.364 149.462 208.874 148.05 207.894 147.07C206.937 146.067 205.759 145.565 204.359 145.565C202.959 145.565 201.78 146.067 200.824 147.07C199.89 148.05 199.424 149.462 199.424 151.305C199.424 153.148 199.879 154.572 200.789 155.575C201.722 156.555 202.889 157.045 204.289 157.045ZM222.898 144.62C223.528 143.593 224.345 142.788 225.348 142.205C226.375 141.622 227.541 141.33 228.848 141.33V146.475H227.553C226.013 146.475 224.846 146.837 224.053 147.56C223.283 148.283 222.898 149.543 222.898 151.34V161H217.998V141.61H222.898V144.62ZM258.513 150.885C258.513 151.585 258.467 152.215 258.373 152.775H244.198C244.315 154.175 244.805 155.272 245.668 156.065C246.532 156.858 247.593 157.255 248.853 157.255C250.673 157.255 251.968 156.473 252.738 154.91H258.023C257.463 156.777 256.39 158.317 254.803 159.53C253.217 160.72 251.268 161.315 248.958 161.315C247.092 161.315 245.412 160.907 243.918 160.09C242.448 159.25 241.293 158.072 240.453 156.555C239.637 155.038 239.228 153.288 239.228 151.305C239.228 149.298 239.637 147.537 240.453 146.02C241.27 144.503 242.413 143.337 243.883 142.52C245.353 141.703 247.045 141.295 248.958 141.295C250.802 141.295 252.447 141.692 253.893 142.485C255.363 143.278 256.495 144.41 257.288 145.88C258.105 147.327 258.513 148.995 258.513 150.885ZM253.438 149.485C253.415 148.225 252.96 147.222 252.073 146.475C251.187 145.705 250.102 145.32 248.818 145.32C247.605 145.32 246.578 145.693 245.738 146.44C244.922 147.163 244.42 148.178 244.233 149.485H253.438ZM269.51 161.315C267.923 161.315 266.5 161.035 265.24 160.475C263.98 159.892 262.976 159.11 262.23 158.13C261.506 157.15 261.11 156.065 261.04 154.875H265.975C266.068 155.622 266.43 156.24 267.06 156.73C267.713 157.22 268.518 157.465 269.475 157.465C270.408 157.465 271.131 157.278 271.645 156.905C272.181 156.532 272.45 156.053 272.45 155.47C272.45 154.84 272.123 154.373 271.47 154.07C270.84 153.743 269.825 153.393 268.425 153.02C266.978 152.67 265.788 152.308 264.855 151.935C263.945 151.562 263.151 150.99 262.475 150.22C261.821 149.45 261.495 148.412 261.495 147.105C261.495 146.032 261.798 145.052 262.405 144.165C263.035 143.278 263.921 142.578 265.065 142.065C266.231 141.552 267.596 141.295 269.16 141.295C271.47 141.295 273.313 141.878 274.69 143.045C276.066 144.188 276.825 145.74 276.965 147.7H272.275C272.205 146.93 271.878 146.323 271.295 145.88C270.735 145.413 269.976 145.18 269.02 145.18C268.133 145.18 267.445 145.343 266.955 145.67C266.488 145.997 266.255 146.452 266.255 147.035C266.255 147.688 266.581 148.19 267.235 148.54C267.888 148.867 268.903 149.205 270.28 149.555C271.68 149.905 272.835 150.267 273.745 150.64C274.655 151.013 275.436 151.597 276.09 152.39C276.766 153.16 277.116 154.187 277.14 155.47C277.14 156.59 276.825 157.593 276.195 158.48C275.588 159.367 274.701 160.067 273.535 160.58C272.391 161.07 271.05 161.315 269.51 161.315ZM286.867 145.635V155.015C286.867 155.668 287.019 156.147 287.322 156.45C287.649 156.73 288.185 156.87 288.932 156.87H291.207V161H288.127C283.997 161 281.932 158.993 281.932 154.98V145.635H279.622V141.61H281.932V136.815H286.867V141.61H291.207V145.635H286.867ZM313.036 141.61V161H308.101V158.55C307.471 159.39 306.643 160.055 305.616 160.545C304.613 161.012 303.516 161.245 302.326 161.245C300.81 161.245 299.468 160.93 298.301 160.3C297.135 159.647 296.213 158.702 295.536 157.465C294.883 156.205 294.556 154.712 294.556 152.985V141.61H299.456V152.285C299.456 153.825 299.841 155.015 300.611 155.855C301.381 156.672 302.431 157.08 303.761 157.08C305.115 157.08 306.176 156.672 306.946 155.855C307.716 155.015 308.101 153.825 308.101 152.285V141.61H313.036ZM316.611 151.235C316.611 149.275 316.996 147.537 317.766 146.02C318.559 144.503 319.633 143.337 320.986 142.52C322.339 141.703 323.844 141.295 325.501 141.295C326.761 141.295 327.963 141.575 329.106 142.135C330.249 142.672 331.159 143.395 331.836 144.305V135.1H336.806V161H331.836V158.13C331.229 159.087 330.378 159.857 329.281 160.44C328.184 161.023 326.913 161.315 325.466 161.315C323.833 161.315 322.339 160.895 320.986 160.055C319.633 159.215 318.559 158.037 317.766 156.52C316.996 154.98 316.611 153.218 316.611 151.235ZM331.871 151.305C331.871 150.115 331.638 149.1 331.171 148.26C330.704 147.397 330.074 146.743 329.281 146.3C328.488 145.833 327.636 145.6 326.726 145.6C325.816 145.6 324.976 145.822 324.206 146.265C323.436 146.708 322.806 147.362 322.316 148.225C321.849 149.065 321.616 150.068 321.616 151.235C321.616 152.402 321.849 153.428 322.316 154.315C322.806 155.178 323.436 155.843 324.206 156.31C324.999 156.777 325.839 157.01 326.726 157.01C327.636 157.01 328.488 156.788 329.281 156.345C330.074 155.878 330.704 155.225 331.171 154.385C331.638 153.522 331.871 152.495 331.871 151.305ZM344.077 139.3C343.213 139.3 342.49 139.032 341.907 138.495C341.347 137.935 341.067 137.247 341.067 136.43C341.067 135.613 341.347 134.937 341.907 134.4C342.49 133.84 343.213 133.56 344.077 133.56C344.94 133.56 345.652 133.84 346.212 134.4C346.795 134.937 347.087 135.613 347.087 136.43C347.087 137.247 346.795 137.935 346.212 138.495C345.652 139.032 344.94 139.3 344.077 139.3ZM346.492 141.61V161H341.592V141.61H346.492ZM350.073 151.235C350.073 149.275 350.458 147.537 351.228 146.02C352.021 144.503 353.083 143.337 354.413 142.52C355.766 141.703 357.271 141.295 358.928 141.295C360.375 141.295 361.635 141.587 362.708 142.17C363.805 142.753 364.68 143.488 365.333 144.375V141.61H370.268V161H365.333V158.165C364.703 159.075 363.828 159.833 362.708 160.44C361.611 161.023 360.34 161.315 358.893 161.315C357.26 161.315 355.766 160.895 354.413 160.055C353.083 159.215 352.021 158.037 351.228 156.52C350.458 154.98 350.073 153.218 350.073 151.235ZM365.333 151.305C365.333 150.115 365.1 149.1 364.633 148.26C364.166 147.397 363.536 146.743 362.743 146.3C361.95 145.833 361.098 145.6 360.188 145.6C359.278 145.6 358.438 145.822 357.668 146.265C356.898 146.708 356.268 147.362 355.778 148.225C355.311 149.065 355.078 150.068 355.078 151.235C355.078 152.402 355.311 153.428 355.778 154.315C356.268 155.178 356.898 155.843 357.668 156.31C358.461 156.777 359.301 157.01 360.188 157.01C361.098 157.01 361.95 156.788 362.743 156.345C363.536 155.878 364.166 155.225 364.633 154.385C365.1 153.522 365.333 152.495 365.333 151.305ZM385.799 141.33C388.109 141.33 389.975 142.065 391.399 143.535C392.822 144.982 393.534 147.012 393.534 149.625V161H388.634V150.29C388.634 148.75 388.249 147.572 387.479 146.755C386.709 145.915 385.659 145.495 384.329 145.495C382.975 145.495 381.902 145.915 381.109 146.755C380.339 147.572 379.954 148.75 379.954 150.29V161H375.054V141.61H379.954V144.025C380.607 143.185 381.435 142.532 382.439 142.065C383.465 141.575 384.585 141.33 385.799 141.33ZM403.898 145.635V155.015C403.898 155.668 404.05 156.147 404.353 156.45C404.68 156.73 405.217 156.87 405.963 156.87H408.238V161H405.158C401.028 161 398.963 158.993 398.963 154.98V145.635H396.653V141.61H398.963V136.815H403.898V141.61H408.238V145.635H403.898ZM429.788 150.885C429.788 151.585 429.741 152.215 429.648 152.775H415.473C415.589 154.175 416.079 155.272 416.943 156.065C417.806 156.858 418.868 157.255 420.128 157.255C421.948 157.255 423.243 156.473 424.013 154.91H429.298C428.738 156.777 427.664 158.317 426.078 159.53C424.491 160.72 422.543 161.315 420.233 161.315C418.366 161.315 416.686 160.907 415.193 160.09C413.723 159.25 412.568 158.072 411.728 156.555C410.911 155.038 410.503 153.288 410.503 151.305C410.503 149.298 410.911 147.537 411.728 146.02C412.544 144.503 413.688 143.337 415.158 142.52C416.628 141.703 418.319 141.295 420.233 141.295C422.076 141.295 423.721 141.692 425.168 142.485C426.638 143.278 427.769 144.41 428.563 145.88C429.379 147.327 429.788 148.995 429.788 150.885ZM424.713 149.485C424.689 148.225 424.234 147.222 423.348 146.475C422.461 145.705 421.376 145.32 420.093 145.32C418.879 145.32 417.853 145.693 417.013 146.44C416.196 147.163 415.694 148.178 415.508 149.485H424.713ZM440.784 161.315C439.198 161.315 437.774 161.035 436.514 160.475C435.254 159.892 434.251 159.11 433.504 158.13C432.781 157.15 432.384 156.065 432.314 154.875H437.249C437.343 155.622 437.704 156.24 438.334 156.73C438.988 157.22 439.793 157.465 440.749 157.465C441.683 157.465 442.406 157.278 442.919 156.905C443.456 156.532 443.724 156.053 443.724 155.47C443.724 154.84 443.398 154.373 442.744 154.07C442.114 153.743 441.099 153.393 439.699 153.02C438.253 152.67 437.063 152.308 436.129 151.935C435.219 151.562 434.426 150.99 433.749 150.22C433.096 149.45 432.769 148.412 432.769 147.105C432.769 146.032 433.073 145.052 433.679 144.165C434.309 143.278 435.196 142.578 436.339 142.065C437.506 141.552 438.871 141.295 440.434 141.295C442.744 141.295 444.588 141.878 445.964 143.045C447.341 144.188 448.099 145.74 448.239 147.7H443.549C443.479 146.93 443.153 146.323 442.569 145.88C442.009 145.413 441.251 145.18 440.294 145.18C439.408 145.18 438.719 145.343 438.229 145.67C437.763 145.997 437.529 146.452 437.529 147.035C437.529 147.688 437.856 148.19 438.509 148.54C439.163 148.867 440.178 149.205 441.554 149.555C442.954 149.905 444.109 150.267 445.019 150.64C445.929 151.013 446.711 151.597 447.364 152.39C448.041 153.16 448.391 154.187 448.414 155.47C448.414 156.59 448.099 157.593 447.469 158.48C446.863 159.367 445.976 160.067 444.809 160.58C443.666 161.07 442.324 161.315 440.784 161.315ZM457.791 155.855L453.696 165.69H450.546L452.821 155.855H457.791ZM55.315 187.41C55.945 186.523 56.8083 185.788 57.905 185.205C59.025 184.598 60.2967 184.295 61.72 184.295C63.3767 184.295 64.87 184.703 66.2 185.52C67.5533 186.337 68.615 187.503 69.385 189.02C70.1783 190.513 70.575 192.252 70.575 194.235C70.575 196.218 70.1783 197.98 69.385 199.52C68.615 201.037 67.5533 202.215 66.2 203.055C64.87 203.895 63.3767 204.315 61.72 204.315C60.2967 204.315 59.0367 204.023 57.94 203.44C56.8667 202.857 55.9917 202.122 55.315 201.235V213.24H50.415V184.61H55.315V187.41ZM65.57 194.235C65.57 193.068 65.325 192.065 64.835 191.225C64.3683 190.362 63.7383 189.708 62.945 189.265C62.175 188.822 61.335 188.6 60.425 188.6C59.5383 188.6 58.6983 188.833 57.905 189.3C57.135 189.743 56.505 190.397 56.015 191.26C55.5483 192.123 55.315 193.138 55.315 194.305C55.315 195.472 55.5483 196.487 56.015 197.35C56.505 198.213 57.135 198.878 57.905 199.345C58.6983 199.788 59.5383 200.01 60.425 200.01C61.335 200.01 62.175 199.777 62.945 199.31C63.7383 198.843 64.3683 198.178 64.835 197.315C65.325 196.452 65.57 195.425 65.57 194.235ZM72.8757 194.235C72.8757 192.275 73.2607 190.537 74.0307 189.02C74.824 187.503 75.8857 186.337 77.2157 185.52C78.569 184.703 80.074 184.295 81.7307 184.295C83.1774 184.295 84.4374 184.587 85.5107 185.17C86.6074 185.753 87.4824 186.488 88.1357 187.375V184.61H93.0707V204H88.1357V201.165C87.5057 202.075 86.6307 202.833 85.5107 203.44C84.414 204.023 83.1424 204.315 81.6957 204.315C80.0624 204.315 78.569 203.895 77.2157 203.055C75.8857 202.215 74.824 201.037 74.0307 199.52C73.2607 197.98 72.8757 196.218 72.8757 194.235ZM88.1357 194.305C88.1357 193.115 87.9024 192.1 87.4357 191.26C86.969 190.397 86.339 189.743 85.5457 189.3C84.7524 188.833 83.9007 188.6 82.9907 188.6C82.0807 188.6 81.2407 188.822 80.4707 189.265C79.7007 189.708 79.0707 190.362 78.5807 191.225C78.114 192.065 77.8807 193.068 77.8807 194.235C77.8807 195.402 78.114 196.428 78.5807 197.315C79.0707 198.178 79.7007 198.843 80.4707 199.31C81.264 199.777 82.104 200.01 82.9907 200.01C83.9007 200.01 84.7524 199.788 85.5457 199.345C86.339 198.878 86.969 198.225 87.4357 197.385C87.9024 196.522 88.1357 195.495 88.1357 194.305ZM102.756 187.62C103.386 186.593 104.203 185.788 105.206 185.205C106.233 184.622 107.4 184.33 108.706 184.33V189.475H107.411C105.871 189.475 104.705 189.837 103.911 190.56C103.141 191.283 102.756 192.543 102.756 194.34V204H97.8564V184.61H102.756V187.62ZM110.747 194.235C110.747 192.275 111.132 190.537 111.902 189.02C112.695 187.503 113.757 186.337 115.087 185.52C116.44 184.703 117.945 184.295 119.602 184.295C121.048 184.295 122.308 184.587 123.382 185.17C124.478 185.753 125.353 186.488 126.007 187.375V184.61H130.942V204H126.007V201.165C125.377 202.075 124.502 202.833 123.382 203.44C122.285 204.023 121.013 204.315 119.567 204.315C117.933 204.315 116.44 203.895 115.087 203.055C113.757 202.215 112.695 201.037 111.902 199.52C111.132 197.98 110.747 196.218 110.747 194.235ZM126.007 194.305C126.007 193.115 125.773 192.1 125.307 191.26C124.84 190.397 124.21 189.743 123.417 189.3C122.623 188.833 121.772 188.6 120.862 188.6C119.952 188.6 119.112 188.822 118.342 189.265C117.572 189.708 116.942 190.362 116.452 191.225C115.985 192.065 115.752 193.068 115.752 194.235C115.752 195.402 115.985 196.428 116.452 197.315C116.942 198.178 117.572 198.843 118.342 199.31C119.135 199.777 119.975 200.01 120.862 200.01C121.772 200.01 122.623 199.788 123.417 199.345C124.21 198.878 124.84 198.225 125.307 197.385C125.773 196.522 126.007 195.495 126.007 194.305ZM162.092 193.885C162.092 194.585 162.046 195.215 161.952 195.775H147.777C147.894 197.175 148.384 198.272 149.247 199.065C150.111 199.858 151.172 200.255 152.432 200.255C154.252 200.255 155.547 199.473 156.317 197.91H161.602C161.042 199.777 159.969 201.317 158.382 202.53C156.796 203.72 154.847 204.315 152.537 204.315C150.671 204.315 148.991 203.907 147.497 203.09C146.027 202.25 144.872 201.072 144.032 199.555C143.216 198.038 142.807 196.288 142.807 194.305C142.807 192.298 143.216 190.537 144.032 189.02C144.849 187.503 145.992 186.337 147.462 185.52C148.932 184.703 150.624 184.295 152.537 184.295C154.381 184.295 156.026 184.692 157.472 185.485C158.942 186.278 160.074 187.41 160.867 188.88C161.684 190.327 162.092 191.995 162.092 193.885ZM157.017 192.485C156.994 191.225 156.539 190.222 155.652 189.475C154.766 188.705 153.681 188.32 152.397 188.32C151.184 188.32 150.157 188.693 149.317 189.44C148.501 190.163 147.999 191.178 147.812 192.485H157.017ZM173.089 204.315C171.502 204.315 170.079 204.035 168.819 203.475C167.559 202.892 166.556 202.11 165.809 201.13C165.086 200.15 164.689 199.065 164.619 197.875H169.554C169.647 198.622 170.009 199.24 170.639 199.73C171.292 200.22 172.097 200.465 173.054 200.465C173.987 200.465 174.711 200.278 175.224 199.905C175.761 199.532 176.029 199.053 176.029 198.47C176.029 197.84 175.702 197.373 175.049 197.07C174.419 196.743 173.404 196.393 172.004 196.02C170.557 195.67 169.367 195.308 168.434 194.935C167.524 194.562 166.731 193.99 166.054 193.22C165.401 192.45 165.074 191.412 165.074 190.105C165.074 189.032 165.377 188.052 165.984 187.165C166.614 186.278 167.501 185.578 168.644 185.065C169.811 184.552 171.176 184.295 172.739 184.295C175.049 184.295 176.892 184.878 178.269 186.045C179.646 187.188 180.404 188.74 180.544 190.7H175.854C175.784 189.93 175.457 189.323 174.874 188.88C174.314 188.413 173.556 188.18 172.599 188.18C171.712 188.18 171.024 188.343 170.534 188.67C170.067 188.997 169.834 189.452 169.834 190.035C169.834 190.688 170.161 191.19 170.814 191.54C171.467 191.867 172.482 192.205 173.859 192.555C175.259 192.905 176.414 193.267 177.324 193.64C178.234 194.013 179.016 194.597 179.669 195.39C180.346 196.16 180.696 197.187 180.719 198.47C180.719 199.59 180.404 200.593 179.774 201.48C179.167 202.367 178.281 203.067 177.114 203.58C175.971 204.07 174.629 204.315 173.089 204.315ZM190.446 188.635V198.015C190.446 198.668 190.598 199.147 190.901 199.45C191.228 199.73 191.765 199.87 192.511 199.87H194.786V204H191.706C187.576 204 185.511 201.993 185.511 197.98V188.635H183.201V184.61H185.511V179.815H190.446V184.61H194.786V188.635H190.446ZM216.616 184.61V204H211.681V201.55C211.051 202.39 210.222 203.055 209.196 203.545C208.192 204.012 207.096 204.245 205.906 204.245C204.389 204.245 203.047 203.93 201.881 203.3C200.714 202.647 199.792 201.702 199.116 200.465C198.462 199.205 198.136 197.712 198.136 195.985V184.61H203.036V195.285C203.036 196.825 203.421 198.015 204.191 198.855C204.961 199.672 206.011 200.08 207.341 200.08C208.694 200.08 209.756 199.672 210.526 198.855C211.296 198.015 211.681 196.825 211.681 195.285V184.61H216.616ZM220.19 194.235C220.19 192.275 220.575 190.537 221.345 189.02C222.138 187.503 223.212 186.337 224.565 185.52C225.918 184.703 227.423 184.295 229.08 184.295C230.34 184.295 231.542 184.575 232.685 185.135C233.828 185.672 234.738 186.395 235.415 187.305V178.1H240.385V204H235.415V201.13C234.808 202.087 233.957 202.857 232.86 203.44C231.763 204.023 230.492 204.315 229.045 204.315C227.412 204.315 225.918 203.895 224.565 203.055C223.212 202.215 222.138 201.037 221.345 199.52C220.575 197.98 220.19 196.218 220.19 194.235ZM235.45 194.305C235.45 193.115 235.217 192.1 234.75 191.26C234.283 190.397 233.653 189.743 232.86 189.3C232.067 188.833 231.215 188.6 230.305 188.6C229.395 188.6 228.555 188.822 227.785 189.265C227.015 189.708 226.385 190.362 225.895 191.225C225.428 192.065 225.195 193.068 225.195 194.235C225.195 195.402 225.428 196.428 225.895 197.315C226.385 198.178 227.015 198.843 227.785 199.31C228.578 199.777 229.418 200.01 230.305 200.01C231.215 200.01 232.067 199.788 232.86 199.345C233.653 198.878 234.283 198.225 234.75 197.385C235.217 196.522 235.45 195.495 235.45 194.305ZM247.656 182.3C246.793 182.3 246.069 182.032 245.486 181.495C244.926 180.935 244.646 180.247 244.646 179.43C244.646 178.613 244.926 177.937 245.486 177.4C246.069 176.84 246.793 176.56 247.656 176.56C248.519 176.56 249.231 176.84 249.791 177.4C250.374 177.937 250.666 178.613 250.666 179.43C250.666 180.247 250.374 180.935 249.791 181.495C249.231 182.032 248.519 182.3 247.656 182.3ZM250.071 184.61V204H245.171V184.61H250.071ZM253.652 194.235C253.652 192.275 254.037 190.537 254.807 189.02C255.6 187.503 256.662 186.337 257.992 185.52C259.345 184.703 260.85 184.295 262.507 184.295C263.954 184.295 265.214 184.587 266.287 185.17C267.384 185.753 268.259 186.488 268.912 187.375V184.61H273.847V204H268.912V201.165C268.282 202.075 267.407 202.833 266.287 203.44C265.19 204.023 263.919 204.315 262.472 204.315C260.839 204.315 259.345 203.895 257.992 203.055C256.662 202.215 255.6 201.037 254.807 199.52C254.037 197.98 253.652 196.218 253.652 194.235ZM268.912 194.305C268.912 193.115 268.679 192.1 268.212 191.26C267.745 190.397 267.115 189.743 266.322 189.3C265.529 188.833 264.677 188.6 263.767 188.6C262.857 188.6 262.017 188.822 261.247 189.265C260.477 189.708 259.847 190.362 259.357 191.225C258.89 192.065 258.657 193.068 258.657 194.235C258.657 195.402 258.89 196.428 259.357 197.315C259.847 198.178 260.477 198.843 261.247 199.31C262.04 199.777 262.88 200.01 263.767 200.01C264.677 200.01 265.529 199.788 266.322 199.345C267.115 198.878 267.745 198.225 268.212 197.385C268.679 196.522 268.912 195.495 268.912 194.305ZM289.378 184.33C291.688 184.33 293.554 185.065 294.978 186.535C296.401 187.982 297.113 190.012 297.113 192.625V204H292.213V193.29C292.213 191.75 291.828 190.572 291.058 189.755C290.288 188.915 289.238 188.495 287.908 188.495C286.554 188.495 285.481 188.915 284.688 189.755C283.918 190.572 283.533 191.75 283.533 193.29V204H278.633V184.61H283.533V187.025C284.186 186.185 285.014 185.532 286.018 185.065C287.044 184.575 288.164 184.33 289.378 184.33ZM307.477 188.635V198.015C307.477 198.668 307.629 199.147 307.932 199.45C308.259 199.73 308.796 199.87 309.542 199.87H311.817V204H308.737C304.607 204 302.542 201.993 302.542 197.98V188.635H300.232V184.61H302.542V179.815H307.477V184.61H311.817V188.635H307.477ZM333.367 193.885C333.367 194.585 333.32 195.215 333.227 195.775H319.052C319.168 197.175 319.658 198.272 320.522 199.065C321.385 199.858 322.447 200.255 323.707 200.255C325.527 200.255 326.822 199.473 327.592 197.91H332.877C332.317 199.777 331.243 201.317 329.657 202.53C328.07 203.72 326.122 204.315 323.812 204.315C321.945 204.315 320.265 203.907 318.772 203.09C317.302 202.25 316.147 201.072 315.307 199.555C314.49 198.038 314.082 196.288 314.082 194.305C314.082 192.298 314.49 190.537 315.307 189.02C316.123 187.503 317.267 186.337 318.737 185.52C320.207 184.703 321.898 184.295 323.812 184.295C325.655 184.295 327.3 184.692 328.747 185.485C330.217 186.278 331.348 187.41 332.142 188.88C332.958 190.327 333.367 191.995 333.367 193.885ZM328.292 192.485C328.268 191.225 327.813 190.222 326.927 189.475C326.04 188.705 324.955 188.32 323.672 188.32C322.458 188.32 321.432 188.693 320.592 189.44C319.775 190.163 319.273 191.178 319.087 192.485H328.292ZM344.363 204.315C342.777 204.315 341.353 204.035 340.093 203.475C338.833 202.892 337.83 202.11 337.083 201.13C336.36 200.15 335.963 199.065 335.893 197.875H340.828C340.922 198.622 341.283 199.24 341.913 199.73C342.567 200.22 343.372 200.465 344.328 200.465C345.262 200.465 345.985 200.278 346.498 199.905C347.035 199.532 347.303 199.053 347.303 198.47C347.303 197.84 346.977 197.373 346.323 197.07C345.693 196.743 344.678 196.393 343.278 196.02C341.832 195.67 340.642 195.308 339.708 194.935C338.798 194.562 338.005 193.99 337.328 193.22C336.675 192.45 336.348 191.412 336.348 190.105C336.348 189.032 336.652 188.052 337.258 187.165C337.888 186.278 338.775 185.578 339.918 185.065C341.085 184.552 342.45 184.295 344.013 184.295C346.323 184.295 348.167 184.878 349.543 186.045C350.92 187.188 351.678 188.74 351.818 190.7H347.128C347.058 189.93 346.732 189.323 346.148 188.88C345.588 188.413 344.83 188.18 343.873 188.18C342.987 188.18 342.298 188.343 341.808 188.67C341.342 188.997 341.108 189.452 341.108 190.035C341.108 190.688 341.435 191.19 342.088 191.54C342.742 191.867 343.757 192.205 345.133 192.555C346.533 192.905 347.688 193.267 348.598 193.64C349.508 194.013 350.29 194.597 350.943 195.39C351.62 196.16 351.97 197.187 351.993 198.47C351.993 199.59 351.678 200.593 351.048 201.48C350.442 202.367 349.555 203.067 348.388 203.58C347.245 204.07 345.903 204.315 344.363 204.315ZM358.186 204.245C357.299 204.245 356.564 203.977 355.981 203.44C355.421 202.88 355.141 202.192 355.141 201.375C355.141 200.558 355.421 199.882 355.981 199.345C356.564 198.785 357.299 198.505 358.186 198.505C359.049 198.505 359.761 198.785 360.321 199.345C360.881 199.882 361.161 200.558 361.161 201.375C361.161 202.192 360.881 202.88 360.321 203.44C359.761 203.977 359.049 204.245 358.186 204.245Z" fill="white" fill-opacity="0.87"/>
</svg>
