<svg width="624" height="500" viewBox="0 0 624 500" fill="none" xmlns="http://www.w3.org/2000/svg">
<path d="M311.832 499.436C484.007 499.436 623.582 418.851 623.582 319.445C623.582 220.04 484.007 139.455 311.832 139.455C139.657 139.455 0.081543 220.04 0.081543 319.445C0.081543 418.851 139.657 499.436 311.832 499.436Z" fill="#F0F0F0"/>
<path d="M120.429 350.831L14.0994 289.434L152.325 209.635L258.654 271.019L120.429 350.831Z" fill="#E0E0E0"/>
<path d="M334.318 304.787L180.138 393.801L286.467 455.198L440.648 366.171L334.318 304.787Z" fill="#E0E0E0"/>
<path d="M509.845 388.566C552.11 388.566 586.372 368.783 586.372 344.379C586.372 319.976 552.11 300.193 509.845 300.193C467.58 300.193 433.317 319.976 433.317 344.379C433.317 368.783 467.58 388.566 509.845 388.566Z" fill="#E0E0E0"/>
<path d="M536.872 309.864C536.872 309.864 535.929 292.444 542.186 277.746C548.442 263.048 558.716 252.799 569.475 250.09C580.233 247.381 590.717 255.928 580.22 264.775C569.723 273.623 550.196 284.172 545.026 311.527L536.872 309.864Z" fill="#4675C0"/>
<path opacity="0.15" d="M536.872 309.864C536.872 309.864 535.929 292.444 542.186 277.746C548.442 263.048 558.716 252.799 569.475 250.09C580.233 247.381 590.717 255.928 580.22 264.775C569.723 273.623 550.196 284.172 545.026 311.527L536.872 309.864Z" fill="black"/>
<path d="M539.32 304.891H539.202C539.048 304.857 538.914 304.763 538.829 304.631C538.743 304.499 538.712 304.339 538.744 304.184C545.458 273.911 565.352 258.375 574.933 254.449C575.079 254.392 575.241 254.395 575.385 254.456C575.529 254.517 575.644 254.632 575.705 254.776C575.735 254.847 575.751 254.924 575.751 255.001C575.752 255.079 575.737 255.156 575.708 255.227C575.679 255.299 575.636 255.364 575.581 255.419C575.527 255.474 575.462 255.518 575.391 255.548C566.007 259.475 546.505 274.696 539.895 304.485C539.858 304.607 539.781 304.713 539.677 304.787C539.573 304.86 539.447 304.897 539.32 304.891Z" fill="white"/>
<path d="M541.034 319.248C540.864 317.847 540.733 316.434 540.55 315.047C540.419 314.052 540.039 313.149 539.921 312.128C539.506 309.884 539.808 307.567 540.785 305.505C541.789 303.947 543.04 302.563 544.489 301.409C545.932 300.254 547.174 298.87 548.167 297.312C548.769 296.252 549.123 295.087 549.646 293.987C550.542 292.189 551.855 290.632 553.477 289.445C555.098 288.259 556.98 287.478 558.965 287.168C560.96 286.819 563.006 286.89 564.972 287.378C567.169 288.102 569.485 288.391 571.791 288.229C575.168 287.679 578.336 286.396 581.883 286.252C583.722 286.093 585.573 286.355 587.297 287.017C589.02 287.679 590.57 288.724 591.83 290.074C592.552 290.85 593.071 291.793 593.34 292.818C593.61 293.844 593.621 294.92 593.374 295.951C592.68 298.176 590.495 299.537 588.44 300.649C586.385 301.762 584.173 302.953 583.204 305.086C581.32 309.379 585.822 314.628 583.741 318.842C583.243 319.697 582.577 320.441 581.783 321.031C580.989 321.62 580.083 322.042 579.121 322.271C577.537 322.679 575.934 323.006 574.318 323.253C573.544 323.331 572.765 323.357 571.988 323.331C569.704 323.1 567.406 323.619 565.444 324.81C562.433 326.97 561.91 331.145 560.313 334.483C559.319 336.465 557.906 338.207 556.173 339.59C554.44 340.973 552.427 341.963 550.274 342.493C546.688 343.396 541.113 343.2 540.013 341.694C539.162 340.543 540.877 336.616 540.759 335.15C540.46 331.502 540.508 327.834 540.903 324.195C541.146 322.557 541.19 320.896 541.034 319.248Z" fill="#4675C0"/>
<path d="M541.976 332.324C541.908 332.313 541.843 332.289 541.785 332.252C541.726 332.216 541.676 332.169 541.635 332.113C541.595 332.057 541.567 331.994 541.551 331.927C541.535 331.86 541.533 331.79 541.544 331.722C546.387 299.132 579.199 290.782 587.052 290.455C587.121 290.451 587.19 290.461 587.255 290.484C587.32 290.508 587.379 290.543 587.43 290.589C587.481 290.636 587.523 290.691 587.552 290.754C587.582 290.816 587.599 290.883 587.602 290.952C587.606 291.021 587.596 291.09 587.572 291.155C587.549 291.219 587.514 291.279 587.467 291.33C587.421 291.381 587.365 291.423 587.303 291.452C587.241 291.482 587.174 291.499 587.105 291.502C579.409 291.816 547.316 299.996 542.605 331.879C542.595 331.951 542.571 332.02 542.534 332.082C542.497 332.144 542.447 332.198 542.388 332.239C542.329 332.281 542.262 332.31 542.191 332.325C542.12 332.34 542.047 332.339 541.976 332.324Z" fill="white"/>
<path d="M577.183 312.09C577.13 312.09 577.077 312.08 577.028 312.06C576.978 312.039 576.933 312.01 576.896 311.972C573.511 309.657 569.659 308.116 565.613 307.458C561.566 306.8 557.424 307.041 553.481 308.163C553.345 308.198 553.202 308.177 553.081 308.106C552.961 308.035 552.874 307.919 552.839 307.784C552.805 307.648 552.825 307.505 552.896 307.384C552.967 307.264 553.083 307.177 553.219 307.142C557.316 305.984 561.619 305.744 565.82 306.439C570.021 307.133 574.017 308.745 577.524 311.16C577.631 311.248 577.699 311.374 577.714 311.511C577.729 311.648 577.689 311.786 577.602 311.893C577.554 311.958 577.49 312.009 577.417 312.043C577.344 312.077 577.264 312.093 577.183 312.09Z" fill="white"/>
<path d="M42.9329 300.624C42.218 300.134 41.6278 299.484 41.2096 298.724C40.7914 297.965 40.5568 297.119 40.5247 296.253V79.9553C40.5784 79.0595 40.8437 78.1892 41.2987 77.4157C41.7537 76.6422 42.3855 75.9876 43.1423 75.5053L170.91 1.81817C171.654 1.34411 172.514 1.08286 173.396 1.06278C174.278 1.04269 175.148 1.26453 175.913 1.70423C176.678 2.14393 177.307 2.78468 177.734 3.55695C178.16 4.32923 178.367 5.20352 178.331 6.08494V222.382C178.278 223.28 178.012 224.152 177.557 224.928C177.103 225.703 176.471 226.36 175.714 226.845L47.9326 300.533C47.1649 300.939 46.3123 301.159 45.4437 301.175C44.5751 301.191 43.715 301.002 42.9329 300.624Z" fill="#FAFAFA"/>
<path d="M47.9194 300.532L175.714 226.845C176.471 226.36 177.102 225.703 177.557 224.927C178.012 224.152 178.277 223.28 178.331 222.382V6.08462C178.331 4.44859 177.179 3.78109 175.714 4.60565L47.9455 78.2928C47.1902 78.7766 46.5595 79.4317 46.1047 80.2049C45.6499 80.978 45.3837 81.8475 45.3279 82.7428V299.04C45.3541 300.689 46.5058 301.344 47.9194 300.532Z" fill="#F5F5F5"/>
<path d="M47.5922 300.703C46.8592 301.031 46.0632 301.194 45.2603 301.18C44.4574 301.167 43.6673 300.977 42.9458 300.625C42.2305 300.138 41.6397 299.49 41.2213 298.733C40.8029 297.976 40.5687 297.131 40.5376 296.266V79.9688C40.5693 79.0732 40.8258 78.2001 41.2836 77.4297L46.1394 80.2175C45.6749 80.9809 45.4136 81.8505 45.3803 82.7435V299.054C45.3541 300.559 46.3357 301.24 47.5922 300.703Z" fill="#EBEBEB"/>
<path d="M116.109 55.7032L158.398 31.2281C159.706 30.5083 160.662 31.0972 160.662 32.537V33.4531C160.621 34.24 160.395 35.006 160.002 35.6885C159.608 36.371 159.058 36.9505 158.398 37.3796L116.109 61.8547C114.8 62.5746 113.845 61.9856 113.845 60.5459V59.6297C113.887 58.8434 114.115 58.0781 114.508 57.396C114.901 56.7138 115.45 56.1339 116.109 55.7032Z" fill="#E0E0E0"/>
<path d="M116.109 70.9755L158.398 46.5397C159.706 45.8198 160.662 46.4088 160.662 47.8485V48.7516C160.621 49.5384 160.395 50.3044 160.002 50.987C159.608 51.6695 159.058 52.249 158.398 52.6781L116.109 77.1532C114.8 77.873 113.845 77.2972 113.845 75.8444V74.9413C113.883 74.1486 114.109 73.3763 114.502 72.6872C114.896 71.998 115.446 71.4115 116.109 70.9755Z" fill="#E0E0E0"/>
<path d="M116.109 86.3028L158.398 61.8407C159.706 61.1078 160.662 61.6967 160.662 63.1495V64.0526C160.618 64.8387 160.391 65.6036 159.997 66.2856C159.604 66.9676 159.056 67.5477 158.398 67.9791L116.109 92.4412C114.8 93.1741 113.845 92.5852 113.845 91.1324V90.2293C113.891 89.4436 114.119 88.6795 114.512 87.9978C114.905 87.3161 115.452 86.7357 116.109 86.3028Z" fill="#E0E0E0"/>
<path d="M116.109 101.642L158.398 77.167C159.706 76.4471 160.662 77.023 160.662 78.4758V79.3789C160.62 80.1655 160.394 80.9312 160 81.6135C159.607 82.2958 159.058 82.8756 158.398 83.3054L116.109 107.781C114.8 108.5 113.845 107.911 113.845 106.472V105.569C113.887 104.782 114.115 104.017 114.508 103.335C114.901 102.653 115.45 102.073 116.109 101.642Z" fill="#E0E0E0"/>
<path d="M61.9239 148.197L158.398 92.4928C159.707 91.7729 160.662 92.3619 160.662 93.8016V94.7047C160.622 95.4915 160.395 96.2576 160.002 96.9401C159.608 97.6226 159.059 98.2021 158.398 98.6312L61.9239 154.335C60.6151 155.055 59.6597 154.479 59.6597 153.026V152.123C59.7011 151.337 59.9278 150.571 60.3213 149.889C60.7148 149.206 61.2639 148.626 61.9239 148.197Z" fill="#E0E0E0"/>
<path d="M61.9239 163.642L158.398 107.938C159.707 107.219 160.662 107.795 160.662 109.247V110.15C160.621 110.937 160.394 111.703 160 112.385C159.607 113.067 159.058 113.647 158.398 114.077L61.9239 169.781C60.6151 170.501 59.6597 169.912 59.6597 168.472V167.569C59.7001 166.782 59.9263 166.016 60.3199 165.333C60.7135 164.651 61.2632 164.071 61.9239 163.642Z" fill="#E0E0E0"/>
<path d="M61.9239 178.968L158.398 123.264C159.707 122.544 160.662 123.133 160.662 124.573V125.476C160.622 126.263 160.395 127.029 160.002 127.712C159.608 128.394 159.059 128.974 158.398 129.403L61.9239 185.107C60.6151 185.826 59.6597 185.25 59.6597 183.798V182.895C59.7011 182.108 59.9278 181.342 60.3213 180.66C60.7148 179.978 61.2639 179.398 61.9239 178.968Z" fill="#E0E0E0"/>
<path d="M61.9242 194.294L158.398 138.59C159.707 137.871 160.662 138.46 160.662 139.899V140.776C160.622 141.563 160.396 142.329 160.002 143.012C159.609 143.694 159.059 144.274 158.398 144.703L61.9242 200.433C60.6154 201.166 59.6599 200.577 59.6599 199.124V198.221C59.7034 197.435 59.931 196.67 60.3243 195.988C60.7176 195.306 61.2656 194.726 61.9242 194.294Z" fill="#E0E0E0"/>
<path d="M61.9239 209.632L158.398 153.929C159.707 153.196 160.662 153.785 160.662 155.237V156.141C160.619 156.927 160.391 157.691 159.998 158.374C159.604 159.056 159.056 159.636 158.398 160.067L61.9239 215.771C60.6151 216.491 59.6597 215.902 59.6597 214.462V213.559C59.7001 212.772 59.9263 212.006 60.3199 211.324C60.7135 210.641 61.2632 210.062 61.9239 209.632Z" fill="#E0E0E0"/>
<path d="M61.9242 224.961L158.398 169.257C159.707 168.537 160.662 169.113 160.662 170.566V171.469C160.621 172.255 160.394 173.021 160.001 173.703C159.607 174.386 159.058 174.965 158.398 175.395L61.9242 231.086C60.6154 231.806 59.6599 231.217 59.6599 229.777V228.874C59.7023 228.09 59.9296 227.326 60.323 226.646C60.7165 225.966 61.2652 225.388 61.9242 224.961Z" fill="#E0E0E0"/>
<path d="M61.9239 240.353L158.398 184.649C159.707 183.929 160.662 184.518 160.662 185.958V186.861C160.622 187.648 160.395 188.414 160.002 189.096C159.608 189.779 159.059 190.358 158.398 190.787L61.9239 246.491C60.6151 247.224 59.6597 246.635 59.6597 245.182V244.279C59.7011 243.493 59.9278 242.727 60.3213 242.045C60.7148 241.362 61.2639 240.783 61.9239 240.353Z" fill="#E0E0E0"/>
<path d="M61.9242 255.678L158.398 199.987C159.707 199.254 160.662 199.843 160.662 201.296V202.199C160.619 202.985 160.391 203.75 159.998 204.432C159.605 205.114 159.057 205.694 158.398 206.126L61.9242 261.829C60.6154 262.549 59.6599 261.96 59.6599 260.521V259.604C59.7034 258.818 59.931 258.053 60.3243 257.371C60.7176 256.689 61.2656 256.109 61.9242 255.678Z" fill="#E0E0E0"/>
<path d="M61.9242 271.018L158.398 215.38C159.707 214.66 160.662 215.236 160.662 216.689V217.592C160.621 218.378 160.394 219.144 160.001 219.826C159.607 220.509 159.058 221.088 158.398 221.518L61.9242 277.157C60.6154 277.877 59.6599 277.288 59.6599 275.848V274.945C59.7003 274.158 59.9266 273.392 60.3202 272.709C60.7137 272.027 61.2634 271.447 61.9242 271.018Z" fill="#E0E0E0"/>
<g opacity="0.3">
<path d="M60.262 88.2394L106.778 61.3691L106.791 115.097L60.262 141.967V88.2394Z" fill="black"/>
</g>
<path d="M67.238 93.6577V109.782L68.6908 108.919V103.971C68.8439 102.365 69.3726 100.817 70.2343 99.4531C71.096 98.0889 72.2665 96.9465 73.6513 96.1183L80.5358 92.1918V116.143C80.5095 117.756 80.1051 119.34 79.3549 120.767C78.6047 122.195 77.5297 123.427 76.2166 124.363L71.8844 126.863V128.577L95.1554 115.136V113.434L90.8363 115.921C88.4411 117.308 86.504 115.921 86.504 112.688V88.7365L93.3885 84.81C96.1239 83.2263 98.3489 84.1556 98.3489 86.878V91.8122L99.8017 91.0008V74.8105L67.238 93.6577Z" fill="#FAFAFA"/>
<path d="M80.1689 322.102C79.4518 321.617 78.8591 320.969 78.4385 320.212C78.0178 319.455 77.7812 318.609 77.7476 317.744V101.433C77.8013 100.538 78.0666 99.6674 78.5216 98.8939C78.9766 98.1204 79.6084 97.4657 80.3652 96.9834L208.133 23.2963C208.877 22.8293 209.734 22.5739 210.611 22.5575C211.489 22.5411 212.355 22.7642 213.115 23.203C213.876 23.6418 214.502 24.2796 214.928 25.0479C215.353 25.8161 215.56 26.6857 215.528 27.5631V243.86C215.474 244.758 215.209 245.63 214.754 246.406C214.299 247.181 213.668 247.838 212.91 248.324L85.1425 322.011C84.378 322.413 83.5301 322.631 82.6665 322.646C81.8029 322.662 80.9476 322.476 80.1689 322.102Z" fill="#FAFAFA"/>
<path d="M85.1561 322.01L212.924 248.323C213.681 247.838 214.313 247.18 214.768 246.405C215.223 245.629 215.488 244.757 215.542 243.859V27.5622C215.542 25.9261 214.39 25.2586 212.924 26.0832L85.1431 99.7703C84.3877 100.254 83.757 100.909 83.3022 101.682C82.8474 102.456 82.5812 103.325 82.5254 104.22V320.518C82.5777 322.167 83.7295 322.821 85.1561 322.01Z" fill="#F5F5F5"/>
<path d="M84.8154 322.181C84.0688 322.578 83.2307 322.77 82.3857 322.74C81.5406 322.709 80.7187 322.456 80.0029 322.006C79.2871 321.555 78.7029 320.924 78.3092 320.176C77.9155 319.428 77.7264 318.589 77.7608 317.744V101.512C77.7925 100.616 78.0491 99.743 78.5069 98.9727L83.3364 101.76C82.872 102.524 82.6106 103.394 82.5773 104.287V320.531C82.5773 322.037 83.5589 322.704 84.8154 322.181Z" fill="#EBEBEB"/>
<path d="M153.346 77.1281L195.634 52.6529C196.877 51.9331 197.898 52.5221 197.898 53.9618V54.8649C197.856 55.6512 197.629 56.4165 197.235 57.0986C196.842 57.7808 196.293 58.3607 195.634 58.7914L153.333 83.2665C152.024 83.9863 151.068 83.3974 151.068 81.9576V81.0545C151.112 80.267 151.341 79.501 151.737 78.8188C152.133 78.1365 152.684 77.5572 153.346 77.1281Z" fill="#E0E0E0"/>
<path d="M153.346 92.4542L195.634 67.9791C196.877 67.2592 197.898 67.8482 197.898 69.2879V70.191C197.856 70.9774 197.629 71.7426 197.235 72.4248C196.842 73.107 196.293 73.6869 195.634 74.1175L153.333 98.5926C152.024 99.3125 151.068 98.7366 151.068 97.2838V96.3807C151.112 95.5932 151.341 94.8272 151.737 94.1449C152.133 93.4627 152.684 92.8834 153.346 92.4542Z" fill="#E0E0E0"/>
<path d="M153.346 107.781L195.634 83.3192C196.877 82.5863 197.898 83.1753 197.898 84.6281V85.5311C197.853 86.3168 197.624 87.0809 197.231 87.7626C196.838 88.4443 196.291 89.0247 195.634 89.4576L153.333 113.933C152.024 114.653 151.068 114.064 151.068 112.624V111.708C151.114 110.921 151.344 110.156 151.74 109.474C152.135 108.792 152.685 108.212 153.346 107.781Z" fill="#E0E0E0"/>
<path d="M153.346 123.121L195.634 98.6455C196.877 97.9257 197.898 98.5015 197.898 99.9544V100.857C197.854 101.643 197.626 102.408 197.233 103.09C196.839 103.772 196.292 104.352 195.634 104.784L153.333 129.259C152.024 129.979 151.068 129.39 151.068 127.95V127.047C151.111 126.259 151.34 125.493 151.736 124.811C152.132 124.128 152.683 123.549 153.346 123.121Z" fill="#E0E0E0"/>
<path d="M99.1473 169.675L195.634 113.971C196.878 113.251 197.899 113.84 197.899 115.28V116.183C197.856 116.97 197.629 117.735 197.236 118.417C196.842 119.099 196.294 119.679 195.634 120.11L99.1473 175.814C97.8385 176.533 96.8831 175.958 96.8831 174.505V173.602C96.9276 172.816 97.1556 172.051 97.5488 171.369C97.942 170.688 98.4895 170.107 99.1473 169.675Z" fill="#E0E0E0"/>
<path d="M99.1473 185.118L195.634 129.415C196.878 128.695 197.899 129.284 197.899 130.723V131.613C197.854 132.399 197.626 133.164 197.233 133.846C196.84 134.528 196.292 135.108 195.634 135.54L99.1473 191.257C97.8385 191.977 96.8831 191.388 96.8831 189.948V189.045C96.9255 188.259 97.1527 187.493 97.5461 186.811C97.9395 186.129 98.488 185.549 99.1473 185.118Z" fill="#E0E0E0"/>
<path d="M99.1473 200.447L195.634 144.704C196.878 143.984 197.899 144.573 197.899 146.013V146.916C197.856 147.702 197.629 148.467 197.236 149.149C196.842 149.832 196.294 150.412 195.634 150.842L99.1473 206.585C97.8385 207.305 96.8831 206.729 96.8831 205.276V204.373C96.9276 203.587 97.1556 202.823 97.5488 202.141C97.942 201.459 98.4895 200.879 99.1473 200.447Z" fill="#E0E0E0"/>
<path d="M99.1473 215.771L195.634 160.067C196.878 159.347 197.899 159.936 197.899 161.376V162.292C197.853 163.078 197.625 163.842 197.231 164.523C196.838 165.205 196.291 165.786 195.634 166.218L99.1473 221.922C97.8385 222.655 96.8831 222.066 96.8831 220.613V219.71C96.9266 218.923 97.1541 218.156 97.5473 217.472C97.9405 216.788 98.4885 216.205 99.1473 215.771Z" fill="#E0E0E0"/>
<path d="M99.1473 231.086L195.634 175.382C196.878 174.649 197.899 175.238 197.899 176.691V177.594C197.854 178.38 197.626 179.144 197.233 179.826C196.84 180.508 196.292 181.088 195.634 181.52L99.1473 237.25C97.8385 237.97 96.8831 237.381 96.8831 235.941V235.012C96.9255 234.226 97.1527 233.46 97.5461 232.778C97.9395 232.096 98.488 231.516 99.1473 231.086Z" fill="#E0E0E0"/>
<path d="M99.1473 246.439L195.634 190.735C196.878 190.015 197.899 190.604 197.899 192.044V192.947C197.854 193.733 197.626 194.497 197.233 195.179C196.84 195.861 196.292 196.441 195.634 196.873L99.1473 252.577C97.8385 253.297 96.8831 252.708 96.8831 251.268V250.365C96.9255 249.579 97.1527 248.814 97.5461 248.132C97.9395 247.449 98.488 246.869 99.1473 246.439Z" fill="#E0E0E0"/>
<path d="M99.1473 261.831L195.634 206.128C196.878 205.408 197.899 205.997 197.899 207.436V208.339C197.856 209.126 197.629 209.891 197.236 210.573C196.842 211.255 196.294 211.835 195.634 212.266L99.1473 267.97C97.8385 268.703 96.8831 268.114 96.8831 266.661V265.758C96.9286 264.972 97.157 264.208 97.5502 263.526C97.9433 262.845 98.4902 262.264 99.1473 261.831Z" fill="#E0E0E0"/>
<path d="M99.1473 277.17L195.634 221.466C196.878 220.733 197.899 221.322 197.899 222.775V223.678C197.853 224.463 197.625 225.227 197.231 225.909C196.838 226.591 196.291 227.171 195.634 227.604L99.1473 283.308C97.8385 284.028 96.8831 283.439 96.8831 281.999V281.096C96.9255 280.31 97.1527 279.544 97.5461 278.862C97.9395 278.18 98.488 277.6 99.1473 277.17Z" fill="#E0E0E0"/>
<path d="M99.1473 292.496L195.634 236.792C196.878 236.072 197.899 236.648 197.899 238.101V239.004C197.854 239.79 197.626 240.554 197.233 241.236C196.84 241.918 196.292 242.498 195.634 242.93L99.1473 298.634C97.8385 299.354 96.8831 298.765 96.8831 297.325V296.422C96.9255 295.636 97.1527 294.871 97.5461 294.189C97.9395 293.506 98.488 292.926 99.1473 292.496Z" fill="#E0E0E0"/>
<g opacity="0.3">
<path d="M97.4854 109.719L144.014 82.8613V136.576L97.4854 163.446V109.719Z" fill="black"/>
</g>
<path d="M104.461 115.096V131.208L105.927 130.344V125.397C106.077 123.792 106.604 122.244 107.463 120.88C108.323 119.516 109.491 118.373 110.874 117.544L117.759 113.617V137.569C117.732 139.182 117.328 140.765 116.578 142.193C115.828 143.621 114.753 144.852 113.44 145.788L109.12 148.288V150.003L132.378 136.561V134.86L128.059 137.346C125.677 138.734 123.74 137.346 123.74 134.114V110.162L130.611 106.236C133.36 104.652 135.572 105.581 135.572 108.304V113.238L137.038 112.426V96.2754L104.461 115.096Z" fill="#FAFAFA"/>
<path d="M117.392 343.646C116.675 343.16 116.082 342.513 115.662 341.756C115.241 340.999 115.005 340.153 114.971 339.288V122.925C115.023 122.027 115.287 121.154 115.742 120.378C116.197 119.602 116.83 118.945 117.589 118.462L245.357 44.7748C246.1 44.3079 246.957 44.0524 247.835 44.036C248.713 44.0196 249.578 44.2428 250.339 44.6816C251.099 45.1203 251.726 45.7582 252.151 46.5264C252.576 47.2946 252.784 48.1642 252.752 49.0416V265.339C252.698 266.236 252.432 267.109 251.978 267.884C251.523 268.66 250.891 269.317 250.134 269.802L122.366 343.489C121.608 343.905 120.762 344.135 119.898 344.163C119.034 344.19 118.175 344.013 117.392 343.646Z" fill="#FAFAFA"/>
<path d="M122.379 343.488L250.147 269.801C250.904 269.316 251.536 268.659 251.991 267.883C252.446 267.108 252.711 266.236 252.765 265.338V49.0407C252.765 47.4046 251.613 46.7371 250.147 47.5617L122.366 121.249C121.611 121.733 120.98 122.388 120.525 123.161C120.07 123.934 119.804 124.804 119.748 125.699V341.996C119.801 343.645 120.952 344.313 122.379 343.488Z" fill="#F5F5F5"/>
<path d="M122.052 343.646C121.305 344.043 120.467 344.236 119.622 344.205C118.777 344.174 117.955 343.921 117.239 343.471C116.523 343.021 115.939 342.39 115.546 341.641C115.152 340.893 114.963 340.054 114.997 339.209V122.925C115.029 122.029 115.285 121.156 115.743 120.386L120.573 123.174C120.108 123.937 119.847 124.807 119.814 125.7V342.01C119.801 343.515 120.743 344.196 122.052 343.646Z" fill="#EBEBEB"/>
<path d="M190.569 98.6056L232.857 74.1305C234.166 73.4106 235.122 73.9996 235.122 75.4393V76.3424C235.079 77.1287 234.852 77.894 234.459 78.5762C234.065 79.2584 233.517 79.8383 232.857 80.2689L190.569 104.744C189.26 105.464 188.292 104.888 188.292 103.435V102.532C188.336 101.745 188.565 100.979 188.961 100.296C189.356 99.614 189.907 99.0348 190.569 98.6056Z" fill="#E0E0E0"/>
<path d="M190.569 113.933L232.857 89.4706C234.166 88.7377 235.122 89.3266 235.122 90.7794V91.6825C235.076 92.4681 234.848 93.2322 234.455 93.9139C234.061 94.5956 233.515 95.1761 232.857 95.609L190.569 120.071C189.26 120.804 188.292 120.215 188.292 118.762V117.859C188.338 117.072 188.568 116.307 188.963 115.625C189.359 114.943 189.909 114.363 190.569 113.933Z" fill="#E0E0E0"/>
<path d="M190.569 129.273L232.857 104.798C234.166 104.078 235.122 104.654 235.122 106.107V107.01C235.077 107.796 234.849 108.56 234.456 109.242C234.063 109.924 233.515 110.504 232.857 110.936L190.569 135.411C189.26 136.131 188.292 135.542 188.292 134.103V133.199C188.335 132.412 188.563 131.645 188.959 130.963C189.355 130.28 189.907 129.701 190.569 129.273Z" fill="#E0E0E0"/>
<path d="M190.569 144.599L232.857 120.124C234.166 119.404 235.122 119.993 235.122 121.432V122.336C235.079 123.122 234.852 123.887 234.459 124.569C234.065 125.252 233.517 125.831 232.857 126.262L190.569 150.737C189.26 151.457 188.292 150.868 188.292 149.428V148.525C188.335 147.738 188.563 146.971 188.959 146.289C189.355 145.606 189.907 145.027 190.569 144.599Z" fill="#E0E0E0"/>
<path d="M136.37 191.154L232.857 135.45C234.166 134.73 235.121 135.319 235.121 136.759V137.662C235.079 138.448 234.852 139.213 234.458 139.896C234.065 140.578 233.517 141.158 232.857 141.588L136.37 197.292C135.061 198.012 134.106 197.436 134.106 195.983V195.08C134.15 194.294 134.378 193.53 134.772 192.848C135.165 192.166 135.712 191.586 136.37 191.154Z" fill="#E0E0E0"/>
<path d="M136.37 206.598L232.857 150.894C234.166 150.174 235.121 150.763 235.121 152.203V153.106C235.079 153.892 234.852 154.658 234.458 155.34C234.065 156.022 233.517 156.602 232.857 157.033L136.37 212.763C135.061 213.482 134.106 212.907 134.106 211.454V210.551C134.146 209.76 134.373 208.991 134.766 208.304C135.159 207.617 135.709 207.033 136.37 206.598Z" fill="#E0E0E0"/>
<path d="M136.37 221.924L232.857 166.22C234.166 165.5 235.121 166.089 235.121 167.529V168.432C235.079 169.219 234.852 169.984 234.458 170.666C234.065 171.348 233.517 171.928 232.857 172.359L136.37 228.063C135.061 228.795 134.106 228.207 134.106 226.754V225.851C134.151 225.065 134.38 224.301 134.773 223.619C135.166 222.938 135.713 222.357 136.37 221.924Z" fill="#E0E0E0"/>
<path d="M136.37 237.263L232.857 181.559C234.166 180.827 235.121 181.415 235.121 182.868V183.771C235.076 184.557 234.847 185.321 234.454 186.003C234.061 186.685 233.514 187.265 232.857 187.698L136.37 243.402C135.061 244.122 134.106 243.533 134.106 242.093V241.19C134.148 240.403 134.376 239.638 134.769 238.956C135.162 238.274 135.711 237.694 136.37 237.263Z" fill="#E0E0E0"/>
<path d="M136.37 252.591L232.857 196.887C234.166 196.167 235.121 196.743 235.121 198.196V199.099C235.077 199.885 234.849 200.649 234.456 201.331C234.063 202.013 233.515 202.593 232.857 203.025L136.37 258.729C135.061 259.449 134.106 258.86 134.106 257.42V256.517C134.148 255.731 134.376 254.965 134.769 254.283C135.162 253.601 135.711 253.021 136.37 252.591Z" fill="#E0E0E0"/>
<path d="M136.37 267.916L232.857 212.213C234.166 211.493 235.121 212.082 235.121 213.521V214.424C235.079 215.211 234.852 215.976 234.458 216.658C234.065 217.34 233.517 217.92 232.857 218.351L136.37 274.055C135.061 274.775 134.106 274.199 134.106 272.746V271.843C134.15 271.057 134.378 270.292 134.772 269.611C135.165 268.929 135.712 268.348 136.37 267.916Z" fill="#E0E0E0"/>
<path d="M136.37 283.31L232.857 227.606C234.166 226.886 235.121 227.475 235.121 228.915V229.831C235.076 230.617 234.847 231.381 234.454 232.063C234.061 232.744 233.514 233.325 232.857 233.758L136.37 289.448C135.061 290.181 134.106 289.592 134.106 288.139V287.236C134.151 286.451 134.38 285.687 134.773 285.005C135.166 284.323 135.713 283.743 136.37 283.31Z" fill="#E0E0E0"/>
<path d="M136.37 298.648L232.857 242.944C234.166 242.224 235.121 242.8 235.121 244.253V245.156C235.077 245.942 234.849 246.707 234.456 247.388C234.063 248.07 233.515 248.651 232.857 249.083L136.37 304.787C135.061 305.506 134.106 304.917 134.106 303.478V302.575C134.148 301.788 134.376 301.023 134.769 300.341C135.162 299.659 135.711 299.079 136.37 298.648Z" fill="#E0E0E0"/>
<path d="M136.37 313.975L232.857 258.271C234.166 257.551 235.121 258.14 235.121 259.58V260.483C235.077 261.269 234.849 262.033 234.456 262.715C234.063 263.397 233.515 263.977 232.857 264.41L136.37 320.087C135.061 320.807 134.106 320.218 134.106 318.778V317.875C134.152 317.093 134.381 316.333 134.775 315.656C135.168 314.979 135.714 314.403 136.37 313.975Z" fill="#E0E0E0"/>
<path d="M134.708 131.196L181.237 104.339V158.066L134.708 184.924V131.196Z" fill="#4675C0"/>
<path d="M141.684 136.574V152.686L143.15 151.822V146.875C143.301 145.268 143.829 143.72 144.691 142.355C145.553 140.991 146.725 139.849 148.111 139.022L154.982 135.096V159.099C154.956 160.712 154.551 162.296 153.801 163.723C153.051 165.151 151.976 166.383 150.663 167.319L146.344 169.819V171.533L169.602 158.105V156.351L165.283 158.851C162.9 160.225 160.963 158.772 160.963 155.618V131.614L167.835 127.688C170.583 126.104 172.795 127.033 172.795 129.755V134.703L174.261 133.878V117.767L141.684 136.574Z" fill="#FAFAFA"/>
<path d="M196.157 381.104L287.631 433.915L429.941 351.76L338.453 298.948L196.157 381.104Z" fill="#263238"/>
<path d="M287.644 433.956L196.157 381.145V389.744C196.212 390.684 196.485 391.598 196.955 392.414C197.426 393.229 198.08 393.924 198.867 394.442L211.405 401.68V395.803L267.331 428.04V433.956L284.961 444.125C285.785 444.601 286.719 444.851 287.671 444.851C288.622 444.851 289.556 444.601 290.38 444.125L287.671 442.555L287.644 433.956Z" fill="#37474F"/>
<path d="M429.928 351.76V360.372C429.879 361.31 429.609 362.223 429.141 363.037C428.672 363.852 428.018 364.544 427.232 365.057L414.693 372.295V366.432L307.971 428.038V433.954L290.354 444.124C288.849 444.988 287.645 444.281 287.645 442.553V433.954L429.928 351.76Z" fill="#455A64"/>
<path d="M211.405 401.641L216.496 398.71L211.405 395.765V401.641Z" fill="#263238"/>
<path d="M414.693 372.298L409.601 369.366L414.693 366.435V372.298Z" fill="#37474F"/>
<path d="M427.179 349.393C428.002 348.853 428.686 348.128 429.177 347.275C429.668 346.423 429.952 345.467 430.006 344.485V286.373L339.631 234.189L315.758 247.998V309.382L406.068 361.565L427.179 349.393Z" fill="#4675C0"/>
<path opacity="0.7" d="M427.179 349.393C428.002 348.853 428.686 348.128 429.177 347.275C429.668 346.423 429.952 345.467 430.006 344.485V286.373L339.631 234.189L315.758 247.998V309.382L406.068 361.565L427.179 349.393Z" fill="white"/>
<path d="M315.719 247.996V309.38L406.094 361.563V300.179L315.719 247.996Z" fill="#4675C0"/>
<path opacity="0.3" d="M315.719 247.996V309.38L406.094 361.563V300.179L315.719 247.996Z" fill="black"/>
<path d="M315.719 247.998L339.632 234.189L430.006 286.373L406.094 300.181L315.719 247.998Z" fill="#4675C0"/>
<path opacity="0.15" d="M315.719 247.998L339.632 234.189L430.006 286.373L406.094 300.181L315.719 247.998Z" fill="black"/>
<path d="M206.719 381.524L265.198 415.292V403.015L206.719 369.247V381.524Z" fill="#4675C0"/>
<path opacity="0.15" d="M206.719 381.524L265.198 415.292V403.015L206.719 369.247V381.524Z" fill="black"/>
<path d="M289.294 428.994L400.545 364.743C401.367 364.204 402.052 363.478 402.543 362.626C403.034 361.773 403.318 360.817 403.372 359.835V344.692L312.997 292.509L196.04 360.031V375.188C196.093 376.172 196.379 377.129 196.872 377.982C197.366 378.835 198.054 379.559 198.88 380.096L206.733 384.598V375.436L265.212 409.204V418.366L283.64 429.007C284.516 429.454 285.485 429.686 286.469 429.683C287.452 429.681 288.421 429.445 289.294 428.994Z" fill="#4675C0"/>
<path opacity="0.5" d="M289.294 428.994L400.545 364.743C401.367 364.204 402.052 363.478 402.543 362.626C403.034 361.773 403.318 360.817 403.372 359.835V344.692L312.997 292.509L196.04 360.031V375.188C196.093 376.172 196.379 377.129 196.872 377.982C197.366 378.835 198.054 379.559 198.88 380.096L206.733 384.598V375.436L265.212 409.204V418.366L283.64 429.007C284.516 429.454 285.485 429.686 286.469 429.683C287.452 429.681 288.421 429.445 289.294 428.994Z" fill="white"/>
<path d="M286.467 412.214L403.424 344.692L313.049 292.509L196.079 360.031L286.467 412.214Z" fill="#4675C0"/>
<path opacity="0.15" d="M286.467 412.214L403.424 344.692L313.049 292.509L196.079 360.031L286.467 412.214Z" fill="black"/>
<path d="M403.45 344.693V363.109L289.32 428.995C287.762 429.898 286.493 429.165 286.493 427.359V412.216L403.45 344.693Z" fill="#4675C0"/>
<path opacity="0.7" d="M403.45 344.693V363.109L289.32 428.995C287.762 429.898 286.493 429.165 286.493 427.359V412.216L403.45 344.693Z" fill="white"/>
<path d="M206.719 384.599L209.376 383.054V376.916L206.719 375.385V384.599Z" fill="#4675C0"/>
<path opacity="0.35" d="M206.719 384.599L209.376 383.054V376.916L206.719 375.385V384.599Z" fill="black"/>
<path d="M299.751 410.685C301.23 409.834 302.369 410.528 302.369 412.217C302.324 413.136 302.063 414.032 301.609 414.832C301.154 415.632 300.518 416.314 299.751 416.824C298.272 417.674 297.134 416.981 297.134 415.292C297.179 414.373 297.439 413.477 297.894 412.677C298.348 411.877 298.985 411.194 299.751 410.685Z" fill="#455A64"/>
<path d="M392.796 356.97V360.032C392.796 361.734 390.257 364.574 387.129 366.38L318.716 405.881C315.588 407.687 313.049 407.779 313.049 406.077V403.014L392.796 356.97Z" fill="#455A64"/>
<path d="M289.293 407.517L400.544 343.254C401.373 342.729 402.067 342.018 402.572 341.177C403.076 340.337 403.377 339.389 403.449 338.411V323.203L313.075 271.02L196.118 338.555V353.698C196.171 354.682 196.456 355.64 196.95 356.493C197.443 357.346 198.131 358.07 198.958 358.606L283.665 407.517C284.539 407.956 285.502 408.184 286.479 408.184C287.456 408.184 288.42 407.956 289.293 407.517Z" fill="#4675C0"/>
<path opacity="0.5" d="M289.293 407.517L400.544 343.254C401.373 342.729 402.067 342.018 402.572 341.177C403.076 340.337 403.377 339.389 403.449 338.411V323.203L313.075 271.02L196.118 338.555V353.698C196.171 354.682 196.456 355.64 196.95 356.493C197.443 357.346 198.131 358.07 198.958 358.606L283.665 407.517C284.539 407.956 285.502 408.184 286.479 408.184C287.456 408.184 288.42 407.956 289.293 407.517Z" fill="white"/>
<path d="M286.467 390.738L403.424 323.203L313.049 271.02L196.079 338.555L286.467 390.738Z" fill="#4675C0"/>
<path opacity="0.15" d="M286.467 390.738L403.424 323.203L313.049 271.02L196.079 338.555L286.467 390.738Z" fill="black"/>
<path d="M403.45 323.203V341.618L289.32 407.518C287.762 408.421 286.493 407.675 286.493 405.882V390.765L403.45 323.203Z" fill="#4675C0"/>
<path opacity="0.7" d="M403.45 323.203V341.618L289.32 407.518C287.762 408.421 286.493 407.675 286.493 405.882V390.765L403.45 323.203Z" fill="white"/>
<path d="M299.751 389.194C301.23 388.356 302.369 389.037 302.369 390.738C302.324 391.656 302.063 392.55 301.609 393.348C301.154 394.146 300.518 394.826 299.751 395.332C298.272 396.183 297.134 395.502 297.134 393.801C297.181 392.882 297.442 391.987 297.896 391.187C298.351 390.387 298.986 389.705 299.751 389.194Z" fill="#455A64"/>
<path d="M392.796 335.479V338.555C392.796 340.244 390.257 343.084 387.129 344.89L318.716 384.39C315.588 386.197 313.049 386.288 313.049 384.6V381.524L392.796 335.479Z" fill="#455A64"/>
<path d="M289.294 386.027L400.544 321.776C401.367 321.237 402.051 320.511 402.542 319.659C403.033 318.806 403.317 317.851 403.371 316.868V301.764L313.049 249.542L196.092 317.065V332.208C196.145 333.192 196.43 334.149 196.924 335.002C197.417 335.855 198.105 336.579 198.932 337.116L283.639 386.027C284.516 386.47 285.484 386.7 286.467 386.7C287.449 386.7 288.417 386.47 289.294 386.027Z" fill="#4675C0"/>
<path opacity="0.5" d="M289.294 386.027L400.544 321.776C401.367 321.237 402.051 320.511 402.542 319.659C403.033 318.806 403.317 317.851 403.371 316.868V301.764L313.049 249.542L196.092 317.065V332.208C196.145 333.192 196.43 334.149 196.924 335.002C197.417 335.855 198.105 336.579 198.932 337.116L283.639 386.027C284.516 386.47 285.484 386.7 286.467 386.7C287.449 386.7 288.417 386.47 289.294 386.027Z" fill="white"/>
<path d="M286.467 369.248L403.424 301.725L313.049 249.542L196.079 317.065L286.467 369.248Z" fill="#4675C0"/>
<path opacity="0.15" d="M286.467 369.248L403.424 301.725L313.049 249.542L196.079 317.065L286.467 369.248Z" fill="black"/>
<path d="M403.45 301.765V320.088L289.32 385.975C287.762 386.878 286.493 386.145 286.493 384.339V369.248L403.45 301.765Z" fill="#4675C0"/>
<path opacity="0.7" d="M403.45 301.765V320.088L289.32 385.975C287.762 386.878 286.493 386.145 286.493 384.339V369.248L403.45 301.765Z" fill="white"/>
<path d="M299.751 367.714C301.23 366.864 302.369 367.557 302.369 369.246C302.324 370.165 302.063 371.061 301.609 371.861C301.154 372.661 300.518 373.344 299.751 373.853C298.272 374.704 297.134 374.01 297.134 372.322C297.179 371.402 297.439 370.506 297.894 369.706C298.348 368.906 298.985 368.224 299.751 367.714Z" fill="#455A64"/>
<path d="M392.796 314.001V317.064C392.796 318.765 390.257 321.605 387.129 323.411L318.716 362.899C315.588 364.718 313.049 364.797 313.049 363.108V360.033L392.796 314.001Z" fill="#455A64"/>
<path d="M286.467 366.172L430.006 283.296V215.774L339.632 163.591L196.079 246.466V314.002L286.467 366.172Z" fill="#4675C0"/>
<path opacity="0.7" d="M286.467 366.172L430.006 283.296V215.774L339.632 163.591L196.079 246.466V314.002L286.467 366.172Z" fill="white"/>
<path d="M430.006 215.774L286.467 298.649L196.079 246.466L339.632 163.591L430.006 215.774Z" fill="#263238"/>
<path d="M286.467 323.203V366.171L196.079 314.002V271.02L286.467 323.203Z" fill="#4675C0"/>
<path opacity="0.5" d="M286.467 323.203V366.171L196.079 314.002V271.02L286.467 323.203Z" fill="white"/>
<path d="M196.079 246.465V271.019L286.467 323.202V298.648L196.079 246.465Z" fill="#37474F"/>
<path d="M286.466 298.649L414.064 224.975V243.403C414.057 245.261 413.562 247.085 412.63 248.693C411.697 250.301 410.36 251.636 408.75 252.565L286.466 323.163V298.649Z" fill="#455A64"/>
<path d="M408.75 243.403C408.75 241.702 407.559 241.021 406.133 241.859C405.367 242.37 404.732 243.052 404.278 243.852C403.823 244.652 403.562 245.547 403.515 246.466C403.515 248.167 404.706 248.848 406.133 247.997C406.899 247.491 407.535 246.811 407.99 246.013C408.445 245.215 408.705 244.321 408.75 243.403Z" fill="#FAFAFA"/>
<path d="M395.283 248.101L379.681 257.106C378.871 257.613 378.191 258.303 377.697 259.122C377.204 259.941 376.91 260.865 376.841 261.818C376.841 263.506 378.15 264.148 379.681 263.245L395.283 254.24C396.089 253.733 396.764 253.043 397.255 252.227C397.746 251.411 398.039 250.491 398.11 249.541C398.11 247.84 396.906 247.198 395.283 248.101Z" fill="#FAFAFA"/>
<path d="M430.006 203.496V212.658L414.064 221.82V212.658C414.061 203.324 411.601 194.156 406.933 186.074C402.265 177.992 395.552 171.28 387.469 166.613L323.677 129.783L339.631 120.621L403.45 157.438C411.528 162.11 418.235 168.826 422.897 176.91C427.558 184.995 430.01 194.164 430.006 203.496Z" fill="#4675C0"/>
<path opacity="0.7" d="M430.006 203.496V212.658L414.064 221.82V212.658C414.061 203.324 411.601 194.156 406.933 186.074C402.265 177.992 395.552 171.28 387.469 166.613L323.677 129.783L339.631 120.621L403.45 157.438C411.528 162.11 418.235 168.826 422.897 176.91C427.558 184.995 430.01 194.164 430.006 203.496Z" fill="white"/>
<path d="M286.467 286.371V295.533L196.079 243.363V203.496L259.885 240.327C267.966 244.994 274.677 251.706 279.343 259.788C284.009 267.871 286.466 277.039 286.467 286.371Z" fill="#37474F"/>
<path d="M414.065 212.764V221.926L286.467 295.587V286.425C286.466 277.089 284.007 267.918 279.339 259.834C274.671 251.749 267.957 245.035 259.871 240.367L196.079 203.537L323.677 129.876L387.469 166.706C395.554 171.374 402.268 178.088 406.937 186.173C411.605 194.257 414.064 203.428 414.065 212.764Z" fill="#455A64"/>
<path d="M217.347 360.034V314.002L220.004 312.458L257.227 333.949V379.994L254.571 381.525L217.347 360.034Z" fill="#4675C0"/>
<path opacity="0.15" d="M217.347 360.034V314.002L220.004 312.458L257.227 333.949V379.994L254.571 381.525L217.347 360.034Z" fill="black"/>
<path d="M217.347 360.033V314.001L254.571 335.479V381.524L217.347 360.033Z" fill="#4675C0"/>
<path opacity="0.6" d="M217.347 360.033V314.001L254.571 335.479V381.524L217.347 360.033Z" fill="white"/>
<path d="M220.004 312.458L217.347 314.002L254.571 335.48L257.227 333.949L220.004 312.458Z" fill="#4675C0"/>
<path opacity="0.8" d="M220.004 312.458L217.347 314.002L254.571 335.48L257.227 333.949L220.004 312.458Z" fill="white"/>
<path d="M365.9 169.938C365.885 169.695 365.802 169.46 365.661 169.261C365.52 169.063 365.326 168.907 365.101 168.812L326.569 146.562C325.964 146.244 325.29 146.077 324.606 146.077C323.922 146.077 323.248 146.244 322.643 146.562L265.944 179.283C265.722 179.377 265.529 179.53 265.388 179.727C265.247 179.923 265.163 180.155 265.146 180.396V182.163C265.166 182.401 265.251 182.63 265.391 182.824C265.532 183.018 265.723 183.169 265.944 183.262L304.476 205.512C305.084 205.824 305.757 205.987 306.44 205.987C307.122 205.987 307.796 205.824 308.403 205.512L365.101 172.791C365.32 172.692 365.509 172.537 365.649 172.342C365.789 172.146 365.876 171.918 365.9 171.679V169.938Z" fill="#EBEBEB"/>
<path d="M266.023 179.309L322.722 146.589C323.327 146.27 324.001 146.104 324.685 146.104C325.369 146.104 326.043 146.27 326.648 146.589L365.18 168.839C365.416 168.916 365.621 169.066 365.766 169.267C365.912 169.468 365.99 169.71 365.99 169.958C365.99 170.206 365.912 170.448 365.766 170.649C365.621 170.85 365.416 170.999 365.18 171.077L308.481 203.798C307.874 204.11 307.201 204.273 306.518 204.273C305.835 204.273 305.162 204.11 304.555 203.798L266.023 181.548C265.793 181.464 265.595 181.312 265.455 181.111C265.315 180.911 265.24 180.673 265.24 180.429C265.24 180.184 265.315 179.946 265.455 179.746C265.595 179.545 265.793 179.393 266.023 179.309Z" fill="white"/>
<path d="M306.465 204.241V205.995C305.79 206.007 305.123 205.845 304.528 205.524L266.009 183.274C265.787 183.174 265.595 183.017 265.453 182.82C265.31 182.622 265.223 182.391 265.198 182.148V180.395C265.217 180.637 265.302 180.87 265.446 181.066C265.589 181.263 265.784 181.415 266.009 181.507L304.528 203.757C305.122 204.083 305.789 204.25 306.465 204.241Z" fill="#4675C0"/>
<path d="M365.9 167.203C365.885 166.96 365.802 166.726 365.661 166.527C365.52 166.328 365.326 166.172 365.101 166.078L326.569 143.828C325.962 143.515 325.289 143.353 324.606 143.353C323.923 143.353 323.25 143.515 322.643 143.828L265.944 176.549C265.722 176.642 265.529 176.796 265.388 176.992C265.247 177.188 265.163 177.42 265.146 177.661V179.428C265.17 179.667 265.257 179.896 265.397 180.091C265.537 180.286 265.726 180.441 265.944 180.54L304.476 202.791C305.084 203.103 305.757 203.266 306.44 203.266C307.122 203.266 307.796 203.103 308.403 202.791L365.101 170.07C365.322 169.977 365.514 169.826 365.654 169.632C365.795 169.438 365.88 169.209 365.9 168.97V167.203Z" fill="#EBEBEB"/>
<path d="M266.023 176.574L322.722 143.853C323.329 143.541 324.002 143.378 324.685 143.378C325.368 143.378 326.041 143.541 326.648 143.853L365.18 166.103C366.253 166.731 366.253 167.726 365.18 168.341L308.481 201.062C307.876 201.381 307.202 201.547 306.518 201.547C305.834 201.547 305.16 201.381 304.555 201.062L266.023 178.812C265.793 178.728 265.595 178.576 265.455 178.376C265.315 178.176 265.24 177.937 265.24 177.693C265.24 177.449 265.315 177.21 265.455 177.01C265.595 176.81 265.793 176.658 266.023 176.574Z" fill="white"/>
<path d="M306.465 201.52V203.261C305.791 203.277 305.124 203.12 304.528 202.803L266.023 180.566C265.802 180.467 265.611 180.313 265.469 180.117C265.327 179.922 265.238 179.693 265.211 179.453V177.687C265.227 177.931 265.312 178.167 265.455 178.366C265.599 178.565 265.795 178.719 266.023 178.812L304.542 201.062C305.133 201.377 305.796 201.534 306.465 201.52Z" fill="#4675C0"/>
<path d="M212.033 200.421L270.511 234.189L339.631 194.283V175.868L281.152 142.087L227.988 172.792C223.137 175.588 219.108 179.613 216.307 184.461C213.506 189.309 212.032 194.809 212.033 200.408V200.421Z" fill="#455A64"/>
<path d="M339.631 175.866L286.467 206.558C281.617 209.36 277.59 213.387 274.79 218.237C271.99 223.086 270.514 228.588 270.512 234.188L339.631 194.281V175.866Z" fill="#263238"/>
<path d="M274.791 218.235C271.985 223.078 270.508 228.578 270.511 234.176L212.033 200.408C212.031 194.814 213.497 189.317 216.287 184.467L274.791 218.235Z" fill="#37474F"/>
<path d="M238.616 178.944L281.153 154.377L313.049 172.805L270.512 197.359L238.616 178.944Z" fill="#37474F"/>
<path d="M241.273 180.475L270.512 197.359L310.392 174.337L281.153 157.453L241.273 180.475Z" fill="#4675C0"/>
<path d="M281.153 154.377V157.453L241.273 180.475L238.616 178.944L281.153 154.377Z" fill="#263238"/>
<path opacity="0.4" d="M270.066 192.463L268.758 191.677C268.326 191.429 268.326 191.036 268.758 190.787L272.998 188.327C273.239 188.204 273.506 188.14 273.777 188.14C274.048 188.14 274.314 188.204 274.556 188.327L275.864 189.112C276.296 189.361 276.296 189.753 275.864 190.002L271.611 192.463C271.37 192.579 271.106 192.639 270.839 192.639C270.571 192.639 270.307 192.579 270.066 192.463Z" fill="black"/>
<path opacity="0.4" d="M278.77 187.436L277.462 186.651C277.369 186.619 277.289 186.559 277.232 186.479C277.176 186.399 277.145 186.304 277.145 186.206C277.145 186.108 277.176 186.013 277.232 185.933C277.289 185.853 277.369 185.793 277.462 185.761L281.715 183.3C281.956 183.184 282.22 183.124 282.487 183.124C282.755 183.124 283.019 183.184 283.26 183.3L284.569 184.086C284.661 184.118 284.741 184.178 284.798 184.258C284.854 184.337 284.885 184.433 284.885 184.531C284.885 184.628 284.854 184.724 284.798 184.804C284.741 184.883 284.661 184.943 284.569 184.976L280.315 187.436C280.076 187.559 279.811 187.623 279.543 187.623C279.274 187.623 279.009 187.559 278.77 187.436Z" fill="black"/>
<path opacity="0.4" d="M287.461 182.411L286.152 181.639C286.055 181.61 285.97 181.551 285.909 181.469C285.848 181.388 285.816 181.289 285.816 181.188C285.816 181.086 285.848 180.987 285.909 180.906C285.97 180.825 286.055 180.765 286.152 180.736L290.406 178.289C290.645 178.166 290.91 178.102 291.178 178.102C291.447 178.102 291.712 178.166 291.95 178.289L293.259 179.061C293.356 179.09 293.442 179.149 293.502 179.231C293.563 179.312 293.596 179.411 293.596 179.512C293.596 179.614 293.563 179.713 293.502 179.794C293.442 179.875 293.356 179.935 293.259 179.964L289.006 182.411C288.767 182.534 288.502 182.598 288.233 182.598C287.965 182.598 287.7 182.534 287.461 182.411Z" fill="black"/>
<path opacity="0.4" d="M296.126 177.424L294.817 176.639C294.725 176.607 294.645 176.547 294.588 176.467C294.531 176.387 294.501 176.292 294.501 176.194C294.501 176.096 294.531 176.001 294.588 175.921C294.645 175.841 294.725 175.781 294.817 175.749L299.071 173.288C299.31 173.166 299.575 173.102 299.843 173.102C300.112 173.102 300.377 173.166 300.615 173.288L301.924 174.074C302.017 174.106 302.097 174.166 302.153 174.246C302.21 174.326 302.241 174.421 302.241 174.519C302.241 174.617 302.21 174.712 302.153 174.792C302.097 174.872 302.017 174.932 301.924 174.964L297.71 177.424C297.464 177.547 297.193 177.61 296.918 177.61C296.643 177.61 296.372 177.547 296.126 177.424Z" fill="black"/>
<g opacity="0.4">
<path d="M254.243 179.819C255.155 179.368 256.111 179.013 257.096 178.759L257.62 179.466L256.141 179.78C255.683 179.854 255.24 180.005 254.832 180.225C253.523 181.01 254.073 182.175 256.507 183.575C258.942 184.976 260.97 185.329 262.305 184.544C262.625 184.372 262.903 184.131 263.117 183.837L263.614 182.96L264.923 183.274C264.401 183.907 263.788 184.458 263.104 184.91L262.881 185.041C261.616 185.642 260.22 185.913 258.822 185.831C257.424 185.748 256.07 185.315 254.884 184.57C252.267 183.026 251.9 181.18 254.047 179.937L254.243 179.819Z" fill="black"/>
<path d="M269.701 175.945C272.319 177.49 272.646 179.361 270.421 180.657C269.139 181.28 267.72 181.569 266.296 181.495C264.873 181.422 263.491 180.99 262.28 180.238C259.662 178.707 259.348 176.835 261.586 175.553C262.861 174.926 264.275 174.633 265.694 174.701C267.114 174.77 268.492 175.198 269.701 175.945ZM263.929 179.296C266.35 180.696 268.471 180.958 270.002 180.081C271.154 179.414 270.486 178.301 268.078 176.914C265.67 175.526 263.536 175.239 262.018 176.115C260.866 176.783 261.534 177.909 263.929 179.296Z" fill="black"/>
<path d="M270.838 170.343C271.805 169.761 272.904 169.432 274.033 169.389C275.161 169.345 276.282 169.588 277.291 170.095C279.215 171.207 279.136 172.712 277.068 173.943L275.288 174.964L277.67 176.272L276.087 177.189L267.488 172.215L270.838 170.343ZM274.608 174.571L276.048 173.746C277.448 172.935 277.356 171.993 275.655 171.037C274.991 170.608 274.222 170.371 273.432 170.353C272.642 170.334 271.862 170.535 271.179 170.932L269.739 171.77L274.608 174.571Z" fill="black"/>
<path d="M275.564 167.648L277.148 166.561L284.425 167.87L284.084 167.203C283.462 165.974 282.604 164.88 281.558 163.983L283.024 163.315L285.419 167.844L288.888 169.847L287.317 170.763L284.425 169.1L275.564 167.648Z" fill="black"/>
</g>
<path d="M209.024 262.211L267.502 295.966V303.426L209.024 269.658V262.211Z" fill="#263238"/>
<path opacity="0.15" d="M265.198 300.036V335.479L212.033 304.787V270.116L265.198 300.036Z" fill="black"/>
<path d="M265.198 296.619L212.034 265.927L151.382 283.439C150.453 283.714 149.982 284.159 149.982 284.656V288.059C149.982 288.491 150.335 288.962 151.068 289.368L198.566 316.788C200.412 317.727 202.531 317.982 204.547 317.508L265.198 300.009V296.619Z" fill="#37474F"/>
<path d="M265.198 296.619L204.508 314.132C202.492 314.606 200.373 314.351 198.527 313.412L151.029 285.926C149.459 285.023 149.602 283.885 151.343 283.387L211.994 265.875L265.198 296.619Z" fill="#455A64"/>
<path d="M201.392 314.276V317.692C200.404 317.575 199.446 317.278 198.565 316.815L151.068 289.395C150.335 288.963 149.968 288.492 149.982 288.087V284.684C149.982 285.116 150.335 285.587 151.068 285.992L198.565 313.478C199.447 313.925 200.407 314.196 201.392 314.276Z" fill="#263238"/>
<path d="M253.419 289.984C253.419 289.774 253.235 289.539 252.869 289.329L218.486 269.474C217.564 269.009 216.509 268.88 215.502 269.108L162.468 284.486C161.997 284.63 161.761 284.853 161.761 285.102V287.641C161.761 287.85 161.944 288.086 162.311 288.295L196.655 308.15C197.577 308.615 198.632 308.744 199.639 308.517L252.673 293.125C253.131 292.994 253.366 292.784 253.379 292.536L253.419 289.984Z" fill="#EBEBEB"/>
<path d="M252.712 290.6L199.678 305.979C198.671 306.214 197.614 306.084 196.694 305.613L162.311 285.771C161.526 285.313 161.591 284.75 162.468 284.462L215.502 269.083C216.509 268.855 217.564 268.985 218.486 269.45L252.934 289.331C253.654 289.776 253.576 290.352 252.712 290.6Z" fill="#FAFAFA"/>
<path d="M253.418 289.984V292.602C253.418 292.838 253.169 293.06 252.724 293.191L199.691 308.57C199.264 308.683 198.82 308.714 198.382 308.661V306.083C198.821 306.125 199.264 306.089 199.691 305.978L252.724 290.6C253.183 290.456 253.418 290.233 253.418 289.984Z" fill="#F0F0F0"/>
<path d="M542.762 322.533H530.524V344.351H542.762V322.533Z" fill="#FFA8A7"/>
<path d="M500.33 321.368L488.105 321.8L487.49 298.713L500.33 298.268V321.368Z" fill="#FFA8A7"/>
<path d="M544.49 133.592C544.49 145.764 544.189 244.175 544.189 244.175C544.477 247.683 546.139 253.69 545.497 267.145C544.581 285.468 543.338 333.437 543.338 333.437C541.239 334.519 538.92 335.108 536.559 335.158C534.198 335.208 531.856 334.718 529.713 333.725C529.713 333.725 518.143 267.21 515.944 249.096C513.981 233.285 510.774 180.042 510.774 180.042L504.099 241.95C505.514 248.604 506.025 255.419 505.617 262.211C505.042 270.587 501.102 314.21 501.102 314.21C498.989 315.461 496.618 316.212 494.171 316.407C491.724 316.602 489.264 316.236 486.98 315.336C486.98 315.336 477.949 249.266 477.818 241.57C477.661 232.814 481.365 133.461 481.365 133.461L544.49 133.592Z" fill="#455A64"/>
<path d="M530.525 338.057V336.238C529.36 336.761 526.598 347.585 521.782 352.192C517.855 355.857 512.62 360.045 511.311 364.181C510.002 368.317 518.64 370.791 522.253 370.123C526.441 369.351 533.705 366.275 535.524 363.422C537.344 360.569 538.142 356.368 539.686 354.26C541.231 352.153 544.581 349.837 545.38 347.428C545.825 346.12 545.301 343.188 544.686 340.727C544.123 338.476 543.508 336.002 542.762 336.212V337.599C541.04 339.012 538.877 339.776 536.65 339.759C534.857 339.85 530.512 339.484 530.525 338.057Z" fill="#263238"/>
<path d="M487.975 317.874C487.333 317.874 486.81 318.83 485.357 320.413C483.28 322.605 480.846 324.428 478.158 325.806C473.578 328.188 464.664 331.866 460.633 333.763C458.12 334.941 458.238 338.109 460.843 339.915C463.447 341.721 469.73 343.017 477.282 341.224C481.391 340.268 486.744 336.302 490.134 336.525C493.524 336.747 499.859 336.682 502.359 334.889C504.859 333.096 503.864 329.261 503.157 325.963C502.385 322.363 501.416 316.801 500.278 316.997V318.241C498.812 320.557 491.207 321.513 487.988 319.798L487.975 317.874Z" fill="#263238"/>
<path d="M510.774 180.042C504.415 177.957 498.602 174.478 493.759 169.859C493.759 169.859 497.057 176.273 506.847 182.241L504.753 237.5L510.774 180.042Z" fill="#263238"/>
<path d="M500.539 62.2473C489.296 60.2055 483.616 61.6059 478.813 71.0819C474.651 79.2752 464.821 100.714 463.892 105.216C463.054 109.247 470.436 134.9 470.436 134.9L488.891 132.924L482.752 109.889L495.055 85.3612L500.539 62.2473Z" fill="#455A64"/>
<path d="M538.43 70.349C538.43 70.349 551.858 72.0766 548.9 91.1593L544.869 115.386L544.935 158.996C535.93 169.205 487.883 165.03 480.226 146.484C480.226 146.484 481.443 108.096 482.373 88.2276C483.027 74.1053 488.144 59.7474 503.85 62.6792L519.687 64.6686L538.43 70.349Z" fill="#4675C0"/>
<path opacity="0.1" d="M510.919 76.7617L508.733 92.0881L503.21 89.549L509.387 92.9127L510.919 76.7617Z" fill="black"/>
<path d="M523.352 27.6553C523.447 32.3985 521.654 36.9851 518.367 40.4066C515.081 43.828 510.57 45.8041 505.827 45.9004C496.155 45.9004 488.747 37.7202 488.315 27.6553C487.543 9.84207 496.168 9.41016 505.827 9.41016C510.57 9.50639 515.081 11.4825 518.367 14.904C521.654 18.3254 523.447 22.912 523.352 27.6553Z" fill="#263238"/>
<path d="M533.94 20.588C531.885 17.3945 530.014 17.8788 530.014 17.8788L528.705 33.4015L526.545 33.8334L526.362 54.7747C527.522 54.1404 528.442 53.1425 528.98 51.9345C529.7 50.4817 531.257 41.6209 532.121 36.3071C532.055 36.3202 535.642 23.3235 533.94 20.588Z" fill="#263238"/>
<path d="M526.755 37.3791C527.776 38.0073 529.216 35.9786 530.472 34.6175C531.729 33.2563 535.812 31.3846 537.841 35.9263C539.87 40.4679 536.048 46.5147 532.828 47.5618C527.292 49.368 526.454 45.664 526.454 45.664L526.036 66.4875C518.667 77.8743 502.005 77.4686 508 65.9378V59.603C505.532 60.0162 503.025 60.1523 500.526 60.0088C496.456 59.3544 493.891 56.0037 492.673 51.4098C490.697 44.028 489.938 38.0597 491.626 23.5448C493.472 7.62938 511.259 7.47231 520.826 13.7547C530.394 20.0371 526.755 37.3791 526.755 37.3791Z" fill="#FFA8A7"/>
<path d="M526.127 61.6974C524.408 65.196 521.947 68.2779 518.916 70.7283C516.341 72.6304 513.355 73.8993 510.199 74.4323C512.781 76.2012 514.892 78.5733 516.35 81.3429C518.183 85.3872 531.258 76.0422 531.14 68.1368C531.14 68.1368 528.98 58.3991 526.206 57.8887L526.127 61.6974Z" fill="#455A64"/>
<path d="M510.199 74.4326C510.199 74.4326 506.207 72.4432 508 65.8074V59.4727L506.246 59.7082C504.196 61.7009 502.741 64.2253 502.045 66.9984C501.639 68.8177 500.657 78.0057 502.411 79.8381C504.165 81.6704 506.626 74.9299 510.199 74.4326Z" fill="#455A64"/>
<path d="M499.767 22.3016C508.013 22.511 513.13 20.7702 519.949 19.9718C520.385 19.88 520.839 19.9117 521.258 20.0634C522.763 20.744 523.09 25.4166 523.352 26.7778C524.255 31.3325 524.988 39.0546 526.703 39.0938C527.213 39.0938 529.15 35.7563 530.42 34.5522C532.174 32.89 529.909 17.8777 529.909 17.8777C529.831 17.3542 530.302 16.4118 530.328 15.8359C530.338 14.4904 529.966 13.1696 529.255 12.0272C527.86 9.70402 525.699 7.94039 523.143 7.04059C518.523 5.2344 513.457 5.4569 508.863 3.40204C507.103 2.43407 505.27 1.60693 503.379 0.928353C502.426 0.599746 501.402 0.533276 500.414 0.73589C499.427 0.938505 498.511 1.40276 497.764 2.08012C496.962 3.1393 496.48 4.40678 496.377 5.73176C495.515 4.39373 494.338 3.28806 492.948 2.51204C490.265 1.321 486.94 2.9963 485.553 5.58779C484.338 8.29582 484.225 11.3709 485.239 14.1606C485.5 15.0802 485.883 15.9606 486.378 16.7783C488.93 20.888 495.317 22.1838 499.767 22.3016Z" fill="#263238"/>
<path d="M529.948 18.6636L536.087 15.2344C535.905 14.8087 535.636 14.4259 535.296 14.1107C534.957 13.7955 534.556 13.5548 534.118 13.4044C533.68 13.2539 533.216 13.1969 532.755 13.2371C532.293 13.2773 531.846 13.4137 531.44 13.6377C530.616 14.1444 530.008 14.9376 529.733 15.8651C529.457 16.7926 529.534 17.7892 529.948 18.6636Z" fill="#263238"/>
<path d="M508.013 59.472C508.013 59.472 517.109 57.5611 520.29 55.8073C522.183 54.7752 523.717 53.191 524.687 51.2656C524.214 53.197 523.365 55.0162 522.188 56.6187C519.871 59.7207 508.013 61.998 508.013 61.998V59.472Z" fill="#F28F8F"/>
<path d="M510.198 34.9441C510.226 35.2996 510.358 35.6392 510.576 35.9213C510.794 36.2033 511.09 36.4156 511.427 36.532C511.764 36.6485 512.127 36.6641 512.473 36.5769C512.819 36.4897 513.132 36.3035 513.373 36.0411C513.615 35.7788 513.775 35.4517 513.833 35.0999C513.891 34.7481 513.846 34.3869 513.702 34.0607C513.558 33.7344 513.322 33.4572 513.023 33.2631C512.724 33.069 512.374 32.9663 512.018 32.9678C511.515 32.9916 511.043 33.2124 510.702 33.5824C510.362 33.9523 510.181 34.4416 510.198 34.9441Z" fill="#263238"/>
<path d="M512.476 27.9567L516.403 30.1948C516.685 29.6396 516.747 28.9983 516.578 28.399C516.408 27.7997 516.018 27.2865 515.486 26.962C515.227 26.8139 514.939 26.722 514.641 26.6922C514.344 26.6625 514.044 26.6956 513.76 26.7894C513.476 26.8832 513.215 27.0355 512.994 27.2366C512.773 27.4377 512.596 27.6831 512.476 27.9567Z" fill="#263238"/>
<path d="M508.837 48.0605L504.675 49.6966C504.756 49.9834 504.895 50.2504 505.084 50.4807C505.273 50.711 505.508 50.8998 505.774 51.035C506.039 51.1702 506.33 51.249 506.627 51.2665C506.925 51.2839 507.223 51.2396 507.502 51.1363C508.07 50.8849 508.523 50.429 508.77 49.8591C509.018 49.2893 509.041 48.6472 508.837 48.0605Z" fill="#F28F8F"/>
<path d="M493.825 30.3508L497.372 27.4976C497.213 27.2484 497.003 27.0357 496.756 26.8734C496.509 26.7111 496.231 26.6029 495.939 26.5559C495.647 26.5089 495.349 26.5243 495.063 26.6008C494.778 26.6774 494.512 26.8135 494.283 27.0002C493.806 27.4033 493.495 27.9688 493.41 28.5876C493.326 29.2063 493.474 29.8345 493.825 30.3508Z" fill="#263238"/>
<path d="M495.068 34.409C495.096 34.7639 495.227 35.103 495.444 35.3848C495.662 35.6666 495.957 35.8789 496.293 35.9958C496.629 36.1127 496.992 36.129 497.338 36.0429C497.683 35.9568 497.996 35.7719 498.238 35.5108C498.48 35.2497 498.641 34.9237 498.701 34.5728C498.761 34.2218 498.717 33.861 498.575 33.5345C498.433 33.208 498.199 32.9299 497.902 32.7342C497.604 32.5385 497.256 32.4337 496.9 32.4326C496.65 32.441 496.404 32.499 496.176 32.603C495.948 32.7071 495.743 32.8553 495.572 33.039C495.402 33.2228 495.27 33.4384 495.183 33.6736C495.096 33.9087 495.057 34.1586 495.068 34.409Z" fill="#263238"/>
<path d="M504.794 32.8779L504.584 44.3956L498.04 42.9036L504.794 32.8779Z" fill="#F28F8F"/>
<path d="M437.074 159.114L492.581 191.22V157.164L437.074 125.059V159.114Z" fill="#E0E0E0"/>
<path d="M531.061 168.996L492.581 191.22V157.164L531.061 134.953V168.996Z" fill="#F0F0F0"/>
<path d="M437.074 125.059L475.554 102.848L531.061 134.953L492.581 157.177L437.074 125.059Z" fill="#FAFAFA"/>
<path opacity="0.1" d="M466 153.211L492.582 168.564L508.537 159.349L492.582 169.506L466 153.211Z" fill="black"/>
<path opacity="0.1" d="M450.044 152.584L492.581 177.138L524.477 158.722L492.581 178.067L450.044 152.584Z" fill="black"/>
<path opacity="0.1" d="M442.414 137.689C441.958 140.157 441.808 142.672 441.969 145.176C441.969 145.176 448.932 145.006 460.685 148.239L442.414 137.689Z" fill="black"/>
<path d="M442.415 137.689L460.686 148.239L440.465 142.414L442.415 137.689Z" fill="#FAFAFA"/>
<path opacity="0.1" d="M466 167.125L486.025 185.54C486.025 185.54 486.588 183.014 490.436 181.234L466 167.125Z" fill="black"/>
<path d="M466 167.125L484.808 182.962L490.436 181.234L466 167.125Z" fill="#FAFAFA"/>
<path opacity="0.1" d="M524.648 148.485L524.478 148.236L511.822 155.553L526.075 154.375C526.324 152.304 525.817 150.213 524.648 148.485Z" fill="black"/>
<path d="M511.822 155.553L524.478 148.236L528.692 150.461L511.822 155.553Z" fill="#FAFAFA"/>
<g opacity="0.3">
<path d="M446.851 127.427C446.763 127.426 446.678 127.403 446.602 127.359C446.527 127.316 446.464 127.253 446.419 127.178C446.386 127.123 446.365 127.061 446.357 126.997C446.349 126.933 446.353 126.868 446.37 126.806C446.387 126.744 446.416 126.686 446.456 126.635C446.496 126.584 446.546 126.542 446.602 126.511L478.498 108.056C478.613 107.994 478.749 107.978 478.875 108.012C479.002 108.046 479.111 108.127 479.179 108.24C479.211 108.295 479.232 108.357 479.241 108.421C479.249 108.485 479.245 108.55 479.228 108.612C479.211 108.674 479.181 108.732 479.141 108.783C479.102 108.834 479.052 108.876 478.996 108.907L447.099 127.322C447.026 127.376 446.941 127.412 446.851 127.427Z" fill="#455A64"/>
<path d="M452.165 130.501C452.08 130.501 451.996 130.477 451.922 130.433C451.849 130.39 451.788 130.327 451.746 130.253C451.712 130.198 451.688 130.137 451.678 130.074C451.668 130.01 451.671 129.945 451.686 129.882C451.702 129.819 451.731 129.761 451.771 129.71C451.81 129.659 451.86 129.616 451.917 129.585L483.826 111.17C483.881 111.137 483.942 111.115 484.005 111.106C484.068 111.096 484.133 111.1 484.195 111.116C484.257 111.131 484.316 111.159 484.367 111.198C484.418 111.236 484.461 111.285 484.493 111.34C484.526 111.396 484.547 111.457 484.555 111.521C484.564 111.585 484.559 111.65 484.542 111.712C484.525 111.774 484.496 111.833 484.456 111.883C484.416 111.934 484.366 111.976 484.31 112.008L452.414 130.436C452.337 130.476 452.252 130.498 452.165 130.501Z" fill="#455A64"/>
<path d="M457.479 133.565C457.393 133.565 457.31 133.541 457.236 133.498C457.162 133.454 457.102 133.392 457.06 133.317C456.998 133.203 456.982 133.07 457.017 132.946C457.051 132.821 457.132 132.715 457.243 132.649L489.14 114.234C489.195 114.202 489.257 114.182 489.321 114.174C489.385 114.166 489.449 114.17 489.511 114.187C489.573 114.204 489.631 114.233 489.682 114.273C489.733 114.312 489.775 114.361 489.807 114.417C489.839 114.473 489.859 114.535 489.867 114.598C489.875 114.662 489.871 114.727 489.854 114.789C489.837 114.851 489.808 114.909 489.768 114.96C489.729 115.01 489.68 115.053 489.624 115.085L457.728 133.5C457.654 133.547 457.567 133.57 457.479 133.565Z" fill="#455A64"/>
<path d="M462.805 136.641C462.718 136.64 462.633 136.617 462.557 136.573C462.481 136.53 462.418 136.467 462.373 136.392C462.341 136.337 462.32 136.275 462.311 136.211C462.303 136.147 462.308 136.082 462.325 136.02C462.342 135.958 462.371 135.9 462.411 135.849C462.451 135.798 462.5 135.756 462.557 135.725L494.453 117.31C494.508 117.274 494.57 117.251 494.634 117.24C494.699 117.229 494.765 117.232 494.828 117.247C494.892 117.263 494.952 117.291 495.004 117.33C495.056 117.369 495.1 117.419 495.133 117.475C495.166 117.532 495.187 117.595 495.195 117.66C495.202 117.725 495.197 117.79 495.179 117.853C495.16 117.916 495.13 117.974 495.088 118.025C495.046 118.076 494.995 118.117 494.937 118.147L463.041 136.576C462.969 136.617 462.888 136.64 462.805 136.641Z" fill="#455A64"/>
<path d="M468.119 139.704C468.032 139.703 467.946 139.68 467.871 139.636C467.795 139.593 467.732 139.53 467.687 139.456C467.625 139.342 467.609 139.209 467.643 139.085C467.678 138.96 467.759 138.854 467.87 138.788L499.766 120.373C499.882 120.31 500.017 120.294 500.143 120.328C500.27 120.362 500.379 120.444 500.447 120.556C500.48 120.612 500.501 120.673 500.509 120.737C500.517 120.801 500.513 120.866 500.496 120.928C500.479 120.991 500.449 121.049 500.41 121.099C500.37 121.15 500.32 121.192 500.264 121.224L468.368 139.639C468.293 139.685 468.206 139.707 468.119 139.704Z" fill="#455A64"/>
<path d="M473.433 142.78C473.348 142.779 473.264 142.755 473.19 142.712C473.117 142.668 473.056 142.606 473.014 142.531C472.98 142.477 472.956 142.416 472.946 142.352C472.936 142.288 472.939 142.223 472.955 142.16C472.971 142.098 472.999 142.039 473.039 141.988C473.078 141.937 473.128 141.894 473.185 141.863L505.081 123.448C505.194 123.381 505.329 123.361 505.456 123.393C505.584 123.425 505.694 123.506 505.761 123.618C505.824 123.734 505.84 123.869 505.806 123.995C505.772 124.122 505.69 124.231 505.578 124.299L473.682 142.714C473.605 142.754 473.52 142.776 473.433 142.78Z" fill="#455A64"/>
<path d="M478.747 145.841C478.663 145.843 478.579 145.822 478.506 145.78C478.432 145.739 478.371 145.678 478.329 145.605C478.261 145.492 478.241 145.357 478.273 145.23C478.305 145.102 478.386 144.993 478.499 144.925L510.408 126.509C510.464 126.478 510.525 126.457 510.589 126.449C510.653 126.441 510.718 126.446 510.78 126.463C510.842 126.48 510.9 126.509 510.95 126.548C511.001 126.588 511.044 126.637 511.075 126.693C511.107 126.749 511.128 126.81 511.136 126.874C511.144 126.938 511.139 127.002 511.122 127.064C511.105 127.126 511.076 127.184 511.037 127.235C510.997 127.286 510.948 127.328 510.892 127.36L478.996 145.775C478.922 145.823 478.835 145.846 478.747 145.841Z" fill="#455A64"/>
<path d="M484.061 148.917C483.976 148.915 483.893 148.891 483.819 148.848C483.746 148.804 483.685 148.743 483.642 148.669C483.61 148.613 483.589 148.551 483.581 148.487C483.572 148.424 483.577 148.359 483.594 148.296C483.611 148.234 483.64 148.176 483.68 148.125C483.72 148.075 483.769 148.032 483.826 148.001L515.722 129.586C515.777 129.553 515.838 129.531 515.901 129.522C515.964 129.512 516.029 129.516 516.091 129.532C516.153 129.547 516.212 129.575 516.263 129.614C516.314 129.652 516.357 129.701 516.389 129.756C516.422 129.813 516.443 129.875 516.452 129.94C516.461 130.005 516.456 130.071 516.439 130.134C516.422 130.198 516.393 130.257 516.353 130.309C516.313 130.361 516.263 130.404 516.206 130.437L484.31 148.852C484.234 148.894 484.148 148.916 484.061 148.917Z" fill="#455A64"/>
<path d="M489.388 151.98C489.302 151.982 489.217 151.961 489.141 151.92C489.066 151.878 489.002 151.818 488.957 151.745C488.894 151.63 488.878 151.495 488.912 151.368C488.946 151.241 489.028 151.132 489.14 151.064L521.036 132.649C521.092 132.617 521.153 132.595 521.217 132.587C521.281 132.579 521.346 132.583 521.408 132.6C521.47 132.617 521.529 132.647 521.579 132.687C521.63 132.726 521.672 132.776 521.703 132.832C521.738 132.887 521.762 132.948 521.772 133.011C521.782 133.075 521.779 133.14 521.763 133.203C521.747 133.266 521.719 133.324 521.679 133.375C521.64 133.426 521.59 133.469 521.533 133.5L489.624 151.915C489.554 151.961 489.472 151.983 489.388 151.98Z" fill="#455A64"/>
</g>
<path d="M542.474 71.8809C546.911 73.0326 550.837 74.3284 553.756 80.1003C557.499 87.4952 573.689 126.812 573.179 129.836C572.263 135.241 549.005 157.989 541.492 166.679C536.518 172.425 527.187 177.909 519.163 180.605C512.109 182.961 511.193 180.488 511.193 180.488L525.943 171.967C526.794 171.391 528.652 169.245 526.467 169.232C524.7 169.232 522.933 169.441 521.166 169.297C519.656 169.301 518.182 168.844 516.938 167.988C516.649 167.799 516.447 167.502 516.376 167.164C516.37 167.007 516.396 166.851 516.453 166.705C516.509 166.559 516.594 166.425 516.703 166.313C517.123 166.009 517.599 165.791 518.103 165.672C518.647 165.468 519.202 165.298 519.765 165.161C520.891 164.886 522.056 164.677 523.168 164.337C524.935 163.8 526.545 163.407 527.841 163.028C529.609 162.46 531.111 161.269 532.068 159.677C534.791 155.908 536.649 152.819 537.592 151.366C540.38 147.06 550.458 131.734 553.363 127.179L537.853 98.4763C532.801 91.0421 535.118 71.8809 542.474 71.8809Z" fill="#FFA8A7"/>
<path d="M539.11 70.4922C539.11 70.4922 547.539 72.4816 550.144 74.5757C552.748 76.6699 554.698 79.6933 559.305 90.2817C563.912 100.87 572.106 123.317 573.166 126.379C574.226 129.442 574.71 131.13 569.331 137.308C565.404 141.758 560.169 146.614 560.169 146.614C560.169 146.614 550.366 145.305 547.644 135.947L552.604 127.112C552.604 127.112 537.958 101.224 536.1 95.7003C534.59 91.5567 534.076 87.1162 534.599 82.7373C535.122 78.3584 536.667 74.1638 539.11 70.4922Z" fill="#455A64"/>
</svg>
